<?xml version="1.0" encoding="UTF-8"?>
<svg width="152px" height="60px" viewBox="0 0 152 60" version="1.1" xmlns="http://www.w3.org/2000/svg" xmlns:xlink="http://www.w3.org/1999/xlink">
    <!-- Generator: Sketch 43.1 (39012) - http://www.bohemiancoding.com/sketch -->
    <title>logo</title>
    <desc>Created with Sketch.</desc>
    <defs>
        <linearGradient x1="50%" y1="0%" x2="50%" y2="100%" id="linearGradient-1">
            <stop stop-color="#0287D0" offset="0%"></stop>
            <stop stop-color="#0381C9" offset="100%"></stop>
        </linearGradient>
        <linearGradient x1="50%" y1="0%" x2="50%" y2="100%" id="linearGradient-2">
            <stop stop-color="#FAB411" offset="0%"></stop>
            <stop stop-color="#FDD507" offset="100%"></stop>
        </linearGradient>
        <linearGradient x1="50%" y1="3.36615115%" x2="50%" y2="98.2581314%" id="linearGradient-3">
            <stop stop-color="#FFD335" offset="0%"></stop>
            <stop stop-color="#E9773A" offset="100%"></stop>
        </linearGradient>
        <linearGradient x1="97.8085258%" y1="81.6480999%" x2="4.216544%" y2="100%" id="linearGradient-4">
            <stop stop-color="#0FA861" offset="0%"></stop>
            <stop stop-color="#28B23B" offset="100%"></stop>
        </linearGradient>
        <linearGradient x1="97.8085258%" y1="81.6480999%" x2="4.216544%" y2="100%" id="linearGradient-5">
            <stop stop-color="#019147" offset="0%"></stop>
            <stop stop-color="#019147" offset="100%"></stop>
        </linearGradient>
    </defs>
    <g id="Home" stroke="none" stroke-width="1" fill="none" fill-rule="evenodd">
        <g id="home" transform="translate(-130.000000, -10.000000)">
            <g id="logo" transform="translate(130.000000, 10.000000)">
                <g id="Group-34">
                    <path d="M53.9452643,43.9334661 C51.9580978,48.8356849 45.1437956,49.9170567 44.2606105,50.0612396 C44.113413,50.0972854 44.0398142,50.0612396 44.0398142,50.277514 C44.0398142,51.1426114 44.2942547,52.5937977 45.5,52.8349468 C48,53.3349468 51.5,50.277514 51.5,50.277514 C51.5,50.277514 50,54.3349468 45.5,54.8349468 C44.5250003,54.9432801 40,55.3349468 40.476691,49.9170567 C39.5935059,49.7728738 34,48.2589533 34,46.5287584 C34,46.2192212 34.1982608,46.1013773 34.1982608,46.1013773 C34.1982608,46.1013773 35.4702919,47.8349468 40.476691,47.8349468 C43,47.8349468 49.6029374,46.8349468 51.5,42.8349468 C52.3045716,41.1384891 50,40.8349468 48.7197523,41.0590883 C47.0367706,41.3537392 44.5,43.3349468 44.2606105,45.8349468 C44.113413,46.0512211 42.4638575,46.1683012 41.4334749,46.1683012 L40.9918823,46.1683012 C40.9182836,46.0962097 40.9182836,46.1683012 40.9182836,45.9520268 C40.9182836,45.8078439 41.2862774,44.5822892 41.5070737,44.0055575 C43.1998452,39.8963447 47.1126445,37.757046 50.1917275,38.0219669 C55.6380358,38.4905614 54.4966235,42.5732967 53.9452643,43.9334661 Z" id="Combined-Shape" fill="#FFFFFF"></path>
                    <path d="M18.8065803,47.8318108 C18.8412202,52.314933 20.1621817,56.4839699 22.409126,59.9998619 C26.666027,58.5568477 31.7580867,58.0107966 37.1665519,58.5585409 C30.0674925,55.0320665 25.3138051,48.727504 25.2580434,41.496771 C25.2103079,35.373379 28.543761,29.8624955 33.842815,26.1082881 C25.0071156,29.3414187 18.7292743,37.8674358 18.8065803,47.8318108" id="Fill-10" fill="url(#linearGradient-1)"></path>
                    <path d="M33.6437202,26.2510233 C33.075542,26.4588614 32.8592541,26.6870176 32.3130426,26.9376085 C26.9248544,30.2672506 23.4904388,39.0878813 23.5124055,41.8790915 C23.5719692,49.5720631 28.8862309,55.9121824 36.6607677,58.4769295 C36.7980598,58.4892051 36.9340847,58.4993642 37.0717992,58.513333 C29.9723173,54.9868585 25.4560397,48.8676994 25.3998556,41.6369665 C25.3521202,35.5131511 28.3450887,30.0052307 33.6437202,26.2510233" id="Fill-12" fill="#29A7E1"></path>
                    <g id="Group" transform="translate(1.565303, 15.613636)"></g>
                    <g id="Group-7" transform="translate(1.973643, 24.000000)">
                        <path d="M5.96095748,7.0681679 C2.86364691,10.3034151 0.906072284,14.2133952 0.0662668557,18.3024293 C4.12039799,20.2457787 8.14791558,23.4154151 11.6402051,27.5899548 C9.0113775,20.0997418 9.99776868,12.2603099 14.9935126,7.04234687 C19.2242226,2.62314233 25.4496816,1.00742358 31.8597458,2.02375597 C23.279621,-1.83923835 12.8454188,-0.122775284 5.96095748,7.0681679" id="Fill-6" fill="url(#linearGradient-2)"></path>
                        <path d="M31.6177737,1.98697159 C31.0660705,1.73849716 30.7521996,1.75034943 30.1869784,1.5484375 C24.038403,0.171880682 17.7339481,1.64918182 13.4770471,6.09547727 C8.1619405,11.6469972 7.55236342,19.9042216 11.3348673,27.1777074 C11.4244241,27.2826847 11.5148257,27.3851222 11.6035375,27.4913693 C8.97513237,20.0011563 10.0020775,12.4597244 14.9978215,7.24176136 C19.2285315,2.82255682 25.208132,0.970639205 31.6177737,1.98697159" id="Fill-8" fill="url(#linearGradient-3)"></path>
                    </g>
                    <g id="Group-6" transform="translate(21.710071, 0.000000)">
                        <path d="M10.8199336,0.000126988636 C8.28235254,1.37668381 6.28760343,2.5039196 0.0215903883,2.57418665 C6.76326787,5.70234006 12.7652576,13.0951952 12.7652576,21.0480702 C12.7652576,22.7463315 12.5515043,24.394644 12.1501888,25.9671866 C14.9154636,22.585056 16.5671936,18.3377094 16.5671936,13.7204026 C16.5671936,8.40465824 14.3798131,3.57782017 10.8199336,0.000126988636" id="Fill-14" fill="url(#linearGradient-1)"></path>
                        <path d="M12.4453458,13.0666227 C10.3454098,7.75299489 5.81223469,4.05889545 0.40038995,2.56804886 C0.27492606,2.57016534 0.150729483,2.57312841 0.0214636571,2.5743983 C6.76314114,5.70212841 12.7651308,13.0949835 12.7651308,21.0482818 C12.7651308,22.7465432 12.5513776,24.3948557 12.1500621,25.9673983 C12.2759484,25.813742 12.396343,25.6562761 12.5175826,25.4988102 C13.9694997,21.5168699 14.0582115,17.1480375 12.4453458,13.0666227" id="Fill-16" fill="#29A7E1"></path>
                    </g>
                    <g id="Group-3" transform="translate(33.892211, 0.750000)">
                        <path d="M17.1316436,5.71319347 C14.3545405,4.92840369 12.140124,4.34425597 7.59681039,0.0190230114 C10.2568983,6.96995767 9.4196275,16.4632048 3.88865543,22.1671111 C2.70752063,23.3853554 1.40810338,24.4181963 0.0267332834,25.2656338 C4.36220769,24.7712247 8.50040385,22.8778241 11.7117725,19.5663838 C15.4085217,15.7541849 17.1966989,10.7648014 17.1316436,5.71319347" id="Fill-18" fill="url(#linearGradient-2)"></path>
                        <path d="M9.21026756,16.2194713 C11.3993378,10.9422469 10.717524,5.12743722 7.87283094,0.27901108 C7.78116204,0.193082102 7.69033801,0.107999716 7.59697936,0.0191076705 C10.2566448,6.97004233 9.41979648,16.4632895 3.88882441,22.1671957 C2.70768961,23.3850168 1.40827236,24.4178577 0.0269022583,25.2657185 C0.223758058,25.2432838 0.419768983,25.2144997 0.615779908,25.1865622 C4.42658714,23.3443804 7.52896695,20.2729486 9.21026756,16.2194713" id="Fill-20" fill="url(#linearGradient-3)"></path>
                    </g>
                    <g id="Group-4" transform="translate(33.824154, 13.431818)">
                        <path d="M25.9330067,10.8302185 C24.5110827,8.31415028 23.3485351,6.33736051 23.1584383,0.0611588068 C20.1663146,6.87494574 12.9041943,13.0288151 4.96870895,13.1803548 C3.27389035,13.2125253 1.62553985,13.0300849 0.0485812662,12.6580082 C3.47581539,15.3641361 7.74538957,16.9375253 12.3524912,16.8494798 C17.6566144,16.7483122 22.4310012,14.4646332 25.9330067,10.8302185" id="Fill-22" fill="url(#linearGradient-4)"></path>
                        <path d="M23.1721675,0.440219886 C23.1675207,0.314924432 23.1624515,0.190052273 23.1586495,0.0609471591 C20.1661034,6.87473409 12.9039831,13.0286034 4.96849773,13.1801432 C3.27410156,13.2127369 1.62532863,13.0298733 0.0487924848,12.6577966 C0.204249425,12.7809756 0.363508302,12.8986517 0.522767179,13.0171744 C4.52409365,14.3958477 8.88491429,14.4013506 12.9263723,12.7077455 C18.1882518,10.5023761 21.7878404,5.89099545 23.1721675,0.440219886 Z" id="Fill-24" fill="url(#linearGradient-5)"></path>
                    </g>
                    <g id="Group-2" transform="translate(0.000000, 10.636364)">
                        <path d="M12.2392368,0.0456744318 C7.7652029,0.0456744318 3.59405662,1.33672557 0.0679721608,3.56071989 C1.47511094,7.83727386 1.98034599,12.9439102 1.39146834,18.359129 C4.9661331,11.2731631 11.2946669,6.55934489 18.5111639,6.55934489 C24.6225649,6.55934489 30.0956631,9.94232216 33.8008609,15.2809244 C30.6431418,6.40230227 22.1838341,0.0456744318 12.2392368,0.0456744318" id="Fill-1" fill="url(#linearGradient-4)"></path>
                        <path d="M33.6602316,15.080367 C33.4570392,14.5093415 33.2314577,14.290921 32.9855991,13.7419068 C29.7205809,8.34319659 24.2918387,4.80698636 18.1432632,4.80698636 C10.4654646,4.80698636 4.0967993,10.0825176 1.47726537,17.8529523 C1.46374737,17.9901 1.45234156,18.1268244 1.43755626,18.2643955 C5.01222101,11.1780063 11.1540375,6.70038693 18.3701121,6.70038693 C24.4815131,6.70038693 29.9550337,9.74176477 33.6602316,15.080367" id="Fill-4" fill="url(#linearGradient-5)"></path>
                    </g>
                    <path d="M75.2792969,50.0171684 C75.2792969,51.3062373 74.9423862,52.4165778 74.2685547,53.3482231 C73.5947232,54.2798683 72.6777402,55.0503685 71.5175781,55.6597465 C70.4980418,56.1988117 69.2412184,56.5972452 67.7470703,56.855059 C66.2529222,57.1128728 63.2207031,57.2417777 63.2207031,57.2417777 L58,52.355059 C58.1406257,52.3784966 58.6767532,52.4165822 59.6083984,52.4693168 C60.5400437,52.5220514 61.3749963,52.5484184 62.1132812,52.5484184 C62.6640653,52.5484184 63.3496053,52.5015438 64.1699219,52.4077934 C64.9902385,52.3140429 65.6757785,52.1851379 66.2265625,52.0210746 C66.9648474,51.7984173 67.4833969,51.5142404 67.7822266,51.1685356 C68.0810562,50.8228307 68.2304688,50.3980303 68.2304688,49.8941215 C68.2304688,49.3316187 68.0664079,48.8599437 67.7382812,48.4790824 C67.4101546,48.0982212 66.8476602,47.7027173 66.0507812,47.292559 C65.5585913,47.046464 64.8935589,46.7359202 64.0556641,46.3609184 C63.2177692,45.9859165 62.500003,45.6109202 61.9023438,45.2359184 C60.7539005,44.5445087 59.9306666,43.7652196 59.4326172,42.8980277 C58.9345678,42.0308359 58.6855469,41.069908 58.6855469,40.0152152 C58.6855469,39.112867 58.8701153,38.3013517 59.2392578,37.5806449 C59.6084003,36.8599382 60.0976532,36.2417803 60.7070312,35.7261527 C61.6328171,34.8823985 62.8925702,34.2320144 64.4863281,33.7749809 C66.0800861,33.3179473 67.9609267,33.089434 70.1289062,33.089434 C71.1601614,33.089434 74.7871094,37.9409965 74.7871094,37.9409965 C74.4941392,37.9292777 74.0312532,37.8970514 73.3984375,37.8443168 C72.7656218,37.7915822 71.9746141,37.7652152 71.0253906,37.7652152 C70.3691373,37.7652152 69.7392608,37.8120898 69.1357422,37.9058402 C68.5322235,37.9995907 67.9550809,38.1402143 67.4042969,38.3277152 C66.8886693,38.4917786 66.4814468,38.7378699 66.1826172,39.0659965 C65.8837876,39.3941231 65.734375,39.7925567 65.734375,40.261309 C65.734375,40.6949049 65.8984359,41.1021274 66.2265625,41.4829887 C66.5546891,41.86385 67.1289021,42.2710725 67.9492188,42.7046684 C68.4882839,42.974201 69.1181605,43.2730261 69.8388672,43.6011527 C70.5595739,43.9292794 71.2656215,44.292557 71.9570312,44.6909965 C73.0703181,45.3589686 73.902341,46.1294687 74.453125,47.0025199 C75.003909,47.8755712 75.2792969,48.8804439 75.2792969,50.0171684 Z M85.0153127,34.7845903 C85.0153127,36.3227034 83.7652959,37.5695904 82.2303126,37.5695904 L82.2303126,37.5695904 C80.6921995,37.5695904 79.4453125,36.3197576 79.4453125,34.7850001 L79.4453125,34.7850001 C79.4453125,33.2471133 80.6953293,32.0002258 82.2303126,32 L85.0153127,31.9995902 L85.0153127,34.7845903 Z M84.9296875,56.8902152 L79.5332031,56.8902152 C79.5332031,56.3277124 79.5419921,55.1324119 79.5595703,53.3042777 C79.5771485,51.4761436 79.5859375,49.7652232 79.5859375,48.1714652 C79.5859375,46.8238023 79.5332031,43.4341606 79.5332031,43.4341606 L84.8945312,40.3902152 C84.8828124,42.0660049 84.9033204,42.1157946 84.8857422,43.4341606 C84.868164,44.7525265 84.859375,46.2495819 84.859375,47.9253715 C84.859375,50.5972599 84.8710936,52.627513 84.8945312,54.0161918 C84.9179689,55.4048706 84.9296875,56.3628689 84.9296875,56.8902152 Z M107.447266,56.8726371 C107.001951,56.8726371 105.850595,56.8667778 103.993164,56.855059 C102.135733,56.8433402 100.339852,56.8374809 98.6054688,56.8374809 C97.2226493,56.8374809 95.8720769,56.8433402 94.5537109,56.855059 C93.235345,56.8667778 91.9550843,56.8726371 90.7128906,56.8726371 C90.7246094,54.9038773 90.7392577,52.7828047 90.7568359,50.5093559 C90.7744142,48.235907 90.7832031,46.2437394 90.7832031,44.5327934 C90.7832031,41.4507467 90.7744142,38.9869042 90.7568359,37.1411918 C90.7392577,35.2954795 90.7246094,34.0327968 90.7128906,33.3531059 L96.53125,33.3531059 C96.5195312,34.7710817 96.5078126,36.3560268 96.4960938,38.1079887 C96.4843749,39.8599506 96.4785156,41.4859109 96.4785156,42.9859184 C96.4785156,45.2359296 96.4843749,47.2486048 96.4960938,49.0240043 C96.5078126,50.7994038 96.5136719,53.8042764 96.5136719,54.073809 L107.447266,54.073809 L107.447266,56.8726371 Z M116.992188,56.8902152 L111.173828,56.8902152 C111.185547,56.4917758 111.200195,55.1587813 111.217773,52.8911918 C111.235352,50.6236023 111.244141,47.626562 111.244141,43.8999809 C111.244141,42.5171615 111.235352,40.8882715 111.217773,39.0132621 C111.200195,37.1382527 111.185547,35.2515529 111.173828,33.3531059 L116.992188,33.3531059 C116.980469,35.0640519 116.96875,37.0269229 116.957031,39.2417777 C116.945312,41.4566326 116.939453,43.4546595 116.939453,45.2359184 C116.939453,48.4937472 116.945312,51.1509472 116.957031,53.2075981 C116.96875,55.264249 116.980469,56.4917758 116.992188,56.8902152 Z M134.216797,57.3296684 L127.345703,57.3296684 C124.91991,54.3179346 122.655284,51.6255787 120.551758,49.2525199 C118.448232,46.8794612 117.285157,45.5933412 117.0625,45.3941215 C117.683597,44.5562269 124.46874,36.038666 126.414063,33.3902152 L130.216797,36.3902152 C130.216797,36.3902152 123.533205,44.5620886 123.216797,44.8902152 C123.369141,45.077716 134.216797,57.3296684 134.216797,57.3296684 Z M151.199219,50.0171684 C151.199219,51.3062373 150.862308,52.4165778 150.188477,53.3482231 C149.514645,54.2798683 148.597662,55.0503685 147.4375,55.6597465 C146.417964,56.1988117 145.16114,56.5972452 143.666992,56.855059 C142.172844,57.1128728 140.66407,57.2417777 139.140625,57.2417777 C138.039057,57.2417777 133.919922,52.355059 133.919922,52.355059 C134.060548,52.3784966 134.596675,52.4165822 135.52832,52.4693168 C136.459966,52.5220514 137.294918,52.5484184 138.033203,52.5484184 C138.583987,52.5484184 139.269527,52.5015438 140.089844,52.4077934 C140.91016,52.3140429 141.5957,52.1851379 142.146484,52.0210746 C142.884769,51.7984173 143.403319,51.5142404 143.702148,51.1685356 C144.000978,50.8228307 144.150391,50.3980303 144.150391,49.8941215 C144.150391,49.3316187 143.98633,48.8599437 143.658203,48.4790824 C143.330076,48.0982212 142.767582,47.7027173 141.970703,47.292559 C141.478513,47.046464 140.813481,46.7359202 139.975586,46.3609184 C139.137691,45.9859165 138.419925,45.6109202 137.822266,45.2359184 C136.673822,44.5445087 135.850588,43.7652196 135.352539,42.8980277 C134.85449,42.0308359 134.605469,41.069908 134.605469,40.0152152 C134.605469,39.112867 134.790037,38.3013517 135.15918,37.5806449 C135.528322,36.8599382 136.017575,36.2417803 136.626953,35.7261527 C137.552739,34.8823985 138.812492,34.2320144 140.40625,33.7749809 C142.000008,33.3179473 143.880849,33.089434 146.048828,33.089434 C147.080083,33.089434 150.707031,37.9409965 150.707031,37.9409965 C150.414061,37.9292777 149.951175,37.8970514 149.318359,37.8443168 C148.685544,37.7915822 147.894536,37.7652152 146.945312,37.7652152 C146.289059,37.7652152 145.659183,37.8120898 145.055664,37.9058402 C144.452145,37.9995907 143.875003,38.1402143 143.324219,38.3277152 C142.808591,38.4917786 142.401369,38.7378699 142.102539,39.0659965 C141.803709,39.3941231 141.654297,39.7925567 141.654297,40.261309 C141.654297,40.6949049 141.818358,41.1021274 142.146484,41.4829887 C142.474611,41.86385 143.048824,42.2710725 143.869141,42.7046684 C144.408206,42.974201 145.038082,43.2730261 145.758789,43.6011527 C146.479496,43.9292794 147.185543,44.292557 147.876953,44.6909965 C148.99024,45.3589686 149.822263,46.1294687 150.373047,47.0025199 C150.923831,47.8755712 151.199219,48.8804439 151.199219,50.0171684 Z" id="SiLKS" fill="#FFFFFF"></path>
                </g>
            </g>
        </g>
    </g>
</svg>