<?xml version="1.0" encoding="UTF-8"?>
<svg width="28px" height="28px" viewBox="0 0 28 28" version="1.1" xmlns="http://www.w3.org/2000/svg" xmlns:xlink="http://www.w3.org/1999/xlink">
    <title>furn-solid</title>
    <defs>
        <filter id="filter-1">
            <feColorMatrix in="SourceGraphic" type="matrix" values="0 0 0 0 0.176471 0 0 0 0 0.203922 0 0 0 0 0.211765 0 0 0 1.000000 0"></feColorMatrix>
        </filter>
    </defs>
    <g id="Pages" stroke="none" stroke-width="1" fill="none" fill-rule="evenodd">
        <g id="HH_HD_home_v0.55" transform="translate(-410.000000, -642.000000)">
            <g id="Group-42" transform="translate(50.000000, 20.000000)">
                <g id="Group-33" transform="translate(340.000000, 604.000000)">
                    <g id="furn-solid" transform="translate(20.000000, 18.000000)" filter="url(#filter-1)">
                        <g>
                            <polygon id="Rectangle" fill="#FFFFFF" points="10 9 18 9 23 20 5 20"></polygon>
                            <polygon id="Rectangle-Copy-3" fill="#FFFFFF" transform="translate(14.000000, 21.500000) scale(1, -1) translate(-14.000000, -21.500000) " points="8 20 20 20 23 23 5 23"></polygon>
                            <polygon id="Rectangle" fill="#FFFFFF" transform="translate(8.500000, 2.000000) rotate(-30.000000) translate(-8.500000, -2.000000) " points="8 9.43689571e-16 9 9.43689571e-16 9 4 8 4"></polygon>
                            <path d="M8.08400767,25 L20.2345679,25 C21.7618739,25 23,26.2381261 23,27.7654321 L23,28 L23,28 L5,28 L5.52458133,26.7180776 C5.94982683,25.6789027 6.9611906,25 8.08400767,25 Z" id="Rectangle" fill="#FFFFFF"></path>
                            <polygon id="Rectangle-Copy" fill="#FFFFFF" points="8 4.4140625 20 4.4140625 16 -1.33226763e-15 12 -1.33226763e-15"></polygon>
                            <polygon id="Rectangle-Copy-2" fill="#FFFFFF" transform="translate(14.000000, 5.914062) scale(1, -1) translate(-14.000000, -5.914062) " points="8 7.4140625 20 7.4140625 18 4.4140625 10 4.4140625"></polygon>
                            <polygon id="Path" fill="#FFFFFF" fill-rule="nonzero" points="28 0 28 28 0 28 0 14.3320202 6.10128724 11.2090283 6.54485089 12.0577421 0.965517241 14.913222 0.965517241 27.0444367 27.0344828 27.0444367 27.0344828 1.57041455 22.3726718 3.95614753 21.9291081 3.10743375"></polygon>
                        </g>
                    </g>
                </g>
            </g>
        </g>
    </g>
</svg>