<?xml version="1.0" encoding="UTF-8"?>
<svg width="27px" height="28px" viewBox="0 0 27 28" version="1.1" xmlns="http://www.w3.org/2000/svg" xmlns:xlink="http://www.w3.org/1999/xlink">
    <title>oxygen-solid</title>
    <defs>
        <filter id="filter-1">
            <feColorMatrix in="SourceGraphic" type="matrix" values="0 0 0 0 0.176471 0 0 0 0 0.203922 0 0 0 0 0.211765 0 0 0 1.000000 0"></feColorMatrix>
        </filter>
    </defs>
    <g id="Pages" stroke="none" stroke-width="1" fill="none" fill-rule="evenodd">
        <g id="HH_HD_home_v0.55" transform="translate(-411.000000, -301.000000)">
            <g id="Group-42" transform="translate(50.000000, 20.000000)">
                <g id="oxygen-solid" transform="translate(361.000000, 281.000000)" filter="url(#filter-1)">
                    <g>
                        <path d="M10,17 L10,23.5 C10,25.9852814 7.98528137,28 5.5,28 C3.01471863,28 1,25.9852814 1,23.5 L1,17 L10,17 Z M22,17 L22,23.5 C22,25.9852814 19.9852814,28 17.5,28 C15.0147186,28 13,25.9852814 13,23.5 L13,17 L22,17 Z M18,5.5 C18,5.77614237 17.7761424,6 17.5,6 C17.2545401,6 17.0503916,5.82312484 17.0080557,5.58987563 L17,5.5 L17,4 L6,4 L6,5.5 C6,5.77614237 5.77614237,6 5.5,6 C5.25454011,6 5.05039163,5.82312484 5.00805567,5.58987563 L5,5.5 L5,4 L1,4 C0.754540111,4 0.55039163,3.82312484 0.508055669,3.58987563 L0.5,3.5 C0.5,3.25454011 0.676875161,3.05039163 0.910124368,3.00805567 L1,3 L5,3 L5,0.5 C5,0.223857625 5.22385763,0 5.5,0 C5.74545989,0 5.94960837,0.176875161 5.99194433,0.410124368 L6,0.5 L6,3 L17,3 L17,0.5 C17,0.223857625 17.2238576,0 17.5,0 C17.7454599,0 17.9496084,0.176875161 17.9919443,0.410124368 L18,0.5 L18,3 L25,3 C25.2454599,3 25.4496084,3.17687516 25.4919443,3.41012437 L25.5,3.5 L25.5,18 L25.4950016,18.0617292 C26.3601502,18.2820073 27,19.0662812 27,20 C27,21.1045695 26.1045695,22 25,22 C23.8954305,22 23,21.1045695 23,20 C23,19.06592 23.6403449,18.2814005 24.5060026,18.0614738 L24.5,18 L24.5,4 L18,4 L18,5.5 Z M17.5,6 C19.9852814,6 22,8.01471863 22,10.5 L22,16 L13,16 L13,10.5 C13,8.01471863 15.0147186,6 17.5,6 Z M5.5,6 C7.98528137,6 10,8.01471863 10,10.5 L10,16 L1,16 L1,10.5 C1,8.01471863 3.01471863,6 5.5,6 Z" id="Combined-Shape" fill="#FFFFFF"></path>
                    </g>
                </g>
            </g>
        </g>
    </g>
</svg>