<?xml version="1.0" encoding="UTF-8"?>
<svg width="28px" height="28px" viewBox="0 0 28 28" version="1.1" xmlns="http://www.w3.org/2000/svg" xmlns:xlink="http://www.w3.org/1999/xlink">
    <title>strip-solid</title>
    <defs>
        <filter id="filter-1">
            <feColorMatrix in="SourceGraphic" type="matrix" values="0 0 0 0 0.176471 0 0 0 0 0.203922 0 0 0 0 0.211765 0 0 0 1.000000 0"></feColorMatrix>
        </filter>
    </defs>
    <g id="Pages" stroke="none" stroke-width="1" fill="none" fill-rule="evenodd">
        <g id="HH_HD_home_v0.55" transform="translate(-410.000000, -220.000000)">
            <g id="Group-42" transform="translate(50.000000, 20.000000)">
                <g id="Group-2" transform="translate(340.000000, 182.000000)">
                    <g id="strip-solid" transform="translate(20.000000, 18.000000)" filter="url(#filter-1)">
                        <g>
                            <path d="M11,0 C11.4501246,0 11.8939345,0.0270363828 12.3298944,0.0795738162 L21.1347288,0.0803222656 L21.2512173,0.148014685 C24.8381762,2.23242477 27.3873586,6.67374791 27.3873586,11.0213483 C27.3873586,15.1362234 25.3425492,18.8789876 22.0746267,21.0342836 C23.199458,21.5651656 24.2234723,22.2937848 25.1472168,23.2175293 C26.3002555,24.370568 27.2511832,25.9647249 28,28 L18.1557617,28 C18.5293869,26.7235601 18.1264735,25.4956142 16.9470215,24.3161621 C16.0026174,23.371758 14.9708756,22.47484 13.8517961,21.625408 C12.9418126,21.8702558 11.986058,22 11,22 C4.92486775,22 0,17.0751322 0,11 C0,4.92486775 4.92486775,0 11,0 Z M20.861,1.08 L15.7578911,1.07939596 C19.4507148,2.85368198 22,6.62913226 22,11 C22,15.3310122 19.4969938,19.077416 15.8586232,20.8715697 L20.778,20.647 L21.036495,20.5022502 C24.3081782,18.5926943 26.3873586,14.9992146 26.3873586,11.0213483 C26.3873586,7.13462444 24.1499165,3.13414998 21.0056815,1.16758185 L20.861,1.08 Z M11,7 C8.790861,7 7,8.790861 7,11 C7,13.209139 8.790861,15 11,15 C13.209139,15 15,13.209139 15,11 C15,8.790861 13.209139,7 11,7 Z" id="Combined-Shape" fill="#FFFFFF"></path>
                        </g>
                    </g>
                </g>
            </g>
        </g>
    </g>
</svg>