<?xml version="1.0" encoding="UTF-8"?>
<svg width="28px" height="25px" viewBox="0 0 28 25" version="1.1" xmlns="http://www.w3.org/2000/svg" xmlns:xlink="http://www.w3.org/1999/xlink">
    <title>workshop-solid</title>
    <defs>
        <filter id="filter-1">
            <feColorMatrix in="SourceGraphic" type="matrix" values="0 0 0 0 0.176471 0 0 0 0 0.203922 0 0 0 0 0.211765 0 0 0 1.000000 0"></feColorMatrix>
        </filter>
    </defs>
    <g id="Pages" stroke="none" stroke-width="1" fill="none" fill-rule="evenodd">
        <g id="HH_HD_home_v0.55" transform="translate(-410.000000, -560.000000)">
            <g id="Group-42" transform="translate(50.000000, 20.000000)">
                <g id="Group-25" transform="translate(340.000000, 520.000000)">
                    <g id="workshop-solid" transform="translate(20.000000, 18.000000)" filter="url(#filter-1)">
                        <g>
                            <path d="M14,21.465332 C14.2454599,21.465332 14.4496084,21.6422072 14.4919443,21.8754564 L14.5,21.965332 L14.5,25.9238281 C14.5,26.1999705 14.2761424,26.4238281 14,26.4238281 C13.7545401,26.4238281 13.5503916,26.246953 13.5080557,26.0137038 L13.5,25.9238281 L13.5,21.965332 C13.5,21.6891897 13.7238576,21.465332 14,21.465332 Z M21.6464466,21.6464466 C21.8417088,21.4511845 22.1582912,21.4511845 22.3535534,21.6464466 L22.3535534,21.6464466 L26.2773815,25.5702747 L26.335237,25.6395226 C26.470233,25.8343908 26.4509479,26.1038152 26.2773815,26.2773815 C26.0821194,26.4726437 25.7655369,26.4726437 25.5702747,26.2773815 L25.5702747,26.2773815 L21.6464466,22.3535534 L21.5885912,22.2843055 C21.4535951,22.0894374 21.4728803,21.820013 21.6464466,21.6464466 Z M7.49759636,21.6117786 C7.67116271,21.785345 7.69044786,22.0547694 7.55545181,22.2496375 L7.49759636,22.3188854 L3.57376823,26.2427135 C3.37850609,26.4379757 3.0619236,26.4379757 2.86666145,26.2427135 C2.6930951,26.0691472 2.67380995,25.7997228 2.808806,25.6048547 L2.86666145,25.5356068 L6.79048958,21.6117786 C6.98575172,21.4165165 7.30233421,21.4165165 7.49759636,21.6117786 Z M26,6 L26,19 L3,19 L3,6 L26,6 Z M21.9999914,9.49996396 L19.3786561,9.49996396 L19.2887804,9.50805567 C19.0846874,9.54509963 18.9237557,9.70603131 18.8867117,9.91012437 L18.8786561,10 L18.8867117,10.0898756 C18.9237557,10.2939687 19.0846874,10.4549004 19.2887804,10.4919443 L19.3786561,10.5 L20.736,10.5 L16.209,14.75 L12.8269439,9.72095732 L12.7649766,9.64562899 C12.6067839,9.48756017 12.3600792,9.45427675 12.1656538,9.5647732 L12.0859399,9.62098704 L5.67388778,15.1380769 L5.61101383,15.2028024 C5.48046698,15.3639971 5.46344017,15.5909511 5.56847436,15.7698199 L5.62098704,15.8432021 L5.68571253,15.906076 C5.8469073,16.0366229 6.07386125,16.0536497 6.25273005,15.9486155 L6.32611222,15.8961028 L12.311,10.746 L15.7077751,15.7961325 L15.7647119,15.8663831 C15.9298761,16.0363142 16.1947962,16.0662342 16.3937006,15.9374211 L16.4648715,15.8816389 L22.3422046,10.3645491 L22.40104,10.2995053 C22.6422687,9.9829744 22.4229048,9.49996396 21.9999914,9.49996396 Z M27,2.09814453 C27.2761424,2.09814453 27.5,2.32200216 27.5,2.59814453 C27.5,2.84360442 27.3231248,3.0477529 27.0898756,3.09008886 L27,3.09814453 L1,3.09814453 C0.723857625,3.09814453 0.5,2.87428691 0.5,2.59814453 C0.5,2.35268464 0.676875161,2.14853616 0.910124368,2.1062002 L1,2.09814453 L27,2.09814453 Z" id="Combined-Shape" fill="#FFFFFF"></path>
                        </g>
                    </g>
                </g>
            </g>
        </g>
    </g>
</svg>