<?xml version="1.0" encoding="UTF-8"?>
<svg width="36px" height="36px" viewBox="0 0 36 36" version="1.1" xmlns="http://www.w3.org/2000/svg" xmlns:xlink="http://www.w3.org/1999/xlink">
    <title>appointment</title>
    <defs>
        <radialGradient cx="50%" cy="0%" fx="50%" fy="0%" r="100%" id="radialGradient-1">
            <stop stop-color="#66DBC5" offset="0%"></stop>
            <stop stop-color="#36B593" offset="100%"></stop>
        </radialGradient>
    </defs>
    <g id="appointment" stroke="none" stroke-width="1" fill="none" fill-rule="evenodd">
        <g id="Group-2" transform="translate(0.000000, 3.000000)">
            <path d="M2.60679372,15.1935072 C-0.868931239,11.7177823 -0.868931239,6.08251867 2.60679372,2.60679372 C6.08251867,-0.868931239 11.7177823,-0.868931239 15.1935072,2.60679372 L15.1935072,2.60679372 L17.890855,5.30400674 L5.75347209,17.4411346 C5.50520602,17.6894007 5.50520602,18.0919195 5.75347209,18.3401856 L17.4411346,30.0278481 L2.60679372,15.1935072 Z" id="Rectangle--Rectangle-Copy-19" fill="#98D9C8"></path>
            <path d="M33.1745265,2.60679372 C36.6502514,6.08251867 36.6502514,11.7177823 33.1745265,15.1935072 L30.0278481,18.3401856 L18.3401856,30.0278481 C18.2470858,30.1209479 18.1322942,30.1791352 18.0120797,30.2024102 L17.8906601,30.2140477 C17.7279639,30.2140477 17.5652677,30.1519811 17.4411346,30.0278481 L5.75347209,18.3401856 C5.50520602,18.0919195 5.50520602,17.6894007 5.75347209,17.4411346 L17.890855,5.30400674 L20.587813,2.60679372 C24.0635379,-0.868931239 29.6988015,-0.868931239 33.1745265,2.60679372 Z M27.4879942,8.88257525 C26.8381233,8.23270432 25.7844743,8.23270432 25.1346034,8.88257525 L25.1346034,8.88257525 L18.7843483,15.2316355 L16.2402957,12.6869897 L16.1215855,12.5790526 C15.4678633,12.0393674 14.4985481,12.0753465 13.8869049,12.6869897 C13.237034,13.3368606 13.237034,14.3905096 13.8869049,15.0403805 L13.8869049,15.0403805 L17.6085469,18.7620225 L17.7272571,18.8699596 C18.3809794,19.4096448 19.3502945,19.3736657 19.9619377,18.7620225 L19.9619377,18.7620225 L27.4879942,11.2359661 L27.5959312,11.1172559 C28.1356164,10.4635336 28.0996374,9.49421848 27.4879942,8.88257525 Z" id="Combined-Shape" fill="url(#radialGradient-1)"></path>
        </g>
    </g>
</svg>