<?xml version="1.0" encoding="UTF-8"?>
<svg width="36px" height="36px" viewBox="0 0 36 36" version="1.1" xmlns="http://www.w3.org/2000/svg" xmlns:xlink="http://www.w3.org/1999/xlink">
    <title>follow-up</title>
    <defs>
        <radialGradient cx="50%" cy="0%" fx="50%" fy="0%" r="100%" gradientTransform="translate(0.500000,0.000000),scale(0.959861,1.000000),rotate(90.000000),translate(-0.500000,-0.000000)" id="radialGradient-1">
            <stop stop-color="#B8EDB0" offset="0%"></stop>
            <stop stop-color="#82D678" offset="100%"></stop>
        </radialGradient>
    </defs>
    <g id="follow-up" stroke="none" stroke-width="1" fill="none" fill-rule="evenodd">
        <g id="Group-12">
            <g>
                <polygon id="Rectangle" fill="#C0EABB" points="0 12 24.5142857 12 24.5142857 30.2729638 7.63976702 30.2729638 0 36"></polygon>
                <polygon id="Rectangle-Copy-20" fill="url(#radialGradient-1)" transform="translate(20.742857, 14.480190) scale(-1, 1) translate(-20.742857, -14.480190) " points="5.65714286 -2.05775873e-13 35.8285714 -2.05775873e-13 35.8285714 22.0496652 15.059933 22.0496652 5.65714286 28.9603795"></polygon>
                <path d="M21.4069091,14.8647273 C21.6032727,13.7847273 22.0745455,13.0974545 23.3901818,12.0174545 C25.0003636,10.7214545 25.5501818,9.70036364 25.5501818,8.01163636 C25.5501818,5.47854545 23.6258182,4.12363636 20.7785455,4.12363636 C17.8330909,4.12363636 16.0854545,5.71418182 15.5552727,8.54181818 L18.6578182,9.09163636 C18.7363636,7.30472727 19.3647273,6.53890909 20.484,6.53890909 C21.3676364,6.53890909 22.0156364,7.128 22.0156364,8.05090909 C22.0156364,9.18981818 21.6621818,9.87709091 20.6214545,10.8981818 C19.3450909,12.1352727 18.9130909,13.1956364 18.9130909,14.8647273 L21.4069091,14.8647273 Z M20.2287273,19.8327273 C21.2498182,19.8327273 22.1138182,18.9883636 22.1138182,17.9476364 C22.1138182,16.9069091 21.2498182,16.0429091 20.2287273,16.0429091 C19.188,16.0429091 18.324,16.9069091 18.324,17.9476364 C18.324,18.9883636 19.188,19.8327273 20.2287273,19.8327273 Z" id="?" fill="#FFFFFF" fill-rule="nonzero"></path>
            </g>
        </g>
    </g>
</svg>