<?xml version="1.0" encoding="UTF-8"?>
<svg width="22px" height="22px" viewBox="0 0 22 22" version="1.1" xmlns="http://www.w3.org/2000/svg" xmlns:xlink="http://www.w3.org/1999/xlink">
    <title>heart</title>
    <g id="heart" stroke="none" stroke-width="1" fill="none" fill-rule="evenodd">
        <path d="M11.8187331,8.81818182 L6.90997298,8.81818182 C4.19893962,8.81818182 2.00121285,6.62030695 2.00121285,3.90909091 C2.00121285,1.19787486 4.19893962,-1 6.90997298,-1 C9.54773517,-1 11.6995621,1.08067628 11.8139503,3.69042076 L11.8187331,3.90909091 L11.8182128,6.363 L10.1822128,6.363 L10.1824797,3.90909091 C10.1824797,2.16394035 8.81663131,0.737822283 7.09567405,0.641544403 L6.90997298,0.636363636 C5.10261741,0.636363636 3.63746623,2.10161355 3.63746623,3.90909091 C3.63746623,5.65424147 5.00331465,7.08035953 6.72427191,7.17663742 L6.90997298,7.18181818 L15.0912399,7.18181818 C17.8022732,7.18181818 20,9.37969305 20,12.0909091 C20,14.728849 17.9194639,16.880821 15.3098953,16.9952169 L15.0912399,17 L3.63745456,17 C2.78134487,17 2.07879948,16.342513 2.00721883,15.5049395 L2.00121285,15.3637583 L1.99999417,7.44017088 C2.36658325,7.99205875 2.84184504,8.46551929 3.39524016,8.8300131 L3.63710413,8.97946426 L3.63746623,15.3636364 L15.0912399,15.3636364 C16.8985954,15.3636364 18.3637466,13.8983865 18.3637466,12.0909091 C18.3637466,10.3457585 16.9978982,8.91964047 15.2769409,8.82336258 L15.0912399,8.81818182 L11.818,8.81781818 L11.8187331,8.81818182 Z" fill="#CED5D8" fill-rule="nonzero" transform="translate(11.000000, 8.000000) rotate(-45.000000) translate(-11.000000, -8.000000) "></path>
    </g>
</svg>