<?xml version="1.0" encoding="UTF-8"?>
<svg width="22px" height="22px" viewBox="0 0 22 22" version="1.1" xmlns="http://www.w3.org/2000/svg" xmlns:xlink="http://www.w3.org/1999/xlink">
    <title>home</title>
    <g id="home" stroke="none" stroke-width="1" fill="none" fill-rule="evenodd">
        <polygon id="Combined-Shape" fill="#CED5D8" fill-rule="nonzero" points="11.9 5 11.9 7.1 14 7.1 14 8.9 11.9 8.9 11.9 11 10.1 11 10.1 8.9 8 8.9 8 7.1 10.1 7.1 10.1 5"></polygon>
        <g id="Group-4" fill="#CED5D8" fill-rule="nonzero">
            <path d="M18.8648486,2 L18.864,20.289 L18.864,20.289 L20.2,20.289 L20.2,6.16298828 C21.1941125,6.16298828 22,6.96887573 22,7.96298828 L22,22 L22,22 L17.064,22 L17.064,2.8 C17.064,2.24771525 16.6162847,1.8 16.064,1.8 L6.824,1.8 C6.27171601,1.80000193 5.82400107,2.24771601 5.82399807,2.8 L5.82396094,22 L5.82396094,22 L0,22.0895508 L0,9.09277344 L4.024,9.092 L4.02470385,1.99999999 C4.02501197,0.895508031 4.92041036,0.000198501656 6.02490234,0 L16.8649414,0 C17.9695109,-9.27975168e-05 18.8649414,0.895337703 18.8649414,1.9999072 C18.8649414,1.99993814 18.8649414,1.99996907 18.8648486,2 Z M4.024,10.892 L1.8,10.892 L1.8,20.289 L4.024,20.289 L4.024,10.892 Z" id="Path-7"></path>
            <polygon id="Path-8" points="13.6856445 14 13.6848555 20.2338791 18.0917969 20.2344193 18.0917969 22 11.8856445 22 11.8848555 15.7649983 9.71485547 15.7649983 9.71494141 22 5.82396094 22 5.82396094 20.2344193 7.91485547 20.2338791 7.91494141 14"></polygon>
        </g>
    </g>
</svg>