<?xml version="1.0" encoding="UTF-8"?>
<svg width="75px" height="37px" viewBox="0 0 75 37" version="1.1" xmlns="http://www.w3.org/2000/svg" xmlns:xlink="http://www.w3.org/1999/xlink">
    <title>Group@2x</title>
    <g id="Page-1" stroke="none" stroke-width="1" fill="none" fill-rule="evenodd">
        <g id="Group" transform="translate(0.000000, 1.000000)">
            <g id="hospital1">
                <g id="Group-12" transform="translate(0.712536, 0.000000)" fill="#FFFFFF" fill-rule="nonzero" stroke="#8DD4DC" stroke-width="0.5">
                    <g id="Group-10" transform="translate(27.530272, 0.000000)">
                        <path d="M2.85817767,0.25 C2.33648531,0.25 1.86418151,0.461457611 1.52230081,0.803338314 C1.17781483,1.1478243 0.969273355,1.62511324 0.822322113,2.46950875 C0.651109187,2.54474014 0.506168754,2.66868622 0.404926606,2.82373282 C0.30688774,2.97387379 0.25,3.15327781 0.25,3.34595194 C0.25,3.61014751 0.35708641,3.8493317 0.530221711,4.022467 C0.703357012,4.1956023 0.942541204,4.30268871 1.20673677,4.30268871 L6.7018507,4.30268871 C6.96604626,4.30268871 7.20523046,4.1956023 7.37836576,4.022467 C7.55150106,3.8493317 7.65858747,3.61014751 7.65858747,3.34595194 C7.65858747,3.15063652 7.60012846,2.9689589 7.49969867,2.81757635 C7.39604731,2.66133777 7.24787142,2.53724519 6.92312023,2.26980216 C6.86819352,1.89752332 6.67924576,1.56893978 6.40710299,1.33433644 C6.13759493,1.10200437 5.7862572,0.963071726 5.3774918,0.963071726 C5.14590168,0.963071726 4.92627509,1.01434657 4.42150365,1.02792131 C4.07704466,0.555225185 3.51845641,0.25 2.85817767,0.25 Z" id="Combined-Shape"></path>
                    </g>
                    <g id="Group-10-Copy" transform="translate(65.635285, 7.843789)">
                        <path d="M3.93956681,0.25 C3.5722843,0.25 3.23515235,0.379153363 2.97119136,0.594603415 C2.65264865,0.854604115 2.44040279,1.24008372 2.41055758,1.67584687 L1.42621877,1.67614344 C1.10136041,1.67614345 0.807324543,1.80778779 0.594484441,2.02062789 C0.38164434,2.23346799 0.25,2.52750386 0.25,2.8522869 C0.25,3.17706995 0.38164434,3.47110581 0.594484441,3.68394591 C0.807324543,3.89678602 1.10136041,4.02843036 1.42614345,4.02843036 L5.04451902,4.02843036 C5.36930207,4.02843036 5.66333793,3.89678602 5.87617803,3.68394591 C6.08901813,3.47110581 6.22066247,3.17706995 6.22066247,2.8522869 C6.22066247,2.63608656 6.16240558,2.43347823 6.06059789,2.25947153 C5.95510776,2.07917091 5.80302115,1.92951906 5.49452606,1.63324653 C5.45677707,1.24231829 5.27191238,0.89444839 4.99286369,0.645501926 C4.71673276,0.399158465 4.3485792,0.25 3.93956681,0.25 Z" id="Combined-Shape"></path>
                    </g>
                    <path d="M2.62637787,12.4385516 C2.40147067,12.4385516 2.19501916,12.5176332 2.03339462,12.6495887 C1.81961438,12.8241258 1.68394388,13.0909314 1.68806438,13.3895208 L0.950692144,13.3893139 C0.757252135,13.3893139 0.58206156,13.4677494 0.455248526,13.5945624 C0.328435492,13.7213755 0.25,13.896566 0.25,14.0900762 C0.25,14.2835864 0.328435492,14.4587769 0.455248526,14.58559 C0.58206156,14.712403 0.757252135,14.7908385 0.950762301,14.7908385 L3.36301268,14.7908385 C3.55652285,14.7908385 3.73171342,14.712403 3.85852646,14.58559 C4.00295318,14.4411632 3.96163329,14.1761753 3.58022087,13.28697 C3.55749519,13.0474187 3.44446278,12.8342145 3.27369046,12.681605 C3.10407871,12.5300326 2.87771446,12.4385516 2.62637787,12.4385516 Z" id="Combined-Shape"></path>
                </g>
                <polygon id="Rectangle-Copy-15" stroke="#15ADC0" stroke-width="0.5" fill="#E1F4FB" fill-rule="nonzero" points="65.6559994 13.0038178 61.3753566 13.0038178 61.3753566 35.326439 66.2453851 35.326439"></polygon>
                <g id="Group-15" transform="translate(7.425071, 6.712536)" fill-rule="nonzero" stroke="#15ADC0" stroke-width="0.5">
                    <polygon id="Rectangle" fill="#E1F4FB" points="54.6398486 0.25 2.41670455 0.839385735 2.41670455 28.6139033 54.6398486 28.6139033"></polygon>
                    <polygon id="Rectangle-Copy-7" fill="#FFFFFF" points="56.2171674 2.41479275 0.25 3.00417849 0.25 28.6139033 56.8065531 28.6139033"></polygon>
                </g>
                <path d="M60.5375316,3.60626783 L38.8905604,3.60626783 C38.611911,3.60626783 38.3596414,3.7192128 38.1770341,3.90182011 C37.9944268,4.08442742 37.8814818,4.33669707 37.8814818,4.61534643 L37.8814818,35.326439 L61.5466102,35.326439 L61.5466102,4.61534643 C61.5466102,4.33669707 61.4336652,4.08442742 61.2510579,3.90182011 C61.0684506,3.7192128 60.8161809,3.60626783 60.5375316,3.60626783 Z" id="Rectangle-Copy-8" stroke="#15ADC0" stroke-width="0.5"></path>
                <rect id="Rectangle-Copy-25" stroke="#979797" stroke-width="0.5" x="41.2377496" y="18.3738463" width="18.9663534" height="5.54128209"></rect>
                <rect id="Rectangle-Copy-26" stroke="#15ADC0" stroke-width="0.5" fill="#E1F4FB" fill-rule="nonzero" x="39.25" y="11.25" width="21.5" height="6.54"></rect>
                <g id="Group-13" transform="translate(12.123846, 12.082564)" fill="#E1F4FB" fill-rule="nonzero" stroke="#15ADC0" stroke-width="0.5">
                    <rect id="Rectangle-Copy-22" x="0.25" y="15.3184852" width="8.80804945" height="5.24037532"></rect>
                    <rect id="Rectangle-Copy-21" x="12.4220647" y="15.3184852" width="8.80804945" height="5.24037532"></rect>
                    <rect id="Rectangle-Copy-28" x="0.25" y="7.42546915" width="8.80804945" height="5.24037532"></rect>
                    <rect id="Rectangle-Copy-27" x="12.4220647" y="7.42546915" width="8.80804945" height="5.24037532"></rect>
                    <rect id="Rectangle-Copy-30" x="0.25" y="0.25" width="8.80804945" height="5.24037532"></rect>
                    <rect id="Rectangle-Copy-29" x="12.4220647" y="0.25" width="8.80804945" height="5.24037532"></rect>
                </g>
                <g id="Group-27" transform="translate(50.115650, 14.598301) rotate(45.000000) translate(-50.115650, -14.598301) translate(48.615650, 13.098301)" fill="#D9251E" fill-rule="nonzero">
                    <path d="M1.65409168,-7.63126952e-14 L2.52132034,-7.63126952e-14 L2.52132034,-7.63126952e-14 C2.58367466,0.026346173 2.61485183,0.0630444052 2.61485183,0.110094697 C2.61485183,0.157144988 2.61485183,0.211835599 2.61485183,0.274166529 C2.61485183,0.274166529 2.66589125,0.274166529 2.76797009,0.274166529 C2.84081364,0.274166529 2.87723541,0.30947957 2.87723541,0.380105652 L2.87723541,1.23632147 C2.87723541,1.33740281 2.79529279,1.41934543 2.69421145,1.41934543 L2.04649579,1.41934543 L2.04649579,1.41934543 L2.56345678,0.888263728 L1.98529285,0.295160302 L1.47106773,0.806623644 L1.47106773,0.183023957 C1.47106773,0.0819426168 1.55301034,-7.63126952e-14 1.65409168,-7.63126952e-14 Z" id="Rectangle"></path>
                    <path d="M0.183024277,-7.63126952e-14 L1.05025293,-7.63126952e-14 L1.05025293,-7.63126952e-14 C1.11260726,0.026346173 1.14378442,0.0630444052 1.14378442,0.110094697 C1.14378442,0.157144988 1.14378442,0.211835599 1.14378442,0.274166529 C1.14378442,0.274166529 1.19482384,0.274166529 1.29690269,0.274166529 C1.36974623,0.274166529 1.406168,0.30947957 1.406168,0.380105652 L1.406168,1.23632147 C1.406168,1.33740281 1.32422538,1.41934543 1.22314404,1.41934543 L0.575428388,1.41934543 L0.575428388,1.41934543 L1.09238937,0.888263728 L0.514225446,0.295160302 L3.2e-07,0.806623644 L3.2e-07,0.183023957 C3.2e-07,0.0819426168 0.0819429368,-7.63126952e-14 0.183024277,-7.63126952e-14 Z" id="Rectangle-Copy-12" transform="translate(0.703084, 0.709673) scale(-1, 1) translate(-0.703084, -0.709673) "></path>
                    <path d="M1.65409168,1.4848529 L2.52132034,1.4848529 L2.52132034,1.4848529 C2.58367466,1.51119907 2.61485183,1.5478973 2.61485183,1.59494759 C2.61485183,1.64199788 2.61485183,1.6966885 2.61485183,1.75901942 C2.61485183,1.75901942 2.66589125,1.75901942 2.76797009,1.75901942 C2.84081364,1.75901942 2.87723541,1.79433247 2.87723541,1.86495855 L2.87723541,2.72117436 C2.87723541,2.82225571 2.79529279,2.90419832 2.69421145,2.90419832 L2.04649579,2.90419832 L2.04649579,2.90419832 L2.56345678,2.37311662 L1.98529285,1.7800132 L1.47106773,2.29147654 L1.47106773,1.66787685 C1.47106773,1.56679551 1.55301034,1.4848529 1.65409168,1.4848529 Z" id="Rectangle-Copy-31" transform="translate(2.174152, 2.194526) scale(-1, 1) rotate(-180.000000) translate(-2.174152, -2.194526) "></path>
                    <path d="M0.183024277,1.4848529 L1.05025293,1.4848529 L1.05025293,1.4848529 C1.11260726,1.51119907 1.14378442,1.5478973 1.14378442,1.59494759 C1.14378442,1.64199788 1.14378442,1.6966885 1.14378442,1.75901942 C1.14378442,1.75901942 1.19482384,1.75901942 1.29690269,1.75901942 C1.36974623,1.75901942 1.406168,1.79433247 1.406168,1.86495855 L1.406168,2.72117436 C1.406168,2.82225571 1.32422538,2.90419832 1.22314404,2.90419832 L0.575428388,2.90419832 L0.575428388,2.90419832 L1.09238937,2.37311662 L0.514225446,1.7800132 L3.2e-07,2.29147654 L3.2e-07,1.66787685 C3.2e-07,1.56679551 0.0819429368,1.4848529 0.183024277,1.4848529 Z" id="Rectangle-Copy-20" transform="translate(0.703084, 2.194526) rotate(180.000000) translate(-0.703084, -2.194526) "></path>
                </g>
                <rect id="Rectangle-Copy-16" stroke="#15ADC0" stroke-width="0.5" fill="#E1F4FB" fill-rule="nonzero" transform="translate(55.419701, 29.535157) rotate(180.000000) translate(-55.419701, -29.535157) " x="49.9640454" y="23.743875" width="10.9113106" height="11.5825642"></rect>
                <rect id="Rectangle-Copy-34" stroke="#15ADC0" stroke-width="0.5" fill="#E1F4FB" fill-rule="nonzero" transform="translate(44.500000, 29.530000) rotate(180.000000) translate(-44.500000, -29.530000) " x="39.25" y="23.74" width="10.5" height="11.58"></rect>
                <g id="Group-18" transform="translate(1.383789, 23.493875)">
                    <g id="Group-7" transform="translate(66.057558, 1.530458)">
                        <ellipse id="Oval" fill="#2BC98F" fill-rule="nonzero" cx="2.51305927" cy="3.06091626" rx="2.51305927" ry="3.06091626"></ellipse>
                        <line x1="2.65666266" y1="3.82614533" x2="2.65666266" y2="9.94797785" id="Path-8" stroke="#977064" stroke-width="0.5"></line>
                    </g>
                    <g id="Group-7-Copy" transform="translate(3.590085, 0.000000)">
                        <ellipse id="Oval" fill="#2BC98F" fill-rule="nonzero" cx="3.23107621" cy="3.82614533" rx="3.23107621" ry="3.82614533"></ellipse>
                        <line x1="3.59008468" y1="3.82614533" x2="3.59008468" y2="11.478436" id="Path-8" stroke="#977064" stroke-width="0.5"></line>
                    </g>
                    <g id="Group-7-Copy-2" transform="translate(0.000000, 3.826145)">
                        <ellipse id="Oval" fill="#2BC98F" fill-rule="nonzero" cx="1.79504234" cy="2.2956872" rx="1.79504234" ry="2.2956872"></ellipse>
                        <line x1="1.79504234" y1="3.06091626" x2="1.79504234" y2="7.65229065" id="Path-8" stroke="#977064" stroke-width="0.5"></line>
                    </g>
                    <g id="Group-8" transform="translate(39.490931, 3.826145)" fill-rule="nonzero">
                        <g id="Group-9">
                            <path d="M1.5644296,6.80629329 C2.06623099,6.23046378 2.32654052,5.59579427 2.3453582,4.90228475 C2.36417588,4.20877524 2.13793877,3.5877347 1.66664686,3.03916312 C1.16484548,3.61499263 0.904535949,4.24966215 0.885718271,4.94317166 C0.866900593,5.63668117 1.0931377,6.25772172 1.5644296,6.80629329 Z" id="Oval-Copy-2" fill="#1FB07B" transform="translate(1.615538, 4.922728) rotate(-30.000000) translate(-1.615538, -4.922728) "></path>
                            <path d="M2.15405081,6.12183252 C2.63272876,5.20821993 2.87206774,4.18791451 2.87206774,3.06091626 C2.87206774,1.93391801 2.63272876,0.913612593 2.15405081,0 C1.67537285,0.913612593 1.43603387,1.93391801 1.43603387,3.06091626 C1.43603387,4.18791451 1.67537285,5.20821993 2.15405081,6.12183252 Z" id="Oval" fill="#28BC86"></path>
                            <path d="M2.81073768,6.85165257 C3.31559001,6.16338295 3.57930679,5.40314244 3.601888,4.57093102 C3.62446921,3.7387196 3.40163934,2.99210805 2.93339839,2.33109637 C2.42854605,3.01936599 2.16482928,3.77960651 2.14224806,4.61181792 C2.11966685,5.44402934 2.34249672,6.19064089 2.81073768,6.85165257 Z" id="Oval-Copy-3" fill="#2BC98F" transform="translate(2.872068, 4.591374) scale(-1, 1) rotate(-30.000000) translate(-2.872068, -4.591374) "></path>
                            <path d="M1.08629798,6.46182391 L1.38044566,7.40229065 L2.92765596,7.40229065 L3.23717965,6.41266276 C2.73632234,6.46570783 2.37526954,6.49177321 2.15405081,6.49177321 C1.94789732,6.49177321 1.61759841,6.46816579 1.08629798,6.46182391 Z" id="Rectangle" stroke="#977064" stroke-width="0.5" fill="#E1F4FB"></path>
                        </g>
                    </g>
                </g>
                <g id="Group-28" transform="translate(35.617721, 18.123846)" fill="#36B593" fill-rule="nonzero" stroke="#FFFFFF" stroke-width="0.5">
                    <g id="Group-17">
                        <rect id="Rectangle-Copy-13" x="0.25" y="0.25" width="28.3639033" height="5.54128209"></rect>
                    </g>
                </g>
            </g>
            <rect id="Rectangle" fill="#FFFFFF" x="43" y="20" width="2" height="2"></rect>
            <rect id="Rectangle-Copy" fill="#FFFFFF" x="47" y="20" width="2" height="2"></rect>
            <rect id="Rectangle-Copy-2" fill="#FFFFFF" x="51" y="20" width="2" height="2"></rect>
            <rect id="Rectangle-Copy-3" fill="#FFFFFF" x="55" y="20" width="2" height="2"></rect>
        </g>
    </g>
</svg>