<?xml version="1.0" encoding="UTF-8"?>
<svg width="81px" height="36px" viewBox="0 0 81 36" version="1.1" xmlns="http://www.w3.org/2000/svg" xmlns:xlink="http://www.w3.org/1999/xlink">
    <title>hospital2@2x</title>
    <g id="Page-1" stroke="none" stroke-width="1" fill="none" fill-rule="evenodd">
        <g id="hospital2" transform="translate(1.000000, 1.000000)">
            <path d="M20,27 L0,27 L0,9.39610916 C0,8.93017997 0.321778604,8.52599092 0.775852307,8.42155397 L20,4 L20,4" id="Path" stroke="#15ADC0" stroke-width="0.5"></path>
            <path d="M20,27 L2,27 L2,13.4198039 C2,12.9431229 2.33645967,12.5327081 2.80388386,12.4392232 L20,9 L20,9" id="Path" stroke="#15ADC0" stroke-width="0.5"></path>
            <path d="M17.7220071,14.0682189 C17.6689679,13.8791333 17.547166,13.7264772 17.3905261,13.6309414 C17.2266579,13.530997 17.0246623,13.4935663 16.8233802,13.5423385 L5.25,16.9366301 L5.26158729,22.7157385 C5.29655996,22.9128527 5.4060763,23.0788985 5.55647725,23.1891925 C5.71126003,23.3026999 5.90934441,23.3571596 6.11404289,23.3256675 L17.1140429,21.6333598 C17.2969798,21.6052157 17.455969,21.5124406 17.5692241,21.3804292 C17.6824792,21.2484178 17.75,21.0771702 17.75,20.892081 L17.7220071,14.0682189 Z" id="Rectangle-Copy-6" stroke="#15ADC0" stroke-width="0.5" fill="#E1F4FB" fill-rule="nonzero"></path>
            <path d="M34.9713557,4.09082329 C34.754102,3.82259082 34.448693,3.66781136 34.1305393,3.63440344 C33.8123856,3.60099553 33.4814872,3.68895915 33.2132547,3.90621286 L21.2132547,13.62556 C20.9202275,13.8628961 20.75,14.2198302 20.75,14.5969157 L20.75,26 C20.75,26.345178 20.889911,26.657678 21.1161165,26.8838835 C21.342322,27.110089 21.654822,27.25 22,27.25 L35.25,27.25 L35.25,4.87756855 C35.25,4.59114099 35.1516321,4.31340173 34.9713557,4.09082329 Z" id="Rectangle-Copy" stroke="#15ADC0" stroke-width="0.5" transform="translate(28.000000, 15.438764) scale(-1, 1) translate(-28.000000, -15.438764) "></path>
            <polygon id="Rectangle-Copy-11" stroke="#15ADC0" stroke-width="0.5" transform="translate(28.000000, 17.898512) scale(-1, 1) translate(-28.000000, -17.898512) " points="35.25 8.54702369 20.75 17.6820237 20.75 27.25 35.25 27.25"></polygon>
            <path d="M76.7198734,7.05307957 C76.6088766,6.30873502 76.20877,5.67810653 75.65,5.25902906 C75.0869709,4.83675724 74.3628505,4.62927377 73.6110913,4.73666795 L35.893934,10.1248333 C35.7091907,10.1512252 35.5482072,10.2435313 35.4334095,10.3758941 C35.3186119,10.5082569 35.25,10.6806765 35.25,10.8672954 L35.25,28.75 L76.7496566,28.75 L76.7198734,7.05307957 Z" id="Rectangle-Copy-2" stroke="#15ADC0" stroke-width="0.5"></path>
            <path d="M79,28.6087646 L77.087029,26.6081543 L77,12.2922415 C77,12.1269179 77.0299886,11.9644287 77.087029,11.820687 L79,7" id="Path" stroke="#15ADC0" stroke-width="0.5" stroke-linejoin="bevel" transform="translate(78.000000, 17.804382) scale(-1, 1) translate(-78.000000, -17.804382) "></path>
            <polygon id="Rectangle-Copy-4" stroke="#15ADC0" stroke-width="0.5" fill="#E1F4FB" fill-rule="nonzero" points="76.75 7.57534369 35.25 13.5012819 35.25 17.7151275 76.75 12.2806036"></polygon>
            <polygon id="Rectangle-Copy-5" stroke="#15ADC0" stroke-width="0.5" fill="#E1F4FB" fill-rule="nonzero" points="73.1913473 17.7819743 67.0603709 18.5216514 67.0603709 25.25 73.1913473 25.25"></polygon>
            <polygon id="Rectangle-Copy-13" stroke="#15ADC0" stroke-width="0.5" fill="#E1F4FB" fill-rule="nonzero" points="32.75 22.25 26.25 22.25 26.25 27.1914062 32.75 27.1914062"></polygon>
            <rect id="Rectangle" stroke="#FFFFFF" stroke-width="0.5" fill="#36B593" fill-rule="nonzero" x="25.25" y="18.25" width="39.5" height="3.5"></rect>
            <rect id="Rectangle-Copy-3" stroke="#15ADC0" stroke-width="0.5" fill="#E1F4FB" fill-rule="nonzero" transform="translate(49.000000, 25.500000) scale(-1, 1) rotate(-180.000000) translate(-49.000000, -25.500000) " x="40.25" y="22.25" width="17.5" height="6.5"></rect>
            <g id="Group-27" transform="translate(48.121320, 13.801320) rotate(45.000000) translate(-48.121320, -13.801320) translate(46.621320, 12.301320)" fill="#D9251E" fill-rule="nonzero">
                <path d="M1.65409168,-7.63126952e-14 L2.52132034,-7.63126952e-14 L2.52132034,-7.63126952e-14 C2.58367466,0.026346173 2.61485183,0.0630444052 2.61485183,0.110094697 C2.61485183,0.157144988 2.61485183,0.211835599 2.61485183,0.274166529 C2.61485183,0.274166529 2.66589125,0.274166529 2.76797009,0.274166529 C2.84081364,0.274166529 2.87723541,0.30947957 2.87723541,0.380105652 L2.87723541,1.23632147 C2.87723541,1.33740281 2.79529279,1.41934543 2.69421145,1.41934543 L2.04649579,1.41934543 L2.04649579,1.41934543 L2.56345678,0.888263728 L1.98529285,0.295160302 L1.47106773,0.806623644 L1.47106773,0.183023957 C1.47106773,0.0819426168 1.55301034,-7.63126952e-14 1.65409168,-7.63126952e-14 Z" id="Rectangle"></path>
                <path d="M0.183024277,-7.63126952e-14 L1.05025293,-7.63126952e-14 L1.05025293,-7.63126952e-14 C1.11260726,0.026346173 1.14378442,0.0630444052 1.14378442,0.110094697 C1.14378442,0.157144988 1.14378442,0.211835599 1.14378442,0.274166529 C1.14378442,0.274166529 1.19482384,0.274166529 1.29690269,0.274166529 C1.36974623,0.274166529 1.406168,0.30947957 1.406168,0.380105652 L1.406168,1.23632147 C1.406168,1.33740281 1.32422538,1.41934543 1.22314404,1.41934543 L0.575428388,1.41934543 L0.575428388,1.41934543 L1.09238937,0.888263728 L0.514225446,0.295160302 L3.2e-07,0.806623644 L3.2e-07,0.183023957 C3.2e-07,0.0819426168 0.0819429368,-7.63126952e-14 0.183024277,-7.63126952e-14 Z" id="Rectangle-Copy-12" transform="translate(0.703084, 0.709673) scale(-1, 1) translate(-0.703084, -0.709673) "></path>
                <path d="M1.65409168,1.4848529 L2.52132034,1.4848529 L2.52132034,1.4848529 C2.58367466,1.51119907 2.61485183,1.5478973 2.61485183,1.59494759 C2.61485183,1.64199788 2.61485183,1.6966885 2.61485183,1.75901942 C2.61485183,1.75901942 2.66589125,1.75901942 2.76797009,1.75901942 C2.84081364,1.75901942 2.87723541,1.79433247 2.87723541,1.86495855 L2.87723541,2.72117436 C2.87723541,2.82225571 2.79529279,2.90419832 2.69421145,2.90419832 L2.04649579,2.90419832 L2.04649579,2.90419832 L2.56345678,2.37311662 L1.98529285,1.7800132 L1.47106773,2.29147654 L1.47106773,1.66787685 C1.47106773,1.56679551 1.55301034,1.4848529 1.65409168,1.4848529 Z" id="Rectangle-Copy-31" transform="translate(2.174152, 2.194526) scale(-1, 1) rotate(-180.000000) translate(-2.174152, -2.194526) "></path>
                <path d="M0.183024277,1.4848529 L1.05025293,1.4848529 L1.05025293,1.4848529 C1.11260726,1.51119907 1.14378442,1.5478973 1.14378442,1.59494759 C1.14378442,1.64199788 1.14378442,1.6966885 1.14378442,1.75901942 C1.14378442,1.75901942 1.19482384,1.75901942 1.29690269,1.75901942 C1.36974623,1.75901942 1.406168,1.79433247 1.406168,1.86495855 L1.406168,2.72117436 C1.406168,2.82225571 1.32422538,2.90419832 1.22314404,2.90419832 L0.575428388,2.90419832 L0.575428388,2.90419832 L1.09238937,2.37311662 L0.514225446,1.7800132 L3.2e-07,2.29147654 L3.2e-07,1.66787685 C3.2e-07,1.56679551 0.0819429368,1.4848529 0.183024277,1.4848529 Z" id="Rectangle-Copy-20" transform="translate(0.703084, 2.194526) rotate(180.000000) translate(-0.703084, -2.194526) "></path>
            </g>
            <g id="Group" transform="translate(42.000000, 19.250000)" fill="#FFFFFF" fill-rule="nonzero">
                <rect id="Rectangle" x="3.33333333" y="0" width="1.5" height="1.5"></rect>
                <rect id="Rectangle-Copy-8" x="0" y="0" width="1.5" height="1.5"></rect>
                <rect id="Rectangle-Copy-7" x="10" y="0" width="1.5" height="1.5"></rect>
                <rect id="Rectangle-Copy-9" x="6.66666667" y="0" width="1.5" height="1.5"></rect>
            </g>
            <polyline id="Path-10" stroke="#15ADC0" stroke-width="0.5" stroke-linecap="round" stroke-linejoin="round" points="20 30.8339844 35 30.8339844 29.5 32.9169922 68.8103709 33.8166504"></polyline>
            <g id="Group-12" transform="translate(3.000000, 0.000000)" fill="#FFFFFF" fill-rule="nonzero" stroke="#8DD4DC" stroke-width="0.5">
                <g id="Group-10" transform="translate(37.530272, 0.000000)">
                    <path d="M2.85817767,0.25 C2.33648531,0.25 1.86418151,0.461457611 1.52230081,0.803338314 C1.17781483,1.1478243 0.969273355,1.62511324 0.822322113,2.46950875 C0.651109187,2.54474014 0.506168754,2.66868622 0.404926606,2.82373282 C0.30688774,2.97387379 0.25,3.15327781 0.25,3.34595194 C0.25,3.61014751 0.35708641,3.8493317 0.530221711,4.022467 C0.703357012,4.1956023 0.942541204,4.30268871 1.20673677,4.30268871 L6.7018507,4.30268871 C6.96604626,4.30268871 7.20523046,4.1956023 7.37836576,4.022467 C7.55150106,3.8493317 7.65858747,3.61014751 7.65858747,3.34595194 C7.65858747,3.15063652 7.60012846,2.9689589 7.49969867,2.81757635 C7.39604731,2.66133777 7.24787142,2.53724519 6.92312023,2.26980216 C6.86819352,1.89752332 6.67924576,1.56893978 6.40710299,1.33433644 C6.13759493,1.10200437 5.7862572,0.963071726 5.3774918,0.963071726 C5.14590168,0.963071726 4.92627509,1.01434657 4.42150365,1.02792131 C4.07704466,0.555225185 3.51845641,0.25 2.85817767,0.25 Z" id="Combined-Shape"></path>
                </g>
                <path d="M2.62637787,3.43855159 C2.40147067,3.43855159 2.19501916,3.51763321 2.03339462,3.64958869 C1.81961438,3.82412577 1.68394388,4.09093137 1.68806438,4.38952081 L0.950692144,4.38931389 C0.757252135,4.38931389 0.58206156,4.46774939 0.455248526,4.59456242 C0.328435492,4.72137545 0.25,4.89656603 0.25,5.0900762 C0.25,5.28358636 0.328435492,5.45877694 0.455248526,5.58558997 C0.58206156,5.71240301 0.757252135,5.7908385 0.950762301,5.7908385 L3.36301268,5.7908385 C3.55652285,5.7908385 3.73171342,5.71240301 3.85852646,5.58558997 C4.00295318,5.44116325 3.96163329,5.17617534 3.58022087,4.28696997 C3.55749519,4.0474187 3.44446278,3.8342145 3.27369046,3.68160498 C3.10407871,3.53003261 2.87771446,3.43855159 2.62637787,3.43855159 Z" id="Combined-Shape"></path>
            </g>
            <g id="Group-18" transform="translate(4.000000, 23.000000)">
                <g id="Group-7" transform="translate(66.057558, 1.530458)">
                    <ellipse id="Oval" fill="#2BC98F" fill-rule="nonzero" cx="2.51305927" cy="3.06091626" rx="2.51305927" ry="3.06091626"></ellipse>
                    <line x1="2.65666266" y1="3.82614533" x2="2.65666266" y2="9.94797785" id="Path-8" stroke="#977064" stroke-width="0.5"></line>
                </g>
                <g id="Group-7-Copy" transform="translate(3.590085, 0.000000)">
                    <ellipse id="Oval" fill="#2BC98F" fill-rule="nonzero" cx="3.23107621" cy="3.82614533" rx="3.23107621" ry="3.82614533"></ellipse>
                    <line x1="3.59008468" y1="3.82614533" x2="3.59008468" y2="11.478436" id="Path-8" stroke="#977064" stroke-width="0.5"></line>
                </g>
                <g id="Group-7-Copy-2" transform="translate(0.000000, 3.826145)">
                    <ellipse id="Oval" fill="#2BC98F" fill-rule="nonzero" cx="1.79504234" cy="2.2956872" rx="1.79504234" ry="2.2956872"></ellipse>
                    <line x1="1.79504234" y1="3.06091626" x2="1.79504234" y2="7.65229065" id="Path-8" stroke="#977064" stroke-width="0.5"></line>
                </g>
                <g id="Group-8" transform="translate(39.490931, 3.826145)" fill-rule="nonzero">
                    <g id="Group-9">
                        <path d="M1.5644296,6.80629329 C2.06623099,6.23046378 2.32654052,5.59579427 2.3453582,4.90228475 C2.36417588,4.20877524 2.13793877,3.5877347 1.66664686,3.03916312 C1.16484548,3.61499263 0.904535949,4.24966215 0.885718271,4.94317166 C0.866900593,5.63668117 1.0931377,6.25772172 1.5644296,6.80629329 Z" id="Oval-Copy-2" fill="#1FB07B" transform="translate(1.615538, 4.922728) rotate(-30.000000) translate(-1.615538, -4.922728) "></path>
                        <path d="M2.15405081,6.12183252 C2.63272876,5.20821993 2.87206774,4.18791451 2.87206774,3.06091626 C2.87206774,1.93391801 2.63272876,0.913612593 2.15405081,0 C1.67537285,0.913612593 1.43603387,1.93391801 1.43603387,3.06091626 C1.43603387,4.18791451 1.67537285,5.20821993 2.15405081,6.12183252 Z" id="Oval" fill="#28BC86"></path>
                        <path d="M2.81073768,6.85165257 C3.31559001,6.16338295 3.57930679,5.40314244 3.601888,4.57093102 C3.62446921,3.7387196 3.40163934,2.99210805 2.93339839,2.33109637 C2.42854605,3.01936599 2.16482928,3.77960651 2.14224806,4.61181792 C2.11966685,5.44402934 2.34249672,6.19064089 2.81073768,6.85165257 Z" id="Oval-Copy-3" fill="#2BC98F" transform="translate(2.872068, 4.591374) scale(-1, 1) rotate(-30.000000) translate(-2.872068, -4.591374) "></path>
                        <path d="M1.08629798,6.46182391 L1.38044566,7.40229065 L2.92765596,7.40229065 L3.23717965,6.41266276 C2.73632234,6.46570783 2.37526954,6.49177321 2.15405081,6.49177321 C1.94789732,6.49177321 1.61759841,6.46816579 1.08629798,6.46182391 Z" id="Rectangle" stroke="#977064" stroke-width="0.5" fill="#E1F4FB"></path>
                    </g>
                </g>
            </g>
        </g>
    </g>
</svg>