<?xml version="1.0" encoding="UTF-8"?>
<svg width="22px" height="22px" viewBox="0 0 22 22" version="1.1" xmlns="http://www.w3.org/2000/svg" xmlns:xlink="http://www.w3.org/1999/xlink">
    <title>my</title>
    <g id="my" stroke="none" stroke-width="1" fill="none" fill-rule="evenodd">
        <path d="M11,10.1 C16.4503806,10.1 20.9,14.1652695 20.9,19.2225965 C20.9,19.7196528 20.4970563,20.1225965 20,20.1225965 C19.5029437,20.1225965 19.1,19.7196528 19.1,19.2225965 C19.1,15.1974943 15.4907449,11.9 11,11.9 C6.59561557,11.9 3.0391435,15.071887 2.90398495,18.9912046 L2.9,19.2225965 C2.9,20.0321804 2.95250321,20.1339615 3.34134984,20.096786 L3.67269636,20.0582916 C3.91884636,20.0244547 4.11645967,19.9609918 4.99839006,19.5871489 L6.92613019,18.7585053 C8.54563718,18.0601332 9.71672719,17.649904 10.9233529,17.4264103 C11.4789951,17.3234932 12.0143689,17.2698793 12.5336914,17.2698793 C13.0307477,17.2698793 13.4336914,17.6728231 13.4336914,18.1698793 C13.4336914,18.6669356 13.0307477,19.0698793 12.5336914,19.0698793 C12.1297051,19.0698793 11.7030923,19.1126015 11.2511766,19.1963063 C10.2886027,19.3745961 9.30790594,19.7059084 7.97865433,20.2664256 L5.99974094,21.1250383 C5.88890898,21.1720206 5.78558773,21.2151375 5.68579877,21.2560119 L5.53826725,21.3158443 C4.7596437,21.6283906 4.16630336,21.81088 3.63470092,21.8752669 C2.03548003,22.068962 1.1,21.1039892 1.1,19.2225965 C1.1,14.1652695 5.54961941,10.1 11,10.1 Z M11,0.1 C13.7061953,0.1 15.9,2.29380473 15.9,5 C15.9,7.70619527 13.7061953,9.9 11,9.9 C8.29380473,9.9 6.1,7.70619527 6.1,5 C6.1,2.29380473 8.29380473,0.1 11,0.1 Z M11,1.9 C9.28791728,1.9 7.9,3.28791728 7.9,5 C7.9,6.71208272 9.28791728,8.1 11,8.1 C12.7120827,8.1 14.1,6.71208272 14.1,5 C14.1,3.28791728 12.7120827,1.9 11,1.9 Z" id="Combined-Shape" fill="#CED5D8" fill-rule="nonzero"></path>
    </g>
</svg>