<?xml version="1.0" encoding="UTF-8"?>
<svg width="36px" height="36px" viewBox="0 0 36 36" version="1.1" xmlns="http://www.w3.org/2000/svg" xmlns:xlink="http://www.w3.org/1999/xlink">
    <title>rating</title>
    <defs>
        <radialGradient cx="50%" cy="0%" fx="50%" fy="0%" r="100%" gradientTransform="translate(0.500000,0.000000),scale(0.957681,1.000000),rotate(90.000000),translate(-0.500000,-0.000000)" id="radialGradient-1">
            <stop stop-color="#FFDEB1" offset="0%"></stop>
            <stop stop-color="#FDBA79" offset="100%"></stop>
        </radialGradient>
    </defs>
    <g id="rating" stroke="none" stroke-width="1" fill="none" fill-rule="evenodd">
        <g id="Group-5" transform="translate(0.000000, 1.000000)">
            <path d="M24.1861235,15.6594523 C24.6320958,15.8795528 24.9930739,16.2405309 25.2131744,16.6865031 L26.6826241,19.6639336 C27.032213,20.3722779 27.7079704,20.8632444 28.4896748,20.9768327 L28.9513152,21.0436118 L28.8252948,21.1770314 C28.3543047,21.7179349 28.1476155,22.4449243 28.270019,23.1585912 L29.6594222,31.2594334 C29.8834886,32.5658409 29.0060778,33.8065351 27.6996704,34.0306015 C27.1794521,34.119826 26.6443287,34.0350708 26.1771435,33.789457 L18.9021339,29.9647581 C18.2029563,29.5971787 17.3676742,29.5971787 16.6684965,29.9647581 L16.3429152,30.1348118 L16.4097319,29.7534249 C16.5432629,28.9748792 16.2851466,28.1804787 15.7195,27.6291095 L13.3418803,25.3115031 C12.4475425,24.4397392 12.4292427,23.0080309 13.3010066,22.1136931 C13.6481476,21.7575631 14.1030066,21.5258008 14.5951662,21.4542859 L17.8809557,20.9768327 C18.6626601,20.8632444 19.3384175,20.3722779 19.6880064,19.6639336 L21.1574561,16.6865031 C21.7101873,15.5665475 23.0661679,15.1067212 24.1861235,15.6594523 Z" id="Star-Copy-4-∩-Star-Copy-5" fill="#FEF4EA"></path>
            <path d="M18.8474729,0.248368692 C19.3207832,0.481961266 19.7038893,0.865067317 19.9374818,1.33837757 L23.5749866,8.7087673 C23.9245754,9.41711163 24.6003329,9.90807813 25.3820372,10.0216664 L33.5157452,11.2035634 C34.8274529,11.3941657 35.7362884,12.6120285 35.5456861,13.9237362 C35.4697873,14.446065 35.223818,14.9288068 34.8458573,15.2972275 L28.9602509,21.0342758 L28.9513152,21.0436118 L28.4896748,20.9768327 C27.7731124,20.8727101 27.1455749,20.451485 26.7766891,19.8363984 L26.6826241,19.6639336 L25.2131744,16.6865031 C24.9930739,16.2405309 24.6320958,15.8795528 24.1861235,15.6594523 C23.0661679,15.1067212 21.7101873,15.5665475 21.1574561,16.6865031 L21.1574561,16.6865031 L19.6880064,19.6639336 C19.3384175,20.3722779 18.6626601,20.8632444 17.8809557,20.9768327 L17.8809557,20.9768327 L14.5951662,21.4542859 C14.1030066,21.5258008 13.6481476,21.7575631 13.3010066,22.1136931 C12.4292427,23.0080309 12.4475425,24.4397392 13.3418803,25.3115031 L13.3418803,25.3115031 L15.7195,27.6291095 C16.2851466,28.1804787 16.5432629,28.9748792 16.4097319,29.7534249 L16.4097319,29.7534249 L16.3429152,30.1348118 L9.39348696,33.789457 C8.22025995,34.4062589 6.76915478,33.9551873 6.15235284,32.7819603 C5.90673907,32.3147751 5.82198385,31.7796517 5.91120828,31.2594334 L7.30061147,23.1585912 C7.43414252,22.3800454 7.17602616,21.585645 6.61037955,21.0342758 L0.724773173,15.2972275 C-0.224387414,14.3720246 -0.24380895,12.8525527 0.681393959,11.9033922 C1.04981461,11.5254314 1.5325564,11.2794622 2.05488527,11.2035634 L10.1885932,10.0216664 C10.9702976,9.90807813 11.646055,9.41711163 11.9956439,8.7087673 L15.6331487,1.33837757 C16.2197622,0.149768786 17.6588642,-0.338244811 18.8474729,0.248368692 Z" id="Star-Copy-5--Star-Copy-4" fill="url(#radialGradient-1)"></path>
        </g>
    </g>
</svg>