<?xml version="1.0" encoding="UTF-8"?>
<svg width="1200px" height="484px" viewBox="0 0 1200 484" version="1.1" xmlns="http://www.w3.org/2000/svg" xmlns:xlink="http://www.w3.org/1999/xlink">
    <title>3e-city</title>
    <defs>
        <linearGradient x1="100%" y1="72.8515625%" x2="0%" y2="72.8515625%" id="linearGradient-1">
            <stop stop-color="#C4EBF4" stop-opacity="0" offset="0%"></stop>
            <stop stop-color="#91D2E6" offset="100%"></stop>
        </linearGradient>
        <linearGradient x1="100%" y1="72.8515625%" x2="0%" y2="72.8515625%" id="linearGradient-2">
            <stop stop-color="#C4EBF4" stop-opacity="0" offset="0%"></stop>
            <stop stop-color="#91D2E6" offset="100%"></stop>
        </linearGradient>
    </defs>
    <g id="Page-1" stroke="none" stroke-width="1" fill="none" fill-rule="evenodd">
        <g id="3edata_home" transform="translate(-120.000000, -275.000000)">
            <g id="Group-5" transform="translate(0.000000, 90.000000)">
                <g id="3e-city" transform="translate(120.000000, 185.000000)">
                    <path d="M637.695917,197.414994 L740.261535,197.414994 C743.943433,197.414994 746.928201,200.399763 746.928201,204.081661 L746.928201,471.68937 C746.928201,475.371268 743.943433,478.356037 740.261535,478.356037 L644.362584,478.356037 C640.680686,478.356037 637.695917,475.371268 637.695917,471.68937 L637.695917,197.414994 L637.695917,197.414994 Z" id="Rectangle-Copy" fill="#81CCE2" opacity="0.800000012"></path>
                    <path d="M637.695917,197.414994 L582.496788,216.901182 C579.831594,217.842038 578.049341,220.361247 578.049341,223.187636 L578.049341,471.050676 C578.049341,474.701252 580.985394,477.672886 584.635705,477.716859 L630.948948,478.274761 C634.630579,478.319111 637.651084,475.370512 637.695434,471.688881 C637.695756,471.662114 637.695917,471.635346 637.695917,471.608578 L637.695917,197.414994 L637.695917,197.414994 Z" id="Rectangle-Copy-11" fill="#81CCE2" opacity="0.800000012"></path>
                    <path d="M751.958635,264.955808 L854.524253,264.955808 C858.206151,264.955808 861.190919,267.940576 861.190919,271.622474 L861.190919,471.68937 C861.190919,475.371268 858.206151,478.356037 854.524253,478.356037 L758.625302,478.356037 C754.943404,478.356037 751.958635,475.371268 751.958635,471.68937 L751.958635,264.955808 L751.958635,264.955808 Z" id="Rectangle-Copy-7" fill="#22B0E7" opacity="0.800000012"></path>
                    <path d="M751.958635,264.955808 L721.863053,291.649692 C720.436575,292.914935 719.62013,294.730424 719.62013,296.63717 L719.62013,468.796384 C719.62013,472.193423 722.174434,475.047207 725.550702,475.422288 L744.555874,477.533638 C748.21526,477.940172 751.511339,475.303215 751.917873,471.643829 C751.945027,471.399403 751.958635,471.153663 751.958635,470.907734 L751.958635,264.955808 L751.958635,264.955808 Z" id="Rectangle-Copy-10" fill="#22B0E7" opacity="0.800000012"></path>
                    <path d="M523.433199,117.659353 L626.95363,132.640193 C630.232538,133.114697 632.665483,135.925066 632.665483,139.238131 L632.665483,471.68937 C632.665483,475.371268 629.680715,478.356037 625.998817,478.356037 L530.099866,478.356037 C526.417968,478.356037 523.433199,475.371268 523.433199,471.68937 L523.433199,117.659353 L523.433199,117.659353 Z" id="Rectangle-Copy-4" fill="#839FEB" opacity="0.800000012"></path>
                    <path d="M523.433199,117.659353 L468.391285,135.56171 C465.645431,136.454798 463.786623,139.01403 463.786623,141.901472 L463.786623,474.76344 L463.786623,474.76344 L523.433199,478.356037 L523.433199,117.659353 Z" id="Rectangle-Copy-9" fill="#B0CBF1" opacity="0.800000012"></path>
                    <polygon id="Path-3" fill="#81ECEC" opacity="0.800000012" points="539.231907 478.215701 691.376073 345.648892 799.97878 392.711905 922.263534 257.052096 922.263534 478.215701"></polygon>
                    <polygon id="Path-3-Copy-2" fill="#22B0E7" opacity="0.800000012" points="539.243135 474.76344 699.498394 376.685557 829.745092 405.785589 961.080968 278.607674 961.080968 474.76344"></polygon>
                    <polygon id="Path-3-Copy" fill="#0984E3" opacity="0.800000012" points="538.973648 478.409926 710.727041 427.019538 851.079522 427.019538 997.450558 345.483857 997.450558 478.409926"></polygon>
                    <rect id="Rectangle" fill="url(#linearGradient-1)" x="998.058252" y="431.461875" width="201.666667" height="47.1492358"></rect>
                    <rect id="Rectangle-Copy-16" fill="url(#linearGradient-2)" transform="translate(87.119163, 456.769921) scale(-1, 1) translate(-87.119163, -456.769921) " x="0.0358298659" y="434.928731" width="174.166667" height="43.6823802"></rect>
                    <ellipse id="Oval-Copy-6" fill="#FAB1A0" opacity="0.800000012" cx="969.70457" cy="290.822502" rx="37.3689392" ry="37.3630031"></ellipse>
                    <rect id="Rectangle-Copy-6" stroke="#979797" stroke-width="0.833333333" fill="#D8D8D8" opacity="0.800000012" x="304.968632" y="388.541126" width="109.232284" height="89.0963919" rx="6.66666667"></rect>
                    <path d="M417.946193,159.17756 C492.703351,173.077895 549.304004,238.63396 549.304004,317.407716 C549.304004,406.297019 477.233537,478.356037 388.330111,478.356037 C299.426686,478.356037 227.356219,406.297019 227.356219,317.407716 C227.356219,258.621243 258.878174,207.195948 305.944253,179.107121 L371.22304,301.783052 C358.799458,307.854336 350.242539,320.613388 350.242539,335.370698 C350.242539,356.005715 366.973183,372.733701 387.611478,372.733701 C408.249773,372.733701 424.980417,356.005715 424.980417,335.370698 C424.980417,317.024476 411.755398,301.766632 394.317229,298.607603 L417.946193,159.17756 Z" id="Oval--Path-5--Oval-Copy-5" fill="#FF7676" opacity="0.800000012"></path>
                    <path d="M381.143777,120.533431 C391.260931,120.533431 401.160094,121.466616 410.759859,123.251595 L381.143777,298.007695 L298.757918,143.181157 C322.859079,128.797691 351.036164,120.533431 381.143777,120.533431 Z" id="Path-5-∩-Oval" fill="#21C0A2" opacity="0.800000012"></path>
                    <rect id="Rectangle" fill="#01A2FF" opacity="0.800000012" x="231.66802" y="384.23001" width="217.027301" height="43.1111574"></rect>
                    <polygon id="Rectangle-Copy-13" fill="#01A2FF" opacity="0.800000012" points="231.66802 384.23001 448.695321 384.23001 493.609911 377.044817 276.582611 377.044817"></polygon>
                    <polyline id="Path-4" stroke="#FFFFFF" stroke-width="16.6666667" opacity="0.800000012" stroke-linecap="round" stroke-linejoin="round" points="388.330111 474.76344 388.330111 333.93366 580.205242 213.222419 699.498394 273.937299 747.646835 197.414994 975.453637 290.822502"></polyline>
                    <rect id="Rectangle-Copy-3" fill="#55EFC4" opacity="0.800000012" x="304.968632" y="333.93366" width="143.726689" height="43.1111574"></rect>
                    <polygon id="Rectangle-Copy-14" fill="#55EFC4" opacity="0.800000012" points="304.968632 333.93366 448.695321 333.93366 485.345627 328.185505 341.618937 328.185505"></polygon>
                    <polygon id="Rectangle-Copy-5" fill="#207593" opacity="0.800000012" points="414.200916 340.57637 518.402765 278.607674 518.402765 477.637517 409.170481 477.637517"></polygon>
                    <path d="M555.171915,288.641522 L518.402765,278.607674 L518.402765,278.607674 L518.402765,477.637517 L560.083505,477.637517 L560.083505,295.073019 C560.083505,292.067048 558.071848,289.432878 555.171915,288.641522 Z" id="Rectangle-Copy-15" fill="#B6D1F2" opacity="0.800000012"></path>
                    <path d="M233.105287,206.037226 C243.017325,206.037226 251.786185,210.930972 257.126818,218.433776 C258.085814,218.313806 259.062715,218.252054 260.054041,218.252054 C272.952976,218.252054 283.409628,228.707045 283.409628,241.603931 C283.409628,254.500816 272.952976,264.955808 260.054041,264.955808 C255.400601,264.955808 251.065021,263.595102 247.423599,261.249927 C243.185081,263.610486 238.302317,264.955808 233.105287,264.955808 C224.322495,264.955808 216.43724,261.113601 211.039186,255.018597 C208.037377,259.699073 202.788054,262.80025 196.814298,262.80025 C187.487376,262.80025 179.926412,255.240487 179.926412,245.915047 C179.926412,236.589606 187.487376,229.029843 196.814298,229.029843 C199.39946,229.029843 201.848954,229.610617 204.039383,230.648788 C206.35049,216.685419 218.484181,206.037226 233.105287,206.037226 Z" id="Combined-Shape-Copy" fill="#FFFFFF" opacity="0.800000012" transform="translate(231.668020, 235.496517) scale(-1, 1) translate(-231.668020, -235.496517) "></path>
                    <ellipse id="Oval-Copy-4" fill="#40DEDA" opacity="0.800000012" cx="750.521369" cy="197.414994" rx="30.9012382" ry="30.8963295"></ellipse>
                    <rect id="Rectangle-Copy-2" fill="#6993FF" opacity="0.900000036" x="174.895978" y="435.244879" width="273.799343" height="43.1111574"></rect>
                    <polygon id="Rectangle-Copy-12" fill="#6993FF" opacity="0.800000012" points="174.895978 435.244879 448.695321 435.244879 497.364771 426.231055 223.565428 426.231055"></polygon>
                    <ellipse id="Oval" fill="#00CEC9" opacity="0.800000012" cx="522.714566" cy="388.541126" rx="37.3689392" ry="37.3630031"></ellipse>
                    <ellipse id="Oval-Copy-2" fill="#00CEC9" opacity="0.800000012" cx="580.205242" cy="386.385568" rx="30.9012382" ry="30.8963295"></ellipse>
                    <path d="M387.611478,298.007695 C408.249773,298.007695 424.980417,314.735681 424.980417,335.370698 C424.980417,356.005715 408.249773,372.733701 387.611478,372.733701 C366.973183,372.733701 350.242539,356.005715 350.242539,335.370698 C350.242539,314.735681 366.973183,298.007695 387.611478,298.007695 Z" id="Oval-Copy-5-∩-Oval" fill="#FFBE8A" opacity="0.800000012"></path>
                    <ellipse id="Oval-Copy-3" fill="#00CEC9" opacity="0.800000012" cx="573.949538" cy="443.486296" rx="17.0675444" ry="17.0648331"></ellipse>
                    <path d="M916.166378,0 C934.187146,0 950.1284,8.90204307 959.831207,22.5478564 C961.420249,22.3669438 963.036348,22.274098 964.674136,22.274098 C988.090663,22.274098 1007.07351,41.2539285 1007.07351,64.6667361 C1007.07351,88.0795436 988.090663,107.059374 964.674136,107.059374 C956.30982,107.059374 948.511196,104.637742 941.941339,100.457446 C934.296359,104.665719 925.510947,107.059374 916.166378,107.059374 C900.192805,107.059374 885.853109,100.065026 876.043755,88.9723348 C870.662491,97.6714151 861.034193,103.466778 850.052101,103.466778 C833.184263,103.466778 819.510179,89.7948659 819.510179,72.9297079 C819.510179,56.0645499 833.184263,42.3926381 850.052101,42.3926381 C854.777867,42.3926381 859.252949,43.4657744 863.246877,45.3816142 C867.16958,19.6849771 889.368777,0 916.166378,0 Z" id="Combined-Shape" fill="#FFFFFF" opacity="0.800000012"></path>
                </g>
            </g>
        </g>
    </g>
</svg>