<?xml version="1.0" encoding="UTF-8"?>
<svg width="160px" height="155px" viewBox="0 0 160 155" version="1.1" xmlns="http://www.w3.org/2000/svg" xmlns:xlink="http://www.w3.org/1999/xlink">
    <title>icon-book</title>
    <g id="Page-1" stroke="none" stroke-width="1" fill="none" fill-rule="evenodd">
        <g id="3edata_home" transform="translate(-641.000000, -3132.000000)">
            <g id="icon-book" transform="translate(641.000000, 3132.000000)">
                <g id="Group-26">
                    <g id="Group-30" transform="translate(0.000000, -0.000000)">
                        <path d="M16.7519561,84.5670277 C24.0756446,83.4819738 59.9043381,82.1218268 73.8855771,90.6463082 C74.0749297,90.7635367 74.2713032,90.8580001 74.4723572,90.9405494 L74.4887394,34.2235039 C74.4863991,34.2218018 74.4838459,34.2200999 74.4812929,34.2183978 L74.4887394,8.68090883 C69.8340708,5.35660152 36.0837874,-3.87167579 15.5052077,1.80528383 C14.1805909,2.17079808 13.2580822,3.37137831 13.2580822,4.74535444 L13.2580822,30.2881623 L13.2580822,56.009472 L13.2580822,81.5524926 C13.2580822,83.4145301 14.9105557,84.8421207 16.7519561,84.5670277 Z" id="Path" fill="#A29BFE" fill-rule="nonzero"></path>
                        <path d="M79.4944942,92.4554561 C79.6955482,92.3729068 79.8921346,92.2784434 80.0812743,92.161215 C94.0625133,83.6367335 129.89142,84.9968805 137.214895,86.0819344 C139.056083,86.3572402 140.708769,84.9294369 140.708769,83.0673993 L140.708769,57.5243788 L140.708769,31.8028561 L140.708769,6.26004846 C140.708769,4.88607233 139.786261,3.68549211 138.461431,3.31997785 C117.883064,-2.35676904 84.1327806,6.87129554 79.4778993,10.1956028 L79.4853457,35.7330918 C79.4827927,35.7347939 79.4804523,35.7367086 79.4778993,35.738198 L79.4944942,92.4554561 Z" id="Path" fill="#A7E4FF" fill-rule="nonzero"></path>
                        <path d="M155.278877,118.29795 C152.956861,118.29795 149.293421,119.003874 147.137781,119.866598 C147.137781,119.866598 140.055783,122.701355 120.797565,127.49708 C88.9988891,135.415208 70.2149036,126.404154 70.2149036,126.404154 C68.1213878,125.399947 68.2894648,124.311702 70.5882897,123.985973 C70.5882897,123.985973 86.2013647,121.773314 99.0318083,121.773314 C111.862039,121.773314 116.681806,111.519767 104.819826,111.519767 C92.9578466,111.519767 73.592187,104.279053 58.8252414,104.279053 C44.0585084,104.279053 35.1295784,109.414763 35.1295784,109.414763 C33.1169098,110.572366 29.5704854,111.519767 27.2486827,111.519767 L4.22171072,111.519767 C1.89969532,111.519555 2.28516257e-14,113.41925 2.28516257e-14,115.741265 L2.28516257e-14,133.926982 C2.28516257e-14,136.248997 1.89969548,138.148693 4.22149799,138.148693 L27.24847,138.148693 C29.5702726,138.148693 33.1711624,138.994609 35.2502109,140.028176 C35.2502109,140.028176 41.3022588,143.03718 60.0356084,150.615324 C86.6643212,161.388208 117.20476,147.356333 127.293634,141.90149 C138.469476,135.859229 138.469476,135.859229 148.636432,131.86538 C158.803387,127.870892 159.287832,124.907205 159.287832,124.907205 C161.466875,118.29795 155.278877,118.29795 155.278877,118.29795 Z" id="Path" fill="#C2BCB2"></path>
                    </g>
                </g>
            </g>
        </g>
    </g>
</svg>