<?xml version="1.0" encoding="UTF-8"?>
<svg width="151px" height="160px" viewBox="0 0 151 160" version="1.1" xmlns="http://www.w3.org/2000/svg" xmlns:xlink="http://www.w3.org/1999/xlink">
    <title>icon-garbage</title>
    <g id="Page-1" stroke="none" stroke-width="1" fill="none" fill-rule="evenodd">
        <g id="3edata_home" transform="translate(-239.000000, -3129.000000)">
            <g id="icon-garbage" transform="translate(239.000000, 3129.000000)">
                <g id="Group-31">
                    <g id="Group-35">
                        <g id="lajifenlei" transform="translate(10.802557, 41.740057)" fill="#FFEAA7" fill-rule="nonzero">
                            <path d="M0.33931108,21.7982955 C11.9119318,12.6310369 14.739169,1.54367898 14.739169,1.54367898 C17.0646307,3.35102983 20.0284091,4.62730824 23.2537287,5.52556818 C27.0502486,5.29296875 36.259233,4.30007102 40.9501065,0.0509588068 C40.9501065,0.0509588068 43.559304,5.1237571 45.9028764,7.29651989 C48.9593395,7.12198153 50.9156605,6.87286932 50.9156605,6.87286932 C48.1283736,12.6292614 45.2137784,15.5273437 42.0665838,17.3929332 C38.0555753,19.7746804 33.3410866,27.34375 33.3410866,27.34375 C30.3410866,24.5692472 24.5555753,24.9982244 24.5555753,24.9982244 C9.12659801,28.6219815 0.33931108,21.7982955 0.33931108,21.7982955 Z" id="Shape"></path>
                        </g>
                        <path d="M66.8581321,75.1583807 L66.8581321,76.4366122 C66.8541193,77.4393095 66.0391025,78.2494806 65.0363991,78.2475142 L62.0783026,78.2475142 L53.3290128,153.62571 L13.5546875,153.62571 L4.7837358,78.2475142 L1.81818182,78.2475142 C0.817484548,78.2475261 0.00488621707,77.4388956 2.13162821e-14,76.4382102 L2.13162821e-14,75.1601563 C0.00094034972,74.6781067 0.193457959,74.2162005 0.535150697,73.876173 C0.876843434,73.5361454 1.33968454,73.3458866 1.82173295,73.3472778 L65.0399503,73.3472778 C66.0397933,73.3437388 66.8550964,74.1549892 66.8581321,75.1583807 Z" id="Path" fill="#86B94E"></path>
                        <path d="M131.959961,28.5706676 C138.906738,28.5706676 139.73871,45.020938 146.865412,61.621804 C148.525997,65.4899543 153.09568,67.8719675 146.865412,69.510831 C146.181312,69.6907826 145.486288,69.8703031 144.782138,70.048146 C145.595104,71.4187486 146.296141,72.9464498 146.865412,74.6290838 C155.409167,99.8824478 144.645779,151.230711 138.292791,159.490945 C133.823069,165.302532 135.223973,103.057681 125.219993,102.772727 C112.723973,102.41679 96.9910819,164.980257 93.2927912,158.209162 C88.9556593,150.268431 93.2482955,98.1564214 109.149148,73.3490767 C109.503558,72.7961518 109.868481,72.2617009 110.243064,71.7457222 C110.015591,71.6467084 109.792913,71.5412124 109.574574,71.431108 C94.9708745,64.0667166 115.316607,55.9648523 99.9325284,45.8433949 C82.7438087,34.5346321 37.8366599,32.4489704 44.4289773,28.5706676 C52.5167025,23.8126067 131.959961,28.5706676 131.959961,28.5706676 Z M111.181818,-1.01024966e-10 C118.345526,-1.01024966e-10 124.149148,5.77627841 124.149148,12.9000355 C124.149148,20.0236151 118.343572,25.800071 111.183594,25.800071 L111.181818,25.800071 C104.023615,25.800071 98.2182173,20.0253906 98.2182173,12.9000355 C98.2182173,5.77645597 104.025391,-1.01024966e-10 111.181818,-1.01024966e-10 Z" id="Combined-Shape" fill="#C2BCB2"></path>
                    </g>
                </g>
            </g>
        </g>
    </g>
</svg>