<?xml version="1.0" encoding="UTF-8"?>
<svg width="160px" height="157px" viewBox="0 0 160 157" version="1.1" xmlns="http://www.w3.org/2000/svg" xmlns:xlink="http://www.w3.org/1999/xlink">
    <title>icon-water</title>
    <defs>
        <filter id="filter-1">
            <feColorMatrix in="SourceGraphic" type="matrix" values="0 0 0 0 0.761747 0 0 0 0 0.735801 0 0 0 0 0.697402 0 0 0 1.000000 0"></feColorMatrix>
        </filter>
    </defs>
    <g id="Page-1" stroke="none" stroke-width="1" fill="none" fill-rule="evenodd">
        <g id="3edata_home" transform="translate(-641.000000, -2850.000000)">
            <g id="icon-water" transform="translate(641.000000, 2850.000000)">
                <g id="Group-32">
                    <g id="Group-24">
                        <g id="Group-23">
                            <g filter="url(#filter-1)" id="paifangkou">
                                <g transform="translate(38.000000, 10.000000)">
                                    <path d="M23.1712096,57.5416794 L8.59617074,57.5416794 C4.22980882,57.5416794 0.683421176,54.077289 0.683421176,49.8134238 L0.683421176,17.0759597 C0.683421176,7.66675735 8.59617088,0 18.292364,0 L86.2477138,0 C90.6140757,0 94.1604635,3.46439044 94.1604635,7.72825544 L94.1604635,17.0759597 C94.1604635,21.3398249 90.6140757,24.8042151 86.2477138,24.8042151 L31.0839593,24.8042151 L31.0839593,49.8134238 C31.0839593,54.077289 27.5170721,57.5416794 23.1712096,57.5416794 Z" id="Shape" fill="#C4C9D3" fill-rule="nonzero"></path>
                                </g>
                            </g>
                            <path d="M9.04021397,156.033391 C2.21393,156.033391 2.84217094e-14,144.881744 2.84217094e-14,139.490415 C2.84217094e-14,133.422607 4.81734765,121.63548 13.6730674,121.63548 C19.6793774,121.63548 23.3487612,126.411829 26.3006678,130.245207 C27.3666341,131.618664 29.3345718,134.181083 30.1135471,134.26308 C31.3025094,134.242581 34.8898959,131.495668 37.2473215,129.691725 C42.0441697,126.022341 47.4969972,121.860973 52.744831,121.860973 C59.1201293,121.860973 63.4454925,126.965311 66.9098829,131.085681 C68.6318285,133.115117 70.9687546,135.903029 72.1577168,135.903028 C73.2441824,135.780032 76.1345909,132.828126 78.06153,130.880687 C82.3868931,126.473327 87.7577232,121 94.1740201,121 C99.8728399,121 104.833683,125.75585 109.200045,129.978716 C110.901491,131.618664 113.46391,134.078586 114.529876,134.427075 C115.841835,134.037587 119.326724,131.311174 121.68415,129.486731 C127.587963,124.894877 131.728832,121.881472 135.295719,121.881472 C143.023975,121.881472 152.535674,132.110648 152.904662,138.793437 C153.437645,148.633126 147.615829,154.700934 147.369837,154.946926 L146.467866,155.869397 L145.176406,155.869397 C145.155907,155.848897 15.7230025,156.033391 9.04021397,156.033391 Z" id="Path" fill="#A7E4FF"></path>
                            <polygon id="Rectangle" fill="#E6E9EE" points="124 0 160 0 159.752751 96.2192725 123.752751 96.2192725"></polygon>
                        </g>
                    </g>
                    <path d="M53.1225491,78 C47.9019608,86.7951807 43,97.6626506 43,101.373494 C43,106.915663 47.1421569,110 53.1225491,110 C59.1029413,110 63,106.939759 63,101.373494 C63,97.6626506 58.3676471,86.7951807 53.1225491,78 Z" id="Path" fill="#B9A07B"></path>
                    <path d="M53.1225491,78 C47.9019608,86.7951807 43,97.6626506 43,101.373494 C43,106.915663 47.1421569,110 53.1225491,110 C59.1029413,110 63,106.939759 63,101.373494 C63,97.6626506 58.3676471,86.7951807 53.1225491,78 Z" id="Path-Copy-3" fill="#B9A07B"></path>
                    <path d="M52.6531864,110 C46.127451,120.993976 40,134.578313 40,139.216867 C40,146.144578 45.1776962,150 52.6531864,150 C60.1286766,150 65,146.174699 65,139.216867 C65,134.578313 59.2095589,120.993976 52.6531864,110 Z" id="Path-Copy-4" fill="#B9A07B" opacity="0.5"></path>
                </g>
            </g>
        </g>
    </g>
</svg>