<?xml version="1.0" encoding="UTF-8"?>
<svg width="154px" height="142px" viewBox="0 0 154 142" version="1.1" xmlns="http://www.w3.org/2000/svg" xmlns:xlink="http://www.w3.org/1999/xlink">
    <title>icon-air</title>
    <g id="Page-1" stroke="none" stroke-width="1" fill="none" fill-rule="evenodd">
        <g id="3edata_home" transform="translate(-237.000000, -2855.000000)">
            <g id="icon-air" transform="translate(237.000000, 2851.000000)">
                <g id="Group-25">
                    <g id="Group-34">
                        <g id="Group-21">
                            <g id="Group-37">
                                <g id="Group-18" transform="translate(0.000000, 4.000000)" fill="#A7E4FF">
                                    <path d="M76.2985596,3.03018815e-09 C96.8134913,3.03018438e-09 114.091493,13.8589466 119.280831,32.7251076 C138.033896,33.1578622 153.103448,48.4962496 153.103448,67.3543196 C153.103448,86.4851123 137.594877,101.993684 118.464084,101.993684 L34.6393644,101.993684 C15.5085717,101.993684 -2.50660806e-12,86.4851123 -2.5089509e-12,67.3543196 C-2.51123938e-12,48.6674422 14.7971933,33.4366344 33.3136182,32.7398579 C38.4964796,13.8662846 55.7781974,3.03019192e-09 76.2985596,3.03018815e-09 Z" id="Combined-Shape"></path>
                                </g>
                                <g id="Group-36" transform="translate(19.000000, -0.000000)">
                                    <g id="Group-20" transform="translate(0.000000, -0.000000)">
                                        <g id="Group-33" transform="translate(0.029339, 0.905067)">
                                            <path d="M46.7420726,87.597033 C63.2094759,87.5555428 76.5924754,74.1594048 76.6338974,57.675825 C76.6614337,46.6867719 66.9832626,30.7948302 47.5993842,10 C27.2274343,30.8947642 17.0276396,46.8366729 17,57.8257261 C16.9587329,74.3093058 30.2746693,87.6383309 46.7420726,87.597033 Z" id="Oval" fill="#79C327" transform="translate(46.816949, 48.798516) rotate(-32.000000) translate(-46.816949, -48.798516) "></path>
                                            <g id="Group-19" transform="translate(22.745698, 22.867188)" fill="#6CB342">
                                                <g id="Group-18">
                                                    <path d="M43.3516334,-7.00167462 C38.3167183,16.102185 36.0191013,36.3880252 36.4587823,53.8558458 C36.7638817,65.976951 39.3084364,77.619044 44.0924467,88.7821249 C44.6365533,90.0518479 44.0483655,91.5222635 42.7786575,92.066405 C42.4694002,92.1989392 42.1365822,92.2677166 41.8001234,92.2686208 C39.5350787,92.2747075 37.5708572,90.7040764 37.0785659,88.4931684 C32.523084,68.0342296 30.5598034,52.4073361 31.1887242,41.612488 C32.3194796,22.2041083 36.3737827,5.99938745 43.3516334,-7.00167462 Z" id="Rectangle" transform="translate(38.368086, 42.638662) rotate(-41.000000) translate(-38.368086, -42.638662) "></path>
                                                    <path d="M29.6721915,5.8573453 C29.4137049,12.2671544 29.4169686,18.0693411 29.6819827,23.2639056 C29.8363775,26.2902123 30.1420802,28.9652757 30.5990908,31.2890958 C30.7858966,32.2390338 30.1672672,33.1605544 29.2173316,33.3473721 C29.1054152,33.3693819 28.9916179,33.3804162 28.8775578,33.3803179 C27.6361261,33.3792482 26.613047,32.40601 26.5500485,31.1661773 C26.3089905,26.4235257 26.3492848,22.5736626 26.6709313,19.6165879 C27.2984969,13.8470301 28.298917,9.26061589 29.6721915,5.8573453 Z" id="Rectangle-Copy-26" transform="translate(28.735795, 19.619779) scale(-1, 1) translate(-28.735795, -19.619779) "></path>
                                                    <path d="M25.1723114,24.905508 C24.8456082,33.3559959 24.846664,41.0052966 25.1754789,47.85341 C25.3697635,51.8997074 25.7589316,55.4696237 26.3429833,58.563159 C26.5700524,59.7660033 25.7790534,60.925193 24.5762136,61.1522862 C24.440274,61.1779512 24.3022301,61.1908326 24.1638891,61.1907617 C22.6132133,61.1899669 21.3359283,59.9726152 21.2606711,58.4237665 C20.9534959,52.1021544 21.0034868,46.9763873 21.4106438,43.0464652 C22.1987202,35.4398687 23.4526094,29.3928829 25.1723114,24.905508 Z" id="Rectangle-Copy-30" transform="translate(23.988583, 43.048840) rotate(-63.000000) translate(-23.988583, -43.048840) "></path>
                                                </g>
                                            </g>
                                            <g id="Group-20-Copy" transform="translate(57.070817, 120.427571) scale(1, -1) translate(-57.070817, -120.427571) translate(26.070817, 86.427571)">
                                                <path d="M28.6039307,54.321029 C38.7367844,54.3247735 46.9480681,46.1285099 46.9443474,36.0141606 C46.9418653,29.271261 40.9584577,19.5027419 28.9941246,6.70860312 C16.4955849,19.4936987 10.2475555,29.2576963 10.2500362,36.0005958 C10.2537589,46.1149452 18.471077,54.3172819 28.6039307,54.321029 Z" id="Oval" fill="#79C327" transform="translate(28.597192, 30.514816) rotate(-32.000000) translate(-28.597192, -30.514816) "></path>
                                                <g id="Group-19" transform="translate(13.793103, 14.793103)" fill="#6CB342">
                                                    <g id="Group-18">
                                                        <path d="M26.7529653,-4.25093141 C23.7707394,9.99963484 22.4681941,22.5247506 22.8453294,33.3244159 C23.1071528,40.8220004 24.7554314,48.0366458 27.7901654,54.9683519 C28.1270867,55.7380172 27.7763193,56.6350989 27.0066694,56.9720553 C26.8110132,57.0577145 26.5995121,57.1012138 26.3859316,57.0997222 C24.9761647,57.0898764 23.7570307,56.1146877 23.4377905,54.741507 C20.4911871,42.0665284 19.1804737,32.3943963 19.5056503,25.7251108 C20.0902381,13.735373 22.5060098,3.74335898 26.7529653,-4.25093141 Z" id="Rectangle" transform="translate(24.118270, 26.432753) rotate(-41.000000) translate(-24.118270, -26.432753) "></path>
                                                        <path d="M18.5451197,3.96929617 C18.3835656,7.89788882 18.3856054,11.4540678 18.5512392,14.6378331 C18.6472109,16.4825751 18.8367239,18.1143749 19.1197782,19.5332327 C19.2376813,20.1243792 18.8540673,20.6991946 18.262926,20.817124 C18.1923126,20.831211 18.1204784,20.8382757 18.0484736,20.8382149 C17.272191,20.8375589 16.6322983,20.229267 16.5923774,19.4540112 C16.4432777,16.5596786 16.4689292,14.209135 16.6693321,12.4023804 C17.0615606,8.86619976 17.6868231,6.0551717 18.5451197,3.96929617 Z" id="Rectangle-Copy-26" transform="translate(17.959872, 12.404336) scale(-1, 1) translate(-17.959872, -12.404336) "></path>
                                                        <path d="M15.6073465,15.4142952 C15.4476448,20.6731825 15.4857245,25.4349291 15.7215855,29.699535 C15.8614722,32.2288276 16.1198464,34.4602916 16.496708,36.393927 C16.6388926,37.1234876 16.1627352,37.8301801 15.4331755,37.9723698 C15.344615,37.9896301 15.2545433,37.9979409 15.1643197,37.9971767 C14.2061827,37.9890614 13.4189709,37.2383928 13.3653378,36.2817236 C13.1441626,32.3352151 13.1494493,29.1375596 13.3811978,26.688757 C13.8289562,21.9574555 14.5710058,18.1993016 15.6073465,15.4142952 Z" id="Rectangle-Copy-30" transform="translate(15.030226, 26.712905) rotate(-63.000000) translate(-15.030226, -26.712905) "></path>
                                                    </g>
                                                </g>
                                            </g>
                                        </g>
                                    </g>
                                </g>
                            </g>
                        </g>
                    </g>
                </g>
            </g>
        </g>
    </g>
</svg>