<?xml version="1.0" encoding="UTF-8"?>
<svg width="160px" height="157px" viewBox="0 0 160 157" version="1.1" xmlns="http://www.w3.org/2000/svg" xmlns:xlink="http://www.w3.org/1999/xlink">
    <title>icon-sewage</title>
    <g id="Page-1" stroke="none" stroke-width="1" fill="none" fill-rule="evenodd">
        <g id="3edata_home" transform="translate(-1048.000000, -2850.000000)">
            <g id="icon-sewage" transform="translate(1048.000000, 2850.000000)">
                <g id="Group-22">
                    <path d="M0,32.0613555 C27.87895,32.0613555 50.4831503,32.0613555 67.812601,32.0613555 C120.990129,30.7656226 150.385929,49.9927921 156,89.742864 C146.84571,96.3409547 140.05474,98.4472493 135.627091,96.0617478 C126.520236,86.1916348 122.961596,95.5024324 124.951172,123.994141 C114.263209,80.5769924 95.2170182,58.7676909 67.812601,58.5662362 C44.3568592,58.3406478 21.7526589,58.3406478 0,58.5662362 L0,32.0613555 Z" id="Rectangle" fill="#939FAB"></path>
                    <path d="M1.42108547e-14,32.0623573 C28.5722714,32.0207858 51.7386155,32 69.4990321,32 C69.4990321,35.1233479 69.4990321,59 69.4990321,59 C45.4599696,58.7707283 22.2936256,58.7707283 1.42108547e-14,59 L1.42108547e-14,32.0623573 Z" id="Rectangle-Copy-32" fill="#C2BCB2"></path>
                    <path d="M62,23 L78,23 L78,23 L78,69 L62,69 C57.0294373,69 53,64.9705627 53,60 L53,32 C53,27.0294373 57.0294373,23 62,23 Z" id="Rectangle" fill="#C2BCB2"></path>
                    <path d="M57,156.033391 C65.9636617,136.654671 71.6002893,128.338768 73.9098829,131.085681 C75.6318285,133.115117 77.9687546,135.903029 79.1577168,135.903028 C80.2441824,135.780032 83.1345909,132.828126 85.06153,130.880687 C89.3868931,126.473327 94.7577232,121 101.17402,121 C106.87284,121 111.833683,125.75585 116.200045,129.978716 C117.901491,131.618664 120.46391,134.078586 121.529876,134.427075 C122.841835,134.037587 126.326724,131.311174 128.68415,129.486731 C134.587963,124.894877 138.728832,121.881472 142.295719,121.881472 C150.023975,121.881472 159.535674,132.110648 159.904662,138.793437 C160.437645,148.633126 154.615829,154.700934 154.369837,154.946926 L153.467866,155.869397 L152.176406,155.869397 C152.16274,155.85573 120.437271,155.910395 57,156.033391 Z" id="Path-Copy" fill="#939FAB"></path>
                    <path d="M15.689153,156.033391 C9.12795588,156.033391 7,150.303725 7,147.533684 C7,144.416071 11.6302743,138.359898 20.1420976,138.359898 C25.915163,138.359898 29.4420527,140.813965 32.2793272,142.783538 C33.3038985,143.489213 35.1954148,144.805773 35.9441399,144.847903 C37.086931,144.83737 40.5350075,143.426019 42.8008866,142.499161 C47.4114576,140.613848 52.652534,138.475755 57.6965774,138.475755 C63.824302,138.475755 67.9816973,141.098342 71.3115542,143.215369 C72.966631,144.258084 75.2128066,145.690501 76.3555975,145.690501 C77.3998721,145.627306 80.1780366,144.11063 82.0301464,143.110044 C86.1875416,140.845562 91.3498049,138.033391 97.5169361,138.033391 C102.994452,138.033391 107.762649,140.476926 111.959451,142.646616 C113.594825,143.489214 116.057737,144.753111 117.082308,144.932163 C118.343319,144.732046 121.692879,143.331226 123.958758,142.393836 C129.633307,140.034562 133.613372,138.486288 137.041745,138.486288 C144.469888,138.486288 153.612216,143.741993 153.966876,147.17558 C154.479161,152.231168 148.883426,155.348781 148.646986,155.47517 L147.780041,155.949132 L146.538734,155.949132 C146.51903,155.938599 22.1124271,156.033391 15.689153,156.033391 Z" id="Path-Copy-2" fill="#A7E4FF"></path>
                    <polygon id="Rectangle-Copy-25" fill="#E6E9EE" points="0 0 36 0 36 97.9454209 0 97.9454209"></polygon>
                </g>
            </g>
        </g>
    </g>
</svg>