<?xml version="1.0" encoding="UTF-8"?>
<svg width="32px" height="32px" viewBox="0 0 32 32" version="1.1" xmlns="http://www.w3.org/2000/svg" xmlns:xlink="http://www.w3.org/1999/xlink">
    <!-- Generator: Sketch 64 (93537) - https://sketch.com -->
    <title>close@2x</title>
    <desc>Created with Sketch.</desc>
    <g id="close" stroke="none" stroke-width="1" fill="none" fill-rule="evenodd">
        <path d="M0.646446609,0.646446609 C0.820012961,0.472880258 1.08943736,0.453595107 1.2843055,0.588591159 L1.35355339,0.646446609 L31.3535534,30.6464466 C31.5488155,30.8417088 31.5488155,31.1582912 31.3535534,31.3535534 C31.179987,31.5271197 30.9105626,31.5464049 30.7156945,31.4114088 L30.6464466,31.3535534 L0.646446609,1.35355339 C0.451184464,1.15829124 0.451184464,0.841708755 0.646446609,0.646446609 Z" id="Path" fill="#000000" fill-rule="nonzero"></path>
        <path d="M30.6464466,0.646446609 C30.8417088,0.451184464 31.1582912,0.451184464 31.3535534,0.646446609 C31.5271197,0.820012961 31.5464049,1.08943736 31.4114088,1.2843055 L31.3535534,1.35355339 L1.35355339,31.3535534 C1.15829124,31.5488155 0.841708755,31.5488155 0.646446609,31.3535534 C0.472880258,31.179987 0.453595107,30.9105626 0.588591159,30.7156945 L0.646446609,30.6464466 L30.6464466,0.646446609 Z" id="Path-Copy-2" fill="#000000" fill-rule="nonzero"></path>
    </g>
</svg>