<?xml version="1.0" encoding="UTF-8"?>
<svg width="32px" height="32px" viewBox="0 0 32 32" version="1.1" xmlns="http://www.w3.org/2000/svg" xmlns:xlink="http://www.w3.org/1999/xlink">
    <!-- Generator: Sketch 64 (93537) - https://sketch.com -->
    <title>menu@2x</title>
    <desc>Created with Sketch.</desc>
    <g id="menu" stroke="none" stroke-width="1" fill="none" fill-rule="evenodd">
        <path d="M31,3 C31.2761424,3 31.5,3.22385763 31.5,3.5 C31.5,3.74545989 31.3231248,3.94960837 31.0898756,3.99194433 L31,4 L1,4 C0.723857625,4 0.5,3.77614237 0.5,3.5 C0.5,3.25454011 0.676875161,3.05039163 0.910124368,3.00805567 L1,3 L31,3 Z" id="Path" fill="#000000" fill-rule="nonzero"></path>
        <path d="M31.3932292,15.5 C31.6693715,15.5 31.8932292,15.7238576 31.8932292,16 C31.8932292,16.2454599 31.716354,16.4496084 31.4831048,16.4919443 L31.3932292,16.5 L6,16.5 C5.72385763,16.5 5.5,16.2761424 5.5,16 C5.5,15.7545401 5.67687516,15.5503916 5.91012437,15.5080557 L6,15.5 L31.3932292,15.5 Z" id="Path-Copy" fill="#000000" fill-rule="nonzero"></path>
        <path d="M31,28 C31.2761424,28 31.5,28.2238576 31.5,28.5 C31.5,28.7454599 31.3231248,28.9496084 31.0898756,28.9919443 L31,29 L1,29 C0.723857625,29 0.5,28.7761424 0.5,28.5 C0.5,28.2545401 0.676875161,28.0503916 0.910124368,28.0080557 L1,28 L31,28 Z" id="Path-Copy-2" fill="#000000" fill-rule="nonzero"></path>
    </g>
</svg>