<?xml version="1.0" encoding="UTF-8"?>
<svg width="32px" height="32px" viewBox="0 0 32 32" version="1.1" xmlns="http://www.w3.org/2000/svg" xmlns:xlink="http://www.w3.org/1999/xlink">
    <!-- Generator: Sketch 64 (93537) - https://sketch.com -->
    <title>prev@2x</title>
    <desc>Created with Sketch.</desc>
    <g id="prev" stroke="none" stroke-width="1" fill="none" fill-rule="evenodd">
        <path d="M23.6464466,0.646446609 C23.8417088,0.451184464 24.1582912,0.451184464 24.3535534,0.646446609 C24.5271197,0.820012961 24.5464049,1.08943736 24.4114088,1.2843055 L24.3535534,1.35355339 L9.707,16 L24.3535534,30.6464466 C24.5271197,30.820013 24.5464049,31.0894374 24.4114088,31.2843055 L24.3535534,31.3535534 C24.179987,31.5271197 23.9105626,31.5464049 23.7156945,31.4114088 L23.6464466,31.3535534 L8.64644661,16.3535534 C8.47288026,16.179987 8.45359511,15.9105626 8.58859116,15.7156945 L8.64644661,15.6464466 L23.6464466,0.646446609 Z" id="Path-2" fill="#000000" fill-rule="nonzero"></path>
        <path d="M23.6464466,0.646446609 C23.8417088,0.451184464 24.1582912,0.451184464 24.3535534,0.646446609 C24.5271197,0.820012961 24.5464049,1.08943736 24.4114088,1.2843055 L24.3535534,1.35355339 L9.707,16 L24.3535534,30.6464466 C24.5271197,30.820013 24.5464049,31.0894374 24.4114088,31.2843055 L24.3535534,31.3535534 C24.179987,31.5271197 23.9105626,31.5464049 23.7156945,31.4114088 L23.6464466,31.3535534 L8.64644661,16.3535534 C8.47288026,16.179987 8.45359511,15.9105626 8.58859116,15.7156945 L8.64644661,15.6464466 L23.6464466,0.646446609 Z" id="Path-2-Copy" fill="#000000" fill-rule="nonzero"></path>
    </g>
</svg>