<svg xmlns="http://www.w3.org/2000/svg" width="141" height="48" viewBox="0 0 141 48">
  <path fill="#FFF" d="M69.5652 26.087L69.5690431 25.8259652C69.7045154 21.2309152 73.4048152 17.5306154 77.9998652 17.3951431L78.346225 17.391725 78.4314 17.3929C83.0540945 17.3913291 86.8174126 21.0705696 86.9527323 25.66058L86.9565 25.9165 86.9565 39.4748C86.9565 44.0975927 83.277231 47.8609125 78.6873146 47.9962323L78.4314 48 78.4314 34.781 78.2609 34.7826C73.4584 34.7826 69.5652 30.8894 69.5652 26.087zM78.4137661 18.3927445L78.2609 18.3913C74.1801247 18.3913 70.8275412 21.5727514 70.5801792 25.5934897L70.5689347 25.8406861 70.5650916 26.1017209 70.5690039 26.3312882C70.6954365 30.3856311 73.9579626 33.6497018 78.0117408 33.7786429L78.3565182 33.782032 79.4314 33.7614115 79.431 46.934 79.6286363 46.905285C83.1376701 46.3442945 85.8369327 43.35739 85.9526336 39.7183494L85.9565 39.4748 85.9565 25.9165C85.9565 21.7602367 82.5873416 18.3913 78.4137661 18.3927445zM17.3913 0L17.3913 26.087 17.3874569 26.3480295C17.2519846 30.9429866 13.5516857 34.6432846 8.95668215 34.7787569L8.69565 34.7826C3.98049764 34.7826.141870774 31.0296839.00384307023 26.3480295L0 26.087 0 0 17.3913 0zM26.087 17.3913C30.5075882 17.3913 34.1577036 20.6899351 34.710281 24.9600462L34.7397 25.2174 26.087 25.2174C26.087 26.3705 26.545 27.4764 27.3604 28.2918 28.1758 29.1071 29.2817 29.5652 30.4348 29.5652 31.5879 29.5652 32.6938 29.1071 33.5092 28.2918 34.1835077 27.6174923 34.6134414 26.7444817 34.741978 25.8104103L34.7678 25.5757C34.7776 25.7449 34.7826 25.9153 34.7826 26.087L34.7787569 26.3480295C34.6432846 30.9429866 30.9429866 34.6432846 26.3480295 34.7787569L26.087 34.7826C21.3718182 34.7826 17.5331715 31.0296839 17.3951431 26.3480295L17.3913 26.087 17.3951431 25.8259652C17.5306154 21.2309152 21.2309152 17.5306154 25.8259652 17.3951431L26.087 17.3913zM43.4783 0C48.1933836 0 52.0320285 3.75289682 52.1700569 8.4346168L52.1739 8.69565 52.1739 26.087 52.1700569 26.3480295C52.0345846 30.9429866 48.3342866 34.6432846 43.7393295 34.7787569L43.4783 34.7826 34.7826 34.7826 34.7826 0 43.4783 0zM60.8696 17.3913C65.672 17.3913 69.5652 21.2845 69.5652 26.087L69.5613569 26.3480295C69.4258846 30.9429866 65.7255866 34.6432846 61.1306295 34.7787569L60.8696 34.7826C56.1544182 34.7826 52.3157715 31.0296839 52.1777431 26.3480295L52.1739 26.087 52.1777431 25.8259652C52.3132154 21.2309152 56.0135152 17.5306154 60.6085652 17.3951431L60.8696 17.3913zM16.391 1L1 1 1 26.087C1 30.2553961 4.31423465 33.6497843 8.45135938 33.7787961L8.69565 33.7826C12.7763707 33.7826 16.1289587 30.6011549 16.3763208 26.5804995L16.3875653 26.3333082 16.3914084 26.0722788 16.391 1zM26.087 18.3913C22.0062247 18.3913 18.6536412 21.5727514 18.4062792 25.5934897L18.3950347 25.8406861 18.3913 26.087C18.3913 30.3371289 21.8367984 33.7826 26.087 33.7826 28.8352123 33.7826 31.2531875 32.3396177 32.6148117 30.1691165L32.672 30.073 32.481274 30.1581365C31.9188997 30.3910691 31.3167788 30.5280276 30.6999719 30.5586277L30.4348 30.5652C29.0165339 30.5652 27.65629 30.0017806 26.6532932 28.9989068 25.7130677 28.0586813 25.1591401 26.8043922 25.0935719 25.482588L25.087 25.2174 25.087 24.2174 33.553 24.217 33.5242471 24.1002057C32.6661487 20.8741908 29.7712835 18.5062966 26.3390745 18.3953685L26.087 18.3913zM43.4783 1L35.782 1 35.782 33.782 43.4783 33.7826C47.5589789 33.7826 50.9115592 30.6011487 51.1589208 26.5804991L51.1701653 26.3333082 51.1739 26.087 51.1739 8.69565C51.1739 4.52721292 47.8596732 1.13281601 43.7225882 1.00380387L43.4783 1zM60.8696 18.3913C56.7888247 18.3913 53.4362412 21.5727514 53.1888792 25.5934897L53.1776347 25.8406861 53.1739 26.087C53.1739 30.3371289 56.6193984 33.7826 60.8696 33.7826 64.9502789 33.7826 68.3028592 30.6011487 68.5502208 26.5804991L68.5614653 26.3333082 68.5653084 26.0722788 68.5613961 25.8427076C68.4323843 21.7055535 65.0379957 18.3913 60.8696 18.3913zM92.9044 24.1217L92.9044 34.4 93.8435 34.4 93.8435 22.6261C94.4696 21.4957 95.0087 20.2783 95.4435 18.9913L94.5913 18.6087C93.7392 21.3217 92.3305 23.7391 90.3826 25.8957L90.6783 26.8174C91.4957 25.9826 92.2435 25.0783 92.9044 24.1217zM95.287 22.887L95.287 23.7913 98.9218 23.7913C98.5739 28.2435 97.1652 31.5478 94.7305 33.7391L95.4435 34.3478C98 32.0174 99.4609 28.487 99.8435 23.7913L101.217 23.7913 101.217 32.8174C101.217 33.687 101.617 34.1217 102.452 34.1217L104.574 34.1217C104.991 34.1044 105.322 33.9304 105.565 33.6174 105.809 33.2 105.983 32.0696 106.087 30.2609L105.235 29.9826C105.183 31.6522 105.061 32.6435 104.887 32.9565 104.748 33.1304 104.557 33.2348 104.348 33.2348L102.713 33.2348C102.296 33.2348 102.104 33.0261 102.104 32.6435L102.104 23.7913 105.844 23.7913 105.844 22.887 99.8957 22.887 99.9305 21.687 99.9305 18.5913 99.0087 18.5913 99.0087 21.687C99.0087 22.087 98.9913 22.487 98.9739 22.887L95.287 22.887zM102.226 18.9565L101.6 19.5478C102.748 20.3826 103.652 21.1652 104.313 21.8957L104.957 21.2522C104.226 20.487 103.322 19.7217 102.226 18.9565zM108.209 20.2609L108.209 21.1652 112.47 21.1652 112.47 22.887 113.426 22.887 113.426 21.1652 118.226 21.1652 118.226 22.887 119.183 22.887 119.183 21.1652 123.444 21.1652 123.444 20.2609 119.183 20.2609 119.183 18.4696 118.226 18.4696 118.226 20.2609 113.426 20.2609 113.426 18.4696 112.47 18.4696 112.47 20.2609 108.209 20.2609zM109.722 23.8609L109.722 24.7652 119.426 24.7652C115.617 26.7652 112.922 28.487 111.339 29.9131 110.191 30.9217 109.617 31.8087 109.617 32.5739 109.617 33.4957 110.278 33.9652 111.617 33.9652L119.878 33.9652C120.852 33.9652 121.6 33.7739 122.104 33.3913 122.609 32.9913 122.957 31.8435 123.165 29.9478L122.278 29.5826C122.087 31.4261 121.774 32.4696 121.357 32.7478 120.991 32.9739 120.47 33.0957 119.791 33.0957L111.53 33.0957C110.904 33.0957 110.591 32.8696 110.591 32.4348 110.626 31.9826 111.009 31.4087 111.739 30.7131 113.287 29.2174 116.383 27.2348 121.026 24.7652L121.026 23.8609 109.722 23.8609zM132.174 24.4348L132.174 30.1913 137.165 30.1913 137.165 24.4348 132.174 24.4348zM136.278 29.3391L133.061 29.3391 133.061 25.287 136.278 25.287 136.278 29.3391zM133.496 18.5044C132.957 20.7478 131.948 22.6435 130.452 24.1913L131.026 24.9391C131.983 23.9652 132.765 22.8522 133.374 21.6174L139.478 21.6174C139.443 26.9391 139.374 30.1565 139.252 31.2348 139.078 32.6609 138.4 33.3913 137.252 33.3913 136.591 33.3913 135.809 33.3739 134.904 33.3391L135.13 34.1913C136.174 34.2261 136.922 34.2435 137.357 34.2435 139.026 34.2435 139.965 33.3391 140.157 31.5478 140.33 30.1565 140.417 26.5565 140.417 20.7131L133.774 20.7131C134.052 20.0522 134.278 19.3391 134.452 18.6087L133.496 18.5044zM130.261 18.9391C129.757 19.7913 129.183 20.5565 128.557 21.2522 128.07 20.487 127.478 19.7565 126.783 19.0435L126.035 19.6174C126.8 20.2957 127.426 21.0435 127.93 21.8783 127.2 22.5739 126.365 23.1652 125.426 23.6522L125.948 24.4696C126.87 23.9131 127.67 23.3391 128.365 22.7131 128.47 22.9391 128.574 23.1826 128.678 23.4435 128.835 23.8957 128.974 24.4348 129.096 25.0435 128.209 26.5739 126.974 27.8609 125.374 28.9217L125.913 29.7217C127.217 28.8 128.33 27.6522 129.252 26.2609 129.322 27.0435 129.374 27.9304 129.391 28.9044 129.391 31.2 129.096 32.5913 128.539 33.0435 128.261 33.2348 127.757 33.3391 127.009 33.3391 126.713 33.3391 126.417 33.3217 126.104 33.287L126.383 34.1739C126.591 34.1739 126.87 34.1913 127.217 34.1913 128.07 34.1913 128.713 34.0348 129.13 33.7565 129.896 33.2 130.296 31.6 130.296 28.9565 130.243 26.3826 129.965 24.4 129.478 23.0087 129.339 22.6957 129.2 22.3826 129.044 22.0696 129.722 21.3739 130.383 20.487 131.044 19.4261L130.261 18.9391z"/>
</svg>
