<?xml version="1.0" encoding="UTF-8"?>
<svg width="289px" height="48px" viewBox="0 0 289 48" version="1.1" xmlns="http://www.w3.org/2000/svg" xmlns:xlink="http://www.w3.org/1999/xlink">
    <!-- Generator: Sketch 43.1 (39012) - http://www.bohemiancoding.com/sketch -->
    <title>2017.5.16</title>
    <desc>Created with Sketch.</desc>
    <defs></defs>
    <g id="Page-2" stroke="none" stroke-width="1" fill="none" fill-rule="evenodd">
        <g id="splash" transform="translate(-765.000000, -832.000000)" fill="#50AE55">
            <g id="Group-10" transform="translate(646.000000, 473.000000)">
                <g id="Group-5" transform="translate(0.000000, -0.000000)">
                    <path d="M151.068013,405.884646 C146.601463,402.302647 142.176336,399.585309 137.7925,397.732551 C135.187013,400.532274 132.85038,402.529106 130.782533,403.723106 C128.466544,404.99945 126.15059,405.534683 123.834601,405.328821 C121.890825,405.164132 120.567423,404.237766 119.864355,402.549698 C119.202644,400.86163 119.430103,399.132415 120.546741,397.362001 C121.704735,395.550416 123.731195,394.335848 126.626181,393.718262 C130.058807,393.100676 133.532739,393.471222 137.048079,394.829911 C140.480705,390.095085 142.920728,385.339744 144.368221,380.563746 C145.526216,376.528851 146.001813,372.988077 145.795029,369.94132 C145.588244,367.100424 144.637048,364.856562 142.941414,363.209666 C141.328493,361.645114 139.198642,360.986366 136.551798,361.2334 C134.111738,361.480435 132.002566,362.427386 130.224217,364.074282 C127.494659,366.544626 126.191935,369.653095 126.316006,373.399784 L122.84204,373.399784 C123.338323,368.788475 125.158001,365.185944 128.301129,362.592083 C130.534404,360.739325 133.263921,359.71003 136.489763,359.504168 C139.756961,359.380651 142.465801,360.101157 144.616362,361.665708 C146.766923,363.271432 148.111003,365.577052 148.648643,368.582637 C149.434425,372.452843 148.793402,377.084668 146.725555,382.478253 C144.823136,387.624803 142.445147,392.009598 139.591518,395.632769 C145.546918,398.432493 150.13747,400.985143 153.363311,403.290798 L151.068013,405.884646 Z M126.564146,395.385736 C124.165443,395.756288 122.469834,396.744411 121.477267,398.350134 C120.939627,399.214755 120.732846,400.14112 120.856916,401.129257 C121.146415,402.734981 122.138967,403.558417 123.834601,403.599589 C125.902449,403.723106 127.949587,403.084944 129.976077,401.685082 C131.299499,400.779289 133.077821,399.132418 135.311096,396.744419 C132.209325,395.426902 129.293704,394.974012 126.564146,395.385736 Z M185.311391,397.05321 C183.739827,400.964588 181.196413,403.640754 177.681073,405.081788 C174.827444,406.234615 171.891145,406.378717 168.872088,405.514096 C165.604889,404.608303 163.020119,402.549714 161.1177,399.338267 C158.718997,395.426889 157.623054,389.55991 157.829839,381.737153 C157.95391,374.902535 159.173921,369.632547 161.48991,365.92703 C163.061474,363.333169 165.108612,361.439267 167.631386,360.245268 C170.195516,358.968923 173.028424,358.763064 176.130195,359.627685 C179.686892,360.656995 182.395731,362.900857 184.256794,366.359339 C185.952429,369.529613 186.94498,374.284954 187.234479,380.625504 C187.565335,387.41895 186.924311,392.894798 185.311391,397.05321 Z M181.403179,366.66813 C180.203828,364.485993 178.652966,362.900879 176.750546,361.912741 C173.938274,360.430535 171.126044,360.55405 168.313772,362.283291 C166.452709,363.436118 164.922525,365.227091 163.723174,367.656263 C162.110253,370.950055 161.24177,375.725982 161.1177,381.984187 C160.910915,388.983495 161.676007,394.335827 163.412999,398.041343 C164.777778,400.923411 166.762881,402.817313 169.368369,403.723106 C172.180641,404.670071 174.66202,404.505384 176.812581,403.229039 C179.418069,401.788005 181.258425,399.564729 182.333706,396.559144 C183.822556,392.73011 184.422222,387.41895 184.132724,380.625504 C183.925939,374.408472 183.0161,369.75606 181.403179,366.66813 Z M209.443047,405.267063 L209.443047,363.456699 C206.093134,367.491594 202.309031,370.641236 198.090622,372.905718 L198.090622,370.682419 C203.632453,367.182765 207.395878,363.621406 209.381012,359.998234 L212.606837,359.998234 L212.606837,405.267063 L209.443047,405.267063 Z M242.507758,405.267063 L239.219897,405.267063 L257.520253,361.912741 L231.899755,361.912741 L231.899755,359.936476 L260.932184,359.936476 L260.932184,361.727467 L242.507758,405.267063 Z M271.540187,404.27893 C270.878476,403.578999 270.547625,402.77615 270.547625,401.870357 C270.547625,400.923392 270.878476,400.099956 271.540187,399.400025 C272.201898,398.741267 273.008346,398.411892 273.959556,398.411892 C274.910766,398.411892 275.717214,398.741267 276.378925,399.400025 C277.040636,400.099956 277.371487,400.923392 277.371487,401.870357 C277.371487,402.77615 277.040636,403.578999 276.378925,404.27893 C275.717214,404.937689 274.910766,405.267063 273.959556,405.267063 C273.049703,405.267063 272.243255,404.937689 271.540187,404.27893 Z M314.34441,405.946404 C313.269129,404.299508 312.049118,402.796738 310.684338,401.438049 C307.458497,404.814186 303.136761,406.358128 297.719001,406.069921 C293.459236,405.905231 290.274799,404.670078 288.165595,402.364423 C287.007601,401.088079 286.490647,399.667652 286.614718,398.103101 C286.738788,396.291515 287.627949,394.912261 289.282227,393.965295 C291.929071,392.359572 295.299612,391.844924 299.393949,392.421338 C303.116074,392.997752 306.631362,394.521108 309.939917,396.991452 C311.92505,392.997729 312.297257,388.839379 311.056549,384.516277 C310.146696,381.304829 308.430409,378.916866 305.907635,377.352315 C303.508933,375.870108 300.862128,375.45839 297.967142,376.117149 C296.271507,376.528873 294.699967,377.455238 293.252474,378.896272 C291.763624,380.460823 290.771072,382.12828 290.274789,383.898694 L286.986928,383.898694 L290.026648,359.936476 L313.537953,359.936476 L313.537953,361.850983 L293.004333,361.850983 L290.709035,379.760888 C293.025023,376.919992 295.278943,375.170192 297.470861,374.511433 C300.73806,373.564468 303.819106,373.811499 306.714092,375.252533 C310.229432,376.858256 312.648777,379.719695 313.972199,383.836935 C314.799338,386.513141 315.026798,389.292237 314.654585,392.174305 C314.406443,394.232925 313.641352,396.456201 312.359286,398.8442 C314.46849,400.861648 315.895284,402.364418 316.639709,403.352556 L314.34441,405.946404 Z M299.704125,394.89167 C295.692501,393.944705 292.487386,394.047634 290.088683,395.200461 C288.682547,395.85922 287.938134,396.9091 287.85542,398.350134 C287.772706,399.708823 288.372372,400.923391 289.654438,401.993873 C291.474143,403.434907 294.203661,404.114242 297.843072,404.031897 C302.475049,403.949552 305.969659,402.385025 308.327004,399.338267 C305.68016,397.073785 302.805896,395.591601 299.704125,394.89167 Z M326.007009,404.27893 C325.345298,403.578999 325.014448,402.77615 325.014448,401.870357 C325.014448,400.923392 325.345298,400.099956 326.007009,399.400025 C326.668721,398.741267 327.475169,398.411892 328.426379,398.411892 C329.377588,398.411892 330.184037,398.741267 330.845748,399.400025 C331.507459,400.099956 331.838309,400.923392 331.838309,401.870357 C331.838309,402.77615 331.507459,403.578999 330.845748,404.27893 C330.184037,404.937689 329.377588,405.267063 328.426379,405.267063 C327.516526,405.267063 326.710077,404.937689 326.007009,404.27893 Z M355.597755,405.267063 L355.597755,363.456699 C352.247842,367.491594 348.463739,370.641236 344.24533,372.905718 L344.24533,370.682419 C349.787161,367.182765 353.550586,363.621406 355.53572,359.998234 L358.761545,359.998234 L358.761545,405.267063 L355.597755,405.267063 Z M403.799031,371.300002 C403.344105,368.253244 402.475622,365.906453 401.193557,364.259557 C399.911492,362.653833 398.339951,361.645124 396.478889,361.2334 C394.535113,360.904021 392.674078,361.089294 390.89573,361.789225 C388.745168,362.5715 387.070237,363.971341 385.870886,365.988789 C383.596254,369.653132 382.334886,374.737848 382.086745,381.243087 C383.534238,379.102122 385.540019,377.496423 388.10415,376.42594 C390.957779,375.273113 394.018147,375.026082 397.285345,375.684841 C401.42104,376.508289 404.295304,378.937424 405.908225,382.972319 C408.1415,388.407076 408.017431,393.635893 405.536014,398.658926 C404.212592,401.335132 402.310201,403.270205 399.828785,404.464205 C396.768371,405.987584 393.459865,406.337544 389.903168,405.514096 C387.132253,404.855338 384.754264,403.311396 382.769131,400.882224 C380.039572,397.464915 378.778205,391.680279 378.984989,383.528144 C379.10906,377.887525 380.018899,372.80281 381.714534,368.273846 C382.252174,366.709294 383.120657,365.268282 384.320008,363.950765 C386.181071,361.892145 388.372956,360.492304 390.89573,359.751201 C393.087648,359.092443 395.258854,359.071857 397.409416,359.689443 C399.229121,360.224684 400.82134,361.109877 402.186119,362.34505 C404.626178,364.486014 406.218397,367.470969 406.962822,371.300002 L403.799031,371.300002 Z M402.372224,382.663528 C401.131516,380.275529 399.229125,378.690415 396.664994,377.908139 C393.687294,377.043519 390.81303,377.228792 388.042115,378.463964 C385.147129,379.699136 383.120669,381.593038 381.962674,384.145727 C381.962674,390.568621 382.769123,395.406306 384.382043,398.658926 C385.664109,401.170442 387.628534,402.817313 390.275378,403.599589 C393.004937,404.381865 395.548351,404.176006 397.905696,402.982006 C400.635255,401.582144 402.37222,399.544141 403.116645,396.867935 C404.729566,391.515523 404.481428,386.780768 402.372224,382.663528 Z" id="2017.5.16"></path>
                </g>
            </g>
        </g>
    </g>
</svg>