<?xml version="1.0" encoding="UTF-8"?>
<svg width="287px" height="63px" viewBox="0 0 287 63" version="1.1" xmlns="http://www.w3.org/2000/svg" xmlns:xlink="http://www.w3.org/1999/xlink">
    <!-- Generator: Sketch 43.1 (39012) - http://www.bohemiancoding.com/sketch -->
    <title>eSiLKS</title>
    <desc>Created with Sketch.</desc>
    <defs></defs>
    <g id="splash" stroke="none" stroke-width="1" fill="none" fill-rule="evenodd">
        <g transform="translate(-581.000000, -544.000000)" id="Group-8" fill="#0283CB">
            <g transform="translate(-230.000000, -209.000000)">
                <g id="Group-10" transform="translate(728.556287, 675.518844)">
                    <g id="Group-5" transform="translate(0.000000, -0.000000)">
                        <g id="Group-9">
                            <g id="eSiLKS.org" transform="translate(82.741228, 77.229918)">
                                <g id="eSiLKS">
                                    <path d="M48.7049646,29.697986 C43.8619738,41.634329 27.2546075,44.2673458 25.1021672,44.6184147 C24.7434271,44.706182 24.5640571,44.6184147 24.5640571,45.1450181 C24.5640571,47.2514316 25.1841625,50.7849044 28.1227253,51.3720748 C34.2155599,52.5895177 42.7455282,45.1450181 42.7455282,45.1450181 C42.7455282,45.1450181 39.0898275,55.0244035 28.1227253,56.2418464 C25.7465206,56.5056256 14.7184893,57.4592893 15.880249,44.2673458 C13.7278086,43.9162769 0.0956863201,40.2300533 0.0956863201,36.0172264 C0.0956863201,35.2635386 0.578874327,34.9766023 0.578874327,34.9766023 C0.578874327,34.9766023 3.67898432,39.1976458 15.880249,39.1976458 C22.0298907,39.1976458 38.1221328,36.76276 42.7455282,27.0232169 C44.7063769,22.8925362 39.0898275,22.1534453 35.9696924,22.6992043 C31.8680409,23.4166455 25.6855915,28.2406598 25.1021672,34.3278743 C24.7434271,34.8544776 20.7232398,35.1395541 18.2120594,35.1395541 L17.1358392,35.1395541 C16.9564692,34.9640197 16.9564692,35.1395541 16.9564692,34.6129507 C16.9564692,34.2618818 17.8533193,31.2777961 18.3914294,29.8735204 C22.5169401,19.8680564 32.0529558,14.6591083 39.557093,15.3041606 C52.8304753,16.4451345 50.0487006,26.3861287 48.7049646,29.697986 Z" id="Combined-Shape"></path>
                                    <path d="M100.698857,44.5111063 C100.698857,47.6498419 99.8777605,50.3533941 98.235543,52.621844 C96.5933255,54.8902939 94.3585151,56.7663736 91.531045,58.2501396 C89.0462984,59.5627018 85.9832517,60.5328419 82.3418128,61.160589 C78.700374,61.7883362 71.3104503,62.102205 71.3104503,62.102205 L58.5868981,50.2036029 C58.9296218,50.2606709 60.2362361,50.3534048 62.5067803,50.4818077 C64.7773246,50.6102105 66.8122158,50.6744109 68.611515,50.6744109 C69.9538493,50.6744109 71.6246021,50.5602768 73.6238234,50.3320051 C75.6230447,50.1037334 77.2937975,49.7898646 78.6361318,49.3903891 C80.435431,48.8482439 81.6992056,48.1563057 82.4274933,47.3145539 C83.1557811,46.472802 83.5199195,45.4384615 83.5199195,44.2115012 C83.5199195,42.8418711 83.1200813,41.6933964 82.3203927,40.7660426 C81.5207042,39.8386889 80.1498301,38.8756822 78.2077294,37.8769936 C77.0081966,37.2777804 75.3874236,36.5216418 73.3453618,35.6085551 C71.3033,34.6954683 69.5540076,33.7823953 68.097432,32.8693085 C65.2985222,31.1858049 63.2921909,29.2883249 62.0783779,27.1768118 C60.8645649,25.0652988 60.2576676,22.7255491 60.2576676,20.1574926 C60.2576676,17.9603777 60.7074856,15.9844305 61.6071352,14.229592 C62.5067848,12.4747534 63.6991597,10.9696095 65.1842955,9.71411527 C67.4405596,7.6596701 70.5107463,6.07605905 74.3949478,4.96323458 C78.2791492,3.85041012 82.8630094,3.29400623 88.1466658,3.29400623 C90.6599726,3.29400623 99.4993302,15.1070069 99.4993302,15.1070069 C98.7853225,15.0784729 97.6572074,15.0000057 96.114951,14.8716029 C94.5726945,14.7432 92.6449029,14.6789996 90.3315182,14.6789996 C88.7321411,14.6789996 87.1970477,14.7931337 85.726192,15.0214054 C84.2553363,15.2496771 82.8487624,15.5920795 81.5064281,16.0486229 C80.2497747,16.4480983 79.257319,17.0473025 78.5290312,17.8462534 C77.8007434,18.6452043 77.436605,19.6153444 77.436605,20.7567028 C77.436605,21.8124594 77.8364433,22.8039996 78.6361318,23.7313533 C79.4358204,24.6587071 80.8352543,25.6502473 82.8344756,26.7060039 C84.1482497,27.3622849 85.683343,28.08989 87.4398018,28.8888409 C89.1962605,29.6877918 90.9169931,30.5723313 92.602051,31.542486 C95.31528,33.1689217 97.3430312,35.0450015 98.6853655,37.1707816 C100.0277,39.2965616 100.698857,41.7433121 100.698857,44.5111063 Z M124.42683,7.42151832 C124.42683,11.166648 121.397268,14.2026755 117.639412,14.2026755 L117.639412,14.2026755 C113.890825,14.2026755 110.851995,11.1594752 110.851995,7.42251602 L110.851995,7.42251602 C110.851995,3.67793735 113.881557,0.641911237 117.639412,0.641358861 L124.42683,0.640361163 L124.42683,7.42151832 Z M124.21815,61.2461905 L111.066196,61.2461905 C111.066196,59.8765604 111.087616,56.96614 111.130456,52.5148422 C111.173297,48.0635443 111.194717,43.8976486 111.194717,40.0170299 C111.194717,36.7356245 111.066196,28.482234 111.066196,28.482234 L124.13247,21.0705748 C124.10391,25.1509312 124.15389,25.2721635 124.11105,28.482234 C124.068209,31.6923046 124.046789,35.3374634 124.046789,39.4178197 C124.046789,45.9235628 124.075349,50.8669973 124.13247,54.2482716 C124.189591,57.629546 124.21815,59.9621622 124.21815,61.2461905 Z M179.096502,61.2033897 C178.01121,61.2033897 175.205202,61.189123 170.678394,61.160589 C166.151586,61.1320551 161.774785,61.1177883 157.547859,61.1177883 C154.177743,61.1177883 150.886218,61.1320551 147.673183,61.160589 C144.460149,61.189123 141.339983,61.2033897 138.31259,61.2033897 C138.341151,56.4096844 138.37685,51.245115 138.419691,45.7095266 C138.462531,40.1739382 138.483951,35.3232377 138.483951,31.1572795 C138.483951,23.6528478 138.462531,17.6536726 138.419691,13.1595738 C138.37685,8.66547499 138.341151,5.59098685 138.31259,3.93601714 L152.492711,3.93601714 C152.46415,7.38862637 152.435591,11.2477867 152.40703,15.5136138 C152.37847,19.7794409 152.36419,23.7384685 152.36419,27.3908155 C152.36419,32.8693359 152.37847,37.7699701 152.40703,42.0928652 C152.435591,46.4157602 152.449871,53.7322818 152.449871,54.3885629 L179.096502,54.3885629 L179.096502,61.2033897 Z M202.358754,61.2461905 L188.178633,61.2461905 C188.207193,60.2760358 188.242893,57.0303465 188.285734,51.5090251 C188.328574,45.9877037 188.349994,38.6902528 188.349994,29.6164533 C188.349994,26.2494459 188.328574,22.2832849 188.285734,17.7178512 C188.242893,13.1524175 188.207193,8.55851875 188.178633,3.93601714 L202.358754,3.93601714 C202.330193,8.10197538 202.301633,12.8813421 202.273073,18.2742607 C202.244513,23.6671792 202.230233,28.5321465 202.230233,32.8693085 C202.230233,40.8017496 202.244513,47.2717281 202.273073,52.2794382 C202.301633,57.2871483 202.330193,60.2760358 202.358754,61.2461905 Z M244.337432,62.3162086 L227.591657,62.3162086 C221.679674,54.9829808 216.160478,48.4274017 211.033903,42.6492746 C205.907328,36.8711476 203.07276,33.7395924 202.530115,33.2545151 C204.043811,31.2143375 220.580113,10.4750493 225.321124,4.02637423 L234.588896,11.3310316 C234.588896,11.3310316 218.300088,31.22861 217.52896,32.0275609 C217.900244,32.4841038 244.337432,62.3162086 244.337432,62.3162086 Z M285.725866,44.5111063 C285.725866,47.6498419 284.90477,50.3533941 283.262553,52.621844 C281.620335,54.8902939 279.385525,56.7663736 276.558054,58.2501396 C274.073308,59.5627018 271.010261,60.5328419 267.368822,61.160589 C263.727384,61.7883362 260.050299,62.102205 256.33746,62.102205 C253.652791,62.102205 243.613908,50.2036029 243.613908,50.2036029 C243.956631,50.2606709 245.263246,50.3534048 247.53379,50.4818077 C249.804334,50.6102105 251.839225,50.6744109 253.638524,50.6744109 C254.980859,50.6744109 256.651612,50.5602768 258.650833,50.3320051 C260.650054,50.1037334 262.320807,49.7898646 263.663141,49.3903891 C265.462441,48.8482439 266.726215,48.1563057 267.454503,47.3145539 C268.182791,46.472802 268.546929,45.4384615 268.546929,44.2115012 C268.546929,42.8418711 268.147091,41.6933964 267.347402,40.7660426 C266.547714,39.8386889 265.17684,38.8756822 263.234739,37.8769936 C262.035206,37.2777804 260.414433,36.5216418 258.372371,35.6085551 C256.33031,34.6954683 254.581017,33.7823953 253.124442,32.8693085 C250.325532,31.1858049 248.3192,29.2883249 247.105387,27.1768118 C245.891574,25.0652988 245.284677,22.7255491 245.284677,20.1574926 C245.284677,17.9603777 245.734495,15.9844305 246.634145,14.229592 C247.533794,12.4747534 248.726169,10.9696095 250.211305,9.71411527 C252.467569,7.6596701 255.537756,6.07605905 259.421957,4.96323458 C263.306159,3.85041012 267.890019,3.29400623 273.173675,3.29400623 C275.686982,3.29400623 284.52634,15.1070069 284.52634,15.1070069 C283.812332,15.0784729 282.684217,15.0000057 281.14196,14.8716029 C279.599704,14.7432 277.671912,14.6789996 275.358528,14.6789996 C273.759151,14.6789996 272.224057,14.7931337 270.753202,15.0214054 C269.282346,15.2496771 267.875772,15.5920795 266.533438,16.0486229 C265.276784,16.4480983 264.284329,17.0473025 263.556041,17.8462534 C262.827753,18.6452043 262.463615,19.6153444 262.463615,20.7567028 C262.463615,21.8124594 262.863453,22.8039996 263.663141,23.7313533 C264.46283,24.6587071 265.862264,25.6502473 267.861485,26.7060039 C269.175259,27.3622849 270.710353,28.08989 272.466811,28.8888409 C274.22327,29.6877918 275.944003,30.5723313 277.629061,31.542486 C280.34229,33.1689217 282.370041,35.0450015 283.712375,37.1707816 C285.054709,39.2965616 285.725866,41.7433121 285.725866,44.5111063 Z" id="SiLKS"></path>
                                </g>
                            </g>
                        </g>
                    </g>
                </g>
            </g>
        </g>
    </g>
</svg>