<?xml version="1.0" encoding="UTF-8"?>
<svg width="147px" height="147px" viewBox="0 0 147 147" version="1.1" xmlns="http://www.w3.org/2000/svg" xmlns:xlink="http://www.w3.org/1999/xlink">
    <!-- Generator: Sketch 43.1 (39012) - http://www.bohemiancoding.com/sketch -->
    <title>leaves</title>
    <desc>Created with Sketch.</desc>
    <defs>
        <linearGradient x1="50%" y1="0%" x2="50%" y2="100%" id="linearGradient-1">
            <stop stop-color="#0287D0" offset="0%"></stop>
            <stop stop-color="#0381C9" offset="100%"></stop>
        </linearGradient>
        <linearGradient x1="50%" y1="0%" x2="50%" y2="100%" id="linearGradient-2">
            <stop stop-color="#FAB411" offset="0%"></stop>
            <stop stop-color="#FDD507" offset="100%"></stop>
        </linearGradient>
        <linearGradient x1="50%" y1="3.36615115%" x2="50%" y2="98.2581314%" id="linearGradient-3">
            <stop stop-color="#FFD335" offset="0%"></stop>
            <stop stop-color="#E9773A" offset="100%"></stop>
        </linearGradient>
        <linearGradient x1="97.8085258%" y1="81.6480999%" x2="4.216544%" y2="100%" id="linearGradient-4">
            <stop stop-color="#0FA861" offset="0%"></stop>
            <stop stop-color="#28B23B" offset="100%"></stop>
        </linearGradient>
        <linearGradient x1="97.8085258%" y1="81.6480999%" x2="4.216544%" y2="100%" id="linearGradient-5">
            <stop stop-color="#019147" offset="0%"></stop>
            <stop stop-color="#019147" offset="100%"></stop>
        </linearGradient>
    </defs>
    <g id="splash" stroke="none" stroke-width="1" fill="none" fill-rule="evenodd">
        <g transform="translate(-498.000000, -466.000000)" id="Group-8">
            <g transform="translate(-230.000000, -209.000000)">
                <g id="Group-10" transform="translate(728.556287, 675.518844)">
                    <g id="Group-5" transform="translate(0.000000, -0.000000)">
                        <g id="Group-9">
                            <g id="leaves">
                                <path d="M45.834153,116.464997 C45.918575,127.380887 49.1379351,137.532016 54.6140388,146.092812 C64.9886764,142.579237 77.3987073,141.249665 90.5798608,142.58336 C73.2785029,133.996797 61.6931306,118.645907 61.5572318,101.039898 C61.4408942,86.1301381 69.5649654,72.7117661 82.479469,63.5706998 C60.9456872,71.4430038 45.6457479,92.2028816 45.834153,116.464997" id="Fill-10" fill="url(#linearGradient-1)"></path>
                                <path d="M81.9942486,63.9182438 C80.6095222,64.4243058 80.0823996,64.9798402 78.7512091,65.5900004 C65.6194733,73.6972985 57.249343,95.1745269 57.3028788,101.970805 C57.4480435,120.702312 70.3996105,136.139779 89.347197,142.384645 C89.6817963,142.414535 90.013307,142.439271 90.3489358,142.473283 C73.0465483,133.886721 62.0397755,118.987267 61.9028472,101.381258 C61.7865095,86.4704673 69.0807744,73.05931 81.9942486,63.9182438" id="Fill-12" fill="#29A7E1"></path>
                                <g id="Group" transform="translate(3.814853, 38.017421)"></g>
                                <g id="Group-7" transform="translate(4.810032, 58.437259)">
                                    <path d="M14.5276511,17.2101816 C6.97909075,25.087639 2.20821941,34.607994 0.161501195,44.5643251 C10.0419613,49.296159 19.8575606,57.0138616 28.3687375,67.1783892 C21.9619329,48.9405758 24.3659002,29.8524546 36.5411968,17.1473104 C46.8520031,6.387052 62.02428,2.45296137 77.6464642,4.92761466 C56.7355518,-4.47833534 31.3060046,-0.298943796 14.5276511,17.2101816" id="Fill-6" fill="url(#linearGradient-2)"></path>
                                    <path d="M77.0567458,4.83804891 C75.7121713,4.23304204 74.9472258,4.26190097 73.5697062,3.77026848 C58.584805,0.418509831 43.2200049,4.01556939 32.8453673,14.841791 C19.8917413,28.359108 18.4061203,48.4645065 27.6245886,66.1746137 C27.8428503,66.4302214 28.0631711,66.679645 28.2793737,66.9383447 C21.8735987,48.7005313 24.3764015,30.3380061 36.5516981,17.6328619 C46.8625044,6.87260351 61.4355911,2.36339561 77.0567458,4.83804891" id="Fill-8" fill="url(#linearGradient-3)"></path>
                                </g>
                                <g id="Group-6" transform="translate(52.910348, 0.000000)">
                                    <path d="M26.3696262,0.000309202827 C20.1852015,3.35206785 15.323731,6.09675828 0.0526186657,6.26785051 C16.4829889,13.8845468 31.110641,31.8853047 31.110641,51.2496471 C31.110641,55.3847196 30.5896956,59.3981723 29.6116361,63.227134 C36.3509809,54.992032 40.3764679,44.6502281 40.3764679,33.4076133 C40.3764679,20.464383 35.0455289,8.71158352 26.3696262,0.000309202827" id="Fill-14" fill="url(#linearGradient-1)"></path>
                                    <path d="M30.3309732,31.8157341 C25.2131481,18.8776571 14.1651938,9.8829469 0.975803889,6.25290571 C0.6700316,6.25805909 0.367347921,6.26527382 0.0523098048,6.26836585 C16.48268,13.8840315 31.1103322,31.8847894 31.1103322,51.2501625 C31.1103322,55.3852349 30.5893868,59.3986876 29.6113273,63.2276493 C29.9181291,62.8535139 30.2115469,62.4701024 30.5070239,62.0866909 C34.0455402,52.3911209 34.2617428,41.753513 30.3309732,31.8157341" id="Fill-16" fill="#29A7E1"></path>
                                </g>
                                <g id="Group-3" transform="translate(82.599853, 1.826164)">
                                    <path d="M41.752108,13.9109736 C34.9839362,12.0001002 29.5871067,10.5777672 18.5144436,0.0463188602 C24.9974338,16.9710509 22.9568928,40.0860236 9.47717368,53.9743839 C6.59859011,56.9406697 3.43173638,59.4555194 0.0651525892,61.5189329 C10.6312839,60.3151033 20.7166218,55.7048891 28.5431569,47.64191 C37.5526293,38.3596412 41.9106566,26.2110621 41.752108,13.9109736" id="Fill-18" fill="url(#linearGradient-2)"></path>
                                    <path d="M22.4466546,39.4925603 C27.7817118,26.6431215 26.1200402,12.4847241 19.1871426,0.679360115 C18.9637332,0.470132869 18.7423829,0.262966974 18.5148554,0.0465249954 C24.9968161,16.9712571 22.9573046,40.0862298 9.4775855,53.9745901 C6.59900193,56.9398452 3.43214819,59.4546949 0.0655644038,61.5191391 C0.545328332,61.4645132 1.02303319,61.3944273 1.50073804,61.3264026 C10.7881852,56.8409003 18.3491,49.3623146 22.4466546,39.4925603" id="Fill-20" fill="url(#linearGradient-3)"></path>
                                </g>
                                <g id="Group-4" transform="translate(82.433990, 32.704943)">
                                    <path d="M63.2022079,26.3703451 C59.7367886,20.2440064 56.9035046,15.4307491 56.4402133,0.14891471 C49.1480075,16.7397077 31.4492485,31.7236767 12.1094086,32.0926588 C7.9789089,32.1709902 3.96165815,31.7267688 0.118399047,30.8208045 C8.47102726,37.4099167 18.8765509,41.2409398 30.1046741,41.0265591 C43.0315322,40.7802276 54.6673517,35.21973 63.2022079,26.3703451" id="Fill-22" fill="url(#linearGradient-4)"></path>
                                    <path d="M56.4736732,1.07188515 C56.4623483,0.766805026 56.4499939,0.46275558 56.4407281,0.148399372 C49.1474927,16.7391924 31.4487338,31.7231614 12.1088939,32.0921434 C7.97942366,32.1715055 3.96114338,31.7262534 0.118913815,30.8202892 C0.497783183,31.1202159 0.885918378,31.4067438 1.27405357,31.6953332 C11.0258217,35.0522452 21.6537251,35.065644 31.5032992,30.9419089 C44.3272037,25.5720865 53.0998827,14.3439012 56.4736732,1.07188515 Z" id="Fill-24" fill="url(#linearGradient-5)"></path>
                                </g>
                                <g id="Group-2" transform="translate(0.000000, 25.898331)">
                                    <path d="M29.8286579,0.111212025 C18.9248386,0.111212025 8.75919697,3.2547741 0.165657252,8.66994628 C3.59504275,19.0828668 4.8263682,31.5169432 3.39119456,44.7023824 C12.103131,27.4488647 27.5266147,15.9712557 45.1141837,15.9712557 C60.0084857,15.9712557 73.3471584,24.208419 82.3772215,37.2073059 C74.6814375,15.5888749 54.0649725,0.111212025 29.8286579,0.111212025" id="Fill-1" fill="url(#linearGradient-4)"></path>
                                    <path d="M82.0344889,36.7189715 C81.5392819,35.3285895 80.9895095,34.7967606 80.3903193,33.4599737 C72.4330331,20.3147309 59.2024618,11.7044628 44.2175605,11.7044628 C25.5057378,11.7044628 9.98444815,24.5497789 3.60029339,43.4698999 C3.56734823,43.803839 3.53955075,44.1367474 3.50351697,44.4717171 C12.2154534,27.2171687 27.183882,16.314677 44.7704215,16.314677 C59.6647236,16.314677 73.0044257,23.7200847 82.0344889,36.7189715" id="Fill-4" fill="url(#linearGradient-5)"></path>
                                </g>
                            </g>
                        </g>
                    </g>
                </g>
            </g>
        </g>
    </g>
</svg>