<?xml version="1.0" encoding="UTF-8"?>
<svg width="113px" height="42px" viewBox="0 0 113 42" version="1.1" xmlns="http://www.w3.org/2000/svg" xmlns:xlink="http://www.w3.org/1999/xlink">
    <!-- Generator: Sketch 43.1 (39012) - http://www.bohemiancoding.com/sketch -->
    <title>.org</title>
    <desc>Created with Sketch.</desc>
    <defs></defs>
    <g id="Page-2" stroke="none" stroke-width="1" fill="none" fill-rule="evenodd">
        <g id="splash" transform="translate(-1121.000000, -619.000000)" fill="#0283CB">
            <g id="Group-10" transform="translate(646.000000, 473.000000)">
                <g id="Group-5" transform="translate(0.000000, -0.000000)">
                    <g id="Group-9">
                        <g id="eSiLKS.org" transform="translate(105.000000, 98.000000)">
                            <path d="M370.272265,72.0730439 C370.272265,69.0354778 372.74088,66.5730439 375.772265,66.5730439 L375.772265,66.5730439 C378.809831,66.5730439 381.272265,69.0416586 381.272265,72.0730439 L381.272265,72.0730439 C381.272265,75.11061 378.80365,77.5730439 375.772265,77.5730439 L375.772265,77.5730439 C372.734699,77.5730439 370.272265,75.1044292 370.272265,72.0730439 L370.272265,72.0730439 Z M387.39242,63.3298007 C387.39242,58.9514004 388.87561,55.3433284 391.842033,52.5054763 C394.808456,49.6676243 398.814876,48.2487196 403.861412,48.2487196 C409.631467,48.2487196 413.990597,49.9153696 416.938932,53.2487196 C419.308453,55.9334177 420.493195,59.2396909 420.493195,63.1676385 C420.493195,67.582075 419.023572,71.1991559 416.084281,74.0189898 C413.14499,76.8388238 409.079785,78.2487196 403.888544,78.2487196 C399.25803,78.2487196 395.513882,77.0775601 392.655986,74.7352061 C389.146925,71.8342907 387.39242,68.0325269 387.39242,63.3298007 Z M398.462188,63.3027736 C398.462188,65.861345 398.982208,67.753218 400.022265,68.9784493 C401.062322,70.2036807 402.369157,70.8162871 403.942808,70.8162871 C405.534547,70.8162871 406.841382,70.2126896 407.86335,69.0054763 C408.885319,67.7982631 409.396296,65.8613455 409.396296,63.1946655 C409.396296,60.7081666 408.880797,58.8568338 407.849785,57.6406115 C406.818772,56.4243892 405.543591,55.8162871 404.024203,55.8162871 C402.414376,55.8162871 401.084932,56.4333981 400.035831,57.6676385 C398.98673,58.9018789 398.462188,60.7802385 398.462188,63.3027736 Z M425.919552,48.8973682 L436.256761,48.8973682 L436.256761,53.6000709 C437.251598,51.5640247 438.278074,50.1631378 439.336219,49.3973682 C440.394363,48.6315986 441.701198,48.2487196 443.256761,48.2487196 C444.884676,48.2487196 446.666312,48.753219 448.601723,49.7622331 L445.183118,57.6000709 C443.880786,57.0595277 442.849788,56.7892601 442.090095,56.7892601 C440.643059,56.7892601 439.521623,57.3838488 438.725754,58.5730439 C437.586213,60.248728 437.016451,63.3838317 437.016451,67.9784493 L437.016451,77.6000709 L425.919552,77.6000709 L425.919552,48.8973682 Z M471.907924,48.8973682 L482.245133,48.8973682 L482.245133,76.0054763 L482.272265,77.2757466 C482.272265,79.0775574 481.887902,80.7937565 481.119164,82.4243952 C480.350427,84.055034 479.328473,85.3748407 478.053273,86.3838547 C476.778073,87.3928688 475.159226,88.1225912 473.196684,88.5730439 C471.234142,89.0234966 468.986748,89.2487196 466.454436,89.2487196 C460.666293,89.2487196 456.691527,88.3838634 454.530017,86.654125 C452.368508,84.9243866 451.287769,82.6090944 451.287769,79.708179 C451.287769,79.3478169 451.305857,78.8613352 451.342033,78.2487196 L462.059087,79.4649358 C462.330406,80.4559317 462.746423,81.1406096 463.307149,81.5189898 C464.121106,82.0775512 465.14306,82.3568277 466.37304,82.3568277 C467.96478,82.3568277 469.154044,81.9334085 469.94087,81.0865574 C470.727695,80.2397063 471.121102,78.7622436 471.121102,76.654125 L471.121102,72.3027736 C470.035826,73.5820593 468.950565,74.509978 467.865288,75.0865574 C466.165022,75.9874628 464.329123,76.4379088 462.357536,76.4379088 C458.504804,76.4379088 455.393724,74.7622498 453.024203,71.4108817 C451.342024,69.0324915 450.500947,65.8883788 450.500947,61.9784493 C450.500947,57.5099585 451.586208,54.1045871 453.756761,51.7622331 C455.927315,49.419879 458.76708,48.2487196 462.276141,48.2487196 C464.519046,48.2487196 466.368511,48.6270942 467.824591,49.3838547 C469.28067,50.1406152 470.641768,51.392855 471.907924,53.1406115 L471.907924,48.8973682 Z M461.516451,62.8162871 C461.516451,64.8883696 461.959599,66.4243902 462.845909,67.4243952 C463.732218,68.4244002 464.898873,68.9243952 466.345909,68.9243952 C467.720592,68.9243952 468.873682,68.4063824 469.805211,67.3703412 C470.73674,66.3343 471.202498,64.7712525 471.202498,62.681152 C471.202498,60.5910515 470.714131,58.9919684 469.737381,57.8838547 C468.760632,56.7757411 467.566846,56.2216925 466.155986,56.2216925 C464.745126,56.2216925 463.619169,56.7306965 462.778079,57.7487196 C461.93699,58.7667427 461.516451,60.455915 461.516451,62.8162871 Z" id=".org"></path>
                        </g>
                    </g>
                </g>
            </g>
        </g>
    </g>
</svg>