<?xml version="1.0" encoding="UTF-8"?>
<svg width="471px" height="57px" viewBox="0 0 471 57" version="1.1" xmlns="http://www.w3.org/2000/svg" xmlns:xlink="http://www.w3.org/1999/xlink">
    <!-- Generator: Sketch 43.1 (39012) - http://www.bohemiancoding.com/sketch -->
    <title>COMING NOW</title>
    <desc>Created with Sketch.</desc>
    <defs></defs>
    <g id="splash" stroke="none" stroke-width="1" fill="none" fill-rule="evenodd">
        <g transform="translate(-581.000000, -654.000000)" id="Group-8" fill="#50AE55">
            <g transform="translate(-230.000000, -209.000000)">
                <g id="Group-10" transform="translate(728.556287, 675.518844)">
                    <g id="Group-5" transform="translate(0.000000, -0.000000)">
                        <path d="M129.693824,225.912322 C128.862081,231.456401 125.853173,236.06822 120.667011,239.747918 C116.655074,242.593551 111.689153,243.893692 105.769099,243.648379 C97.0113342,243.354003 90.6755041,239.576236 86.7614191,232.314965 C83.7280033,226.869012 82.5293327,220.441902 83.1653715,213.033443 C83.7524843,206.508111 85.7584227,201.06224 89.1832471,196.695665 C93.5865927,191.151586 99.3842442,188.256933 106.576375,188.01162 C111.566834,187.864432 115.994576,189.115511 119.859735,191.764894 C123.920598,194.610527 126.978431,198.80532 129.033326,204.349399 L124.996946,204.349399 C123.871646,199.982823 121.596619,196.474897 118.171794,193.825514 C114.698044,191.176132 110.80848,189.998646 106.502987,190.293022 C100.729711,190.63646 95.9839544,193.138617 92.2655736,197.799568 C89.2321578,201.626455 87.4219206,206.777955 86.8348079,213.254224 C86.2476951,219.975806 87.2995897,225.936827 89.9905231,231.137467 C93.2685693,237.564674 98.5280421,241.0726 105.769099,241.661352 C111.34667,242.053853 115.970114,240.581996 119.639569,237.245736 C123.064393,234.252915 125.192645,230.475148 126.024388,225.912322 L129.693824,225.912322 Z M177.029553,235.332302 C172.919764,240.434817 167.244426,243.206815 160.003368,243.648379 C152.860163,244.04088 147.038049,242.102935 142.536851,237.834485 C136.910354,232.437594 134.219461,224.783937 134.464092,214.873283 C134.659796,206.140132 137.203913,199.369589 142.096519,194.56145 C146.450939,190.293 151.979501,188.109746 158.682371,188.01162 C166.265911,188.01162 172.308189,190.83268 176.809387,196.474884 C180.62562,201.332085 182.656021,207.464824 182.900651,214.873283 C183.243134,223.115807 181.28612,229.935412 177.029553,235.332302 Z M174.31417,198.609098 C170.791494,193.359395 165.752185,190.611929 159.196092,190.366615 C153.080335,190.219427 148.089951,192.329089 144.224792,196.695665 C140.163929,201.307553 138.133528,207.464822 138.133528,215.167657 C138.035676,223.361118 139.919301,229.83729 143.78446,234.596366 C147.894249,239.600756 153.349423,241.833073 160.150146,241.293384 C166.119125,240.802757 170.815957,238.177945 174.240781,233.418869 C177.812384,228.414479 179.42692,222.232679 179.084437,214.873283 C178.839807,208.446077 177.249734,203.024736 174.31417,198.609098 Z M235.300202,242.838849 L235.300202,196.180509 L214.604581,242.176507 L213.430361,242.176507 L192.221019,194.414263 L192.221019,242.838849 L189.87258,242.838849 L189.87258,188.894743 L193.615405,188.894743 L214.67797,236.215426 L235.740534,188.894743 L238.822861,188.894743 L238.822861,242.838849 L235.300202,242.838849 Z M249.611004,242.912443 L249.611004,188.968337 L253.573995,188.968337 L253.573995,242.912443 L249.611004,242.912443 Z M301.790388,242.838849 L266.783966,193.457546 L266.783966,242.838849 L264.582304,242.838849 L264.582304,188.968337 L268.104963,188.968337 L301.717,236.362613 L301.717,188.968337 L305.313047,188.968337 L305.313047,242.838849 L301.790388,242.838849 Z M356.685156,204.422992 C355.462004,199.271415 352.966813,195.444586 349.199506,192.942391 C345.92146,190.68551 341.934045,189.753333 337.237143,190.145835 C332.393463,190.636461 328.381586,192.476282 325.201392,195.665354 C321.140529,199.688491 318.6698,204.81546 317.789131,211.046416 C316.859536,217.571747 317.54449,223.5573 319.844015,229.003253 C322.290318,234.792645 326.179882,238.570412 331.512823,240.336667 C336.062947,241.808546 340.392838,241.980263 344.502627,240.851822 C349.786642,239.379943 353.89637,236.190919 356.831933,231.284655 L356.831933,222.085455 C356.831933,220.3192 355.97574,219.436086 354.263328,219.436086 L339.805749,219.436086 L339.805749,217.154684 L354.336717,217.154684 C356.049129,217.154684 357.443501,217.57171 358.519874,218.405775 C359.645174,219.288903 360.207815,220.539982 360.207815,222.159049 L360.207815,242.2501 L356.831933,242.2501 L356.831933,234.081211 C353.847444,238.202473 350.104656,241.048064 345.603458,242.618068 C340.466222,244.531511 335.059973,244.457919 329.38455,242.397288 C323.6602,240.238531 319.452622,236.166393 316.761689,230.180751 C314.413238,224.931048 313.60597,218.724717 314.339861,211.561571 C314.9759,204.447488 317.789106,198.58459 322.779564,193.972702 C326.400093,190.685504 331.023536,188.796621 336.650034,188.305995 C342.325457,187.766306 347.266915,188.772075 351.474556,191.323332 C356.611793,194.414279 359.620701,198.780788 360.50137,204.422992 L356.685156,204.422992 Z M424.936672,242.838849 L389.930249,193.457546 L389.930249,242.838849 L387.728587,242.838849 L387.728587,188.968337 L391.251246,188.968337 L424.863283,236.362613 L424.863283,188.968337 L428.459331,188.968337 L428.459331,242.838849 L424.936672,242.838849 Z M478.65722,235.332302 C474.547431,240.434817 468.872092,243.206815 461.631035,243.648379 C454.48783,244.04088 448.665716,242.102935 444.164518,237.834485 C438.538021,232.437594 435.847128,224.783937 436.091758,214.873283 C436.287463,206.140132 438.83158,199.369589 443.724186,194.56145 C448.078605,190.293 453.607168,188.109746 460.310038,188.01162 C467.893578,188.01162 473.935856,190.83268 478.437054,196.474884 C482.253287,201.332085 484.283688,207.464824 484.528318,214.873283 C484.8708,223.115807 482.913787,229.935412 478.65722,235.332302 Z M475.941837,198.609098 C472.41916,193.359395 467.379852,190.611929 460.823759,190.366615 C454.708001,190.219427 449.717618,192.329089 445.852459,196.695665 C441.791596,201.307553 439.761195,207.464822 439.761195,215.167657 C439.663343,223.361118 441.546968,229.83729 445.412127,234.596366 C449.521916,239.600756 454.97709,241.833073 461.777813,241.293384 C467.746792,240.802757 472.443624,238.177945 475.868448,233.418869 C479.440051,228.414479 481.054587,222.232679 480.712104,214.873283 C480.467474,208.446077 478.877401,203.024736 475.941837,198.609098 Z M527.827667,195.591761 C527.925519,197.358016 527.65643,199.050652 527.020391,200.669719 C524.67194,207.293175 523.081867,211.610623 522.250124,213.622192 C524.305018,218.871894 527.949955,227.163357 533.185044,238.496827 C533.380748,238.889328 533.527524,238.864797 533.625376,238.423233 L549.183786,188.894743 L553,188.894743 L536.414148,241.587758 C536.071665,242.667136 535.28886,243.304941 534.065709,243.501192 C532.842557,243.697442 531.937438,243.255885 531.350326,242.176507 C526.262015,231.529913 522.641541,223.434699 520.488794,217.89062 C516.819339,226.672833 512.929776,234.694455 508.819987,241.955726 C508.03717,243.280417 507.0342,243.771036 505.811049,243.427598 C504.783601,243.182285 504.123109,242.593542 503.829553,241.661352 L488.711475,188.968337 L492.4543,188.968337 L506.544936,238.055265 C506.593862,238.202453 506.691713,238.276046 506.838491,238.276046 C506.985269,238.226984 507.08312,238.153391 507.132046,238.055265 C511.877874,229.125864 515.7919,220.957057 518.874242,213.548598 C516.183309,206.630765 514.54431,201.749106 513.957197,198.903472 C513.565789,197.18628 513.541326,195.567237 513.883809,194.046295 C514.177365,192.574416 514.837857,191.372399 515.865304,190.440209 C517.137382,189.16458 518.67853,188.526775 520.488794,188.526775 C522.690467,188.526775 524.549629,189.360828 526.066337,191.028958 C527.093785,192.255524 527.680889,193.776443 527.827667,195.591761 Z M521.369459,189.998647 C519.852751,189.704271 518.531767,190.145829 517.406468,191.323332 C516.868281,191.912084 516.525804,192.84426 516.379025,194.119889 C516.281173,195.395517 516.354561,196.450348 516.599192,197.284413 C517.577713,200.767861 518.898697,204.692813 520.562183,209.059389 C522.225669,205.18344 523.52219,201.675514 524.451785,198.535504 C524.843194,197.210813 525.063358,196.10692 525.112284,195.223793 C525.112284,194.144415 524.916583,193.212238 524.525174,192.427236 C523.986987,191.151607 522.935093,190.342086 521.369459,189.998647 Z" id="COMING-NOW"></path>
                    </g>
                </g>
            </g>
        </g>
    </g>
</svg>