<?xml version="1.0" encoding="UTF-8"?>
<svg width="191px" height="31px" viewBox="0 0 191 31" version="1.1" xmlns="http://www.w3.org/2000/svg" xmlns:xlink="http://www.w3.org/1999/xlink">
    <!-- Generator: Sketch 48.2 (47327) - http://www.bohemiancoding.com/sketch -->
    <title>logo</title>
    <desc>Created with Sketch.</desc>
    <defs>
        <polygon id="path-1" points="0.144439655 0.0864986111 24.305819 0.0864986111 24.305819 15.6633722 0.144439655 15.6633722"></polygon>
        <polygon id="path-3" points="0 0.141286806 49.1305603 0.141286806 49.1305603 30.7847222 0 30.7847222"></polygon>
    </defs>
    <g id="home1.3" stroke="none" stroke-width="1" fill="none" fill-rule="evenodd" transform="translate(-170.000000, -24.000000)">
        <g id="logo" transform="translate(170.000000, 24.000000)">
            <g id="Page-1">
                <g id="Group-3" transform="translate(25.646552, 12.129611)">
                    <mask id="mask-2" fill="white">
                        <use xlink:href="#path-1"></use>
                    </mask>
                    <g id="Clip-2"></g>
                    <path d="M6.52913793,5.19848472 C5.92008621,4.87341528 5.22461207,4.6891375 4.48581897,4.6891375 C2.08797414,4.6891375 0.144439655,6.63072778 0.144439655,9.02569306 C0.144439655,10.6368319 1.02612069,12.0423806 2.33172414,12.7902556 L4.5037069,14.0222903 C8.61103448,16.2646236 13.7664224,16.2807694 18.0190086,13.6263944 C22.74875,10.674075 24.98625,5.25940833 24.1246121,0.0864986111 C24.0181466,2.98995 22.4771983,5.77585972 19.8246121,7.43156111 C16.7974569,9.32105417 13.2662069,8.84658194 10.3155603,7.15815833 L6.52913793,5.19848472 Z" id="Fill-1" fill="#26B3C1" mask="url(#mask-2)"></path>
                </g>
                <g id="Group-6" transform="translate(0.000000, 0.074056)">
                    <mask id="mask-4" fill="white">
                        <use xlink:href="#path-3"></use>
                    </mask>
                    <g id="Clip-5"></g>
                    <path d="M30.5559914,15.3093285 C30.2805603,15.2684257 29.9988793,15.2471132 29.7120259,15.2471132 C26.5712931,15.2471132 24.0253879,17.7904049 24.0253879,20.9276479 C24.0253879,22.3248007 24.5318534,23.602259 25.3693534,24.5914604 L21.864181,30.7847868 L14.8284052,26.9859951 L15.2361638,26.250391 C13.6529741,27.4135368 11.6557759,28.0813285 9.54112069,28.0813285 C4.27150862,28.0813285 -4.31034483e-05,23.8145229 -4.31034483e-05,18.550766 C-4.31034483e-05,16.8283285 0.4575,15.2124535 1.25771552,13.817884 L7.32969828,3.43288403 C8.09521552,2.14466181 9.4999569,1.29216181 11.1083621,1.29216181 C13.5350862,1.29216181 15.5021121,3.25721736 15.5021121,5.68102986 C15.5021121,6.49112014 15.2842241,7.25901597 14.9010345,7.91044653 L8.67797414,18.7492521 C8.37064655,19.3261965 8.19672414,19.9819326 8.19672414,20.6811549 C8.19672414,22.9592243 10.045431,24.8056618 12.325819,24.8056618 C13.7426293,24.8056618 14.9986638,24.0928771 15.7421983,23.0068007 L25.0980172,6.95977986 C27.3915517,2.88371042 31.7549138,0.141286806 36.769569,0.141286806 C42.3467241,0.141286806 47.1169828,3.54870347 49.1305603,8.39180764 C47.4999569,5.98586319 44.7150431,4.43909236 41.5872414,4.43909236 C38.0176293,4.43909236 35.2747414,6.71048819 33.6680603,9.70435625 L30.5559914,15.3093285 Z" id="Fill-4" fill="#464646" mask="url(#mask-4)"></path>
                </g>
            </g>
            <path d="M62.6105769,11.8143322 C61.4326923,13.4299674 60.1201923,14.9782845 58.7067308,16.4256243 L58,14.0021716 C61.6346154,9.9630836 64.2596154,5.35179153 65.9086538,0.168295331 L68.0961539,1.17806732 C67.2884615,3.60152009 66.2451923,5.92399566 65.0336538,8.11183496 L65.0336538,30.9326819 L62.6105769,30.9326819 L62.6105769,11.8143322 Z M67.4567308,8.28013029 L74.3894231,8.28013029 C74.4230769,7.60694897 74.4567308,6.93376764 74.4567308,6.26058632 L74.4567308,0.168295331 L76.7788462,0.168295331 L76.7788462,6.26058632 C76.7788462,6.93376764 76.7451923,7.60694897 76.7115385,8.28013029 L88.0192308,8.28013029 L88.0192308,10.6362649 L81.0192308,10.6362649 L81.0192308,27.1628664 C81.0192308,27.8360478 81.3221154,28.1726384 81.9951923,28.1726384 L84.9230769,28.1726384 C85.2932692,28.1726384 85.5961539,27.970684 85.8653846,27.6004343 C86.1682692,27.0955483 86.3701923,25.3116178 86.4711539,22.2149837 L88.6586539,22.9218241 C88.4230769,26.4896851 88.0528846,28.6775244 87.5817308,29.4180239 C87.1105769,30.0238871 86.4038462,30.3604777 85.5288462,30.3941368 L81.3557692,30.3941368 C79.5721154,30.3941368 78.6971154,29.451683 78.6971154,27.6004343 L78.6971154,10.6362649 L76.5769231,10.6362649 C75.8365385,19.6232356 73.0096154,26.3550489 68.1634615,30.8317047 L66.3798077,29.2833876 C70.8894231,25.1769815 73.5144231,18.9837134 74.2548077,10.6362649 L67.4567308,10.6362649 L67.4567308,8.28013029 Z M81.1875,0.774158523 C83.2740385,2.22149837 85.0576923,3.70249729 86.4711539,5.1834962 L84.8221154,6.83279045 C83.5432692,5.3854506 81.8269231,3.87079262 79.6057692,2.2888165 L81.1875,0.774158523 Z M93.6394231,5.4864278 L106.5625,5.4864278 C106.024038,3.66883822 105.451923,2.01954397 104.846154,0.53854506 L107.639423,0.0673181325 C108.177885,1.64929425 108.682692,3.46688382 109.1875,5.4864278 L121.807692,5.4864278 L121.807692,7.84256243 L93.6394231,7.84256243 L93.6394231,5.4864278 Z M92.4951923,26.6243214 L109.1875,26.6243214 C111.240385,22.1476656 113.024038,16.5266015 114.572115,9.79478827 L117.129808,10.4679696 C115.75,16.5266015 114.033654,21.9120521 111.947115,26.6243214 L122.951923,26.6243214 L122.951923,28.980456 L92.4951923,28.980456 L92.4951923,26.6243214 Z M100.875,9.92942454 C102.355769,14.3051031 103.668269,19.286645 104.8125,24.9413681 L102.221154,25.5808903 C101.211538,20.4647123 99.8990385,15.5168295 98.3509615,10.7709012 L100.875,9.92942454 Z M148.225962,10.6362649 C147.149038,10.8382193 146.038462,11.0065147 144.927885,11.17481 L144.927885,27.2638436 C146.610577,26.7252986 148.293269,26.1530945 149.942308,25.4799131 L150.379808,27.6004343 C148.057692,28.47557 145.331731,29.3170467 142.168269,30.1921824 L141.663462,28.1053203 C142.302885,27.970684 142.639423,27.6677524 142.639423,27.2638436 L142.639423,9.39087948 C146.8125,8.91965255 150.783654,7.94353963 154.552885,6.49619978 L155.798077,8.48208469 C154.081731,9.12160695 152.264423,9.69381107 150.379808,10.165038 C150.413462,12.6221498 150.682692,14.9109663 151.1875,17.0314875 C152.9375,15.9543974 154.384615,14.8773073 155.5625,13.732899 L156.908654,15.4495114 C155.596154,16.6612378 153.879808,17.9066232 151.759615,19.1183496 C152.903846,22.7871878 154.754808,26.0184582 157.3125,28.8458198 L155.528846,30.6297503 C150.918269,25.2442997 148.495192,18.5798046 148.225962,10.6362649 Z M153.206731,0.100977199 L154.788462,1.91856678 C150.682692,3.66883822 145.567308,4.84690554 139.442308,5.45276873 L139.442308,15.5168295 C139.274038,21.5081433 137.826923,26.6579805 135.067308,30.8990228 L133.350962,29.1150923 C135.774038,25.3116178 137.052885,20.7676439 137.1875,15.5168295 L137.1875,3.50054289 C143.985577,2.8946797 149.336538,1.78393051 153.206731,0.100977199 Z M129.211538,0.572204126 C131.331731,2.25515744 133.115385,3.97176982 134.596154,5.65472313 L132.947115,7.33767644 C131.600962,5.72204126 129.783654,4.03908795 127.495192,2.22149837 L129.211538,0.572204126 Z M128.471154,8.44842562 C130.490385,10.165038 132.173077,11.8816504 133.552885,13.5982628 L131.903846,15.247557 C130.658654,13.6319218 128.942308,11.9489685 126.754808,10.1313789 L128.471154,8.44842562 Z M132.240385,17.8393051 L134.360577,18.6807818 C132.947115,22.888165 131.331731,26.8599349 129.581731,30.5960912 L127.326923,29.6199783 C129.211538,25.7828447 130.860577,21.844734 132.240385,17.8393051 Z M174.543269,0 L177.033654,0 L177.033654,3.60152009 L190.192308,3.60152009 L190.192308,5.95765472 L177.033654,5.95765472 L177.033654,9.49185668 L186.355769,9.49185668 L186.355769,19.286645 L180.567308,19.286645 L180.567308,26.3887079 C180.567308,27.432139 181.105769,27.970684 182.182692,27.970684 L186.254808,27.970684 C186.826923,27.970684 187.331731,27.8360478 187.735577,27.5667752 C188.240385,27.1965255 188.576923,25.9511401 188.711538,23.7969598 L191,24.5374593 C190.697115,27.2975027 190.225962,28.980456 189.586538,29.5526602 C188.947115,30.0238871 188.038462,30.2931596 186.894231,30.3268187 L181.475962,30.3268187 C179.254808,30.3268187 178.177885,29.1487514 178.177885,26.8262758 L178.177885,19.286645 L172.725962,19.286645 C172.389423,22.4169381 171.548077,24.7394137 170.235577,26.2877307 C168.620192,28.1053203 165.927885,29.6536374 162.225962,31 L160.677885,29.0141151 C164.110577,27.937025 166.533654,26.6579805 167.947115,25.1769815 C169.158654,23.897937 169.932692,21.9120521 170.269231,19.286645 L165.221154,19.286645 L165.221154,9.49185668 L174.543269,9.49185668 L174.543269,5.95765472 L161.384615,5.95765472 L161.384615,3.60152009 L174.543269,3.60152009 L174.543269,0 Z M183.966346,16.9978284 L183.966346,11.7806732 L167.610577,11.7806732 L167.610577,16.9978284 L183.966346,16.9978284 Z" id="优立派克" fill="#464646"></path>
        </g>
    </g>
</svg>