<?xml version="1.0" encoding="UTF-8" standalone="no"?>
<svg width="34px" height="47px" viewBox="0 0 34 47" version="1.1" xmlns="http://www.w3.org/2000/svg" xmlns:xlink="http://www.w3.org/1999/xlink">
    <!-- Generator: Sketch 3.7.2 (28276) - http://www.bohemiancoding.com/sketch -->
    <title>icon-adress</title>
    <desc>Created with Sketch.</desc>
    <defs></defs>
    <g id="home" stroke="none" stroke-width="1" fill="none" fill-rule="evenodd">
        <g id="yoolens" transform="translate(-160.000000, -2505.000000)" fill="#00CD79">
            <path d="M188.582511,2510.15038 C185.556226,2507.1678 181.37705,2505.32313 176.761734,2505.32313 C172.145794,2505.32313 167.966845,2507.1678 164.942548,2510.15038 C161.917626,2513.13232 160.045369,2517.25216 160.045369,2521.80129 C160.045369,2524.23736 160.61449,2526.52099 161.599309,2528.59203 C162.660442,2530.82568 164.200413,2532.79701 166.024065,2534.42995 L175.911602,2543.27881 L176.761734,2544.04179 L177.613684,2543.27881 L187.493044,2534.43569 C189.317377,2532.80276 190.860415,2530.8308 191.922854,2528.59357 C192.9079,2526.5223 193.478384,2524.23798 193.478384,2521.80129 C193.478384,2517.25216 191.606808,2513.13232 188.582511,2510.15038 L188.582511,2510.15038 L188.582511,2510.15038 Z M189.635638,2527.53871 C188.722932,2529.45693 187.384137,2531.1634 185.790223,2532.58948 L176.761734,2540.67105 L167.72683,2532.58373 C166.132972,2531.1576 164.796392,2529.45272 163.886525,2527.53718 C163.058764,2525.79652 162.579699,2523.86744 162.579699,2521.80061 C162.579699,2517.94069 164.167821,2514.44488 166.734062,2511.91662 C169.300529,2509.38677 172.846478,2507.82226 176.761734,2507.82226 C180.677899,2507.82226 184.223223,2509.38677 186.788783,2511.91725 C189.355307,2514.44641 190.943146,2517.94154 190.943146,2521.80129 C190.943146,2523.86875 190.464307,2525.79806 189.635638,2527.53871 L189.635638,2527.53871 L189.635638,2527.53871 Z M190.541246,2539.59577 C190.095852,2539.11831 189.359509,2539.0541 188.836268,2539.44801 C188.57899,2539.64241 188.417504,2539.91325 188.365378,2540.24227 C188.304168,2540.62816 188.413302,2540.98562 188.681424,2541.27534 C189.322431,2541.96916 189.678678,2542.71678 189.678678,2543.48322 C189.678678,2544.96111 188.355839,2546.37121 186.216766,2547.45382 C183.822857,2548.66594 180.480924,2549.41578 176.761734,2549.41578 C173.042148,2549.41578 169.700896,2548.66594 167.307612,2547.45382 C165.170128,2546.37121 163.844393,2544.96111 163.844393,2543.48322 C163.844393,2542.71678 164.201265,2541.96916 164.842953,2541.27534 C165.109769,2540.98562 165.218676,2540.62816 165.157693,2540.24227 C165.10693,2539.91165 164.942548,2539.63951 164.683908,2539.44511 C164.159133,2539.0541 163.42563,2539.11899 162.983131,2539.59577 C161.911834,2540.74811 161.310745,2542.06738 161.310745,2543.48322 C161.310745,2545.97081 163.163242,2548.15338 166.157786,2549.66904 C168.897721,2551.0569 172.650412,2551.91491 176.761734,2551.91491 C180.874193,2551.91491 184.625804,2551.05667 187.365285,2549.66904 C190.361135,2548.15338 192.213632,2545.97081 192.213632,2543.48322 C192.213632,2542.06738 191.611237,2540.74811 190.541246,2539.59577 L190.541246,2539.59577 L190.541246,2539.59577 L190.541246,2539.59577 Z M181.404759,2518.6696 L181.407655,2518.66738 C180.218537,2517.49587 178.575904,2516.77094 176.761734,2516.77094 C174.949212,2516.77094 173.30516,2517.49587 172.116779,2518.66738 L172.118312,2518.6696 C170.928569,2519.84378 170.191545,2521.46289 170.191545,2523.2458 C170.191545,2525.0336 170.927888,2526.65271 172.116779,2527.8249 C173.30516,2528.99613 174.94853,2529.72128 176.761734,2529.72128 C178.575904,2529.72128 180.218537,2528.99613 181.407655,2527.8249 C182.595184,2526.65271 183.331356,2525.0336 183.331356,2523.2458 C183.331356,2521.46289 182.594502,2519.84378 181.404759,2518.6696 L181.404759,2518.6696 L181.404759,2518.6696 Z M179.613927,2526.05735 C178.884171,2526.77716 177.876072,2527.22283 176.761734,2527.22283 C175.649214,2527.22283 174.638219,2526.77716 173.908463,2526.05735 C173.18007,2525.33862 172.727408,2524.34354 172.727408,2523.2458 C172.727408,2522.14431 173.177231,2521.15053 173.904034,2520.43425 L173.908463,2520.43425 C174.638219,2519.7149 175.649214,2519.26855 176.761734,2519.26855 C177.876072,2519.26855 178.884171,2519.71422 179.613927,2520.43425 L179.619662,2520.43425 C180.346522,2521.15053 180.795664,2522.14499 180.795664,2523.2458 C180.795664,2524.34417 180.344989,2525.33862 179.613927,2526.05735 L179.613927,2526.05735 L179.613927,2526.05735 Z" id="icon-adress"></path>
        </g>
    </g>
</svg>