<?xml version="1.0" encoding="UTF-8" standalone="no"?>
<svg width="48px" height="48px" viewBox="0 0 48 48" version="1.1" xmlns="http://www.w3.org/2000/svg" xmlns:xlink="http://www.w3.org/1999/xlink">
    <!-- Generator: Sketch 3.7.2 (28276) - http://www.bohemiancoding.com/sketch -->
    <title>icon-brush</title>
    <desc>Created with Sketch.</desc>
    <defs></defs>
    <g id="home" stroke="none" stroke-width="1" fill="none" fill-rule="evenodd">
        <g id="yoolens" transform="translate(-550.000000, -2505.000000)" fill="#D689CC">
            <path d="M594.781944,2511.01789 L591.800183,2511.01789 L591.800183,2505.0542 L553.03599,2505.0542 L553.03599,2511.01795 L551.545081,2511.01795 C550.722425,2511.01795 550.054116,2511.68546 550.054116,2512.5088 C550.054116,2513.33293 550.722368,2513.99971 551.545081,2513.99971 L553.03599,2513.99971 L553.03599,2519.96351 L591.800183,2519.96351 L591.800183,2513.99965 L594.781944,2513.99965 L594.781944,2522.94522 L573.908995,2522.94522 C572.262263,2522.94522 570.927178,2524.28042 570.927178,2525.92715 L570.927178,2534.87277 L569.436213,2534.87277 L569.436213,2549.78203 C569.436213,2551.42882 570.771355,2552.7639 572.418143,2552.7639 C574.064875,2552.7639 575.399904,2551.42876 575.399904,2549.78203 L575.399904,2534.87277 L573.908995,2534.87277 L573.908995,2525.92715 L594.781944,2525.92715 C596.428676,2525.92715 597.763818,2524.59195 597.763818,2522.94522 L597.763818,2513.99965 C597.763818,2512.35298 596.428676,2511.01789 594.781944,2511.01789 L594.781944,2511.01789 Z M588.818196,2516.98153 L556.017807,2516.98153 L556.017807,2508.03596 L588.818196,2508.03596 L588.818196,2516.98153 L588.818196,2516.98153 Z" id="icon-brush"></path>
        </g>
    </g>
</svg>