<?xml version="1.0" encoding="UTF-8" standalone="no"?>
<svg width="43px" height="48px" viewBox="0 0 43 48" version="1.1" xmlns="http://www.w3.org/2000/svg" xmlns:xlink="http://www.w3.org/1999/xlink">
    <!-- Generator: Sketch 3.7.2 (28276) - http://www.bohemiancoding.com/sketch -->
    <title>icon-changing</title>
    <desc>Created with Sketch.</desc>
    <defs></defs>
    <g id="home" stroke="none" stroke-width="1" fill="none" fill-rule="evenodd">
        <g id="yoolens" transform="translate(-948.000000, -2704.000000)" fill="#7483D6">
            <path d="M969.497314,2705.76848 C970.299849,2705.76848 971.22571,2706.11443 972.691983,2706.96206 L986.014671,2714.6756 C987.474391,2715.52339 988.233793,2716.15473 988.635786,2716.85478 C989.038638,2717.55629 989.202948,2718.53499 989.202948,2720.23283 L989.202948,2735.66731 C989.202948,2737.36239 989.038638,2738.3399 988.63584,2739.04131 C988.233525,2739.74185 987.473854,2740.37437 986.013757,2741.22458 L972.693219,2748.93689 C971.226838,2749.77982 970.300762,2750.12368 969.497314,2750.12368 C968.693437,2750.12368 967.766824,2749.77944 966.299047,2748.93549 L952.980119,2741.22415 C951.520667,2740.37561 950.761748,2739.74373 950.36083,2739.0433 C949.960342,2738.34367 949.796999,2737.36562 949.796999,2735.6673 L949.796999,2720.23288 C949.796999,2718.53181 949.960342,2717.55252 950.36083,2716.85284 C950.76148,2716.1529 951.520023,2715.52226 952.978078,2714.67668 L966.301732,2706.9626 C967.768972,2706.11443 968.69478,2705.76848 969.497314,2705.76848 L969.497314,2705.76848 Z M969.497314,2704.15159 C968.310352,2704.15159 967.123389,2704.62162 965.497264,2705.56162 L952.17275,2713.27619 C948.930975,2715.1562 948.185591,2716.46759 948.185591,2720.23283 L948.185591,2735.6673 C948.185591,2739.42731 948.930975,2740.73871 952.17275,2742.6234 L965.497318,2750.33802 C967.123443,2751.27307 968.310405,2751.74056 969.497368,2751.74056 C970.684331,2751.74056 971.871294,2751.27307 973.497419,2750.33802 L986.821986,2742.6234 C990.059035,2740.73865 990.814463,2739.42725 990.814463,2735.6673 L990.814463,2720.23288 C990.814463,2716.46765 990.059035,2715.15625 986.821986,2713.27625 L973.497365,2705.56162 C971.871294,2704.62162 970.684331,2704.15159 969.497314,2704.15159 L969.497314,2704.15159 L969.497314,2704.15159 Z M958.985942,2727.20309 L969.015879,2718.10054 L969.015879,2734.35887 L964.120424,2734.35887 L964.120424,2727.1776 L958.985942,2727.20309 Z M979.980809,2728.64589 L969.950872,2737.74839 L969.950872,2721.49011 L974.846328,2721.49011 L974.846328,2728.67133 L979.980809,2728.64589 Z M974.836874,2721.34653 L969.988632,2721.34653 L969.950872,2719.68039 L974.798899,2719.68039 L974.836874,2721.34653 Z M974.836874,2719.50819 L969.988632,2719.50819 L969.950872,2717.84205 L974.798899,2717.84205 L974.836874,2719.50819 Z M964.167853,2734.97652 L969.015879,2734.97652 L969.015879,2736.18309 L964.167853,2736.18309 L964.167853,2734.97652 L964.167853,2734.97652 Z M964.167853,2736.84375 L969.015879,2736.84375 L969.015879,2738.0501 L964.167853,2738.0501 L964.167853,2736.84375 L964.167853,2736.84375 Z" id="icon-changing"></path>
        </g>
    </g>
</svg>