<?xml version="1.0" encoding="UTF-8" standalone="no"?>
<svg width="24px" height="23px" viewBox="0 0 24 23" version="1.1" xmlns="http://www.w3.org/2000/svg" xmlns:xlink="http://www.w3.org/1999/xlink">
    <!-- Generator: Sketch 3.7.2 (28276) - http://www.bohemiancoding.com/sketch -->
    <title>icon-company</title>
    <desc>Created with Sketch.</desc>
    <defs></defs>
    <g id="home" stroke="none" stroke-width="1" fill="none" fill-rule="evenodd">
        <g id="yoolens" transform="translate(-560.000000, -1513.000000)" fill="#FFFFFF">
            <path d="M572.001406,1536 C565.373368,1536 560,1530.43935 560,1523.58013 C560,1521.41154 560.539993,1519.37404 561.483731,1517.60032 L562.52278,1517.60032 C561.493106,1519.34491 560.888426,1521.38726 560.888426,1523.58013 C560.888426,1529.93151 565.864299,1535.0811 572.001719,1535.0811 C578.136014,1535.0811 583.110949,1529.93151 583.110949,1523.58013 C583.110949,1521.38726 582.507832,1519.34491 581.478158,1517.60032 L582.517207,1517.60032 C583.460945,1519.37404 584,1521.41154 584,1523.58013 C583.999688,1530.43935 578.62632,1536 572.001406,1536 L572.001406,1536 Z M575.110741,1521.28045 C574.865431,1521.28045 574.665434,1521.07395 574.665434,1520.81987 L574.665434,1520.36026 C574.665434,1520.10618 574.865431,1519.89968 575.110741,1519.89968 C575.357613,1519.89968 575.556047,1520.10618 575.556047,1520.36026 L575.556047,1520.81987 C575.556047,1521.07395 575.357613,1521.28045 575.110741,1521.28045 L575.110741,1521.28045 Z M575.556047,1524.04039 C575.556047,1524.29447 575.357613,1524.5 575.110741,1524.5 C574.865431,1524.5 574.665434,1524.29447 574.665434,1524.04039 L574.665434,1523.57981 C574.665434,1523.32637 574.865431,1523.12019 575.110741,1523.12019 C575.357613,1523.12019 575.556047,1523.3267 575.556047,1523.57981 L575.556047,1524.04039 L575.556047,1524.04039 Z M580.424734,1527.72052 L578.793505,1527.72052 L572.688272,1527.72052 L571.758597,1527.72052 L565.692113,1527.72052 L564.02026,1527.72052 C563.764013,1527.72052 563.556204,1527.5069 563.556204,1527.24149 C563.556204,1526.97931 563.743701,1526.79806 564.000885,1526.79806 L565.333681,1526.79806 L565.333681,1513 L572.443588,1513 L572.443588,1516.68013 L576.888843,1516.68013 L576.888843,1517.60032 L572.443588,1517.60032 L572.443588,1526.79806 L577.777894,1526.79806 L577.777894,1518.98078 L578.666944,1518.98078 L578.666944,1526.79806 L580.424734,1526.76569 C580.680981,1526.76569 580.888791,1526.97931 580.888791,1527.24149 C580.888791,1527.5069 580.680981,1527.72052 580.424734,1527.72052 L580.424734,1527.72052 Z M571.555475,1516.68013 L571.555475,1513.92084 L566.222731,1513.92084 L566.222731,1526.79806 L571.555475,1526.79806 L571.555475,1516.68013 L571.555475,1516.68013 Z M568.444578,1516.68013 L568.889259,1516.68013 L569.334566,1516.68013 C569.57925,1516.68013 569.77831,1516.88663 569.77831,1517.13974 C569.77831,1517.39382 569.578938,1517.60032 569.334566,1517.60032 L568.889259,1517.60032 L568.444578,1517.60032 C568.199268,1517.60032 567.999896,1517.39382 567.999896,1517.13974 C567.999896,1516.88663 568.199268,1516.68013 568.444578,1516.68013 L568.444578,1516.68013 Z M568.444578,1519.9 L568.889259,1519.9 L569.334566,1519.9 C569.57925,1519.9 569.77831,1520.1065 569.77831,1520.36058 C569.77831,1520.61466 569.578938,1520.82019 569.334566,1520.82019 L568.889259,1520.82019 L568.444578,1520.82019 C568.199268,1520.82019 567.999896,1520.61466 567.999896,1520.36058 C567.999896,1520.10618 568.199268,1519.9 568.444578,1519.9 L568.444578,1519.9 Z M568.444578,1523.12052 L568.889259,1523.12052 L569.334566,1523.12052 C569.57925,1523.12052 569.77831,1523.32702 569.77831,1523.58013 C569.77831,1523.83421 569.578938,1524.04071 569.334566,1524.04071 L568.889259,1524.04071 L568.444578,1524.04071 C568.199268,1524.04071 567.999896,1523.83421 567.999896,1523.58013 C567.999896,1523.3267 568.199268,1523.12052 568.444578,1523.12052 L568.444578,1523.12052 Z" id="icon-company"></path>
        </g>
    </g>
</svg>