<?xml version="1.0" encoding="UTF-8" standalone="no"?>
<svg width="48px" height="44px" viewBox="0 0 48 44" version="1.1" xmlns="http://www.w3.org/2000/svg" xmlns:xlink="http://www.w3.org/1999/xlink">
    <!-- Generator: Sketch 3.7.2 (28276) - http://www.bohemiancoding.com/sketch -->
    <title>icon-event</title>
    <desc>Created with Sketch.</desc>
    <defs></defs>
    <g id="home" stroke="none" stroke-width="1" fill="none" fill-rule="evenodd">
        <g id="yoolens" transform="translate(-550.000000, -2706.000000)" fill="#E63B02">
            <path d="M597.858506,2727.56161 C597.859868,2727.54008 597.860632,2727.51833 597.860632,2727.49664 L597.860632,2718.09354 C597.860632,2717.41654 597.17317,2716.92526 596.225704,2716.92526 L590.94165,2716.91479 C591.463841,2716.24619 591.863062,2715.43979 592.027841,2714.45172 C592.405312,2712.18651 591.849489,2710.23914 590.540631,2708.6942 C589.416284,2707.36687 587.851182,2706.66551 586.015117,2706.66551 C583.886561,2706.66551 581.903759,2707.69108 580.431212,2709.55353 C579.710665,2710.46551 579.134673,2711.2246 578.73965,2712.38535 C578.080479,2712.06741 577.230909,2711.86098 576.160472,2711.75845 C575.919326,2711.73534 575.679107,2711.72378 575.44641,2711.72378 C574.334546,2711.72378 573.335678,2711.98799 572.539581,2712.48919 C572.383687,2712.16165 572.175028,2711.77235 571.897962,2711.30434 C570.26565,2708.54894 568.256194,2706.9351 566.522279,2706.43946 C565.252231,2706.07632 564.189424,2706.05888 563.273191,2706.3862 C562.478403,2706.67025 561.83046,2707.2004 561.29257,2708.00669 C560.479903,2709.22561 560.34772,2711.08276 560.327715,2711.59324 C560.319921,2711.63488 560.315178,2711.67767 560.315178,2711.72144 C560.315178,2712.14982 560.689488,2712.49759 561.150848,2712.49759 C561.612808,2712.49759 561.987063,2712.14988 561.987063,2711.72144 C561.987063,2711.70285 561.985537,2711.6847 561.983901,2711.66688 C562.014862,2710.81126 562.223684,2709.59915 562.67218,2708.9269 C563.188158,2708.15277 563.99472,2707.44165 566.06637,2708.03367 C567.051066,2708.31537 568.795392,2709.32056 570.471256,2712.14982 C571.093253,2713.19928 571.240044,2713.6572 571.271877,2713.78361 C571.078263,2714.12592 570.952621,2714.49505 570.902255,2714.87846 C570.79629,2715.68868 570.832756,2716.35444 571.01318,2716.89065 L571.009037,2716.89479 C570.994102,2716.89539 570.978894,2716.8961 570.963141,2716.89691 C570.20798,2716.93164 568.202122,2717.02305 567.184993,2716.64955 C566.003249,2716.21578 564.106299,2715.35961 562.58235,2714.6715 C561.581084,2714.21984 560.790819,2713.86335 560.378681,2713.70337 C558.814287,2713.09773 556.9441,2712.48292 554.538313,2712.8598 C550.272369,2713.52758 550.085896,2716.3733 550.080118,2716.49399 L550.083007,2716.4942 C550.082516,2716.50396 550.081535,2716.51361 550.081535,2716.52337 C550.081535,2716.94597 550.451539,2717.28872 550.908265,2717.28872 C551.346296,2717.28872 551.703871,2716.9729 551.732379,2716.57395 L551.736413,2716.57422 C551.737176,2716.5582 551.895305,2714.95161 554.794558,2714.49789 C556.79491,2714.18463 558.354017,2714.69744 559.779578,2715.24961 C560.149963,2715.39319 560.960777,2715.75905 561.900285,2716.18291 C563.448436,2716.88171 565.375529,2717.75128 566.613417,2718.20604 C567.46593,2718.51925 567.845146,2718.59115 568.838781,2718.59115 C569.043624,2718.59115 569.239582,2718.58771 569.422458,2718.58319 L573.785318,2718.58319 L573.785318,2726.96376 L554.668261,2726.96376 L554.668261,2718.58324 L564.419614,2718.58324 L561.774589,2717.34416 L560.877761,2716.92526 L554.562569,2716.92526 C553.615212,2716.92526 552.927642,2717.41627 552.927642,2718.09327 L552.927642,2726.96382 L552.927642,2726.96382 L552.927642,2728.70743 L556.501818,2728.70743 L556.501818,2747.80487 C556.501818,2748.64522 557.161262,2749.32909 557.971694,2749.32909 L592.903411,2749.32909 C593.714225,2749.32909 594.373287,2748.64522 594.373287,2747.80487 L594.373287,2728.70743 L597.86194,2728.70743 L597.858506,2727.56161 L597.858506,2727.56161 L597.858506,2727.56161 L597.858506,2727.56161 Z M573.785155,2747.6711 L558.159476,2747.6711 L558.159476,2728.70743 L573.785155,2728.70743 L573.785155,2747.6711 L573.785155,2747.6711 L573.785155,2747.6711 L573.785155,2747.6711 Z M586.014572,2708.32349 C587.348613,2708.32349 588.475685,2708.82241 589.275434,2709.76628 C590.272994,2710.94377 590.690529,2712.38906 590.392041,2714.17923 C590.192158,2715.37885 589.508894,2716.21469 588.566224,2716.91005 L580.33664,2716.89408 C580.547261,2716.33826 580.595337,2715.62872 580.487302,2714.72273 C580.436881,2714.29729 580.309113,2713.91459 580.106614,2713.5762 C580.88178,2710.61317 583.043641,2708.32349 586.014572,2708.32349 L586.014572,2708.32349 L586.014572,2708.32349 L586.014572,2708.32349 Z M574.986522,2716.86306 C574.785059,2716.87097 574.591717,2716.878 574.405243,2716.8822 L573.784337,2716.88089 C573.200224,2716.85832 572.861617,2716.765 572.704142,2716.58529 C572.505895,2716.35919 572.449751,2715.82964 572.545959,2715.09388 C572.657592,2714.24328 573.689383,2713.38177 575.446247,2713.38177 C575.626506,2713.38177 575.813525,2713.39098 576.00207,2713.40908 C578.691955,2713.6669 578.796448,2714.54373 578.840981,2714.91831 C578.961663,2715.93369 578.819232,2716.3358 578.678383,2716.49448 C578.374934,2716.8363 577.346358,2716.8363 576.351796,2716.8363 L576.080998,2716.83603 C575.704181,2716.83608 575.339301,2716.84971 574.986522,2716.86306 L574.986522,2716.86306 L574.986522,2716.86306 L574.986522,2716.86306 Z M592.715356,2747.6711 L577.078504,2747.6711 L577.078504,2728.70743 L592.715356,2728.70743 L592.715356,2747.6711 L592.715356,2747.6711 L592.715356,2747.6711 L592.715356,2747.6711 Z M596.119957,2726.96382 L577.078449,2726.96382 L577.078449,2718.58324 L596.119957,2718.58324 L596.119957,2726.96382 L596.119957,2726.96382 L596.119957,2726.96382 L596.119957,2726.96382 Z" id="icon-event"></path>
        </g>
    </g>
</svg>