<?xml version="1.0" encoding="UTF-8" standalone="no"?>
<svg width="64px" height="59px" viewBox="0 0 64 59" version="1.1" xmlns="http://www.w3.org/2000/svg" xmlns:xlink="http://www.w3.org/1999/xlink">
    <!-- Generator: Sketch 3.7.2 (28276) - http://www.bohemiancoding.com/sketch -->
    <title>icon-fly</title>
    <desc>Created with Sketch.</desc>
    <defs></defs>
    <g id="home" stroke="none" stroke-width="1" fill="none" fill-rule="evenodd">
        <g id="yoolens" transform="translate(-804.000000, -3198.000000)" fill="#00CD79">
            <path d="M836.96,3251.60236 C836.533333,3251.60236 836.106667,3251.38859 835.893333,3250.96105 L830.773333,3235.35598 L815.2,3230.22554 C814.986667,3230.01178 814.56,3229.58424 814.56,3229.1567 C814.56,3228.72917 814.773333,3228.30163 814.986667,3228.08786 L866.186667,3198.16033 C866.613333,3197.94656 867.04,3197.94656 867.253333,3198.16033 C867.68,3198.58786 867.893333,3199.0154 867.893333,3199.44293 L859.36,3244.33424 C859.36,3244.54801 859.146667,3244.97554 858.933333,3244.97554 C858.72,3245.18931 858.293333,3245.18931 858.08,3244.97554 L839.946667,3238.13496 L838.026667,3250.74728 C838.026667,3251.17482 837.6,3251.60236 836.96,3251.60236 Z M818.186667,3228.94293 L832.053333,3233.64583 C832.266667,3233.64583 832.693333,3234.07337 832.693333,3234.28714 L836.533333,3246.04438 L838.026667,3236.42482 C838.026667,3235.99728 838.24,3235.78351 838.453333,3235.56975 C838.666667,3235.35598 839.093333,3235.35598 839.306667,3235.56975 L857.226667,3242.62409 L865.12,3201.36685 L818.186667,3228.94293 Z M837.744213,3235.46238 L860,3208 C860,3208 832.187794,3234.50266 832.508528,3234.14506 C832.508528,3234.14506 837.383749,3235.80798 837.744213,3235.46238 Z M838.882324,3246.30933 L844.137695,3239.65356 L846.346667,3240.48641 C846.346667,3240.48641 838.287796,3250.72876 838.074463,3250.72876 C838.074463,3250.72876 838.455658,3246.73686 838.882324,3246.30933 Z M806.88,3248.18207 C806.666667,3248.18207 806.453333,3248.18207 806.24,3247.9683 C805.6,3247.32699 804.96,3246.68569 804.32,3246.04438 C803.893333,3245.61685 803.893333,3244.97554 804.32,3244.54801 C804.746667,3244.12047 805.386667,3244.12047 805.813333,3244.54801 C806.453333,3245.18931 807.093333,3245.83062 807.733333,3246.47192 C808.16,3246.89946 808.16,3247.54076 807.733333,3247.9683 C807.52,3247.9683 807.093333,3248.18207 806.88,3248.18207 L806.88,3248.18207 Z M822.666667,3256.73279 L822.666667,3256.73279 C821.386667,3256.51902 820.106667,3256.30525 819.04,3255.87772 C818.4,3255.66395 818.186667,3255.02264 818.4,3254.59511 C818.613333,3254.16757 819.253333,3253.74004 819.68,3253.9538 C820.746667,3254.38134 821.813333,3254.59511 822.88,3254.59511 C823.52,3254.59511 823.946667,3255.23641 823.733333,3255.87772 C823.733333,3256.30525 823.306667,3256.73279 822.666667,3256.73279 L822.666667,3256.73279 Z M827.786667,3256.73279 C827.36,3256.73279 826.72,3256.30525 826.72,3255.87772 C826.72,3255.23641 826.933333,3254.80888 827.573333,3254.59511 C828,3254.59511 828.213333,3254.38134 828.64,3254.38134 C829.28,3254.16757 829.706667,3254.59511 829.92,3255.23641 C830.133333,3255.87772 829.706667,3256.30525 829.066667,3256.51902 C828.853333,3256.51902 828.426667,3256.51902 827.786667,3256.73279 L827.786667,3256.73279 L827.786667,3256.73279 Z M814.773333,3253.9538 C814.56,3253.9538 814.346667,3253.9538 814.346667,3253.74004 C813.28,3253.09873 812.426667,3252.45743 811.36,3251.81612 C810.933333,3251.38859 810.72,3250.74728 811.146667,3250.31975 C811.573333,3249.89221 812.213333,3249.67844 812.64,3250.10598 C813.493333,3250.74728 814.56,3251.38859 815.413333,3251.81612 C815.84,3252.02989 816.053333,3252.6712 815.84,3253.3125 C815.413333,3253.74004 815.2,3253.9538 814.773333,3253.9538 L814.773333,3253.9538 Z M831.84,3255.45018 C831.413333,3255.45018 830.986667,3255.23641 830.773333,3254.80888 C830.56,3254.16757 830.773333,3253.74004 831.413333,3253.3125 C832.266667,3252.88496 832.906667,3252.6712 833.76,3252.24366 C834.186667,3252.02989 834.826667,3252.02989 835.253333,3252.6712 C835.466667,3253.09873 835.466667,3253.74004 834.826667,3254.16757 C833.973333,3254.59511 833.12,3255.02264 832.266667,3255.45018 L831.84,3255.45018 L831.84,3255.45018 Z" id="icon-fly"></path>
        </g>
    </g>
</svg>