<?xml version="1.0" encoding="UTF-8" standalone="no"?>
<svg width="24px" height="19px" viewBox="0 0 24 19" version="1.1" xmlns="http://www.w3.org/2000/svg" xmlns:xlink="http://www.w3.org/1999/xlink">
    <!-- Generator: Sketch 3.7.2 (28276) - http://www.bohemiancoding.com/sketch -->
    <title>icon-hr</title>
    <desc>Created with Sketch.</desc>
    <defs></defs>
    <g id="home" stroke="none" stroke-width="1" fill="none" fill-rule="evenodd">
        <g id="yoolens" transform="translate(-959.000000, -1515.000000)" fill="#FFFFFF">
            <path d="M981.374328,1527.06874 C980.87008,1526.46807 980.285874,1525.99375 979.648909,1525.6591 C980.392255,1524.99346 980.862498,1524.01653 980.862498,1522.92928 C980.862498,1520.95311 979.309259,1519.34101 977.385352,1519.30155 C977.421855,1519.54904 977.440955,1519.80232 977.440955,1520.06004 C977.440955,1520.31881 977.421453,1520.573 977.384634,1520.8214 C978.485236,1520.86025 979.369055,1521.79059 979.369055,1522.92928 C979.369055,1523.76646 978.893413,1524.49333 978.203286,1524.83409 C978.184043,1524.84238 978.129675,1524.86923 978.125395,1524.87195 C977.802087,1525.04583 977.60627,1525.39194 977.581657,1525.78902 C977.535474,1526.53501 978.655894,1526.86614 978.656037,1526.86634 C980.17484,1527.44014 981.221161,1529.00136 981.460633,1530.96357 L980.414112,1530.96357 C980.516414,1531.45923 980.585229,1531.96678 980.619349,1532.48248 L982.253264,1532.48248 C982.665663,1532.48248 983,1532.14245 983,1531.72302 C983,1529.97049 982.422658,1528.31758 981.374328,1527.06874 L981.374328,1527.06874 Z M974.213994,1524.43286 C974.074038,1524.36235 973.932733,1524.29709 973.790422,1524.23616 C975.091868,1523.32367 975.947454,1521.79219 975.947454,1520.06001 C975.947454,1517.26991 973.72807,1515 971.000014,1515 C968.271959,1515 966.052574,1517.26994 966.052574,1520.06001 C966.052574,1521.79219 966.908132,1523.32364 968.209607,1524.23616 C968.067296,1524.29709 967.925991,1524.36235 967.786035,1524.43286 C966.813441,1524.92292 965.942115,1525.62194 965.196212,1526.51048 C963.682435,1528.31378 962.848762,1530.70392 962.848762,1533.24054 C962.848762,1533.65997 963.183099,1534 963.595498,1534 L971.000043,1534 L978.404588,1534 C978.816988,1534 979.151324,1533.65997 979.151324,1533.24054 C979.151324,1530.70389 978.317651,1528.31378 976.803874,1526.51048 C976.057914,1525.62194 975.186588,1524.92295 974.213994,1524.43286 L974.213994,1524.43286 Z M967.546046,1520.06001 C967.546046,1518.10744 969.095494,1516.51892 971.000014,1516.51892 C972.904535,1516.51892 974.453983,1518.10747 974.453983,1520.06001 C974.453983,1522.01261 972.904535,1523.60114 971.000014,1523.60114 C969.095494,1523.60114 967.546046,1522.01261 967.546046,1520.06001 L967.546046,1520.06001 Z M971.000014,1532.48111 L964.371529,1532.48111 C964.688633,1528.39116 967.540043,1525.17976 970.999296,1525.17976 L971.000014,1525.17976 L971.000732,1525.17976 C974.459957,1525.17976 977.311396,1528.39116 977.6285,1532.48111 L971.000014,1532.48111 L971.000014,1532.48111 Z M963.343991,1526.86631 C963.344135,1526.86611 964.464583,1526.53499 964.418372,1525.78899 C964.393787,1525.39191 964.197941,1525.04583 963.874633,1524.87192 C963.870354,1524.8692 963.815986,1524.84236 963.796743,1524.83406 C963.106616,1524.4933 962.630974,1523.76644 962.630974,1522.92925 C962.630974,1521.79056 963.514764,1520.86022 964.615395,1520.82137 C964.578575,1520.57294 964.559074,1520.31878 964.559074,1520.06001 C964.559074,1519.80229 964.578145,1519.54901 964.614677,1519.30152 C962.69077,1519.34101 961.137531,1520.95308 961.137531,1522.92925 C961.137531,1524.0165 961.607773,1524.99343 962.35112,1525.65907 C961.714155,1525.99372 961.12992,1526.46801 960.625701,1527.06871 C959.57737,1528.31755 959,1529.97046 959,1531.72297 C959,1532.14239 959.334337,1532.48243 959.746736,1532.48243 L961.380651,1532.48243 C961.414771,1531.96672 961.483614,1531.45917 961.585888,1530.96351 L960.539367,1530.96351 C960.778897,1529.00133 961.825217,1527.44011 963.343991,1526.86631 L963.343991,1526.86631 Z" id="icon-hr"></path>
        </g>
    </g>
</svg>