<?xml version="1.0" encoding="UTF-8" standalone="no"?>
<svg width="48px" height="39px" viewBox="0 0 48 39" version="1.1" xmlns="http://www.w3.org/2000/svg" xmlns:xlink="http://www.w3.org/1999/xlink">
    <!-- Generator: Sketch 3.7.2 (28276) - http://www.bohemiancoding.com/sketch -->
    <title>icon-paper</title>
    <desc>Created with Sketch.</desc>
    <defs></defs>
    <g id="home" stroke="none" stroke-width="1" fill="none" fill-rule="evenodd">
        <g id="yoolens" transform="translate(-150.000000, -2713.000000)" fill="#D2AC20">
            <path d="M194.4,2751.64 L153.6,2751.64 C151.6152,2751.64 150,2750.0248 150,2748.04 L150,2716.84 C150,2714.8552 151.6152,2713.24 153.6,2713.24 L194.4,2713.24 C196.3848,2713.24 198,2714.8552 198,2716.84 L198,2748.04 C198,2750.0248 196.3848,2751.64 194.4,2751.64 L194.4,2751.64 Z M153.6,2715.64 C152.9376,2715.64 152.4,2716.1776 152.4,2716.84 L152.4,2748.04 C152.4,2748.7024 152.9376,2749.24 153.6,2749.24 L194.4,2749.24 C195.0624,2749.24 195.6,2748.7024 195.6,2748.04 L195.6,2716.84 C195.6,2716.1776 195.0624,2715.64 194.4,2715.64 L153.6,2715.64 L153.6,2715.64 Z M172.8,2722.84 L158.4,2722.84 C157.7376,2722.84 157.2,2722.3024 157.2,2721.64 C157.2,2720.9776 157.7376,2720.44 158.4,2720.44 L172.8,2720.44 C173.4624,2720.44 174,2720.9776 174,2721.64 C174,2722.3024 173.4624,2722.84 172.8,2722.84 L172.8,2722.84 Z M172.8,2730.04 L158.4,2730.04 C157.7376,2730.04 157.2,2729.5024 157.2,2728.84 C157.2,2728.1776 157.7376,2727.64 158.4,2727.64 L172.8,2727.64 C173.4624,2727.64 174,2728.1776 174,2728.84 C174,2729.5024 173.4624,2730.04 172.8,2730.04 L172.8,2730.04 Z M172.8,2734.84 L158.4,2734.84 C157.7376,2734.84 157.2,2734.3024 157.2,2733.64 C157.2,2732.9776 157.7376,2732.44 158.4,2732.44 L172.8,2732.44 C173.4624,2732.44 174,2732.9776 174,2733.64 C174,2734.3024 173.4624,2734.84 172.8,2734.84 L172.8,2734.84 Z M172.8,2739.64 L158.4,2739.64 C157.7376,2739.64 157.2,2739.1024 157.2,2738.44 C157.2,2737.7776 157.7376,2737.24 158.4,2737.24 L172.8,2737.24 C173.4624,2737.24 174,2737.7776 174,2738.44 C174,2739.1024 173.4624,2739.64 172.8,2739.64 L172.8,2739.64 Z M170.4,2744.44 L158.4,2744.44 C157.7376,2744.44 157.2,2743.9024 157.2,2743.24 C157.2,2742.5776 157.7376,2742.04 158.4,2742.04 L170.4,2742.04 C171.0624,2742.04 171.6,2742.5776 171.6,2743.24 C171.6,2743.9024 171.0624,2744.44 170.4,2744.44 L170.4,2744.44 Z M193.0632,2724.1456 L191.112,2722.7272 L190.3656,2720.4328 L187.9536,2720.4328 L186.0024,2719.0144 L184.0512,2720.4328 L181.6392,2720.4328 L180.8928,2722.7272 L178.9416,2724.1456 L179.688,2726.44 L178.9416,2728.7344 L180.8928,2730.1528 L181.2096,2731.1272 C181.2048,2731.1656 181.2048,2731.2016 181.2048,2731.24 L181.2048,2743.24 C181.2048,2743.7248 181.4976,2744.164 181.9464,2744.3488 C182.3952,2744.5336 182.9112,2744.4328 183.2544,2744.0896 L186.0048,2741.3392 L188.7552,2744.0896 C188.9856,2744.32 189.2904,2744.4424 189.6048,2744.44 C189.7584,2744.44 189.9144,2744.4112 190.0632,2744.3488 C190.512,2744.164 190.8048,2743.7248 190.8048,2743.24 L190.8048,2731.24 C190.8048,2731.2016 190.8024,2731.1632 190.8,2731.1272 L191.1168,2730.1528 L193.068,2728.7344 L192.3216,2726.44 L193.068,2724.1456 L193.0632,2724.1456 Z M181.7592,2725.0624 L182.9304,2724.2104 L183.3792,2722.8328 L184.8288,2722.8328 L186,2721.9808 L187.1712,2722.8328 L188.6208,2722.8328 L189.0696,2724.2104 L190.2408,2725.0624 L189.792,2726.44 L190.2408,2727.8176 L189.0696,2728.6696 L188.6208,2730.0472 L187.1712,2730.0472 L186,2730.8992 L184.8288,2730.0472 L183.3792,2730.0472 L182.9304,2728.6696 L181.7592,2727.8176 L182.208,2726.44 L181.7592,2725.0624 L181.7592,2725.0624 Z M186.8496,2738.7904 C186.3816,2738.3224 185.6208,2738.3224 185.1528,2738.7904 L183.6024,2740.3408 L183.6024,2732.4448 L184.0512,2732.4448 L186.0024,2733.8632 L187.9536,2732.4448 L188.4024,2732.4448 L188.4024,2740.3408 L186.852,2738.7904 L186.8496,2738.7904 Z" id="icon-paper"></path>
        </g>
    </g>
</svg>