<?xml version="1.0" encoding="UTF-8" standalone="no"?>
<svg width="144px" height="133px" viewBox="0 0 144 133" version="1.1" xmlns="http://www.w3.org/2000/svg" xmlns:xlink="http://www.w3.org/1999/xlink">
    <!-- Generator: Sketch 3.7.2 (28276) - http://www.bohemiancoding.com/sketch -->
    <title>icon-ping</title>
    <desc>Created with Sketch.</desc>
    <defs></defs>
    <g id="home" stroke="none" stroke-width="1" fill="none" fill-rule="evenodd">
        <g id="yoolens" transform="translate(-1123.000000, -1752.000000)" fill="#E6E9EE">
            <path d="M1209.3102,1811.34535 L1214.53042,1811.34535 L1214.53042,1816.33734 L1209.3102,1816.33734 L1209.3102,1811.34535 L1209.3102,1811.34535 L1209.3102,1811.34535 L1209.3102,1811.34535 Z M1223.12712,1811.34535 L1228.34751,1811.34535 L1228.34751,1816.33734 L1223.12712,1816.33734 L1223.12712,1811.34535 L1223.12712,1811.34535 L1223.12712,1811.34535 L1223.12712,1811.34535 Z M1209.3102,1799.4888 L1214.83572,1799.4888 L1214.83572,1804.4808 L1209.3102,1804.4808 L1209.3102,1799.4888 L1209.3102,1799.4888 L1209.3102,1799.4888 L1209.3102,1799.4888 Z M1223.12712,1799.4888 L1228.34751,1799.4888 L1228.34751,1804.4808 L1223.12712,1804.4808 L1223.12712,1799.4888 L1223.12712,1799.4888 L1223.12712,1799.4888 L1223.12712,1799.4888 Z M1181.36516,1797.929 L1187.8133,1797.929 L1187.8133,1805.41839 L1181.36516,1805.41839 L1181.36516,1797.929 L1181.36516,1797.929 L1181.36516,1797.929 L1181.36516,1797.929 Z M1181.36516,1838.49227 C1183.61527,1838.07763 1185.76727,1837.76586 1187.8133,1837.55452 L1187.8133,1827.57151 L1181.36516,1827.57151 L1181.36516,1838.49227 L1181.36516,1838.49227 L1181.36516,1838.49227 L1181.36516,1838.49227 Z M1204.68815,1760.51322 C1190.67778,1760.51322 1177.75943,1765.19772 1167.40025,1773.08978 C1166.54485,1761.65838 1157.0293,1752.64955 1145.41833,1752.64955 C1133.24501,1752.64955 1123.37412,1762.55199 1123.37412,1774.76723 C1123.37412,1786.98346 1133.24501,1796.88721 1145.41833,1796.88721 C1146.48354,1796.88721 1147.52994,1796.80976 1148.55541,1796.66389 C1144.96913,1804.51247 1142.96856,1813.24333 1142.96856,1822.44349 C1142.96856,1856.64481 1170.59946,1884.37211 1204.68815,1884.37211 C1238.77716,1884.37211 1266.4097,1856.64596 1266.4097,1822.44349 C1266.4097,1788.23937 1238.77586,1760.51322 1204.68815,1760.51322 L1204.68815,1760.51322 L1204.68815,1760.51322 L1204.68815,1760.51322 Z M1147.46731,1785.74346 C1147.46731,1786.48578 1146.8675,1787.08913 1146.12771,1787.08913 L1143.45129,1787.08913 C1142.7097,1787.08913 1142.10989,1786.48578 1142.10989,1785.74346 L1142.10989,1777.14255 L1133.99853,1777.14255 C1133.25874,1777.14255 1132.65713,1776.54068 1132.65713,1775.79819 L1132.65713,1773.28045 C1132.65713,1772.53714 1133.25874,1771.93363 1133.99853,1771.93363 L1142.10989,1771.93363 L1142.10989,1763.41837 C1142.10989,1762.67473 1142.70953,1762.0727 1143.45129,1762.0727 L1146.12771,1762.0727 C1146.8675,1762.0727 1147.46731,1762.67473 1147.46731,1763.41837 L1147.46731,1771.93363 L1155.57883,1771.93363 C1156.31894,1771.93363 1156.9199,1772.53697 1156.9199,1773.28045 L1156.9199,1775.79819 C1156.9199,1776.54051 1156.31894,1777.14255 1155.57883,1777.14255 L1147.46731,1777.14255 L1147.46731,1785.74346 L1147.46731,1785.74346 L1147.46731,1785.74346 L1147.46731,1785.74346 Z M1202.24475,1842.23574 C1201.633,1842.23574 1200.71039,1842.4461 1199.48264,1842.85943 C1198.04689,1843.06946 1197.02453,1843.27916 1196.41261,1843.48427 L1196.41261,1858.77432 L1187.8133,1858.77432 L1187.8133,1845.04522 C1182.48891,1846.08733 1177.67979,1847.33652 1173.38201,1848.78885 C1172.15393,1849.20924 1171.43442,1849.41254 1171.23149,1849.41254 L1170.92619,1849.41254 C1170.51198,1848.3742 1170.10512,1846.71185 1169.69713,1844.42153 C1169.08276,1842.54931 1168.66937,1841.19789 1168.46807,1840.36482 C1169.69713,1840.1589 1171.23149,1839.95034 1173.07377,1839.73982 L1173.07377,1797.929 L1168.46807,1797.929 L1168.46807,1789.81608 L1201.93961,1789.81608 L1201.93961,1792.00072 L1214.53042,1792.00072 L1214.53042,1786.07245 L1219.13595,1786.07245 C1222.8192,1786.07245 1224.45609,1786.281 1224.04695,1786.69581 C1224.04695,1786.90535 1223.94426,1787.21744 1223.74165,1787.63078 C1223.53512,1788.46548 1223.43504,1789.50316 1223.43504,1790.75137 L1223.43504,1792.00072 L1237.56021,1792.00072 L1237.56021,1823.82673 L1200.71039,1823.82673 L1200.71039,1797.929 L1196.41261,1797.929 L1196.41261,1836.30779 L1202.55267,1835.05959 C1202.34859,1837.76455 1202.24475,1840.1589 1202.24475,1842.23574 L1202.24475,1842.23574 L1202.24475,1842.23574 L1202.24475,1842.23574 Z M1240.93668,1833.4988 L1220.05578,1833.4988 L1218.82656,1836.93083 L1236.94682,1836.93083 C1236.12576,1848.5844 1234.69001,1855.23498 1232.64496,1856.9016 C1230.39239,1858.35426 1225.78376,1858.97746 1218.82656,1858.77416 C1218.61987,1855.23498 1217.80126,1852.53297 1216.36992,1850.66042 L1220.67162,1850.66042 C1223.12565,1850.87028 1224.45609,1850.87028 1224.66279,1850.66042 C1225.89185,1850.24594 1226.60514,1848.06293 1226.81184,1844.10714 L1207.77306,1844.10714 C1208.79411,1840.57502 1209.61534,1837.03978 1210.22987,1833.50028 L1198.86926,1833.50028 L1198.86926,1826.32265 L1240.93668,1826.32265 L1240.93668,1833.4988 L1240.93668,1833.4988 L1240.93668,1833.4988 L1240.93668,1833.4988 Z M1181.36516,1812.59339 L1187.8133,1812.59339 L1187.8133,1820.39536 L1181.36516,1820.39536 L1181.36516,1812.59339 L1181.36516,1812.59339 L1181.36516,1812.59339 L1181.36516,1812.59339 Z" id="icon-ping"></path>
        </g>
    </g>
</svg>