<?xml version="1.0" encoding="UTF-8" standalone="no"?>
<svg width="48px" height="48px" viewBox="0 0 48 48" version="1.1" xmlns="http://www.w3.org/2000/svg" xmlns:xlink="http://www.w3.org/1999/xlink">
    <!-- Generator: Sketch 3.7.2 (28276) - http://www.bohemiancoding.com/sketch -->
    <title>icon-training</title>
    <desc>Created with Sketch.</desc>
    <defs></defs>
    <g id="home" stroke="none" stroke-width="1" fill="none" fill-rule="evenodd">
        <g id="yoolens" transform="translate(-950.000000, -2505.000000)" fill="#00AFD6">
            <path d="M991.737642,2510.84772 C993.64195,2510.84772 995.181126,2512.41504 995.181126,2514.36371 L995.181126,2536.57766 L996.332637,2535.40812 L956.018704,2535.40812 C954.114396,2535.40812 952.57522,2533.8408 952.57522,2531.89213 L952.57522,2509.67817 L951.423709,2510.84772 L991.737642,2510.84772 L991.737642,2510.84772 Z M950.272198,2508.50863 L950.272198,2509.67817 L950.272198,2531.89213 C950.272198,2535.13128 952.841137,2537.74721 956.018704,2537.74721 L996.332637,2537.74721 L997.484148,2537.74721 L997.484148,2536.57766 L997.484148,2514.36371 C997.484148,2511.12455 994.915208,2508.50863 991.737642,2508.50863 L951.423709,2508.50863 L950.272198,2508.50863 L950.272198,2508.50863 Z M958.820034,2550.91307 C958.389576,2551.38853 958.420121,2552.1284 958.888259,2552.5656 C959.356396,2553.0028 960.084853,2552.97177 960.515311,2552.4963 L970.947017,2540.97382 C971.377475,2540.49835 971.34693,2539.75849 970.878792,2539.32129 C970.410654,2538.88409 969.682198,2538.91512 969.25174,2539.39058 L958.820034,2550.91307 L958.820034,2550.91307 Z M987.507224,2552.4963 C987.937683,2552.97177 988.666139,2553.0028 989.134277,2552.5656 C989.602415,2552.1284 989.63296,2551.38853 989.202502,2550.91307 L978.770796,2539.39058 C978.340338,2538.91512 977.611881,2538.88409 977.143743,2539.32129 C976.675605,2539.75849 976.64506,2540.49835 977.075519,2540.97382 L987.507224,2552.4963 L987.507224,2552.4963 Z M970.535982,2509.93096 C970.535982,2510.43727 971.051531,2510.84772 971.687493,2510.84772 C972.323455,2510.84772 972.839004,2510.43727 972.839004,2509.93096 L972.839004,2505.91675 C972.839004,2505.41044 972.323455,2505 971.687493,2505 C971.051531,2505 970.535982,2505.41044 970.535982,2505.91675 L970.535982,2509.93096 L970.535982,2509.93096 Z M974.011268,2519.61257 C974.64723,2519.61257 975.162779,2519.08895 975.162779,2518.44302 C975.162779,2517.7971 974.64723,2517.27348 974.011268,2517.27348 L957.059746,2517.27348 C956.423784,2517.27348 955.908235,2517.7971 955.908235,2518.44302 C955.908235,2519.08895 956.423784,2519.61257 957.059746,2519.61257 L974.011268,2519.61257 L974.011268,2519.61257 Z M974.011268,2527.14066 C974.64723,2527.14066 975.162779,2526.61704 975.162779,2525.97112 C975.162779,2525.3252 974.64723,2524.80158 974.011268,2524.80158 L957.059746,2524.80158 C956.423784,2524.80158 955.908235,2525.3252 955.908235,2525.97112 C955.908235,2526.61704 956.423784,2527.14066 957.059746,2527.14066 L974.011268,2527.14066 L974.011268,2527.14066 Z M981.887513,2531.28764 C984.200164,2529.47113 985.594484,2526.73315 985.594484,2523.0009 L985.594484,2515.31925 C985.594484,2514.67333 985.078935,2514.1497 984.442973,2514.1497 C983.807012,2514.1497 983.291463,2514.67333 983.291463,2515.31925 L983.291463,2523.0009 C983.291463,2525.9901 982.240852,2528.05315 980.478618,2529.43732 C979.859438,2529.92367 979.192319,2530.29047 978.526581,2530.55193 C978.136088,2530.70529 977.844639,2530.78705 977.704573,2530.81455 C977.080174,2530.93716 976.671862,2531.55066 976.792583,2532.18484 C976.913304,2532.81901 977.517343,2533.23372 978.141742,2533.11111 C979.118644,2532.91928 980.501831,2532.37605 981.887513,2531.28764 L981.887513,2531.28764 Z M985.330102,2516.0649 C985.735563,2515.56728 985.667074,2514.83004 985.177126,2514.41823 C984.687179,2514.00641 983.961306,2514.07598 983.555845,2514.5736 L978.339992,2520.97497 C977.934531,2521.47259 978.00302,2522.20983 978.492968,2522.62164 C978.982915,2523.03346 979.708788,2522.96389 980.114249,2522.46627 L985.330102,2516.0649 L985.330102,2516.0649 Z M985.330102,2511.5736 C984.924641,2511.07598 984.198768,2511.00641 983.708821,2511.41823 C983.218873,2511.83004 983.150384,2512.56728 983.555845,2513.0649 L988.771698,2519.46627 C989.177159,2519.96389 989.903032,2520.03346 990.392979,2519.62164 C990.882927,2519.20983 990.951416,2518.47259 990.545955,2517.97497 L985.330102,2511.5736 L985.330102,2511.5736 Z" id="icon-training"></path>
        </g>
    </g>
</svg>