<?xml version="1.0" encoding="UTF-8" standalone="no"?>
<svg width="24px" height="24px" viewBox="0 0 24 24" version="1.1" xmlns="http://www.w3.org/2000/svg" xmlns:xlink="http://www.w3.org/1999/xlink">
    <!-- Generator: Sketch 3.7.2 (28276) - http://www.bohemiancoding.com/sketch -->
    <title>icon-yoo</title>
    <desc>Created with Sketch.</desc>
    <defs></defs>
    <g id="home" stroke="none" stroke-width="1" fill="none" fill-rule="evenodd">
        <g id="yoolens" transform="translate(-146.000000, -1512.000000)" fill="#FFFFFF">
            <path d="M169.589516,1525.0517 C170.178845,1525.0517 170.093135,1522.93998 169.589516,1522.93998 C167.399168,1522.93998 163.878305,1524.06099 163.878305,1524.06099 C163.878305,1524.06099 167.399168,1525.0517 169.589516,1525.0517 Z M168.9735,1527.89345 C169.545323,1528.03602 169.973029,1525.9663 169.48437,1525.84447 C167.359084,1525.31457 163.671609,1525.55051 163.671609,1525.55051 C163.671609,1525.55051 166.848214,1527.36356 168.9735,1527.89345 Z M167.635615,1530.52787 C168.151054,1530.81358 169.099869,1528.92508 168.659394,1528.68092 C166.743673,1527.61902 163.12078,1526.89253 163.12078,1526.89253 C163.12078,1526.89253 165.719893,1529.46597 167.635615,1530.52787 Z M165.725869,1532.71925 C166.156877,1533.12117 167.534378,1531.51831 167.166055,1531.17484 C165.564135,1529.68103 162.224612,1528.09966 162.224612,1528.09966 C162.224612,1528.09966 164.123949,1531.22544 165.725869,1532.71925 Z M163.283907,1534.38066 C163.596204,1534.88044 165.34162,1533.68871 165.074743,1533.26162 C163.914035,1531.4041 161.097592,1529.01228 161.097592,1529.01228 C161.097592,1529.01228 162.123199,1532.52314 163.283907,1534.38066 Z M160.554861,1535.37829 C160.736974,1535.93878 162.718848,1535.20471 162.563221,1534.72574 C161.886366,1532.64259 159.732216,1529.64046 159.732216,1529.64046 C159.732216,1529.64046 159.878006,1533.29515 160.554861,1535.37829 Z M157.66262,1535.67048 C157.70373,1536.25837 159.804322,1536.02556 159.769191,1535.52317 C159.6164,1533.33816 158.252518,1529.90407 158.252518,1529.90407 C158.252518,1529.90407 157.509829,1533.48547 157.66262,1535.67048 Z M154.74445,1535.21186 C154.632001,1535.79036 156.721272,1536.10916 156.817367,1535.6148 C157.235305,1533.46469 156.806703,1529.79462 156.806703,1529.79462 C156.806703,1529.79462 155.162388,1533.06176 154.74445,1535.21186 Z M152.070822,1534.07229 C151.821761,1534.6064 153.771848,1535.42117 153.984686,1534.96474 C154.910367,1532.97961 155.382368,1529.31487 155.382368,1529.31487 C155.382368,1529.31487 152.996504,1532.08716 152.070822,1534.07229 Z M149.736632,1532.26264 C149.357819,1532.71409 151.030579,1534.00582 151.354299,1533.62002 C152.762228,1531.94212 154.166651,1528.52441 154.166651,1528.52441 C154.166651,1528.52441 151.144561,1530.58473 149.736632,1532.26264 Z M147.944842,1529.97473 C147.468065,1530.32112 148.778641,1531.97916 149.186077,1531.68314 C150.958106,1530.39568 153.14763,1527.41926 153.14763,1527.41926 C153.14763,1527.41926 149.716871,1528.68727 147.944842,1529.97473 Z M146.773356,1527.31355 C146.226939,1527.53432 147.097471,1529.46016 147.564418,1529.2715 C149.595273,1528.45098 152.439823,1526.09266 152.439823,1526.09266 C152.439823,1526.09266 148.804211,1526.49303 146.773356,1527.31355 Z M146.307712,1524.39569 C145.722776,1524.46751 146.0652,1526.55304 146.565065,1526.49166 C148.739087,1526.22473 152.097089,1524.68299 152.097089,1524.68299 C152.097089,1524.68299 148.481734,1524.12875 146.307712,1524.39569 Z M146.565065,1521.50001 C145.980129,1521.42819 145.807847,1523.53461 146.307712,1523.59599 C148.481734,1523.86293 152.112969,1523.17936 152.112969,1523.17936 C152.112969,1523.17936 148.739087,1521.76695 146.565065,1521.50001 Z M147.564418,1518.72018 C147.018001,1518.49941 146.306408,1520.48947 146.773356,1520.67813 C148.804211,1521.49865 152.488636,1521.7782 152.488636,1521.7782 C152.488636,1521.7782 149.595273,1519.5407 147.564418,1518.72018 Z M149.186077,1516.30854 C148.7093,1515.96214 147.537406,1517.72093 147.944842,1518.01695 C149.716871,1519.30441 153.224222,1520.467 153.224222,1520.467 C153.224222,1520.467 150.958106,1517.59599 149.186077,1516.30854 Z M151.354299,1514.37166 C150.975486,1513.9202 149.412912,1515.34325 149.736632,1515.72904 C151.144561,1517.40695 154.266471,1519.38351 154.266471,1519.38351 C154.266471,1519.38351 152.762228,1516.04956 151.354299,1514.37166 Z M153.984686,1513.02694 C153.735625,1512.49282 151.857984,1513.46295 152.070822,1513.91939 C152.996504,1515.90452 155.500465,1518.62174 155.500465,1518.62174 C155.500465,1518.62174 154.910367,1515.01207 153.984686,1513.02694 Z M156.817367,1512.37688 C156.704917,1511.79838 154.648355,1512.28545 154.74445,1512.77982 C155.162388,1514.92992 156.934614,1518.1722 156.934614,1518.1722 C156.934614,1518.1722 157.235305,1514.52699 156.817367,1512.37688 Z M159.769191,1512.46851 C159.8103,1511.88061 157.697751,1511.81881 157.66262,1512.3212 C157.509829,1514.50621 158.382506,1518.0967 158.382506,1518.0967 C158.382506,1518.0967 159.6164,1514.65352 159.769191,1512.46851 Z M162.563221,1513.26594 C162.745334,1512.70545 160.710488,1512.13441 160.554861,1512.61338 C159.878006,1514.69653 159.856144,1518.39148 159.856144,1518.39148 C159.856144,1518.39148 161.886366,1515.34909 162.563221,1513.26594 Z M165.074743,1514.73006 C165.38704,1514.23028 163.550785,1513.18393 163.283907,1513.61102 C162.123199,1515.46854 161.208097,1519.04845 161.208097,1519.04845 C161.208097,1519.04845 163.914035,1516.58758 165.074743,1514.73006 Z M167.166055,1516.81683 C167.597063,1516.41491 166.094192,1514.92896 165.725869,1515.27242 C164.123949,1516.76624 162.31348,1519.98732 162.31348,1519.98732 C162.31348,1519.98732 165.564135,1518.31065 167.166055,1516.81683 Z M168.659394,1519.31075 C169.174833,1519.02504 168.07609,1517.21965 167.635615,1517.46381 C165.719893,1518.52571 163.183954,1521.21311 163.183954,1521.21311 C163.183954,1521.21311 166.743673,1520.37266 168.659394,1519.31075 Z M169.48437,1522.14721 C170.056193,1522.00464 169.462159,1519.97639 168.9735,1520.09822 C166.848214,1520.62812 163.703133,1522.5676 163.703133,1522.5676 C163.703133,1522.5676 167.359084,1522.67711 169.48437,1522.14721 Z" id="icon-yoo"></path>
        </g>
    </g>
</svg>