<?xml version="1.0" standalone="no"?>
<!DOCTYPE svg PUBLIC "-//W3C//DTD SVG 1.1//EN" "http://www.w3.org/Graphics/SVG/1.1/DTD/svg11.dtd" >
<svg xmlns="http://www.w3.org/2000/svg">
<metadata>Generated by IcoMoon</metadata>
<defs>
<font id="icomoon" horiz-adv-x="1024">
<font-face units-per-em="1024" ascent="960" descent="-64" />
<missing-glyph horiz-adv-x="1024" />
<glyph unicode="&#x20;" horiz-adv-x="512" d="" />
<glyph unicode="&#xe900;" glyph-name="positioning" d="M230.75-62.162c0.225-0.151 0.524-0.076 0.749-0.227 1.823-0.932 3.721-1.611 5.769-1.611 1.099 0 2.198 0.151 3.297 0.453l271.435 74.682 271.435-74.682c1.099-0.302 2.198-0.453 3.297-0.453 2.048 0 3.946 0.68 5.744 1.637 0.25 0.126 0.524 0.076 0.749 0.227l224.78 138.486c4.77 2.946 7.018 8.762 5.495 14.176l-124.478 440.638c-1.024 3.701-3.696 6.723-7.243 8.208-3.547 1.435-7.518 1.209-10.889-0.655l-123.929-70.099c-5.994-3.399-8.142-11.079-4.77-17.147s10.964-8.234 17.033-4.809l110.117 62.319 117.56-416.114-200.18-123.354-47.554 383.506c-0.849 6.924-7.318 11.734-13.961 10.928-6.818-0.856-11.689-7.151-10.839-14.050l47.628-384.211-247.508 68.11v68.74c0 6.949-5.595 12.59-12.488 12.59s-12.488-5.64-12.488-12.59v-68.74l-247.533-68.11 47.628 384.211c0.849 6.899-3.996 13.194-10.839 14.050-6.793 0.806-13.087-4.004-13.961-10.928l-47.529-383.506-200.18 123.328 117.56 416.089 110.117-62.319c6.044-3.374 13.637-1.234 17.033 4.809 3.372 6.068 1.224 13.723-4.77 17.147l-123.954 70.124c-3.322 1.888-7.293 2.14-10.864 0.655s-6.219-4.482-7.243-8.208l-124.478-440.638c-1.548-5.439 0.699-11.23 5.495-14.176l224.756-138.486zM535.273 261.818c0 0-209.455 377.71-209.455 491.73s93.776 206.452 209.455 206.452c115.679 0 209.455-92.432 209.455-206.452s-209.455-491.73-209.455-491.73zM535.1 660.009c58.681 0 106.251 46.888 106.251 104.727s-47.57 104.727-106.251 104.727c-58.681 0-106.251-46.888-106.251-104.727s47.57-104.727 106.251-104.727z" />
<glyph unicode="&#xe901;" glyph-name="home" horiz-adv-x="1170" d="M436.959 315.602h296.368v-316.335h174.906v474.503h102.334l-425.424 399.508-425.424-399.508h102.334v-474.503h174.906v316.335zM500.119-64h-301.227v474.503h-198.893l585.143 549.497 585.143-549.497h-198.893v-474.503h-301.227v316.335h-170.047v-316.335z" />
<glyph unicode="&#xe902;" glyph-name="success" d="M808.105 634.343c-11.759 11.759-29.398 11.759-41.157 0l-311.621-311.621-172.469 172.469c-11.759 11.759-29.398 11.759-41.157 0s-11.759-29.398 0-41.157l192.068-192.068c5.88-5.88 13.719-9.799 21.559-7.84 7.84 0 15.679 1.96 19.599 7.84l331.219 331.219c13.719 11.759 13.719 29.398 1.96 41.157v0zM1023.692 448.154c0 282.222-229.306 511.528-511.528 511.528s-511.528-229.306-511.528-511.528c0-282.222 229.306-511.528 511.528-511.528 150.911 0 288.102 66.636 382.176 170.509 5.88 5.88 9.799 13.719 9.799 21.559 0 17.639-13.719 29.398-29.398 29.398-9.799 0-17.639-3.92-21.559-9.799-82.315-94.074-203.827-152.87-337.099-152.87-248.905 0-450.772 201.867-450.772 450.772s201.867 450.772 450.772 450.772c248.905 0 450.772-201.867 450.772-450.772 0-15.679 13.719-29.398 29.398-29.398 27.438 0 27.438 29.398 27.438 31.358z" />
<glyph unicode="&#xe903;" glyph-name="mark" d="M0 960h1024v-1024h-1024l256 512z" />
<glyph unicode="&#xe904;" glyph-name="ask" d="M512 960c-282.335 0-512-229.665-512-512 0-104.938 31.61-205.869 91.425-291.885 10.507-15.16 31.388-18.899 46.481-8.348 15.137 10.507 18.877 31.321 8.348 46.481-52.001 74.774-79.471 162.504-79.471 253.752 0 245.493 199.725 445.217 445.217 445.217s445.217-199.725 445.217-445.217c0-245.493-199.725-445.217-445.217-445.217-91.203 0-178.955 27.47-253.752 79.471-15.182 10.552-35.996 6.812-46.481-8.348-10.529-15.137-6.79-35.951 8.348-46.481 86.061-59.815 186.991-91.425 291.885-91.425 282.335 0 512 229.665 512 512s-229.665 512-512 512zM710.718 557.804c0 109.59-89.155 198.745-198.745 198.745s-198.723-89.155-198.723-198.745c0-24.576 19.923-44.522 44.522-44.522 24.576 0 44.522 19.946 44.522 44.522 0 60.483 49.197 109.702 109.679 109.702s109.702-49.219 109.702-109.702c0-60.505-49.219-109.724-109.702-109.724-24.576 0-44.522-19.923-44.522-44.522v-61.663c0-24.598 19.946-44.522 44.522-44.522 24.598 0 44.522 19.923 44.522 44.522v22.35c88.198 20.302 154.223 99.306 154.223 193.558zM511.984 251.884c-30.742 0-55.652-24.91-55.652-55.652s24.91-55.652 55.652-55.652c30.742 0 55.652 24.91 55.652 55.652s-24.91 55.652-55.652 55.652z" />
<glyph unicode="&#xe905;" glyph-name="code" d="M909.445 960h-800.854c-57.689 0-108.59-48.852-108.59-111.662v-551.331c0-59.32 47.508-111.662 108.59-111.662h444.542l234.148-240.771c6.787-6.979 13.574-6.979 20.361-6.979s13.574 3.489 20.361 6.979c10.18 10.468 10.18 27.916 0 38.384l-240.935 247.75c-3.393 3.489-10.18 6.979-20.361 6.979h-458.116c-30.541 0-54.295 24.426-54.295 55.831v554.821c0 31.405 23.754 55.831 54.295 55.831h804.248c30.541 0 54.295-24.426 54.295-55.831v-551.331c0-31.405-23.754-55.831-54.295-55.831h-108.59c-13.574 0-27.148-13.958-27.148-27.916s13.574-27.916 27.148-27.916h108.59c57.689 0 108.59 48.852 108.59 111.662v551.331c-3.393 59.32-50.902 111.662-111.984 111.662zM213.787 572.672c0-31.405 23.754-55.831 54.295-55.831s54.295 24.426 54.295 55.831c0 31.405-23.754 55.831-54.295 55.831s-54.295-24.426-54.295-55.831zM454.722 572.672c0-31.405 23.754-55.831 54.295-55.831s54.295 24.426 54.295 55.831c0 31.405-23.754 55.831-54.295 55.831s-54.295-24.426-54.295-55.831zM804.248 572.672c0 31.405-23.754 55.831-54.295 55.831s-54.295-24.426-54.295-55.831c0-31.405 23.754-55.831 54.295-55.831s54.295 24.426 54.295 55.831z" />
<glyph unicode="&#xe906;" glyph-name="area" d="M995.701 909.999l-209.416 48.584c-7.541 1.75-15.44 0.933-22.488-2.281l-245.388-113.038-225.769 94.771c-8.408 3.478-17.789 3.621-26.254 0.304l-242.961-95.296c-13.483-5.291-22.333-18.375-22.333-32.919v-671.111c0-11.656 5.695-22.603 15.273-29.155 9.543-6.592 21.747-7.972 32.516-3.745l229.81 90.13 226.835-95.256c4.326-1.787 8.931-2.724 13.521-2.724 4.99 0 9.963 1.096 14.616 3.215l18.182 8.379-31.116 63.354-2.322-1.076-225.767 94.791c-4.326 1.81-8.91 2.724-13.519 2.724-4.305 0-8.63-0.813-12.735-2.399l-195.126-76.541v595.259l207.434 81.383 226.834-95.233c9.056-3.806 19.222-3.624 28.137 0.468l248.482 114.462 170.591-39.59v-598.6l-33.062 7.65-16.694-33.978c-2.628-5.939-5.5-11.798-8.651-17.538l-0.525-1.119-6.126-12.428 92.261-21.403c10.412-2.424 21.343 0.078 29.732 6.792 8.364 6.675 13.234 16.849 13.234 27.633v671.087c-0.005 16.457-11.283 30.7-27.206 34.445zM265.069 776.367v-425.867c0-7.81 6.306-14.137 14.051-14.137 7.738 0 14.045 6.328 14.045 14.137v425.867c0 7.817-6.308 14.142-14.045 14.142-7.745 0.001-14.051-6.326-14.051-14.142zM505.002 693.93v-214.318c0-7.813 6.307-14.14 14.045-14.14 7.747 0 14.051 6.329 14.051 14.14v214.318c0 7.812-6.303 14.159-14.051 14.159-7.738 0-14.045-6.347-14.045-14.159zM797.098 547.792v258.813c0 7.811-6.284 14.157-14.046 14.157-7.759 0-14.020-6.346-14.020-14.157v-258.813c0-7.792 6.262-14.143 14.020-14.143 7.763-0.001 14.046 6.349 14.046 14.143zM699.747 479.611c-91.671 0-166.023-74.831-166.023-167.096 0-30.458 8.262-58.983 22.368-83.558h-0.137l15.847-32.225 127.87-260.217 143.811 292.441h-0.163c7.377 12.819 13.051 26.735 16.892 41.343 3.519 13.508 5.545 27.63 5.545 42.216-0.001 92.266-74.374 167.096-166.010 167.096zM699.728 262.895c-38.502 0-69.743 31.454-69.743 70.193 0 38.775 31.245 70.232 69.743 70.232 38.541 0 69.745-31.456 69.745-70.232 0-38.741-31.205-70.193-69.745-70.193z" />
<glyph unicode="&#xe907;" glyph-name="card" horiz-adv-x="1489" d="M1368.688-63.692h-1247.921c-68.434 0-120.767 51.169-120.767 118.083v787.219c0 66.914 52.332 118.083 120.767 118.083h1247.921c68.434 0 120.767-51.169 120.767-118.083v-791.155c0-62.978-52.332-114.147-120.767-114.147zM120.767 880.971c-24.153 0-40.256-15.744-40.256-39.361v-791.155c0-23.617 16.102-39.361 40.256-39.361h1247.921c24.153 0 40.256 15.744 40.256 39.361v791.155c0 23.617-16.102 39.361-40.256 39.361h-1247.921zM563.577 507.041h-281.789c-24.153 0-40.256 15.744-40.256 39.361s16.102 39.361 40.256 39.361h281.789c24.153 0 40.256-15.744 40.256-39.361s-16.102-39.361-40.256-39.361zM1207.666 152.793h-925.877c-24.153 0-40.256 15.744-40.256 39.361s16.102 39.361 40.256 39.361h925.877c24.153 0 40.256-15.744 40.256-39.361s-16.102-39.361-40.256-39.361zM966.133 396.831c-96.613 0-177.124 78.722-177.124 173.188s80.511 173.188 177.124 173.188c96.613 0 177.124-78.722 177.124-173.188s-80.511-173.188-177.124-173.188zM966.133 668.421c-52.332 0-96.613-43.297-96.613-94.466s44.281-94.466 96.613-94.466c52.332 0 96.613 43.297 96.613 94.466s-44.281 94.466-96.613 94.466zM1211.691 156.729c-24.153 0-40.256 15.744-40.256 39.361 0 110.211-92.588 200.741-205.303 200.741-56.358 0-112.715-23.617-148.945-62.978-16.102-15.744-40.256-15.744-56.358 0s-16.102 39.361 0 55.105c52.332 55.105 128.818 90.53 209.329 90.53 156.997 0 285.814-125.955 285.814-279.463-4.026-27.553-24.153-43.297-44.281-43.297z" />
<glyph unicode="&#xe908;" glyph-name="person" d="M511.961 348.938c167.464 0 303.706 137.054 303.706 305.516 0 168.479-136.242 305.546-303.706 305.546s-303.706-137.068-303.706-305.546c0-168.462 136.243-305.516 303.706-305.516zM511.961 899.513c134.311 0 243.581-109.933 243.581-245.059 0-135.109-109.27-245.030-243.581-245.030s-243.581 109.92-243.581 245.030c0.001 135.127 109.271 245.059 243.581 245.059v0zM720.22 340.609h-416.518c-167.462 0-303.702-137.068-303.702-305.546v-99.063h1023.927v99.063c0 168.478-136.242 305.546-303.707 305.546zM60.124-3.512v38.575c0 135.127 109.269 245.059 243.578 245.059h416.518c134.311 0 243.581-109.933 243.581-245.059v-38.575h-903.677z" />
<glyph unicode="&#xe909;" glyph-name="position" horiz-adv-x="768" d="M382.926-63.094c-63.665-0.327-382.926 479.025-382.926 639.432 0 211.887 171.441 383.662 382.926 383.662 211.483 0 382.927-171.775 382.927-383.662 0-158.256-320.261-639.759-382.927-639.432zM382.926 896.056c-176.236 0-319.104-143.143-319.104-319.717 0-133.673 266.050-543.79 319.104-543.518 52.224-0.272 319.103 411.631 319.103 543.518 0 176.575-142.868 319.717-319.103 319.717zM382.926 416.48c-88.119 0-159.553 71.572-159.553 159.858 0 88.288 71.434 159.858 159.553 159.858s159.552-71.57 159.552-159.858c0-88.286-71.434-159.858-159.552-159.858zM382.926 672.252c-52.87 0-95.732-42.939-95.732-95.915 0-52.972 42.862-95.911 95.732-95.911s95.731 42.939 95.731 95.911c0 52.977-42.861 95.915-95.731 95.915z" />
<glyph unicode="&#xe90a;" glyph-name="mobile" horiz-adv-x="576" d="M532.961 959.891h-489.938c-23.212 0-42.039-21.395-42.039-47.769v-927.423c0-26.376 18.827-47.769 42.039-47.769h489.938c23.211 0 42.005 21.394 42.005 47.769v927.423c0.001 26.374-18.794 47.769-42.005 47.769zM270.401 915.27h30.003c6.397 0 11.574-5.845 11.574-13.054s-5.177-13.053-11.574-13.053h-30.003c-6.397 0-11.572 5.844-11.572 13.053s5.175 13.054 11.572 13.054zM287.976-39.977c-26.379 0-47.743 21.577-47.743 48.218 0 26.638 21.364 48.217 47.743 48.217s47.743-21.578 47.743-48.217c-0.001-26.641-21.364-48.218-47.743-48.218zM519.245 108.707c0-15.652-11.243-28.356-25.092-28.356h-409.583c-13.881 0-25.126 12.703-25.126 28.356v734.785c0 15.651 11.244 28.354 25.126 28.354h409.583c13.849 0 25.092-12.703 25.092-28.354v-734.785z" />
<glyph unicode="&#xe90b;" glyph-name="customer" d="M771.266-63.002c-139.277 0-252.58 113.427-252.58 252.856s113.304 252.856 252.58 252.856c139.277 0 252.609-113.427 252.609-252.856s-113.332-252.856-252.609-252.856v0zM771.266 400.241c-115.904 0-210.187-94.386-210.187-210.416s94.283-210.416 210.187-210.416c115.904 0 210.215 94.386 210.215 210.416s-94.311 210.416-210.215 210.416v0zM427.766 414.048c-150.101 0-272.194 122.226-272.194 272.491 0 150.236 122.093 272.463 272.194 272.463s272.194-122.226 272.194-272.463c0-150.265-122.093-272.491-272.194-272.491v0zM427.766 916.534c-126.7 0-229.801-103.185-229.801-230.023s103.073-230.051 229.801-230.051c126.728 0 229.801 103.185 229.801 230.051 0 126.838-103.073 230.023-229.801 230.023v0zM551.611-20.534h-413.817c-60.142 3.367-91.881 39.95-94.311 108.702-0.48 13.354 7.885 41.393 11.446 48.664 70.797 144.578 214.652 234.408 375.409 234.408 30.749 0 60.877-3.225 89.987-9.252 8.903 12.958 18.907 25.068 29.647 36.47-38.38 9.761-78.484 15.222-119.663 15.222-177.063 0-335.502-98.913-413.506-258.175-5.737-11.77-16.505-46.712-15.77-68.837 3.222-90.481 52.201-145.002 135.518-149.642h464.915c-18.116 12.279-34.763 26.624-49.855 42.44v0zM778.587 69.241c-7.104 0-14.18 2.727-19.599 8.152l-110.881 111.452c-10.81 10.878-10.81 28.531 0 39.409 10.838 10.878 28.387 10.878 39.197 0l91.283-91.747 174.422 175.315c10.81 10.906 28.359 10.906 39.197 0 10.81-10.878 10.81-28.502 0-39.381l-194.021-195.048c-5.419-5.425-12.523-8.152-19.599-8.152v0z" />
<glyph unicode="&#xe90c;" glyph-name="job" d="M313.512 7.073h-119.522c-69.157 0-125.418 57.547-125.418 128.283v626.225c0 70.734 56.262 128.282 125.418 128.282h634.558c69.155 0 125.417-57.546 125.417-128.282v-34.65c0-19.368 15.351-35.068 34.286-35.068s34.286 15.7 34.286 35.068v34.65c0 109.408-87.024 198.419-193.989 198.419h-634.558c-106.966 0-193.99-89.010-193.99-198.419v-626.226c0-109.408 87.024-198.419 193.99-198.419h119.523c18.935 0 34.286 15.701 34.286 35.068s-15.351 35.068-34.287 35.068v0zM162.864 704h-0.578c-18.935 0-34.286-15.701-34.286-35.068s15.351-35.068 34.286-35.068h0.578c18.935 0 34.286 15.701 34.286 35.068s-15.351 35.068-34.286 35.068zM277.877 704c-18.935 0-34.286-15.701-34.286-35.068s15.351-35.068 34.286-35.068h193.21c18.935 0 34.286 15.701 34.286 35.068s-15.351 35.068-34.286 35.068h-193.21zM162.864 520.896h-0.578c-18.935 0-34.286-15.701-34.286-35.068s15.351-35.068 34.286-35.068h0.578c18.935 0 34.286 15.701 34.286 35.068s-15.351 35.068-34.286 35.068zM367.886 520.896h-90.009c-18.935 0-34.286-15.701-34.286-35.068s15.351-35.068 34.286-35.068h90.009c18.935 0 34.286 15.701 34.286 35.068s-15.351 35.068-34.286 35.068zM924.119 296.48c-24.002 24.55-51.557 44.14-81.467 58.305 42.803 35.524 70.213 89.736 70.213 150.378 0 106.753-84.911 193.603-189.281 193.603s-189.281-86.849-189.281-193.603c0-60.643 27.409-114.853 70.213-150.378-29.911-14.165-57.465-33.756-81.467-58.305-53.566-54.789-83.065-127.634-83.065-205.116 0-19.367 15.351-35.068 34.286-35.068s34.286 15.701 34.286 35.068c0 121.275 96.462 219.939 215.030 219.939s215.030-98.664 215.030-219.939c0-19.367 15.351-35.068 34.286-35.068s34.286 15.701 34.286 35.068c0 77.481-29.499 150.327-83.065 205.116zM723.583 628.628c66.559 0 120.71-55.386 120.71-123.466s-54.151-123.466-120.71-123.466c-66.559 0-120.71 55.386-120.71 123.466 0 68.078 54.15 123.466 120.71 123.466v0z" />
<glyph unicode="&#xe90d;" glyph-name="refund" horiz-adv-x="1489" d="M1433.621 167.598h-653.681c6.163 31.26 9.518 63.62 9.518 96.731 0 5.695-0.648 11.24-0.851 16.879h645.016c29.912 0 54.213-25.417 54.213-56.781-0.002-31.411-24.303-56.829-54.215-56.829zM1433.621 391.779h-661.246c-10.671 40.153-25.904 78.258-45.645 113.665h706.891c29.912 0 54.213-25.469 54.213-56.832 0-31.365-24.302-56.832-54.213-56.832zM1433.621 616.010h-791.013c-51.456 50.74-114.032 89.838-183.672 113.614h974.685c29.912 0 54.213-25.422 54.213-56.781 0-31.414-24.302-56.832-54.213-56.832zM1433.621 846.334h-975.99c-29.961 0-54.259 25.468-54.259 56.832 0 31.363 24.298 56.834 54.259 56.834h975.99c29.912 0 54.213-25.469 54.213-56.834 0-31.367-24.302-56.832-54.213-56.832zM668.013 293.897c0-186.875-149.556-338.344-333.982-338.344-184.477 0-334.031 151.469-334.031 338.344 0 186.827 149.554 338.294 334.031 338.294 184.424 0 333.982-151.467 333.982-338.294zM334.029 547.645c-138.385 0-250.51-113.615-250.51-253.748 0-140.183 112.125-253.794 250.51-253.794 138.332 0 250.511 113.61 250.511 253.794 0 140.132-112.179 253.748-250.511 253.748zM379.273 301.735h85.575v-33.106h-106.568v-49.39h106.568v-33.16h-106.568v-107.523h-48.6v107.523h-105.965v33.16h105.965v49.39h-105.965v33.106h85.025l-106.569 176.687h55.214l96.647-171.441 96.599 171.441h55.212l-106.569-176.687zM1433.621 50.888c29.912 0 54.213-25.469 54.213-56.832 0-31.365-24.302-56.832-54.213-56.832h-768.114c30.058 34.012 55.362 72.165 75.203 113.663l692.911 0.002z" />
<glyph unicode="&#xe90e;" glyph-name="rate" d="M269.794 559.95c0 61.832 43.333 111.95 96.844 111.95s96.78-50.054 96.78-111.95c0-61.896-43.333-111.886-96.78-111.886s-96.844 50.054-96.844 111.886zM415.028 559.95c0 34.372-21.635 62.216-48.39 62.216-26.691 0-48.39-27.843-48.39-62.216 0-34.308 21.699-62.152 48.39-62.152 26.755 0 48.39 27.844 48.39 62.152zM753.886 361.013c0-61.832-43.333-111.95-96.78-111.95-53.511 0-96.908 50.118-96.908 111.95s43.461 111.886 96.972 111.886c53.447 0 96.716-50.118 96.716-111.886zM608.716 361.013c0-34.372 21.699-62.216 48.454-62.216s48.39 27.843 48.39 62.216c0 34.308-21.635 62.216-48.39 62.216s-48.454-27.908-48.454-62.216zM369.838 245.031l242.078 430.902 41.925-24.899-242.078-430.838-41.925 24.835zM512-64c-122.831 0-235.165 43.717-323.304 115.918-15.106 15.042-27.459 32.068-12.738 48.070 24.003 26.179 51.654-6.849 51.654-6.849 77.962-62.6 176.726-100.173 284.452-100.173 251.423 0 455.097 203.801 455.097 455.097 0 251.359-203.737 455.097-455.097 455.097s-455.097-203.737-455.097-455.097c0-83.018 22.595-160.596 61.384-227.548 0 0 5.761-21.699-14.338-29.828-28.996-11.713-50.054 29.828-50.054 29.828-34.244 68.553-53.959 145.618-53.959 227.484 0 282.787 229.277 512 512 512 282.787 0 512-229.213 512-512s-229.213-512-512-512z" />
<glyph unicode="&#xe90f;" glyph-name="date" horiz-adv-x="904" d="M103.505-5.116c-57.067 0-103.505 48.299-103.505 107.671v644.189c0 59.383 47.239 107.688 105.313 107.688h73.736v-56.171h-77.34c-25.364 0-46.782-21.898-46.782-47.821v-149.903h793.022v149.904c0 25.922-21.417 47.821-46.782 47.821h-76.813v56.17h73.862c58.074 0 105.313-48.305 105.313-107.688v-644.189c0-59.371-47.239-107.671-105.313-107.671h-694.711zM54.928 99.29c0-25.922 21.417-47.821 46.782-47.821h699.459c25.364 0 46.782 21.898 46.782 47.821v444.949h-793.022v-444.949zM450.895 121.382c-32.492 0-58.932 27.025-58.932 60.247 0 33.233 26.44 60.264 58.932 60.264s58.92-27.032 58.92-60.264c0-33.222-26.428-60.247-58.92-60.247zM221.861 121.382c-32.492 0-58.92 27.025-58.92 60.247 0 33.233 26.428 60.264 58.92 60.264s58.932-27.032 58.932-60.264c0-33.222-26.44-60.247-58.932-60.247zM678.488 354.125c-32.492 0-58.92 27.038-58.92 60.27 0 33.222 26.428 60.247 58.92 60.247s58.92-27.025 58.92-60.247c0-33.233-26.428-60.27-58.92-60.27zM450.895 354.125c-32.492 0-58.932 27.038-58.932 60.27 0 33.222 26.44 60.247 58.932 60.247s58.92-27.025 58.92-60.247c0-33.233-26.428-60.27-58.92-60.27zM222.982 354.125c-32.492 0-58.932 27.038-58.932 60.27 0 33.222 26.44 60.247 58.932 60.247s58.92-27.025 58.92-60.247c0-33.233-26.428-60.27-58.92-60.27zM637.14 692.482c-20.788 0-37.698 17.279-37.698 38.518v190.465c0 21.25 16.91 38.535 37.698 38.535 21.131 0 38.99-17.648 38.99-38.535v-190.464c0-20.884-17.859-38.519-38.99-38.519zM264.558 692.482c-20.788 0-37.698 17.279-37.698 38.518v190.465c0 21.25 16.91 38.535 37.698 38.535 21.131 0 38.99-17.648 38.99-38.535v-190.464c0-20.884-17.859-38.519-38.99-38.519zM350.913 797.911v56.521h201.027v-56.521h-201.027z" />
<glyph unicode="&#xe910;" glyph-name="money" d="M874.339 810.187c-96.697 96.577-225.271 149.813-362.318 149.813-137.049 0-265.621-53.236-362.203-149.813-96.577-96.577-149.818-225.261-149.818-362.191 0-137.035 53.241-265.608 149.818-362.183 96.581-96.567 225.27-149.812 362.203-149.812 136.924 0 265.621 53.245 362.196 149.812 199.723 199.713 199.723 524.663 0.122 724.375v0zM827.182 132.839c-84.045-84.035-195.904-130.353-315.161-130.353-119.263 0-231.126 46.319-315.163 130.353-173.816 173.814-173.816 456.626 0 630.304 84.037 84.051 195.9 130.37 315.163 130.37 119.14 0 231.115-46.319 315.161-130.37 84.045-84.035 130.364-195.888 130.364-315.148-0.001-119.251-46.32-231.105-130.364-315.156v0zM697.893 454.084l0.477 0.122c10.742 3.461 17.909 13.373 17.909 24.588 0 14.211-11.462 25.662-25.668 25.662h-155.076v47.514l159.372 157.815 0.239 0.481c1.073 2.148 2.151 6.090 2.39 10.149 0.478 6.806-1.796 13.494-6.448 18.858-4.301 4.785-11.459 7.642-19.342 7.642-6.8 0-13.132-2.148-17.31-5.967l-144.090-142.057-152.564 149.694c-3.464 2.986-9.193 4.777-15.761 4.777-8.354 0-15.997-2.865-19.936-7.396-7.517-8.481-8.596-21.137-2.628-30.677l2.513-4.064 161.872-158.056v-48.825l-162.952-1.313c-10.743-3.461-17.907-13.363-17.907-24.484 0-11.206 7.164-20.998 17.907-24.463l4.181-1.311h158.532v-79.745l-162.828-1.309c-10.742-3.347-17.907-13.259-17.907-24.475 0-11.225 7.165-21.13 17.907-24.595l4.058-1.311h158.656l0.115-158.529 1.317-2.628c3.462-10.5 13.251-17.671 24.353-17.671 11.225 0 21.010 7.169 24.472 17.912l1.31 4.177v156.738l162.838 1.311c10.741 3.465 17.908 13.371 17.908 24.595 0 14.209-11.461 25.658-25.668 25.658h-154.6v79.868l162.358 1.315z" />
<glyph unicode="&#xe911;" glyph-name="funds" d="M517.545 393.022c-7.646 0-15.36 3.277-20.753 9.557l-141.176 164.105c-9.899 11.468-8.602 28.739 2.867 38.569 11.401 9.898 28.672 8.601 38.571-2.867l141.176-164.105c9.899-11.468 8.602-28.807-2.867-38.637-5.12-4.437-11.469-6.622-17.818-6.622zM504.301 393.022c-6.485 0-12.902 2.253-18.159 6.963-11.332 10.035-12.356 27.305-2.321 38.637l145.75 164.105c10.035 11.4 27.375 12.356 38.571 2.321 11.332-10.035 12.425-27.305 2.321-38.637l-145.682-164.173c-5.461-6.075-12.971-9.216-20.48-9.216zM647.73 393.022h-273.682c-15.087 0-27.375 12.287-27.375 27.374s12.288 27.374 27.375 27.374h273.682c15.087 0 27.307-12.287 27.307-27.374 0.068-15.086-12.22-27.374-27.307-27.374zM647.73 283.596h-273.682c-15.087 0-27.375 12.287-27.375 27.305s12.288 27.305 27.375 27.305h273.682c15.087 0 27.307-12.287 27.307-27.305s-12.22-27.305-27.307-27.305zM510.854 119.492c-15.155 0-27.375 12.287-27.375 27.305v273.599c0 15.086 12.288 27.374 27.375 27.374s27.375-12.287 27.375-27.374v-273.599c0.068-15.018-12.22-27.305-27.375-27.305zM853.35-64h-682.669c-18.842 0-34.133 15.291-34.133 34.132v511.974h-102.4c-14.268 0-27.034 8.874-32.017 22.322-4.983 13.38-1.024 28.466 9.83 37.75l477.868 409.58c12.766 10.99 31.676 10.99 44.373 0l477.868-409.58c10.854-9.284 14.746-24.302 9.83-37.75s-17.749-22.322-32.017-22.322h-102.4v-511.974c0-18.841-15.292-34.132-34.133-34.132zM204.814 4.263h614.402v511.974c0 18.841 15.292 34.132 34.133 34.132h44.237l-385.572 330.531-385.572-330.531h44.237c18.842 0 34.133-15.291 34.133-34.132v-511.974z" />
<glyph unicode="&#xe912;" glyph-name="firm" horiz-adv-x="832" d="M767.295 125.5l63.783-128.861-68.173-6.211-44.435-54.043-62.601 126.363c-13.48-2.701-27.169-4.063-40.889-4.069-13.979 0-27.621 1.428-40.89 4.069l-62.569-126.363-44.502 54.043-68.105 6.211 63.75 128.861c-37.513 39.979-60.676 94.594-60.676 154.705 0 122.080 95.556 221.438 212.993 221.438s212.992-99.359 212.992-221.438c-0.002-60.111-23.132-114.726-60.678-154.705v0zM725.122 351.667c-9.049 9.352-23.737 9.352-32.819 0l-110.885-114.44-57.502 59.255c-9.083 9.352-23.805 9.352-32.854 0-9.049-9.281-9.049-24.559 0-33.839l73.98-76.246c9.049-9.352 23.737-9.352 32.819 0l127.262 131.36c9.083 9.352 9.083 24.629-0.001 33.91zM643.714 600.662c-8.711 0-17.322-0.357-25.831-1.143v293.81l-370.845-125.897v38.408l408.325 153.776 122.704-107.765v-282.672c-4.025 1.978-8.077 3.894-12.154 5.747-38.799 17.026-79.756 25.736-122.199 25.736v0zM524.354 719.314v-143.282c-0.945-0.356-1.857-0.714-2.769-1.106-37.512-16.313-70.974-39.944-99.777-69.892-23.129-24.024-42.443-51.259-57.131-81.19v285.082l-309.358-102.768v-595.813h-54.396l0.135 626.082 413.491 150.136 109.805-67.25zM308.593 516.562l-194.455-53.9v90.882l194.455 66.25v-103.232zM308.593 350.24l-194.455-39.266v87.169l194.455 51.456v-99.359zM308.593 181.113l-194.455-18.918v85.241l194.455 32.911v-99.234zM308.593 12.487h-194.455v90.097l194.455 14.207v-104.303z" />
<glyph unicode="&#xe913;" glyph-name="loan" horiz-adv-x="1212" d="M1068.884 683.986c0 152.943-121.292 275.297-272.907 275.297s-280.487-114.707-280.487-267.65c0-160.59 128.873-282.944 280.487-282.944s272.907 122.354 272.907 275.297zM682.266 691.633c0 15.294 15.161 22.941 30.323 22.941h45.484l-45.484 45.883c-15.161 15.294-15.161 30.589 0 38.236s22.742 7.647 37.904 0l45.484-45.883 45.484 45.883c15.161 15.294 30.323 15.294 37.904 0s7.581-22.941 0-38.236l-45.484-45.883h30.323c15.161 0 30.323-7.647 30.323-22.941s-15.161-22.941-30.323-22.941h-45.484v-22.941h53.065c15.161 0 30.323-7.647 30.323-22.941s-15.161-22.941-30.323-22.941h-45.484v-30.589c0-15.294-7.581-30.589-22.742-30.589s-22.742 15.294-22.742 30.589v22.941h-68.227c-15.161 0-30.323 7.647-30.323 22.941s15.161 22.941 30.323 22.941h60.646v30.589h-60.646c-15.161 0-30.323 7.647-30.323 22.941zM1152.272 393.395c15.161 0 37.904-15.294 53.065-45.883 15.161-38.236 0-76.471-45.484-99.413l-7.581-7.647-386.618-275.297c-30.323-22.941-83.388-38.236-128.873-22.941l-386.618 206.473v-38.236c0-15.294-7.581-22.941-22.742-22.941h-204.68c-15.161 0-22.742 7.647-22.742 15.294v412.946c0 15.294 15.161 22.941 22.742 22.941h197.099c15.161 0 22.742-7.647 22.742-22.941v-30.589h212.261c60.646 0 106.13-15.294 144.034-53.53l30.323-30.589c0 0 7.581-7.647 7.581-15.294h174.357c45.484 0 83.388-38.236 83.388-84.119-7.581-22.941-15.161-38.236-37.904-38.236h-295.649c-7.581 0-22.742-7.647-22.742-22.941 0-7.647 7.581-22.941 22.742-22.941h310.81c53.065 0 90.969 45.883 90.969 99.413l159.195 76.471h30.323z" />
<glyph unicode="&#xe914;" glyph-name="assess" horiz-adv-x="981" d="M393.433-10.768c-224.029 45.468-392.933 242.807-392.933 480.224 0 270.932 219.916 490.536 491.196 490.536 262.347 0 476.151-205.542 490.020-464.052 0.235-4.219 0-0.937 0.118-5.156-17.513 4.453-34.909 0.469-53.010 2.93-12.929 230.854-202.637 414.6-437.010 414.6-242.718 0-439.478-196.519-439.478-438.975 0-212.925 151.743-390.109 352.97-430.303 0-0.82-0.118-1.758-0.118-2.578l-11.754-47.226zM242.278 448.363c0 16.64 13.517 30.117 30.208 30.117h211.453v266.010c0 19.453 13.517 35.155 30.208 35.155s30.208-15.82 30.208-35.155v-291.087c0-1.055-0.47-1.758-0.47-2.695 0-0.82 0.47-1.523 0.47-2.344 0-16.64-13.517-30.117-30.208-30.117h-241.66c-16.691 0-30.208 13.476-30.208 30.117v0zM605.473 353.912c11.754 11.718 32.558 10.195 46.31-3.516l102.729-102.42 99.32 99.021c13.282 13.242 33.499 14.882 44.9 3.398 11.401-11.367 9.873-31.406-3.409-44.765l-68.643-68.436h44.9c19.511 0 35.262-13.359 35.262-30.117 0-16.64-15.75-30.117-35.262-30.117h-85.568v-60.233h85.568c19.511 0 35.262-13.359 35.262-30.117 0-16.64-15.75-30.117-35.262-30.117h-85.568v-85.311c0-19.453-13.517-35.155-30.207-35.155s-30.208 15.82-30.208 35.155v85.311h-85.568c-19.511 0-35.262 13.476-35.262 30.117 0 16.757 15.75 30.117 35.262 30.117h85.568v60.233h-85.568c-19.511 0-35.262 13.476-35.262 30.117 0 16.757 15.75 30.117 35.262 30.117h39.846l-70.758 70.545c-13.87 13.828-15.398 34.335-3.644 46.171v0zM373.451 14.193c0 6.68 2.821 13.359 7.523 18.046s11.401 7.5 18.219 7.5c6.817 0 13.399-2.812 18.101-7.5s7.523-11.367 7.523-18.046c0-6.68-2.821-13.359-7.523-18.046s-11.401-7.5-18.101-7.5c-6.7 0-13.399 2.812-18.219 7.5-4.702 4.687-7.523 11.367-7.523 18.046v0zM928.588 490.549c0 6.914 2.821 13.828 7.758 18.75s11.871 7.734 18.806 7.734c6.935 0 13.87-2.812 18.806-7.734s7.758-11.836 7.758-18.75c0-6.914-2.821-13.828-7.758-18.75s-11.871-7.734-18.806-7.734c-6.935 0-13.87 2.812-18.806 7.734-4.937 4.805-7.758 11.719-7.758 18.75v0z" />
<glyph unicode="&#xe915;" glyph-name="gift" horiz-adv-x="1117" d="M1116.798 543.611v127.731c-3.546 93.433-100.482 98.163-100.482 98.163l-49.65-1.183c0 0 75.657 100.529-15.368 164.394-179.685 107.625-392.469-144.288-392.469-144.288l-2.364-851.539h384.194c105.21 1.183 106.392 91.067 106.392 91.067v390.289c-1.182 21.288-7.093 34.298-7.093 34.298 81.567 22.471 76.839 91.067 76.839 91.067zM883.861 893.096c65.018-21.88 34.873-67.413 34.873-67.413s-1.773-19.514-41.375-56.769h-245.884c0 0 132.399 147.245 252.386 124.183zM977.841 405.236v-378.462c0 0-3.546-29.567-39.602-28.385h-345.775v449.423h355.232c0 0 32.509-4.731 30.144-42.577zM1047.587 538.88c0 0-8.275-29.567-34.282-27.202h-421.432l-0.591 192.779h424.978c0 0 27.189-2.957 31.327-31.933v-133.644zM77.778 452.545c0 0-5.911-13.010-7.093-34.298v-390.289c0 0 1.182-89.885 106.392-91.067h384.194l-2.364 851.539c0 0-212.785 251.914-392.469 144.288-91.025-63.865-15.368-164.394-15.368-164.394l-49.65 1.183c0 0-96.935-4.731-100.482-98.163v-127.731c0 0-4.729-68.596 76.839-91.067zM486.261 768.915h-245.884c-39.602 37.255-41.375 56.769-41.375 56.769s-30.144 45.534 34.873 67.413c119.987 23.063 252.386-124.183 252.386-124.183zM170.040 447.814h355.232v-449.423h-345.775c-36.055-1.183-39.602 28.385-39.602 28.385v378.462c-2.364 37.846 30.144 42.577 30.144 42.577zM70.149 672.525c4.137 28.976 31.327 31.933 31.327 31.933h424.978l-0.591-192.779h-421.432c-26.007-2.365-34.282 27.202-34.282 27.202v133.644z" />
<glyph unicode="&#xe916;" glyph-name="calculator" d="M831.667 224.234h-255.732c-17.655 0-31.969-14.311-31.969-31.967 0-17.658 14.314-31.969 31.969-31.969h255.732c17.658 0 31.964 14.311 31.964 31.969-0.001 17.655-14.306 31.967-31.964 31.967zM831.667 384.064h-255.732c-17.655 0-31.969-14.311-31.969-31.964 0-17.655 14.314-31.967 31.969-31.967h255.732c17.658 0 31.964 14.311 31.964 31.967-0.001 17.653-14.306 31.964-31.964 31.964zM448.071 671.766h-95.903v95.896c0 17.658-14.311 31.969-31.967 31.969-17.658 0-31.964-14.311-31.964-31.969v-95.896h-95.899c-17.658 0-31.969-14.311-31.969-31.969 0-17.649 14.311-31.96 31.969-31.96h95.9v-95.906c0-17.649 14.304-31.96 31.964-31.96 17.655 0 31.967 14.311 31.967 31.96v95.906h95.903c17.649 0 31.964 14.311 31.964 31.96-0.003 17.658-14.317 31.969-31.965 31.969zM831.667 671.766h-255.732c-17.655 0-31.969-14.311-31.969-31.969 0-17.649 14.314-31.96 31.969-31.96h255.732c17.658 0 31.964 14.311 31.964 31.96-0.001 17.658-14.306 31.969-31.964 31.969zM863.629 959.465h-703.261c-88.276 0-159.832-71.558-159.832-159.832v-703.264c0-88.276 71.558-159.832 159.832-159.832h703.261c88.276 0 159.832 71.556 159.832 159.832v703.264c0.001 88.276-71.556 159.832-159.832 159.832v0zM959.532 96.367c0-52.962-42.934-95.896-95.903-95.896h-703.261c-52.962 0-95.903 42.934-95.903 95.896v703.265c0 52.962 42.941 95.896 95.903 95.896h703.261c52.969 0 95.903-42.934 95.903-95.896v-703.265zM456.030 391.327c-12.48 12.483-32.724 12.483-45.207 0l-90.415-90.415-90.415 90.415c-12.483 12.483-32.724 12.483-45.207 0-12.483-12.49-12.483-32.731 0-45.21l90.414-90.414-90.414-90.414c-12.483-12.483-12.483-32.724 0-45.21 12.483-12.483 32.724-12.483 45.207 0l90.415 90.415 90.415-90.415c12.483-12.483 32.728-12.483 45.207 0 12.483 12.486 12.483 32.728 0 45.21l-90.414 90.414 90.414 90.414c12.483 12.479 12.483 32.72 0 45.21v0z" />
<glyph unicode="&#xe917;" glyph-name="apply" horiz-adv-x="896" d="M715.578-52.014v170.283h135.004v278.36h-342.31v-412.911l153.013 0.005v-44.56l-46.56-0.072-0.355 0.102-150.798-0.031v502.023h431.71v-343.124c0-1.165-0.092-2.634-0.184-4.082l-0.020-6.883-0.509-1.62-0.385-1.014-1.383-10.748h-2.53c-23.855-64.262-76.603-114.089-142.24-133.964l-1.149-0.35c0 0-4.624-0.090-6.19-0.090-2.591 0-4.918 0.044-7.094 0.090l-5.173 0.066-1.728-0.026-10.357-3.439-0.763 11.985zM760.278-7.556c35.512 17.155 64.385 45.923 81.593 81.27h-81.593v-81.27zM553.58 199.289v44.555h251.702v-44.555h-251.702zM553.58 280.012v44.56h251.702v-44.56h-251.702zM0.516-16.646v89.928c0 179.57 109.229 338.837 278.28 405.747l20.424 8.087-17.336 13.477c-63.363 49.353-99.705 123.047-99.705 202.185 0 141.833 116.568 257.221 259.867 257.221 143.289 0 259.857-115.39 259.857-257.221 0-57.998-20.059-114.64-56.572-159.842h-95.508c53.882 35.517 86.499 94.877 86.499 159.842 0 106.096-87.157 192.409-194.276 192.409s-194.265-86.313-194.265-192.41c0-71.35 39.344-135.933 102.976-169.601v-98.845c-167.846-41.566-284.639-189.336-284.639-361.049v-57.514h280.852v-64.83h-313.664c-18.078-0.001-32.79 14.542-32.79 32.416z" />
</font>
</defs>
</svg>
