<?xml version="1.0" standalone="no"?>
<!DOCTYPE svg PUBLIC "-//W3C//DTD SVG 1.1//EN" "http://www.w3.org/Graphics/SVG/1.1/DTD/svg11.dtd" >
<svg xmlns="http://www.w3.org/2000/svg">
<metadata>Generated by IcoMoon</metadata>
<defs>
<font id="icomoon" horiz-adv-x="1024">
<font-face units-per-em="1024" ascent="960" descent="-64" />
<missing-glyph horiz-adv-x="1024" />
<glyph unicode="&#x20;" horiz-adv-x="512" d="" />
<glyph unicode="&#xe900;" glyph-name="arrow-down2" d="M543.921 237.333l-469.333 469.333c-16.2 16.2-39.464 19.203-51.961 6.706s-9.494-35.76 6.706-51.961l469.333-469.333c16.2-16.2 39.464-19.203 51.961-6.706s9.494 35.76-6.706 51.961zM553.457 179.301l451.242 451.242c15.576 15.576 18.072 38.333 5.575 50.83s-35.254 10.001-50.83-5.575l-451.242-451.242c-15.576-15.576-18.072-38.333-5.575-50.83s35.254-10.001 50.83 5.575z" />
<glyph unicode="&#xe901;" glyph-name="arrow-right" d="M268.122-27.475c-4.938 1.985-9.732 4.5-14.836 5.873-57.139 15.369-96.404 63.612-96.931 122.827-0.886 99.744-0.419 199.501-0.346 299.253 0.018 24.007 12.179 38.48 31.164 38.149 18.745-0.328 31.635-15.396 31.692-38.756 0.23-93.516 0.021-187.035 0.134-280.553 0.072-59.038 23.324-82.285 81.968-82.293 141.511-0.021 283.021-0.033 424.532 0.006 55.337 0.015 79.486 24.12 79.592 79.957 0.176 91.959-0.057 183.918 0.218 275.877 0.027 9.143-0.884 21.672 4.359 26.666 9.059 8.629 22.815 17.709 34.217 17.244 15.538-0.634 24.475-13.993 24.385-31.632-0.348-67.799-0.108-135.599-0.101-203.4 0.004-31.173 0.263-62.348-0.094-93.516-0.767-66.944-37.129-113.249-101.878-130.568-3.603-0.964-6.813-3.387-10.207-5.131-162.621 0-325.245 0-487.867 0v0zM505.535 858.763c-5.288-7.785-9.469-16.677-16.026-23.193-143.364-142.477-286.98-284.702-430.583-426.94-19.654-19.468-27.872-19.985-44.933-3.355-17.313 16.875-17.377 25.326-0.302 42.979 1.627 1.682 3.325 3.297 4.987 4.944 153.593 152.114 307.176 304.237 460.786 456.333 23.822 23.586 41.426 23.529 65.401-0.211 154.157-152.655 308.305-305.32 462.41-458.028 20.656-20.468 20.606-28.114 2.736-46.353-14.635-14.937-27.754-14.481-41.882 0.483-12.849 13.611-26.455 26.513-39.759 39.695-131.938 130.727-263.941 261.39-395.643 392.352-5.979 5.946-9.272 14.576-13.816 21.958-4.458-0.222-8.916-0.443-13.376-0.664v0z" />
<glyph unicode="&#xe902;" glyph-name="calendar" d="M448 800h136v-86.4h-136v86.4zM224 800h-159.944c-35.33 0-64.056-28.68-64.056-64.059v-735.883c0-35.435 28.679-64.059 64.056-64.059h895.888c35.33 0 64.056 28.68 64.056 64.059v735.883c0 35.435-28.679 64.059-64.056 64.059h-151.944v-86.4h71.941c35.379 0 64.059-28.602 64.059-63.942v-563.316c0-35.314-28.624-63.942-64.059-63.942h-735.883c-35.379 0-64.059 28.602-64.059 63.942v563.316c0 35.314 28.624 63.942 64.059 63.942h79.941v86.4zM200 472c0 30.928 25.040 56 55.925 56h512.15c30.887 0 55.925-25.135 55.925-56 0-30.928-25.040-56-55.925-56h-512.15c-30.887 0-55.925 25.135-55.925 56zM200 232c0 30.928 25.040 56 55.925 56h512.15c30.887 0 55.925-25.135 55.925-56 0-30.928-25.040-56-55.925-56h-512.15c-30.887 0-55.925 25.135-55.925 56zM696 960c30.928 0 56-25.058 56-56.013v-215.975c0-30.935-25.135-56.013-56-56.013-30.928 0-56 25.058-56 56.013v215.975c0 30.935 25.135 56.013 56 56.013zM336 960c30.928 0 56-25.058 56-56.013v-215.975c0-30.935-25.135-56.013-56-56.013-30.928 0-56 25.058-56 56.013v215.975c0 30.935 25.135 56.013 56 56.013z" />
<glyph unicode="&#xe903;" glyph-name="clock" d="M509.867 957.867c-140.801 0-260.977-49.777-360.533-149.333s-149.333-219.733-149.333-360.533c0-140.801 49.777-260.977 149.333-360.533s219.733-149.333 360.533-149.333c140.801 0 260.977 49.777 360.533 149.333s149.333 219.733 149.333 360.533c0 140.801-49.777 260.977-149.333 360.533s-219.733 149.333-360.533 149.333v0zM822.4 135.467c-86.045-86.045-190.222-129.067-312.533-129.067s-226.488 43.022-312.533 129.067c-86.045 86.045-129.067 190.222-129.067 312.533s43.022 226.488 129.067 312.533c86.045 86.045 190.222 129.067 312.533 129.067s226.488-43.022 312.533-129.067c86.045-86.045 129.067-190.222 129.067-312.533s-43.022-226.488-129.067-312.533v0zM712.533 484.267h-170.667v238.933c0 9.956-3.2 18.133-9.6 24.533s-14.578 9.6-24.533 9.6c-9.956 0-18.133-3.2-24.533-9.6s-9.6-14.578-9.6-24.533v-273.067c0-9.956 3.2-18.133 9.6-24.533s14.578-9.6 24.533-9.6h204.8c9.956 0 18.133 3.2 24.533 9.6s9.6 14.578 9.6 24.533c0 9.956-3.2 18.133-9.6 24.533s-14.578 9.6-24.533 9.6v0z" />
<glyph unicode="&#xe904;" glyph-name="cog" d="M387.046-63.735c-2.163 0-4.378 0.264-6.593 0.844-47.365 12.184-92.884 30.961-135.239 55.857-12.29 7.226-16.615 22.891-9.811 35.392 8.386 15.402 12.817 32.808 12.817 50.477 0 58.178-47.313 105.491-105.491 105.491-17.617 0-35.076-4.431-50.477-12.817-12.501-6.804-28.166-2.479-35.392 9.811-24.896 42.407-43.673 87.874-55.857 135.239-3.428 13.397 4.061 27.164 17.142 31.542 42.935 14.452 71.839 54.644 71.839 99.952s-28.852 85.5-71.839 99.952c-13.081 4.431-20.571 18.144-17.142 31.542 12.184 47.365 30.961 92.884 55.857 135.239 7.226 12.29 22.891 16.615 35.392 9.811 15.349-8.386 32.808-12.817 50.477-12.817 58.178 0 105.491 47.313 105.491 105.491 0 17.617-4.431 35.076-12.817 50.477-6.804 12.501-2.479 28.166 9.811 35.392 42.407 24.896 87.874 43.673 135.239 55.857 13.397 3.428 27.164-4.061 31.542-17.142 14.452-42.935 54.644-71.839 99.952-71.839s85.5 28.852 99.952 71.839c4.431 13.081 18.197 20.571 31.542 17.142 47.365-12.184 92.884-30.961 135.239-55.857 12.29-7.226 16.615-22.891 9.811-35.392-8.386-15.402-12.817-32.808-12.817-50.477 0-58.178 47.313-105.491 105.491-105.491 17.617 0 35.076 4.431 50.477 12.817 12.501 6.804 28.166 2.479 35.392-9.811 24.896-42.407 43.673-87.874 55.857-135.239 3.428-13.397-4.061-27.164-17.142-31.542-42.935-14.452-71.839-54.644-71.839-99.952s28.852-85.5 71.839-99.952c13.081-4.431 20.571-18.144 17.142-31.542-12.184-47.365-30.961-92.884-55.857-135.239-7.226-12.29-22.891-16.615-35.392-9.811-15.402 8.386-32.808 12.817-50.477 12.817-58.178 0-105.491-47.313-105.491-105.491 0-17.617 4.431-35.076 12.817-50.477 6.804-12.501 2.479-28.166-9.811-35.392-42.407-24.896-87.874-43.673-135.239-55.857-13.397-3.428-27.164 4.061-31.542 17.142-14.452 42.935-54.644 71.839-99.952 71.839s-85.5-28.852-99.952-71.839c-3.692-10.918-13.925-17.986-25.001-17.986h0.053zM512 78.783c59.444 0 112.98-33.124 140.039-84.498 27.428 8.492 54.117 19.463 79.645 32.808-5.696 16.562-8.65 34.073-8.65 51.69 0 87.241 70.995 158.236 158.236 158.236 17.617 0 35.128-2.954 51.69-8.65 13.345 25.529 24.368 52.165 32.808 79.645-51.374 27.006-84.498 80.542-84.498 140.039s33.124 112.98 84.498 140.039c-8.492 27.428-19.463 54.117-32.808 79.645-16.562-5.696-34.073-8.65-51.69-8.65-87.241 0-158.236 70.995-158.236 158.236 0 17.617 2.954 35.128 8.65 51.69-25.529 13.345-52.165 24.368-79.645 32.808-27.006-51.374-80.542-84.498-140.039-84.498s-112.98 33.124-140.039 84.498c-27.428-8.439-54.117-19.463-79.645-32.808 5.696-16.562 8.65-34.073 8.65-51.69 0-87.241-70.995-158.236-158.236-158.236-17.617 0-35.128 2.954-51.69 8.65-13.345-25.529-24.368-52.165-32.808-79.645 51.374-27.006 84.498-80.542 84.498-140.039s-33.124-112.98-84.498-140.039c8.439-27.428 19.463-54.117 32.808-79.645 16.562 5.696 34.073 8.65 51.69 8.65 87.241 0 158.236-70.995 158.236-158.236 0-17.617-2.954-35.128-8.65-51.69 25.529-13.345 52.165-24.368 79.645-32.808 27.006 51.374 80.542 84.498 140.039 84.498v0zM512 289.764c-87.241 0-158.236 70.995-158.236 158.236s70.995 158.236 158.236 158.236c87.241 0 158.236-70.995 158.236-158.236s-70.995-158.236-158.236-158.236v0zM512 553.491c-58.178 0-105.491-47.313-105.491-105.491s47.313-105.491 105.491-105.491c58.178 0 105.491 47.313 105.491 105.491s-47.313 105.491-105.491 105.491v0z" />
<glyph unicode="&#xe905;" glyph-name="editor" d="M887.504-63.042h-763.482c-36.102 0-59.43 25.75-59.43 65.599 0 48.86 8.108 96.888 24.099 142.749 15.448 44.303 37.948 85.78 66.873 123.275 28.584 37.052 62.738 69.314 101.51 95.89 25.41 17.417 52.406 32.113 80.659 43.934-36.471 24.805-67.106 57.111-89.999 95.214-32.77 54.541-47.033 117.045-41.251 180.757 12.686 138.435 122.83 252.693 261.9 271.698 54.339 7.424 109.417 0.701 159.286-19.435 47.686-19.256 90.095-50.421 122.641-90.128 32.625-39.801 54.57-87.338 63.465-137.471 9.59-54.061 4.286-109.031-15.767-163.382-19.908-54.033-58.070-101.707-107.17-134.977 56.028-19.553 85.998-45.428 117.416-72.553l2.207-1.904c41.352-35.679 78.785-87.278 105.404-145.296 28.232-61.532 43.156-126.67 43.156-188.372 0-19.744-7.079-36.462-20.47-48.342-12.727-11.29-30.378-17.257-51.048-17.257v0zM391.418 380.101c-38.543-11.988-74.959-29.638-108.341-52.519-34.855-23.891-65.558-52.894-91.253-86.202-53.431-69.259-81.673-151.843-81.673-238.825 0-20.674 8.684-20.674 13.871-20.674h763.482c25.956 0 25.956 14.487 25.956 20.674 0 108.986-54.693 232.293-133 299.858l-2.216 1.914c-36.524 31.531-65.373 56.436-136.559 73.986-2.44 0.601-4.687 1.568-6.698 2.83-54.892-21.764-136.625-35.101-243.567-1.042v0zM400.23 424.537c87.751-29.085 169.616-26.741 236.828 6.799 54.784 27.337 97.84 74.601 118.132 129.671 17.295 46.877 21.905 94.074 13.705 140.29-7.565 42.64-26.243 83.088-54.019 116.972-58.215 71.020-148.026 105.904-240.241 93.304-57.117-7.806-110.98-35.38-151.665-77.647-40.653-42.231-65.907-96.772-71.112-153.576-4.924-54.25 7.203-107.452 35.072-153.835 26.756-44.53 65.916-79.77 113.3-101.98v0z" />
<glyph unicode="&#xe906;" glyph-name="enlarge" d="M39.499-63.378c0.021-0.021 310.64-0.083 310.64-0.083 21.718 0 39.33 17.594 39.288 39.249 0 21.654-17.591 22.772-39.288 22.751h-225.246l212.164 218.891c15.34 15.325 15.34 40.144 0 55.469s-40.164 15.346-55.504 0.021l-217.854-214.18v227.249c-0.021 21.675-2.419 39.228-24.033 39.165-21.718 0-39.309-17.532-39.33-39.165l0.042-310.242c0-1.582 0.709-2.998 0.917-4.581 0.354-3.436 0.688-6.975 2.084-10.286 3.939-9.599 11.651-17.303 21.301-21.28 4.752-1.957 9.775-2.977 14.819-2.977zM984.757 959.088c-0.021 0.021-310.64 0.042-310.64 0.042-21.718 0-39.309-17.573-39.288-39.249 0-21.654 17.591-24.126 39.288-24.105h227.062l-213.98-217.537c-15.34-15.325-15.34-40.144 0-55.469s40.185-15.366 55.525-0.042l217.811 209.55v-222.639c0.021-21.675 2.483-39.228 24.097-39.165 21.718 0 39.33 17.511 39.33 39.165l-0.042 310.242c0.042 1.624-0.688 3.019-0.896 4.602-0.438 3.477-0.771 6.975-2.147 10.307-3.939 9.599-11.651 17.303-21.28 21.259-4.731 1.978-9.754 2.998-14.84 3.040zM1023.879-24.338c0.021 0.021 0.042 310.325 0.042 310.325 0 21.696-17.633 39.311-39.309 39.27-21.635-0.042-21.701-17.594-21.681-39.27v-223.095l-220.206 210.047c-15.34 15.325-40.164 15.304-55.504-0.021s-15.361-40.123-0.021-55.448l218.529-217.446h-231.611c-21.718 0-39.268-2.604-39.205-24.237 0-21.696 17.55-39.27 39.205-39.29l310.535 0.062c1.626-0.042 3.043 0.666 4.606 0.895 3.46 0.458 6.982 0.77 10.317 2.145 9.608 3.935 17.32 11.639 21.301 21.28 1.98 4.727 3.001 9.745 3.001 14.783zM0.357 920.026l-0.063-310.346c0-21.696 17.633-39.311 39.33-39.29 21.656 0.062 25.395 17.615 25.374 39.29v228.875l216.512-215.848c15.34-15.325 40.206-15.262 55.504 0.021 15.34 15.325 15.382 40.144 0.042 55.469l-237.367 219.48h250.407c21.718 0 32.193 0.737 32.11 22.349 0 21.696-10.434 39.103-32.11 39.103l-310.556-0.042c-1.626 0.042-3.022-0.687-4.606-0.895-3.418-0.416-6.941-0.729-10.275-2.103-9.588-3.956-17.299-11.66-21.28-21.259-2.001-4.747-3.022-9.765-3.022-14.804z" />
<glyph unicode="&#xe907;" glyph-name="fire" d="M550.252-19.351c70.822 80.667 35.042 115.867-6.034 156.251-51.184 50.338-108.295 106.497-68.915 219.079-157.044-128.99-97.34-280.846-61.558-346.853 6.669-12.279 11.857-20.695 15.349-26.358 1.165-1.905 2.065-3.441 3.918-6.669 7.091-12.332 2.857-28.105-9.526-35.2-6.089-3.494-13.075-4.234-19.374-2.593v-0.051c-26.944 7.197-51.395 16.195-73.574 26.727-88.869 42.291-141.324 109.090-167.046 182.453-25.409 72.514-24.295 151.273-6.351 218.705 5.823 21.862 13.442 42.61 22.442 61.558 2.331 4.977 8.787 16.938 15.349 28.371 5.186 9.157 10.587 18.208 14.399 23.714 4.021 5.823 9.475 12.863 15.984 21.33 33.768 43.669 99.296 128.464 85.749 206.587-2.435 14.079 7.038 27.417 21.117 29.854 9.368 1.587 18.421-2.065 24.138-8.84 10.374-10.532 58.594-63.25 71.242-144.816 17.733 34.723 30.753 72.886 39.962 111.048 23.237 96.070 22.497 190.759 12.914 233.687-3.068 13.92 5.716 27.685 19.638 30.753 7.675 1.694 15.298-0.211 21.121-4.606v0.053c167.947-126.608 293.918-319.485 338.222-503.632 16.516-68.704 21.754-136.454 13.71-199.335-8.256-64.257-30.274-123.378-68.12-173.557-48.907-64.947-123.911-114.383-229.347-139.737-13.87-3.281-27.79 5.293-31.071 19.107-2.011 8.467 0.369 16.885 5.663 22.969v0 0zM580.422 173.741c47.266-46.471 89.718-88.235 54.094-161.913 56.265 23.872 98.822 57.322 129.203 97.657 32.287 42.768 51.077 93.526 58.17 148.839 7.304 56.634 2.433 118.139-12.651 180.967-37.318 155.137-136.826 317.265-271.425 435.351 1.694-52.982-3.334-122.534-20.113-191.82-17.627-73.042-48.275-146.562-97.71-201.981-5.874-7.041-15.298-10.798-24.93-8.893-14.028 2.753-23.13 16.303-20.431 30.329 10.903 55.205-0.848 100.83-16.357 133.595-16.99-69.126-64.098-130.102-92.098-166.359-6.085-7.834-11.169-14.448-14.399-19.054-2.753-4.076-7.357-11.805-11.963-19.849-5.872-10.321-11.538-20.801-13.496-24.982-7.728-16.195-14.186-33.928-19.214-52.665-15.56-58.436-16.621-126.399 5.188-188.537 21.438-61.24 65.474-117.082 140.317-152.704l2.435-1.165c-47.002 100.779-94.745 297.256 174.562 443.344v-0.051c7.992 4.338 17.997 4.338 26.2-0.901 12.068-7.621 15.667-23.607 7.992-35.675-88.865-139.79-32.601-195.154 16.625-243.532v0 0z" />
<glyph unicode="&#xe908;" glyph-name="heat" d="M620.684 859.523c93.915-123.88 257.136-342.365 257.136-531.674 0-4.286-0.079-8.401-0.216-12.38 0.13-4.002 0.218-8.013 0.218-12.047 0-167.384-164.165-366.661-366.668-366.661-202.508 0-366.668 199.277-366.668 366.661 0 5.297 0.139 10.561 0.361 15.805-0.234 2.838-0.361 5.711-0.361 8.623 0 176.104 95.059 341.488 119.945 381.769 25.821-104.868 79.37-162.442 145.962-162.442 78.324 0 143.044 106.964 143.044 307.84 0 29.358-0.965 58.643-2.891 87.267 3.087 6.334 6.463 11.974 10.161 16.798 0 0 14.686-39.808 59.976-99.558zM512 0c150.221 0 286.74 106.667 304.797 255.194 5.411 44.51 8.628 78.636 0 126.411-17.839 98.778-124.042 269.156-208.977 381.606-15.567-171.354-94.527-283.657-173.146-283.657-71.505 0-102.279 11.733-174.538 83.184-46.020-134.427-52.604-176.788-52.604-255.504 0-150.221 154.247-307.235 304.469-307.235z" />
<glyph unicode="&#xe909;" glyph-name="home" d="M722.667 479.921l-469.333-469.333c-16.2-16.2-19.203-39.464-6.706-51.961s35.76-9.494 51.961 6.706l469.333 469.333c16.2 16.2 19.203 39.464 6.706 51.961s-35.76 9.494-51.961-6.706zM780.699 489.457l-451.242 451.242c-15.576 15.576-38.333 18.072-50.83 5.575s-10.001-35.254 5.575-50.83l451.242-451.242c15.576-15.576 38.333-18.072 50.83-5.575s10.001 35.254-5.575 50.83z" />
<glyph unicode="&#xe90a;" glyph-name="logo" d="M768.512 944.992c-52.422-0.182-105.522-9.018-144.648-35.89-115.035-82.729-91.698-192.248-91.698-284.771 0-346.442 38.879-464.467-136.175-555.867-53.644-28.061-144.235-36.633-208.78-5.88-30.241 14.369-53.562 34.486-69.83 51.844 30.687-30.092 72.687-48.607 118.999-48.607 94.059 0 170.314 76.47 170.314 170.777 0 94.324-76.255 170.81-170.314 170.81s-170.314-76.486-170.314-170.81c0-32.206 8.886-62.381 24.361-88.114 6.706-12.139 53-88.345 199.845-170.958 162.139-91.318 517.269 10.273 517.269 352.553v344.626c0 222.687 137.084 240.194 150.743 241.4v0.429c-10.636 3.155-97.065 28.143-186.484 28.457h-3.287z" />
<glyph unicode="&#xe90b;" glyph-name="news" d="M909.542 896h-795.084c-63.124 0-114.458-50.056-114.458-111.468v-672.999c0-61.54 51.398-111.533 114.458-111.533h795.084c63.124 0 114.458 49.993 114.458 111.533v672.936c-0.065 61.476-51.398 111.532-114.458 111.532v0zM959.935 112.019c0-26.48-22.206-48.019-49.44-48.019h-797.055c-27.234 0-49.44 21.539-49.44 48.019v672.024c0 26.417 22.206 47.956 49.44 47.956h797.12c27.234 0 49.44-21.539 49.44-47.956v-672.024h-0.065zM160 736h704v-64h-704v64zM544 544h320v-64h-320zM544 384h320v-64h-320zM544 224h320v-64h-320zM160 544h320v-384h-320v384z" />
<glyph unicode="&#xe90c;" glyph-name="qq" horiz-adv-x="1008" d="M13.321 176.649c1.004-1.004 2.007-2.053 3.057-4.106 0-1.004 2.053-2.053 3.057-2.053h1.049c15.329 1.049 29.699 8.212 44.024 21.533 13.321 12.272 24.59 26.597 30.703 41.971 3.102 8.212 5.11 12.272 7.162 12.272l3.102-2.053c5.11-23.54 18.431-53.239 40.967-89.051 23.54-36.861 44.024-56.341 62.455-60.447l1.004-2.007c0-1.049-1.004-1.049-1.004-2.053-4.106-1.049-7.162-1.049-8.212-1.049-8.212-1.004-17.381-3.057-28.65-7.162s-18.431-6.159-22.537-7.162c-12.272-11.268-19.48-20.484-23.54-27.646-4.106-8.212-6.159-19.48-6.159-34.809 0-13.321 6.159-25.593 18.431-35.858 12.272-10.219 26.642-18.431 43.020-23.54 16.378-4.106 34.809-8.212 57.345-11.268 22.491-3.057 40.922-4.106 53.239-5.11 13.321-1.049 26.597-1.049 39.918-1.049 30.748 0 63.504 4.106 96.259 11.268 32.756 8.212 57.345 20.484 72.719 37.911 3.057-1.049 10.219-1.049 22.537-1.049 12.272 0 21.487-1.004 26.597-3.057 3.057-1.049 7.162-2.053 13.321-4.106 24.59-7.162 44.024-12.272 59.398-16.378 15.329-5.11 33.759-8.212 56.296-12.272 21.533-3.102 43.020-5.155 62.455-5.155 91.15 0 148.495 18.431 173.085 56.341 2.053 2.053 3.057 5.11 4.106 10.219 1.004 4.106 1.004 7.208 2.007 9.215-3.057 15.374-10.219 27.646-20.484 36.861-10.219 8.212-23.54 16.423-38.869 23.586-16.423 7.162-27.646 14.325-35.858 21.487 28.65 26.642 53.239 69.617 75.776 128.011l3.057 2.053h2.053c0-1.049 2.053-4.106 5.11-10.265 3.102-6.113 5.155-11.268 7.208-15.329 2.007-4.106 5.11-9.215 9.215-15.374 4.060-5.11 7.162-10.265 11.223-14.325 3.102-4.106 6.159-7.208 10.265-10.265s8.212-4.106 11.268-4.106c13.321 0 24.589 11.268 31.752 32.801 7.162 21.487 11.223 40.922 11.223 57.345 0 40.922-8.166 80.885-24.544 118.75-17.427 37.911-39.964 78.878-69.617 122.902 0 0 0 1.004-1.049 2.053 0 1.004-1.004 1.004-2.053 2.053v2.007c0 5.155 1.049 12.318 5.11 22.537 3.102 9.215 5.155 17.427 5.155 22.537 0 25.593-11.268 54.289-31.752 86.040l-1.049 2.007c-4.060 22.537-8.166 40.967-12.272 56.341s-8.166 32.756-14.325 51.186c-6.159 18.431-12.318 34.809-18.431 48.13-7.162 13.321-14.325 27.646-24.589 41.971-9.215 15.374-19.434 28.695-30.703 38.914-12.318 11.268-25.593 22.537-40.967 32.801-15.374 10.219-32.756 19.434-51.186 26.597-51.232 21.533-101.369 31.752-152.601 31.752-70.666 0-132.072-12.272-185.311-37.865-47.126-22.537-88.093-62.5-123.906-119.845-34.854-56.296-53.285-111.588-53.285-164.827-5.11-4.106-9.215-12.318-12.272-24.59-3.057-11.268-5.11-21.533-4.106-29.699-5.11-6.159-10.219-14.325-14.325-25.593s-6.159-20.484-6.159-28.695c0-12.272 2.053-22.491 5.155-29.699-96.259-72.674-144.389-160.767-144.389-266.242 0-17.381 4.106-35.812 13.321-56.296z" />
<glyph unicode="&#xe90d;" glyph-name="share" d="M358.4 286.253c0 0 7.314 204.567 204.8 336.074 168.229 109.589 343.771 87.672 343.771 87.672s-80.457-116.895-95.086-131.507c-7.314-14.612-7.314-43.836 7.314-51.142s36.571-7.306 51.2 7.306c14.629 14.612 153.6 204.567 153.6 204.567s-175.543 204.567-182.857 211.873c-7.314 7.306-36.571 14.612-51.2 0s-14.629-43.836-7.314-43.836c7.314-7.306 124.343-138.813 124.343-138.813s-270.629 29.224-446.171-146.119c-95.086-94.978-146.286-189.955-175.543-336.074h73.143zM906.971 1.32h-848.457v650.231h248.686l58.514 58.448h-314.514c-29.257 0-51.2-21.918-51.2-51.142v-657.537c0-36.53 21.943-58.448 51.2-58.448h855.771c29.257 0 51.2 21.918 51.2 51.142v496.806l-58.514-65.754v-423.746h7.314z" />
<glyph unicode="&#xe90e;" glyph-name="stats-dots" d="M939.886 960c-46.313 0-83.988-37.677-83.988-83.988 0-24.522 10.759-46.423 27.587-61.815l-162.784-386.615c-1.612 0.11-3.144 0.493-4.785 0.493-18.167 0-34.885-5.933-48.638-15.776l-150.711 105.507c1.983 7.136 3.376 14.493 3.376 22.251 0 46.317-37.674 83.991-83.988 83.991s-83.988-37.674-83.988-83.991c0-20.885 7.943-39.78 20.6-54.486l-145.68-254.974c-4.866 0.87-9.801 1.504-14.899 1.504-46.313 0-83.988-37.672-83.988-83.988 0-46.311 37.674-83.985 83.988-83.985s83.988 37.674 83.988 83.985c0 20.891-7.943 39.78-20.6 54.492l145.695 254.971c4.851-0.876 9.787-1.509 14.886-1.509 18.152 0 34.872 5.935 48.624 15.776l150.726-105.501c-1.983-7.141-3.376-14.493-3.376-22.257 0-46.313 37.674-83.991 83.988-83.991s83.988 37.677 83.988 83.991c0 24.528-10.759 46.423-27.587 61.815l162.784 386.616c1.612-0.11 3.144-0.493 4.785-0.493 46.313 0 83.988 37.672 83.988 83.988 0 46.31-37.674 83.988-83.989 83.988v0zM211.355 103.82c-24.516 0-44.389 19.874-44.389 44.389s19.874 44.389 44.389 44.389c24.516 0 44.389-19.874 44.389-44.389s-19.873-44.389-44.389-44.389v0zM436.415 495.856c-24.516 0-44.389 19.874-44.389 44.389s19.874 44.389 44.389 44.389 44.389-19.874 44.389-44.389c0-24.516-19.873-44.389-44.389-44.389v0zM716.251 300.567c-23.858 0-43.198 19.341-43.198 43.198s19.341 43.198 43.198 43.198c23.858 0 43.198-19.341 43.198-43.198 0-23.859-19.341-43.198-43.198-43.198v0zM940.12 831.66c-24.516 0-44.389 19.874-44.389 44.389 0 24.516 19.874 44.389 44.389 44.389s44.389-19.874 44.389-44.389c0-24.516-19.873-44.389-44.389-44.389v0zM0 960h64v-1024h-64v1024zM64 0h960v-64h-960v64z" />
<glyph unicode="&#xe90f;" glyph-name="tag" d="M280.461 610.701c37.989 0 68.786 30.796 68.786 68.786s-30.796 68.786-68.786 68.786c-37.989 0-68.786-30.796-68.786-68.786s30.796-68.786 68.786-68.786v0zM0.959 837.712l0.015-348.536c1.404-28.686 13.391-55.695 33.72-76.023l421-422.929c34.22-34.236 79.863-53.081 128.508-53.081s94.287 18.844 128.491 53.081l257.031 257.014c35.431 35.431 53.146 81.961 53.146 128.491 0 46.563-17.715 93.094-53.146 128.523l-413.315 421.034c-20.296 20.296-47.257 32.268-76.008 33.752l-358.134-0.066c-32.589 1.647-64.502-10.647-87.574-33.686-23.072-23.072-35.511-54.598-33.736-87.575zM479.772 894.727c4.131-0.226 8.002-1.936 10.923-4.841l441.322-446.308c32.204-32.235 42.451-101.164 10.281-133.336l-291.218-293.828c-15.488-15.488-42.707-19.144-64.875-19.144s-54.918 16.492-70.423 31.981l-445.968 453.235c-2.888 2.904-4.598 6.744-4.808 10.875v384.323c-0.193 6.26 2.872 10.584 4.824 12.488 1.936 1.936 6.131 5.13 12.52 4.808l397.422-0.253z" />
<glyph unicode="&#xe910;" glyph-name="wechat" d="M284.854 661.64c0 13.424-4.093 24.229-12.278 32.414s-18.99 12.278-32.414 12.278c-14.079 0-26.521-4.175-37.326-12.524s-16.207-19.072-16.207-32.169c0-12.769 5.402-23.329 16.207-31.678s23.247-12.524 37.326-12.524c13.424 0 24.229 4.011 32.414 12.033s12.278 18.745 12.278 32.169v0zM649.761 412.639c0 9.168-4.174 17.353-12.524 24.556s-19.072 10.805-32.169 10.805c-8.84 0-16.944-3.683-24.311-11.050s-11.050-15.471-11.050-24.311c0-9.168 3.684-17.435 11.050-24.802s15.47-11.050 24.311-11.050c13.097 0 23.82 3.602 32.169 10.805s12.524 15.552 12.524 25.048v0zM533.855 661.64c0 13.424-4.011 24.229-12.033 32.414s-18.745 12.278-32.169 12.278c-14.079 0-26.521-4.175-37.326-12.524s-16.207-19.072-16.207-32.169c0-12.769 5.402-23.329 16.207-31.678s23.247-12.524 37.326-12.524c13.424 0 24.147 4.011 32.169 12.033s12.033 18.745 12.033 32.169v0zM845.721 412.639c0 9.168-4.257 17.353-12.769 24.556s-19.154 10.805-31.923 10.805c-8.84 0-16.944-3.683-24.311-11.050s-11.050-15.471-11.050-24.311c0-9.168 3.683-17.435 11.050-24.802s15.47-11.050 24.311-11.050c12.769 0 23.41 3.602 31.923 10.805s12.769 15.552 12.769 25.048v0zM715.081 607.616c-10.15 1.31-21.609 1.964-34.379 1.964-55.334 0-106.247-12.605-152.741-37.817s-83.082-59.344-109.767-102.4c-26.685-43.056-40.027-90.122-40.027-141.199 0-25.539 3.765-50.422 11.296-74.651-11.46-0.982-22.592-1.473-33.397-1.473-8.513 0-16.698 0.246-24.556 0.737s-16.862 1.555-27.012 3.192c-10.15 1.637-17.435 2.783-21.855 3.438s-13.342 2.374-26.766 5.157c-13.424 2.783-21.609 4.502-24.556 5.157l-124.255-62.373 35.361 107.066c-94.952 66.466-142.427 146.683-142.427 240.652 0 55.334 15.961 106.247 47.885 152.74s75.142 83.082 129.658 109.767c54.515 26.685 114.023 40.027 178.525 40.027 57.626 0 112.059-10.805 163.3-32.414s94.132-51.486 128.675-89.631c34.543-38.144 56.889-80.79 67.039-127.939v0zM1005.828 332.094c0-38.308-11.214-74.897-33.642-109.767s-52.796-66.548-91.104-95.033l27.012-88.894-97.734 53.533c-49.113-12.115-84.801-18.172-107.066-18.172-55.334 0-106.247 11.541-152.741 34.624s-83.082 54.433-109.767 94.051c-26.685 39.618-40.027 82.837-40.027 129.658s13.342 90.040 40.027 129.658c26.685 39.618 63.273 70.968 109.767 94.051s97.407 34.624 152.741 34.624c52.714 0 102.318-11.541 148.812-34.624s83.737-54.515 111.731-94.296c27.994-39.781 41.991-82.918 41.991-129.412v0z" />
<glyph unicode="&#xe911;" glyph-name="weibo" d="M36.848 193.275c24.58-34.796 57.324-63.48 98.276-85.963 40.952-23.577 85.963-40.952 137.13-53.265 51.213-13.271 103.429-19.427 157.652-19.427 53.219 0 104.432 6.156 154.596 17.421 49.115 12.267 92.119 27.636 128.967 48.112 36.848 19.427 68.542 41.955 96.178 66.536 27.681 24.535 48.157 51.167 62.477 78.803 13.271 26.587 20.476 53.219 20.476 78.803 0 24.58-6.157 47.109-19.473 66.536-12.267 20.476-27.636 35.844-45.011 47.109-18.469 11.264-37.897 19.427-59.376 26.587-4.104 2.052-8.209 3.101-9.212 3.101-2.052 1.003-4.104 3.055-7.16 5.108-3.101 2.052-4.104 4.104-3.101 7.16 1.049 2.052 2.052 6.156 3.101 11.264 17.375 43.004 17.375 77.8 0 101.331-17.421 23.531-47.109 34.796-87.012 34.796-40.952 0-88.061-11.264-141.28-33.792l-3.055-1.003c-2.052-1.049-5.108-1.049-8.209-2.052-2.052-1.003-5.108-1.003-8.163 0-2.052 0-4.104 1.003-5.153 4.104-1.003 2.052-1.003 6.111 0 11.264 17.421 55.272 13.316 95.175-11.219 118.706-27.636 28.685-74.744 29.688-140.277 4.104-66.49-25.584-131.019-70.64-195.503-134.075-49.115-49.161-85.963-98.276-112.595-147.391-26.587-50.164-39.903-96.224-39.903-140.231 0-40.952 12.267-78.849 36.848-113.644v0zM179.131 417.463c55.272 45.011 125.912 71.643 210.871 80.855 55.272 5.108 108.491 1.003 156.603-12.267 49.115-13.316 89.064-33.792 119.755-62.477 29.688-27.636 47.109-60.379 50.164-96.224 6.156-56.275-19.473-106.439-75.748-151.45-55.272-45.056-125.912-71.689-210.871-80.901-55.272-5.108-107.488-1.003-156.603 12.313-49.115 13.271-89.064 33.747-118.752 62.431-30.691 27.636-48.112 60.379-51.167 96.224-5.108 56.275 19.427 106.439 75.748 151.495v0zM320.366 143.111c42.001-14.32 84.96-11.264 127.964 7.16 43.004 17.421 72.692 46.060 90.067 84.96 17.421 37.897 17.421 74.744-1.003 109.54-18.424 33.792-48.112 57.324-91.116 67.539-39.903 10.261-79.852 7.205-119.755-10.215s-68.588-44.008-87.012-79.852c-17.375-35.799-18.424-71.643-3.055-107.488 15.368-34.796 43.004-58.327 83.911-71.643v0zM289.675 270.071c8.209 12.267 19.473 21.479 34.796 25.584 14.32 5.108 28.685 5.108 41.955 0 13.316-6.156 21.525-15.368 25.629-28.685 4.059-13.316 1.003-26.587-6.156-39.903-9.212-12.313-20.476-21.525-35.844-26.633-15.323-5.108-29.688-5.108-42.959 1.049-12.313 6.111-20.476 16.372-24.58 29.688-3.055 12.267-1.003 25.584 7.16 38.9v0zM414.537 322.242c6.156 2.052 11.264 2.052 16.417 0 5.108-2.052 8.163-5.108 10.215-10.215s1.003-10.261-2.052-15.368c-2.052-5.108-7.16-8.163-12.267-10.215-6.156-2.052-11.264-2.052-16.372-1.049-11.264 6.156-14.365 14.32-8.209 26.633 3.055 4.104 7.16 8.163 12.267 10.215v0zM712.421 780.833c32.743 7.16 65.532 5.108 98.276-5.108 32.743-10.261 61.428-27.636 84.96-54.268 23.532-25.584 38.9-56.275 46.060-90.067 6.156-34.796 4.104-67.585-6.156-98.276-3.055-10.215-2.052-20.476 3.101-29.688 5.108-9.212 12.267-16.372 22.483-19.427 10.261-3.101 20.476-3.101 29.688 2.052 9.212 5.108 16.417 13.271 19.473 23.531 15.368 43.004 17.375 89.064 8.163 137.176-10.215 48.066-31.695 91.071-64.484 127.918-33.747 36.848-72.647 62.431-118.706 76.797-46.060 14.32-93.168 16.372-139.228 6.111-11.264-2.052-19.427-8.163-25.584-17.375-5.108-8.209-7.16-18.424-5.108-28.685 2.052-11.264 8.163-19.427 17.375-25.584 9.212-5.108 18.424-7.16 29.688-5.108v0zM713.47 660.029c8.163-4.059 16.372-6.111 25.584-4.059 24.535 5.108 44.008-2.052 61.383-20.476 16.417-17.421 21.525-38.9 13.316-63.48-2.052-8.209-2.052-16.372 2.052-24.58 5.108-8.163 11.264-14.32 19.473-17.375 9.212-2.052 17.375-2.052 25.584 2.052 8.163 5.108 14.32 11.264 17.375 19.427 7.16 21.479 8.209 44.008 3.101 67.585-4.104 23.531-14.365 44.008-30.737 61.383-16.372 18.424-34.796 30.737-57.324 37.897-22.483 7.16-46.060 8.163-68.542 3.055-9.212-2.052-16.417-7.16-20.476-14.32-5.153-8.209-7.205-16.372-5.153-25.584s6.156-16.372 14.365-21.525v0z" />
<glyph unicode="&#xe912;" glyph-name="v" horiz-adv-x="1103" d="M599.364 320.246l-285.95 639.754h-313.414l476.903-939.506-2.352-5.757h5.274l0.367-0.723h146.637v11.24l463.634 934.745h-229.732l-261.367-639.754z" />
<glyph unicode="&#xea32;" glyph-name="arrow-up" d="M512 928l-480-480h288v-512h384v512h288z" />
<glyph unicode="&#xea36;" glyph-name="arrow-down" d="M512-32l480 480h-288v512h-384v-512h-288z" />
</font>
</defs>
</svg>
