<?xml version="1.0" encoding="UTF-8"?>
<svg width="60px" height="60px" viewBox="0 0 60 60" version="1.1" xmlns="http://www.w3.org/2000/svg" xmlns:xlink="http://www.w3.org/1999/xlink">
    <title>coop</title>
    <defs>
        <radialGradient cx="30.8201969%" cy="26.5506594%" fx="30.8201969%" fy="26.5506594%" r="345.336659%" gradientTransform="translate(0.308202,0.265507),scale(0.205016,1.000000),rotate(12.279987),translate(-0.308202,-0.265507)" id="radialGradient-1">
            <stop stop-color="#70B9F3" offset="0%"></stop>
            <stop stop-color="#0984E3" offset="100%"></stop>
        </radialGradient>
    </defs>
    <g id="coop" stroke="none" stroke-width="1" fill="none" fill-rule="evenodd">
        <path d="M12.9893738,52.2822266 C12.9622782,57.1534836 14.4412435,59.7260747 17.4262695,60 C17.3266835,60.0011231 17.2225339,60.0010327 17.1186424,60.000947 L14.7273073,60.0004567 C6.83331219,60.0122536 -0.0438283813,60.2366798 0.0301183006,60.1642333 C4.0257571,56.2804827 8.77345319,53.1664995 14.033894,51.0616787 C13.6580405,51.4317634 13.3102204,51.8387566 12.9893738,52.2822266 Z M50.1023752,52.9784976 C53.7974819,54.9361965 57.1730189,57.4167828 60.130399,60.321669 L59.9675274,60.164 L59.9076307,60.1640178 C58.8029103,60.159652 48.1256263,60.0971752 36.0945186,60.050579 C36.8540709,59.6259646 37.5516934,59.0916943 38.166748,58.4279785 C43.3576256,52.826416 45.8374149,55.5073242 49.203125,53.5620117 C49.5341785,53.3706695 49.8037626,53.1985163 50.0165384,53.0436285 Z M30,48 C36.1902468,48 42.0749828,49.3080467 47.3928859,51.6628178 C46.7093277,51.6535195 45.9476842,51.6547852 45.1376703,51.6547852 C40.6943359,51.6547852 28.7319336,62.7617188 25.4301758,59.0605469 C22.8365326,56.1531503 21.9804903,50.8516186 20.1141716,49.1411647 C23.2878262,48.3951252 26.5977699,48 30,48 Z" id="Combined-Shape" fill="url(#radialGradient-1)"></path>
        <g id="Group-5">
            <rect id="Rectangle" fill="#1AACCE" transform="translate(47.104272, 13.333333) rotate(-45.000000) translate(-47.104272, -13.333333) " x="41.6876052" y="0.833333333" width="10.8333333" height="25"></rect>
            <rect id="Rectangle-Copy-21" fill="#A29BFE" transform="translate(12.916667, 14.604272) rotate(45.000000) translate(-12.916667, -14.604272) " x="7.5" y="2.10427189" width="10.8333333" height="25"></rect>
            <g id="Group-4" transform="translate(10.833333, 12.104272)" fill="#FFD791">
                <path d="M29.6252104,21.7381554 L32.5714887,18.7918771 L36.4016504,22.6220388 C37.2152427,23.4356311 37.2152427,24.7547248 36.4016504,25.5683171 C35.5880582,26.3819094 34.2689644,26.3819094 33.4553722,25.5683171 L29.6252104,21.7381554 L29.6252104,21.7381554 Z" id="Rectangle-Copy-12"></path>
                <path d="M26.0140993,25.0714887 L28.9603776,22.1252104 L32.7905393,25.9553722 C33.6041316,26.7689644 33.6041316,28.0880582 32.7905393,28.9016504 C31.976947,29.7152427 30.6578533,29.7152427 29.8442611,28.9016504 L26.0140993,25.0714887 L26.0140993,25.0714887 Z" id="Rectangle-Copy-13"></path>
                <path d="M22.4029882,28.404822 L25.3492665,25.4585438 L29.1794282,29.2887055 C29.9930205,30.1022978 29.9930205,31.4213915 29.1794282,32.2349838 C28.3658359,33.048576 27.0467422,33.048576 26.23315,32.2349838 L22.4029882,28.404822 L22.4029882,28.404822 Z" id="Rectangle-Copy-14"></path>
                <path d="M17.9585438,30.904822 L20.904822,27.9585438 L24.7349838,31.7887055 C25.548576,32.6022978 25.548576,33.9213915 24.7349838,34.7349838 C23.9213915,35.548576 22.6022978,35.548576 21.7887055,34.7349838 L17.9585438,30.904822 L17.9585438,30.904822 Z" id="Rectangle-Copy-15"></path>
                <rect id="Rectangle-Copy-11" transform="translate(17.916667, 17.500000) rotate(-45.000000) translate(-17.916667, -17.500000) " x="8.33333333" y="2.5" width="19.1666667" height="30"></rect>
            </g>
            <rect id="Rectangle-Copy-16" fill="#BFB9B9" transform="translate(18.931262, 31.035534) rotate(45.000000) translate(-18.931262, -31.035534) " x="16.431262" y="25.6188672" width="5" height="10.8333333" rx="2.5"></rect>
            <rect id="Rectangle-Copy-17" fill="#BFB9B9" transform="translate(21.582912, 35.454951) rotate(45.000000) translate(-21.582912, -35.454951) " x="19.0829124" y="31.2882846" width="5" height="8.33333333" rx="2.5"></rect>
            <path d="M28.0647246,36.0442069 C29.0410353,37.0205177 29.0410353,38.6034301 28.0647246,39.5797408 L25.707702,41.9367634 C24.7313913,42.9130742 23.1484788,42.9130742 22.1721681,41.9367634 C21.1958574,40.9604527 21.1958574,39.3775403 22.1721681,38.4012295 L24.5291907,36.0442069 C25.5055014,35.0678962 27.0884139,35.0678962 28.0647246,36.0442069 Z" id="Rectangle-Copy-18" fill="#BFB9B9"></path>
            <path d="M30.4217472,40.7582521 C31.3980579,41.7345629 31.3980579,43.3174753 30.4217472,44.2937861 L29.2432359,45.4722974 C28.2669252,46.4486081 26.6840127,46.4486081 25.707702,45.4722974 C24.7313913,44.4959866 24.7313913,42.9130742 25.707702,41.9367634 L26.8862133,40.7582521 C27.862524,39.7819414 29.4454365,39.7819414 30.4217472,40.7582521 Z" id="Rectangle-Copy-19" fill="#BFB9B9"></path>
            <path d="M34.427434,11.2709386 L25.6672464,20.224685 C24.7099154,21.2031686 24.7175511,22.7696114 25.6843757,23.7387156 L32.1895142,30.2591915 L32.1895142,30.2591915 C34.1192642,29.2470505 34.8631334,26.8621766 33.8509924,24.9324265 C33.6505107,24.5501878 33.3886679,24.2034351 33.0758992,23.9059875 L30.4878181,21.4446853 L30.4878181,21.4446853 L32.1895142,19.6525898 C39.8690692,26.9200762 43.7088467,30.5538193 43.7088467,30.5538193 C44.7213746,29.5670484 45.7339024,28.5802775 46.7464303,27.5935065 C47.732494,26.6325266 47.7559113,25.055133 46.7988084,24.0653057 L34.427434,11.2709386 L34.427434,11.2709386 Z" id="Path-12" fill="#BFB9B9"></path>
        </g>
    </g>
</svg>