<?xml version="1.0" encoding="UTF-8"?>
<svg width="60px" height="60px" viewBox="0 0 60 60" version="1.1" xmlns="http://www.w3.org/2000/svg" xmlns:xlink="http://www.w3.org/1999/xlink">
    <title>default</title>
    <g id="default" stroke="none" stroke-width="1" fill="none" fill-rule="evenodd">
        <g id="Group">
            <rect id="Rectangle-Copy-2" fill="#D8D8D8" x="11" y="0" width="38" height="25" rx="6"></rect>
            <rect id="Rectangle-Copy" fill="#E8E8E8" x="6" y="7" width="48" height="32" rx="6"></rect>
            <rect id="Rectangle" fill="#F3F3F3" x="0" y="15" width="60" height="45" rx="6"></rect>
            <path d="M43.9846182,48.9553342 C40.6940196,48.9553342 38.0239339,46.326422 38.0239339,43.0865654 C38.0239339,39.8467088 40.6940196,37.2177965 43.9846182,37.2177965 C47.2752168,37.2177965 49.9453025,39.8467088 49.9453025,43.0865654 C49.9264991,46.326422 47.2564134,48.9553342 43.9846182,48.9553342 L43.9846182,48.9553342 Z M58.2564143,54.4538337 L52.5401745,49.6588459 C51.9572685,49.1404689 51.3179522,48.8997938 50.8102598,48.9183073 C52.1641061,47.3631761 52.9726532,45.3266948 52.9726532,43.1235923 C52.9726532,38.1804968 48.9299178,34.2001015 43.9282079,34.2001015 C38.9264981,34.2001015 34.8837627,38.1990103 34.8837627,43.1235923 C34.8837627,48.0481744 38.9264981,52.0470831 43.9282079,52.0470831 C46.165815,52.0470831 48.2153878,51.251004 49.7948751,49.9180345 C49.7760717,50.4178981 50.0205162,51.0473559 50.5470119,51.6212734 L55.3982944,57.2678806 C56.2256449,58.1750405 57.5794912,58.2490943 58.4256451,57.4345018 C59.2529956,56.6013958 59.1777819,55.2684263 58.2564143,54.4538337 L58.2564143,54.4538337 Z" id="Combined-Shape" fill="#D8D8D8"></path>
            <path d="M36.4256432,51.8804619 C37.89231,53.0653238 39.6410281,53.8984297 41.5777804,54.2131587 L7.18461549,54.2131587 C6.52649577,54.2131587 6,53.6947816 6,53.0468103 C6,52.398839 6.52649577,51.8804619 7.18461549,51.8804619 L36.4256432,51.8804619 Z M13.3777782,41 L13.3777782,41.0185135 C13.7726501,41.0185135 14.0923082,41.3332424 14.0923082,41.7220252 L14.0923082,49.4405038 C14.0923082,49.8292866 13.7726501,50.1440155 13.3777782,50.1440155 L8.71452998,50.1440155 C8.31965815,50.1440155 8,49.8292866 8,49.4405038 L8,41.7035117 C8,41.3147289 8.31965815,41 8.71452998,41 L13.3777782,41 Z M22.0786334,34.8850998 L22.0786334,34.9036132 C22.4735052,34.9036132 22.7931633,35.2183422 22.7931633,35.607125 L22.7931633,49.3256035 C22.7931633,49.7143863 22.4735052,50.0291153 22.0786334,50.0291153 L17.4153851,50.0291153 C17.0205133,50.0291153 16.7008551,49.7143863 16.7008551,49.3256035 L16.7008551,35.5886115 C16.7008551,35.1998287 17.0205133,34.8850998 17.4153851,34.8850998 L22.0786334,34.8850998 Z M31.0478649,21 C31.4427367,21 31.7623949,21.3147289 31.7623949,21.7035117 L31.7623949,49.3256035 C31.7623949,49.7143863 31.4427367,50.0291153 31.0478649,50.0291153 L26.3846166,50.0291153 C25.9897448,50.0291153 25.6700867,49.7143863 25.6700867,49.3256035 L25.6700867,21.7035117 C25.6700867,21.3147289 25.9897448,21 26.3846166,21 L31.0478649,21 Z M40.0170965,28.8126828 C40.4119683,28.8126828 40.7316265,29.1274117 40.7316265,29.5161945 L40.7316265,32.0710529 C38.2871818,32.6634838 36.1623953,34.0890207 34.6393182,36.0329347 L34.6393182,29.5161945 C34.6393182,29.1274117 34.9589764,28.8126828 35.3538482,28.8126828 L40.0170965,28.8126828 Z" id="Combined-Shape" fill="#D8D8D8"></path>
        </g>
    </g>
</svg>