<?xml version="1.0" encoding="UTF-8" standalone="no"?>
<svg width="202px" height="58px" viewBox="0 0 202 58" version="1.1" xmlns="http://www.w3.org/2000/svg" xmlns:xlink="http://www.w3.org/1999/xlink">
    <!-- Generator: Sketch 3.7.2 (28276) - http://www.bohemiancoding.com/sketch -->
    <title>Group 3</title>
    <desc>Created with Sketch.</desc>
    <defs></defs>
    <g id="home" stroke="none" stroke-width="1" fill="none" fill-rule="evenodd">
        <g id="yoolens" transform="translate(-130.000000, -575.000000)" fill="#FFFFFF">
            <g id="Group-3" transform="translate(130.000000, 575.000000)">
                <path d="M124.70988,43.8831896 C122.979489,43.1363154 121.466551,42.120764 120.171022,40.8365049 C118.875493,39.5522457 117.851769,38.0494118 117.099819,36.327958 C116.347869,34.6065042 115.971899,32.7621171 115.971899,30.7947414 C115.971899,28.4448203 116.31616,26.2679882 117.004693,24.2641795 C117.693226,22.2603709 118.662593,20.5298349 119.912824,19.0725195 C121.163054,17.6152041 122.671462,16.4766936 124.438092,15.6569537 C126.204723,14.8372138 128.166106,14.42735 130.322301,14.42735 C132.242945,14.42735 134.000489,14.7643491 135.594986,15.4383575 C137.189483,16.1123658 138.557468,17.0186202 139.698983,18.1571479 C140.840498,19.2956755 141.72833,20.6117937 142.362505,22.1055419 C142.99668,23.5992902 143.313762,25.1658807 143.313762,26.8053605 L121.543551,26.8053605 C121.543551,28.7727363 121.797217,30.5989072 122.304557,32.2839281 C122.811897,33.968949 123.518539,35.4216884 124.424503,36.64219 C125.330467,37.8626917 126.417608,38.8190405 127.685958,39.5112653 C128.954308,40.2034901 130.340412,40.5495973 131.844313,40.5495973 C133.112663,40.5495973 134.326637,40.3446654 135.486271,39.9347955 C136.645905,39.5249255 137.696808,38.9875486 138.63901,38.3226484 C139.581213,37.6577483 140.382979,36.8926692 141.044333,36.0273882 C141.705687,35.1621072 142.362505,34.1010091 142.362505,34.1010091 L144.101947,34.1010091 C143.685204,35.6129738 143.010271,37.0292809 142.077127,38.349973 C141.143984,39.670665 140.056844,40.8228377 138.815673,41.8065256 C137.574502,42.7902134 136.215576,43.5689546 134.738854,44.1427726 C133.262132,44.7165905 131.771844,45.0034952 130.267943,45.0034952 C128.292941,45.0034952 126.440272,44.6300637 124.70988,43.8831896 Z M136.057025,24.4554512 C136.057025,23.3442483 135.862246,22.3104807 135.472681,21.3541175 C135.083117,20.3977543 134.548606,19.5689186 133.869133,18.8675856 C133.18966,18.1662525 132.392423,17.6152134 131.477399,17.2144517 C130.562375,16.81369 129.579419,16.6133121 128.5285,16.6133121 C127.658775,16.6133121 126.82077,16.81369 126.014462,17.2144517 C125.208154,17.6152134 124.492453,18.1616985 123.867338,18.8539233 C123.242222,19.5461481 122.725831,20.3704297 122.318147,21.3267929 C121.910463,22.2831561 121.661326,23.3169237 121.57073,24.4281267 L136.057025,24.4554512 Z" id="Combined-Shape"></path>
                <polygon id="Path" points="110.264353 44.375031 104.475271 44.375031 104.475271 1.66679612 110.264353 0"></polygon>
                <path d="M149.537705,15.0284896 L155.326788,15.0284896 L155.326788,20.3840968 C157.084358,18.3985046 158.914379,16.9093328 160.816903,15.9165367 C162.719428,14.9237406 164.658163,14.42735 166.633165,14.42735 C167.647845,14.42735 168.603622,14.6596061 169.500527,15.1241254 C170.397432,15.5886447 171.176549,16.2216566 171.837903,17.02318 C172.499257,17.8247035 173.024708,18.7673902 173.414273,19.8512685 C173.803837,20.9351468 173.998617,22.0873195 173.998617,23.3078211 L173.998617,44.375031 L168.182356,44.375031 L168.182356,24.2915041 C168.182356,22.3605612 167.747499,20.8941596 166.877774,19.8922553 C166.008048,18.890351 164.893729,18.3894063 163.534783,18.3894063 C162.918727,18.3894063 162.266442,18.4895953 161.57791,18.6899761 C160.889377,18.890357 160.191795,19.1772617 159.485143,19.5506987 C158.778491,19.9241358 158.071849,20.3704319 157.365197,20.8896005 C156.658545,21.4087691 155.979082,21.9871325 155.326788,22.6247079 L155.326788,44.375031 L149.537705,44.375031 L149.537705,15.0284896 Z" id="Path"></path>
                <path d="M192.181228,42.6125991 C192.851641,42.3666771 193.42692,42.0433401 193.907081,41.6425784 C194.387242,41.2418167 194.763211,40.7773044 195.035001,40.2490275 C195.30679,39.7207507 195.442683,39.1833737 195.442683,38.6368805 C195.442683,37.7442748 195.220725,36.9655336 194.776802,36.3006335 C194.33288,35.6357333 193.744012,35.0345998 193.010181,34.4972147 C192.27635,33.9598297 191.438345,33.4725472 190.496143,33.0353525 C189.55394,32.5981579 188.598162,32.1473078 187.62878,31.6827885 C186.659399,31.2182692 185.703621,30.7173246 184.761418,30.1799395 C183.819215,29.6425545 182.981211,29.0232047 182.24738,28.3218717 C181.513549,27.6205387 180.924681,26.8099192 180.480758,25.8899889 C180.036836,24.9700585 179.814878,23.8816425 179.814878,22.6247079 C179.814878,21.4406392 180.064014,20.3476691 180.562295,19.3457648 C181.060575,18.3438605 181.749098,17.4785924 182.627883,16.7499347 C183.506668,16.0212771 184.557571,15.4520218 185.780623,15.0421518 C187.003674,14.6322819 188.339951,14.42735 189.789494,14.42735 C190.749816,14.42735 191.655767,14.4956606 192.507373,14.6322839 C193.35898,14.7689073 194.187924,15.0330417 194.994233,15.4246952 C195.800541,15.8163487 196.606837,16.3673878 197.413145,17.0778291 C198.219453,17.7882703 199.057457,18.7172949 199.927183,19.8649308 L196.424453,19.8649308 C196.424453,19.8649308 195.465338,18.5988988 194.097332,17.7062932 C192.729326,16.8136875 191.266216,16.3673914 189.707958,16.3673914 C188.89259,16.3673914 188.140651,16.4721343 187.452118,16.6816234 C186.763585,16.8911125 186.174717,17.1734631 185.685497,17.5286838 C185.196276,17.8839044 184.815777,18.2983222 184.543988,18.7719497 C184.272198,19.2455772 184.136306,19.7465218 184.136306,20.2747987 C184.136306,21.1491879 184.380912,21.914267 184.870133,22.5700589 C185.359354,23.2258508 186.002579,23.8178763 186.799827,24.3461531 C187.597076,24.8744299 188.503026,25.3617125 189.517706,25.8080153 C190.532386,26.2543181 191.574229,26.7097223 192.643267,27.1742416 C193.712305,27.6387609 194.754148,28.1351515 195.768828,28.6634283 C196.783508,29.1917051 197.689459,29.8065008 198.486707,30.5078338 C199.283956,31.2091669 199.927181,32.0197864 200.416401,32.9397167 C200.905622,33.859647 201.150229,34.929847 201.150229,36.1503486 C201.150229,37.3890666 200.919211,38.5503474 200.457169,39.6342257 C199.995128,40.718104 199.302075,41.6562367 198.377992,42.4486519 C197.453908,43.2410672 196.289762,43.8649709 194.885517,44.320382 C193.481273,44.775793 191.846032,45.0034952 189.979746,45.0034952 C189.128139,45.0034952 188.253897,44.9351845 187.356992,44.7985612 C186.460088,44.6619379 185.554137,44.3978034 184.639113,44.0061499 C183.724089,43.6144964 182.809079,43.0634573 181.894055,42.3530161 C180.979032,41.6425748 180.08667,40.7135502 179.216945,39.5659144 L183.378886,39.5659144 C183.378886,39.5659144 184.929017,41.2372624 185.590371,41.6835652 C186.251725,42.129868 186.940247,42.4577591 187.655959,42.6672481 C188.371671,42.8767372 189.146259,42.9814802 189.979746,42.9814802 C190.776994,42.9814802 191.510814,42.8585211 192.181228,42.6125991 Z" id="Path"></path>
                <path d="M0,15.0558141 L6.60444609,15.0558141 L17.8836442,36.2323222 L27.0700753,15.0558141 L30.1684575,15.0558141 L15.2744803,49.512042 C14.6403053,50.951141 13.9155448,52.1989485 13.100177,53.2555022 C12.2848092,54.3120558 11.4196264,55.1818779 10.5046025,55.8649944 C9.58957868,56.548111 8.65191978,57.0581638 7.69159771,57.3951679 C6.73127565,57.7321721 5.789087,57.9006717 4.8650035,57.9006717 C4.23082855,57.9006717 3.62837139,57.8186989 3.05761393,57.6547509 C2.48685648,57.490803 1.98858363,57.2585468 1.56278045,56.9579755 C1.13697727,56.6574042 0.801775543,56.2976349 0.557165205,55.8786567 C0.312554868,55.4596785 0.190251534,55.0042743 0.190251534,54.5124304 C0.190251534,54.1116687 0.27178709,53.715467 0.434860648,53.3238135 C0.597934207,52.93216 0.828951616,52.5906068 1.12791981,52.2991437 C1.426888,52.0076807 1.78926825,51.7708705 2.21507143,51.588706 C2.64087461,51.4065416 3.11649868,51.3154608 3.64195793,51.3154608 C4.25801359,51.3154608 4.74269718,51.3837714 5.09602322,51.5203947 C5.44934926,51.657018 5.77096174,51.8118555 6.06087028,51.9849117 C6.35077883,52.1579679 6.65880204,52.3128053 6.98494916,52.4494286 C7.31109628,52.5860519 7.75501208,52.6543626 8.3167099,52.6543626 C8.91464628,52.6543626 9.44915715,52.481309 9.92025854,52.1351966 C10.3913599,51.7890842 10.8171567,51.3564502 11.1976617,50.8372816 C11.5781667,50.318113 11.9133684,49.7488577 12.2032769,49.1294987 C12.4931855,48.5101396 12.7559112,47.9363303 12.9914619,47.4080535 L14.9483348,43.0088047 L0,15.0558141 Z" id="yoolens"></path>
                <path d="M63.7342028,30.3137815 C64.4794785,30.3137815 64.371088,27.6276076 63.7342028,27.6276076 C60.9642506,27.6276076 56.5117069,29.053571 56.5117069,29.053571 C56.5117069,29.053571 60.9642506,30.3137815 63.7342028,30.3137815 Z M62.9532828,33.9238377 C63.6764207,34.1041363 64.2210941,31.4715312 63.6031271,31.3174547 C60.9154543,30.6473426 56.2501984,30.9537811 56.2501984,30.9537811 C56.2501984,30.9537811 60.26561,33.2537257 62.9532828,33.9238377 Z M61.2594685,37.2701341 C61.9113013,37.631451 63.1187837,35.2295216 62.5617514,34.9207535 C60.1390966,33.577854 55.5534933,32.6663937 55.5534933,32.6663937 C55.5534933,32.6663937 58.8368137,35.9272346 61.2594685,37.2701341 Z M58.8428264,40.0537703 C59.3878866,40.5620471 61.1405809,38.5235818 60.6747926,38.0892271 C58.6489778,36.2001242 54.4200887,34.2063804 54.4200887,34.2063804 C54.4200887,34.2063804 56.8170116,38.1646674 58.8428264,40.0537703 Z M55.7533794,42.1638705 C56.1483154,42.7959002 58.3688818,41.2805245 58.031384,40.7404152 C56.563533,38.3913625 52.9947587,35.3710368 52.9947587,35.3710368 C52.9947587,35.3710368 54.2855283,39.8148178 55.7533794,42.1638705 Z M52.3013739,43.4308715 C52.5316767,44.1396709 55.0528854,43.206512 54.856077,42.6007981 C54.0001147,39.966417 51.2680312,36.1724433 51.2680312,36.1724433 C51.2680312,36.1724433 51.4454116,40.7964904 52.3013739,43.4308715 Z M48.6434318,43.8016261 C48.6954196,44.5450864 51.3674891,44.2495819 51.3230623,43.6142481 C51.1298402,40.8510433 49.3967566,36.508816 49.3967566,36.508816 C49.3967566,36.508816 48.4502097,41.0384213 48.6434318,43.8016261 Z M44.9531884,43.2185629 C44.8109831,43.9501458 47.4684862,44.3562928 47.5900097,43.731109 C48.1185415,41.0120486 47.5683624,36.369224 47.5683624,36.369224 C47.5683624,36.369224 45.4817202,40.4995025 44.9531884,43.2185629 Z M41.5726626,41.770471 C41.2576955,42.4459203 43.7380036,43.4829112 44.0071629,42.9056972 C45.1777953,40.3952679 45.7671598,35.7572547 45.7671598,35.7572547 C45.7671598,35.7572547 42.743295,39.2600418 41.5726626,41.770471 Z M38.6219037,39.4712859 C38.1428497,40.0422002 40.2702503,41.6858075 40.6796322,41.1979252 C42.4601232,39.0760187 44.2298117,34.7485807 44.2298117,34.7485807 C44.2298117,34.7485807 40.4023946,37.3493794 38.6219037,39.4712859 Z M36.3573712,36.5644885 C35.7544305,37.0025506 37.4210137,39.1120005 37.9362646,38.7376488 C40.177203,37.1095117 42.9412263,33.3387435 42.9412263,33.3387435 C42.9412263,33.3387435 38.5983096,34.9363514 36.3573712,36.5644885 Z M34.8775587,33.1835711 C34.186551,33.4627563 35.2933074,35.9127295 35.8838171,35.6741481 C38.4520721,34.6365058 42.0462234,31.6464233 42.0462234,31.6464233 C42.0462234,31.6464233 37.4458136,32.1459287 34.8775587,33.1835711 Z M34.2906772,29.4769218 C33.5509566,29.5677481 33.9859015,32.2206902 34.6180394,32.1430734 C37.3673448,31.8055011 41.6129187,29.847538 41.6129187,29.847538 C41.6129187,29.847538 37.0399826,29.1393496 34.2906772,29.4769218 Z M34.6180394,25.7983157 C33.8783188,25.7074894 33.6585392,28.3868504 34.2906772,28.4644672 C37.0399826,28.8020395 41.6331189,27.9293335 41.6331189,27.9293335 C41.6331189,27.9293335 37.3673448,26.135888 34.6180394,25.7983157 Z M35.8838171,22.2672409 C35.1928095,21.9880557 34.287049,24.5192366 34.8775587,24.757818 C37.4458136,25.7954603 42.1083156,26.1412823 42.1083156,26.1412823 C42.1083156,26.1412823 38.4520721,23.3048833 35.8838171,22.2672409 Z M37.9362646,19.2037403 C37.3333239,18.7656782 35.8421203,21.0025489 36.3573712,21.3769006 C38.5983096,23.0050377 43.0386534,24.4685485 43.0386534,24.4685485 C43.0386534,24.4685485 40.177203,20.8318774 37.9362646,19.2037403 Z M40.6796322,16.7434639 C40.2005782,16.1725496 38.2125218,17.9822208 38.6219037,18.4701032 C40.4023946,20.5920097 44.3567859,23.0862644 44.3567859,23.0862644 C44.3567859,23.0862644 42.4601232,18.8653704 40.6796322,16.7434639 Z M44.0071629,15.0356919 C43.6921958,14.3602427 41.3035033,15.593704 41.5726626,16.170918 C42.743295,18.6813473 45.9173831,22.1140841 45.9173831,22.1140841 C45.9173831,22.1140841 45.1777953,17.5461212 44.0071629,15.0356919 Z M47.5900097,14.2102801 C47.4478044,13.4786972 44.831665,14.0976424 44.9531884,14.7228262 C45.4817202,17.4418866 47.7310701,21.5405379 47.7310701,21.5405379 C47.7310701,21.5405379 48.1185415,16.9293405 47.5900097,14.2102801 Z M51.3230623,14.327141 C51.3750501,13.5836807 48.6878587,13.5044292 48.6434318,14.139763 C48.4502097,16.9029677 49.5621058,21.4441355 49.5621058,21.4441355 C49.5621058,21.4441355 51.1298402,17.0903458 51.3230623,14.327141 Z M54.856077,15.3405909 C55.0863799,14.6317916 52.4981822,13.9048037 52.3013739,14.5105176 C51.4454116,17.1448987 51.4256717,21.8201663 51.4256717,21.8201663 C51.4256717,21.8201663 54.0001147,17.974972 54.856077,15.3405909 Z M58.031384,17.2009738 C58.42632,16.5689442 56.0908771,15.2374093 55.7533794,15.7775186 C54.2855283,18.1265713 53.1353252,22.658188 53.1353252,22.658188 C53.1353252,22.658188 56.563533,19.5500266 58.031384,17.2009738 Z M60.6747926,19.852162 C61.2198527,19.3438851 59.3086148,17.4532641 58.8428264,17.8876188 C56.8170116,19.7767217 54.533132,23.8562328 54.533132,23.8562328 C54.533132,23.8562328 58.6489778,21.7412648 60.6747926,19.852162 Z M62.5617514,23.0206356 C63.2135843,22.6593187 61.8165008,20.3624869 61.2594685,20.671255 C58.8368137,22.0141544 55.633852,25.4199662 55.633852,25.4199662 C55.633852,25.4199662 60.1390966,24.363535 62.5617514,23.0206356 Z M63.6031271,26.6239343 C64.326265,26.4436358 63.5712498,23.8634749 62.9532828,24.0175513 C60.26561,24.6876634 56.2902977,27.1484375 56.2902977,27.1484375 C56.2902977,27.1484375 60.9154543,27.2940464 63.6031271,26.6239343 Z" id="Oval-37"></path>
                <path d="M97.8190529,30.8505478 C98.5643287,30.8505478 98.4559381,28.164374 97.8190529,28.164374 C95.0491007,28.164374 90.596557,29.5903374 90.596557,29.5903374 C90.596557,29.5903374 95.0491007,30.8505478 97.8190529,30.8505478 Z M97.038133,34.4606041 C97.7612708,34.6409026 98.3059442,32.0082976 97.6879772,31.8542211 C95.0003044,31.184109 90.3350485,31.4905474 90.3350485,31.4905474 C90.3350485,31.4905474 94.3504602,33.790492 97.038133,34.4606041 Z M95.3443186,37.8069005 C95.9961515,38.1682173 97.2036339,35.7662879 96.6466015,35.4575199 C94.2239467,34.1146204 89.6383435,33.2031601 89.6383435,33.2031601 C89.6383435,33.2031601 92.9216638,36.464001 95.3443186,37.8069005 Z M92.9276766,40.5905367 C93.4727367,41.0988135 95.2254311,39.0603481 94.7596427,38.6259935 C92.7338279,36.7368906 88.5049389,34.7431467 88.5049389,34.7431467 C88.5049389,34.7431467 90.9018617,38.7014338 92.9276766,40.5905367 Z M89.8382295,42.7006369 C90.2331655,43.3326665 92.4537319,41.8172909 92.1162342,41.2771816 C90.6483831,38.9281289 87.0796089,35.9078032 87.0796089,35.9078032 C87.0796089,35.9078032 88.3703785,40.3515842 89.8382295,42.7006369 Z M86.386224,43.9676379 C86.6165269,44.6764372 89.1377355,43.7432783 88.9409272,43.1375645 C88.0849649,40.5031834 85.3528814,36.7092096 85.3528814,36.7092096 C85.3528814,36.7092096 85.5302617,41.3332568 86.386224,43.9676379 Z M82.7282819,44.3383924 C82.7802697,45.0818527 85.4523393,44.7863482 85.4079124,44.1510144 C85.2146903,41.3878097 83.4816067,37.0455823 83.4816067,37.0455823 C83.4816067,37.0455823 82.5350598,41.5751877 82.7282819,44.3383924 Z M79.0380385,43.7553292 C78.8958332,44.4869121 81.5533364,44.8930592 81.6748598,44.2678753 C82.2033916,41.5488149 81.6532125,36.9059904 81.6532125,36.9059904 C81.6532125,36.9059904 79.5665703,41.0362688 79.0380385,43.7553292 Z M75.6575128,42.3072374 C75.3425456,42.9826866 77.8228537,44.0196775 78.0920131,43.4424635 C79.2626454,40.9320343 79.85201,36.294021 79.85201,36.294021 C79.85201,36.294021 76.8281452,39.7968081 75.6575128,42.3072374 Z M72.7067538,40.0080523 C72.2276998,40.5789666 74.3551004,42.2225739 74.7644824,41.7346915 C76.5449733,39.612785 78.3146619,35.285347 78.3146619,35.285347 C78.3146619,35.285347 74.4872448,37.8861458 72.7067538,40.0080523 Z M70.4422214,37.1012548 C69.8392806,37.5393169 71.5058638,39.6487668 72.0211147,39.2744151 C74.2620532,37.646278 77.0260764,33.8755099 77.0260764,33.8755099 C77.0260764,33.8755099 72.6831598,35.4731177 70.4422214,37.1012548 Z M68.9624088,33.7203375 C68.2714012,33.9995227 69.3781576,36.4494959 69.9686672,36.2109145 C72.5369222,35.1732721 76.1310735,32.1831896 76.1310735,32.1831896 C76.1310735,32.1831896 71.5306638,32.6826951 68.9624088,33.7203375 Z M68.3755273,30.0136882 C67.6358067,30.1045145 68.0707516,32.7574565 68.7028896,32.6798397 C71.452195,32.3422675 75.6977689,30.3843044 75.6977689,30.3843044 C75.6977689,30.3843044 71.1248327,29.6761159 68.3755273,30.0136882 Z M68.7028896,26.3350821 C67.963169,26.2442558 67.7433894,28.9236168 68.3755273,29.0012336 C71.1248327,29.3388058 75.7179691,28.4660999 75.7179691,28.4660999 C75.7179691,28.4660999 71.452195,26.6726543 68.7028896,26.3350821 Z M69.9686672,22.8040073 C69.2776596,22.5248221 68.3718991,25.0560029 68.9624088,25.2945843 C71.5306638,26.3322267 76.1931657,26.6780486 76.1931657,26.6780486 C76.1931657,26.6780486 72.5369222,23.8416497 69.9686672,22.8040073 Z M72.0211147,19.7405067 C71.418174,19.3024446 69.9269704,21.5393152 70.4422214,21.913667 C72.6831598,23.541804 77.1235036,25.0053149 77.1235036,25.0053149 C77.1235036,25.0053149 74.2620532,21.3686437 72.0211147,19.7405067 Z M74.7644824,17.2802303 C74.2854283,16.7093159 72.2973719,18.5189872 72.7067538,19.0068695 C74.4872448,21.128776 78.4416361,23.6230308 78.4416361,23.6230308 C78.4416361,23.6230308 76.5449733,19.4021368 74.7644824,17.2802303 Z M78.0920131,15.5724583 C77.7770459,14.8970091 75.3883535,16.1304704 75.6575128,16.7076844 C76.8281452,19.2181137 80.0022332,22.6508505 80.0022332,22.6508505 C80.0022332,22.6508505 79.2626454,18.0828875 78.0920131,15.5724583 Z M81.6748598,14.7470464 C81.5326545,14.0154635 78.9165151,14.6344088 79.0380385,15.2595926 C79.5665703,17.978653 81.8159202,22.0773043 81.8159202,22.0773043 C81.8159202,22.0773043 82.2033916,17.4661068 81.6748598,14.7470464 Z M85.4079124,14.8639074 C85.4599002,14.1204471 82.7727088,14.0411956 82.7282819,14.6765293 C82.5350598,17.4397341 83.6469559,21.9809018 83.6469559,21.9809018 C83.6469559,21.9809018 85.2146903,17.6271121 85.4079124,14.8639074 Z M88.9409272,15.8773573 C89.17123,15.1685579 86.5830324,14.4415701 86.386224,15.0472839 C85.5302617,17.681665 85.5105218,22.3569327 85.5105218,22.3569327 C85.5105218,22.3569327 88.0849649,18.5117384 88.9409272,15.8773573 Z M92.1162342,17.7377402 C92.5111701,17.1057105 90.1757273,15.7741756 89.8382295,16.3142849 C88.3703785,18.6633376 87.2201754,23.1949543 87.2201754,23.1949543 C87.2201754,23.1949543 90.6483831,20.0867929 92.1162342,17.7377402 Z M94.7596427,20.3889283 C95.3047029,19.8806515 93.3934649,17.9900305 92.9276766,18.4243851 C90.9018617,20.313488 88.6179821,24.3929991 88.6179821,24.3929991 C88.6179821,24.3929991 92.7338279,22.2780312 94.7596427,20.3889283 Z M96.6466015,23.5574019 C97.2984344,23.1960851 95.901351,20.8992532 95.3443186,21.2080213 C92.9216638,22.5509208 89.7187021,25.9567325 89.7187021,25.9567325 C89.7187021,25.9567325 94.2239467,24.9003014 96.6466015,23.5574019 Z M97.6879772,27.1607007 C98.4111151,26.9804022 97.6561,24.4002412 97.038133,24.5543177 C94.3504602,25.2244298 90.3751478,27.6852038 90.3751478,27.6852038 C90.3751478,27.6852038 95.0003044,27.8308128 97.6879772,27.1607007 Z" id="Oval-37-Copy"></path>
            </g>
        </g>
    </g>
</svg>