<?xml version="1.0" encoding="UTF-8" standalone="no"?>
<svg width="213px" height="36px" viewBox="0 0 213 36" version="1.1" xmlns="http://www.w3.org/2000/svg" xmlns:xlink="http://www.w3.org/1999/xlink">
    <!-- Generator: Sketch 3.8.1 (29687) - http://www.bohemiancoding.com/sketch -->
    <title>Group</title>
    <desc>Created with Sketch.</desc>
    <defs></defs>
    <g id="Page-1" stroke="none" stroke-width="1" fill="none" fill-rule="evenodd">
        <g id="Group" fill="#2E8DBE">
            <path d="M77.4437449,27.2378418 C76.3691868,26.7742648 75.4296658,26.1439225 74.6251538,25.3467961 C73.8206417,24.5496697 73.1849179,23.6168763 72.7179634,22.5483877 C72.2510088,21.4798992 72.017535,20.3351072 72.017535,19.1139774 C72.017535,17.6554057 72.2313182,16.3042685 72.6588911,15.0605252 C73.0864639,13.8167819 73.6884325,12.7426561 74.4648147,11.8381156 C75.241197,10.933575 76.1779051,10.2269133 77.274967,9.71810919 C78.3720289,9.20930511 79.5900306,8.95490689 80.9290088,8.95490689 C82.121712,8.95490689 83.2131316,9.16407876 84.2033003,9.58242878 C85.193469,10.0007788 86.042976,10.5632815 86.7518467,11.2699538 C87.4607175,11.9766262 88.0120532,12.7935271 88.4058703,13.7206812 C88.7996874,14.6478353 88.996593,15.6202018 88.996593,16.63781 L75.4774822,16.63781 C75.4774822,17.8589397 75.6350067,18.9924251 75.9500604,20.0383002 C76.265114,21.0841752 76.7039322,21.9858756 77.2665281,22.7434283 C77.8291239,23.500981 78.5042288,24.0945769 79.291863,24.5242337 C80.0794972,24.9538904 80.940256,25.1687156 81.8741651,25.1687156 C82.6617993,25.1687156 83.4156664,25.0415165 84.1357891,24.7871144 C84.8559118,24.5327124 85.5085132,24.1991681 86.0936129,23.7864714 C86.6787126,23.3737748 87.1766024,22.8988981 87.5872974,22.3618272 C87.9979924,21.8247562 88.4058703,21.1661436 88.4058703,21.1661436 L89.4860489,21.1661436 C89.2272548,22.1046044 88.8081272,22.9836916 88.2286535,23.8034315 C87.6491797,24.6231714 86.9740748,25.338313 86.2033185,25.9488779 C85.4325622,26.5594428 84.5886811,27.0427994 83.6716498,27.3989623 C82.7546186,27.7551251 81.8291623,27.9332039 80.8952532,27.9332039 C79.6687942,27.9332039 78.518303,27.7014188 77.4437449,27.2378418 Z M84.4902227,15.1792456 C84.4902227,14.4895334 84.3692664,13.8478846 84.1273502,13.2542798 C83.885434,12.6606751 83.5535074,12.1462253 83.1315605,11.7109152 C82.7096136,11.275605 82.2145367,10.9335807 81.6463149,10.6848321 C81.0780931,10.4360834 80.4676857,10.311711 79.8150745,10.311711 C79.2749825,10.311711 78.7545892,10.4360834 78.2538789,10.6848321 C77.7531686,10.9335807 77.3087245,11.2727784 76.9205334,11.7024351 C76.5323422,12.1320919 76.2116674,12.643715 75.9584993,13.2373198 C75.7053311,13.8309245 75.5506196,14.4725734 75.49436,15.1622855 L84.4902227,15.1792456 Z" id="Combined-Shape"></path>
            <polygon id="Path" points="68.4731989 27.5431227 64.8782293 27.5431227 64.8782293 1.03456311 68.4731989 0"></polygon>
            <path d="M92.8616071,9.32802801 L96.4565767,9.32802801 L96.4565767,12.652198 C97.5480126,11.4197615 98.6844392,10.4954479 99.8658905,9.87922967 C101.047342,9.26301141 102.251279,8.95490689 103.477738,8.95490689 C104.107845,8.95490689 104.701375,9.09906589 105.258345,9.38738819 C105.815315,9.6757105 106.29914,10.0686144 106.709835,10.5661117 C107.12053,11.063609 107.44683,11.648725 107.688747,12.321477 C107.930663,12.9942291 108.051619,13.7093707 108.051619,14.4669234 L108.051619,27.5431227 L104.439772,27.5431227 L104.439772,15.0774853 C104.439772,13.878969 104.16973,12.9687887 103.629638,12.3469171 C103.089546,11.7250454 102.397563,11.4141143 101.55367,11.4141143 C101.171104,11.4141143 100.766041,11.4763005 100.338469,11.6006748 C99.9108958,11.7250492 99.4777035,11.9031279 99.0388787,12.1349164 C98.6000539,12.366705 98.1612358,12.6437164 97.722411,12.9659589 C97.2835862,13.2882015 96.8616457,13.6471857 96.4565767,14.0429222 L96.4565767,27.5431227 L92.8616071,27.5431227 L92.8616071,9.32802801 Z" id="Path"></path>
            <path d="M119.342862,26.4491994 C119.759182,26.2965582 120.116425,26.0958663 120.414601,25.8471176 C120.712777,25.598369 120.946251,25.310051 121.11503,24.982155 C121.283808,24.6542591 121.368196,24.3207147 121.368196,23.981512 C121.368196,23.4274809 121.230363,22.9441243 120.954691,22.5314277 C120.679019,22.118731 120.313337,21.7456136 119.857634,21.4120643 C119.401932,21.078515 118.881538,20.7760638 118.296438,20.5047016 C117.711339,20.2333394 117.117809,19.9535014 116.515831,19.6651791 C115.913854,19.3768568 115.320324,19.0659256 114.735225,18.7323763 C114.150125,18.3988269 113.629731,18.0144029 113.174029,17.5790928 C112.718326,17.1437826 112.352644,16.6406395 112.076972,16.0696483 C111.8013,15.498657 111.663467,14.8230884 111.663467,14.0429222 C111.663467,13.307983 111.818178,12.6295877 112.127606,12.0077161 C112.437034,11.3858444 112.8646,10.8487815 113.410318,10.3965112 C113.956036,9.94424094 114.608637,9.59091008 115.368142,9.33650804 C116.127646,9.082106 116.957463,8.95490689 117.857616,8.95490689 C118.453967,8.95490689 119.016555,8.9973066 119.545395,9.08210728 C120.074235,9.16690796 120.589003,9.33085347 121.089713,9.57394875 C121.590423,9.81704403 122.091126,10.1590683 122.591836,10.6000318 C123.092547,11.0409954 123.61294,11.6176313 124.153032,12.329957 L121.977867,12.329957 C121.977867,12.329957 121.382266,11.5441441 120.532746,10.990113 C119.683226,10.4360819 118.774647,10.1590705 117.806983,10.1590705 C117.300646,10.1590705 116.833699,10.2240834 116.406126,10.3541111 C115.978553,10.4841388 115.612871,10.6593909 115.309069,10.8798727 C115.005268,11.1003544 114.768981,11.3575793 114.600202,11.651555 C114.431423,11.9455307 114.347035,12.2564618 114.347035,12.5843578 C114.347035,13.1270821 114.498934,13.6019588 114.802736,14.0090021 C115.106537,14.4160453 115.505975,14.7835094 116.001059,15.1114054 C116.496143,15.4393013 117.058731,15.7417526 117.688838,16.0187681 C118.318945,16.2957837 118.965921,16.5784483 119.629784,16.8667707 C120.293647,17.155093 120.940623,17.4631975 121.57073,17.7910934 C122.200837,18.1189894 122.763425,18.5005867 123.258509,18.9358969 C123.753593,19.371207 124.15303,19.8743502 124.456832,20.4453414 C124.760634,21.0163326 124.912533,21.6805947 124.912533,22.4381474 C124.912533,23.2070069 124.769073,23.9278018 124.482149,24.6005539 C124.195225,25.2733059 123.764846,25.8555952 123.190998,26.3474391 C122.61715,26.8392831 121.894225,27.2265337 121.022202,27.5092026 C120.150178,27.7918715 119.134708,27.9332039 117.97576,27.9332039 C117.44692,27.9332039 116.904023,27.8908042 116.347054,27.8060035 C115.790084,27.7212028 115.227496,27.5572573 114.659274,27.314162 C114.091053,27.0710668 113.522839,26.7290425 112.954618,26.288079 C112.386396,25.8471154 111.832247,25.2704795 111.292155,24.5581538 L113.876684,24.5581538 C113.876684,24.5581538 114.839302,25.5955422 115.249997,25.8725577 C115.660692,26.1495733 116.088259,26.3530918 116.532709,26.4831195 C116.97716,26.6131472 117.458172,26.6781601 117.97576,26.6781601 C118.470845,26.6781601 118.926541,26.6018407 119.342862,26.4491994 Z" id="Path"></path>
            <path d="M0,9.34498807 L4.10130326,9.34498807 L11.1055866,22.4890275 L16.81028,9.34498807 L18.7343482,9.34498807 L9.48531865,30.7316123 C9.09150155,31.6248461 8.64143162,32.3993474 8.13509535,33.0551393 C7.62875909,33.7109312 7.09148811,34.2508207 6.5232663,34.6748241 C5.95504448,35.0988275 5.37276651,35.415412 4.77641491,35.624587 C4.1800633,35.833762 3.59497239,35.9383479 3.02112462,35.9383479 C2.62730753,35.9383479 2.2531869,35.8874683 1.89875151,35.7857075 C1.54431612,35.6839467 1.23489304,35.5397877 0.970472994,35.3532262 C0.706052943,35.1666647 0.4978956,34.9433596 0.345994719,34.6833042 C0.194093839,34.4232488 0.118144538,34.1405841 0.118144538,33.8353016 C0.118144538,33.586553 0.168777406,33.3406347 0.270044659,33.0975394 C0.371311913,32.8544441 0.514771703,32.6424456 0.700428334,32.4615375 C0.886084966,32.2806294 1.11111993,32.1336437 1.37553998,32.0205762 C1.63996003,31.9075086 1.93531843,31.8509757 2.26162402,31.8509757 C2.6441892,31.8509757 2.94517347,31.8933754 3.16458585,31.978176 C3.38399823,32.0629767 3.58371676,32.1590827 3.76374744,32.2664969 C3.94377811,32.3739111 4.13505783,32.4700171 4.33759234,32.5548178 C4.54012684,32.6396185 4.81579468,32.6820182 5.1646041,32.6820182 C5.53591737,32.6820182 5.86784394,32.5746056 6.16039379,32.3597772 C6.45294363,32.1449488 6.71735971,31.8764173 6.95364997,31.5541748 C7.18994023,31.2319322 7.39809757,30.8786013 7.57812825,30.4941716 C7.75815892,30.1097418 7.92130927,29.7535843 8.06758419,29.4256884 L9.28278516,26.6951202 L0,9.34498807 Z" id="yoolens"></path>
            <path d="M39.5783825,18.8154506 C40.0411922,18.8154506 39.9738826,17.1481702 39.5783825,17.1481702 C37.8582664,17.1481702 35.0932757,18.033251 35.0932757,18.033251 C35.0932757,18.033251 37.8582664,18.8154506 39.5783825,18.8154506 Z M39.093536,21.0564197 C39.5425983,21.1683835 39.8806397,19.5343449 39.4968876,19.4386647 C37.8278663,19.022531 34.9308873,19.2124093 34.9308873,19.2124093 C34.9308873,19.2124093 37.4245147,20.640286 39.093536,21.0564197 Z M38.0417905,23.1336768 C38.446573,23.3580514 39.1960163,21.8671828 38.8501041,21.6754405 C37.3456566,20.8415117 34.4982456,20.2751267 34.4982456,20.2751267 C34.4982456,20.2751267 36.5373431,22.2997479 38.0417905,23.1336768 Z M36.5411568,24.8616503 C36.8796344,25.1772858 37.9674897,23.9120091 37.6782392,23.6422786 C36.420226,22.4691623 33.7944162,21.2307503 33.7944162,21.2307503 C33.7944162,21.2307503 35.2831435,23.6885339 36.5411568,24.8616503 Z M34.6227045,26.1715355 C34.8679563,26.5640204 36.2462215,25.6234147 36.0366384,25.2880115 C35.1251157,23.8292704 32.9093028,21.9534466 32.9093028,21.9534466 C32.9093028,21.9534466 33.7111818,24.7127943 34.6227045,26.1715355 Z M32.479081,26.9580541 C32.622097,27.3982123 34.1869751,26.8189791 34.0647588,26.4428361 C33.5332137,24.8069085 31.8370228,22.450751 31.8370228,22.450751 C31.8370228,22.450751 31.9475359,25.3221264 32.479081,26.9580541 Z M30.2075498,27.1882246 C30.2398337,27.6499069 31.8983574,27.4664577 31.8707687,27.071921 C31.7507795,25.355995 30.6749787,22.6594798 30.6749787,22.6594798 C30.6749787,22.6594798 30.0875605,25.4722986 30.2075498,27.1882246 Z M27.9159344,26.8263072 C27.8276262,27.2806138 29.4771172,27.5326729 29.5525821,27.1444393 C29.8807958,25.4559265 29.5395615,22.5728551 29.5395615,22.5728551 C29.5395615,22.5728551 28.2441481,25.1377944 27.9159344,26.8263072 Z M25.816627,25.9274154 C25.6210352,26.3468635 27.1605506,26.9904834 27.3276961,26.6320385 C28.0546486,25.0730839 28.4210286,22.1931 28.4210286,22.1931 C28.4210286,22.1931 26.5435795,24.3684608 25.816627,25.9274154 Z M23.9841747,24.5001932 C23.6866863,24.854726 25.0071629,25.874871 25.2613855,25.5719003 C26.3670548,24.254215 27.4663454,21.5671903 27.4663454,21.5671903 C27.4663454,21.5671903 25.089844,23.1825078 23.9841747,24.5001932 Z M22.5778476,22.6957939 C22.2034267,22.9678266 23.2378841,24.2771212 23.5578504,24.044652 C24.9494536,23.0335931 26.6661406,20.692327 26.6661406,20.692327 C26.6661406,20.692327 23.9694508,21.684735 22.5778476,22.6957939 Z M21.6588106,20.597078 C21.2297009,20.7704496 21.9166835,22.2911103 22.2833848,22.1429534 C23.8782487,21.4985866 26.1103463,19.6421702 26.1103463,19.6421702 C26.1103463,19.6421702 23.2536745,19.9527112 21.6588106,20.597078 Z M21.29426,18.2961437 C20.8349,18.352546 21.1048982,19.9991957 21.4974503,19.9509963 C23.2047449,19.7413669 25.8412616,18.5259158 25.8412616,18.5259158 C25.8412616,18.5259158 23.0015546,18.0865142 21.29426,18.2961437 Z M21.4974503,16.0126245 C21.0380903,15.9562222 20.9017078,17.6192778 21.29426,17.6674772 C23.0015546,17.8771066 25.8537997,17.3355907 25.8537997,17.3355907 C25.8537997,17.3355907 23.2047449,16.2222539 21.4974503,16.0126245 Z M22.2833848,13.8206674 C21.8542751,13.6472958 21.2921093,15.2183859 21.6588106,15.3665428 C23.2536745,16.0109097 26.1488863,16.2260608 26.1488863,16.2260608 C26.1488863,16.2260608 23.8782487,14.4650343 22.2833848,13.8206674 Z M23.5578504,11.9189688 C23.1834295,11.6469361 22.2578813,13.0353578 22.5778476,13.2678269 C23.9694508,14.2788858 26.7266127,15.1880612 26.7266127,15.1880612 C26.7266127,15.1880612 24.9494536,12.9300277 23.5578504,11.9189688 Z M25.2613855,10.3917205 C24.9638972,10.0371877 23.7299521,11.1604569 23.9841747,11.4634276 C25.089844,12.781113 27.5451569,14.3302998 27.5451569,14.3302998 C27.5451569,14.3302998 26.3670548,11.7094058 25.2613855,10.3917205 Z M27.3276961,9.33158227 C27.1321043,8.91213422 25.6494814,9.67776053 25.816627,10.0362054 C26.5435795,11.59516 28.5142706,13.7270413 28.5142706,13.7270413 C28.5142706,13.7270413 28.0546486,10.8905369 27.3276961,9.33158227 Z M29.5525821,8.81918155 C29.4642739,8.36487495 27.8404695,8.74907995 27.9159344,9.13731364 C28.2441481,10.8258264 29.6405525,13.371135 29.6405525,13.371135 C29.6405525,13.371135 29.8807958,10.5076943 29.5525821,8.81918155 Z M31.8707687,8.8916998 C31.9030527,8.43001747 30.2351385,8.38085949 30.2075498,8.77539621 C30.0875605,10.4913222 30.7776093,13.3113176 30.7776093,13.3113176 C30.7776093,13.3113176 31.7507795,10.6076258 31.8707687,8.8916998 Z M34.0647588,9.52078471 C34.2077749,9.08062651 32.6012972,8.62942377 32.479081,9.00556675 C31.9475359,10.6414944 31.9348686,13.5446618 31.9348686,13.5446618 C31.9348686,13.5446618 33.5332137,11.1567123 34.0647588,9.52078471 Z M36.0366384,10.6756093 C36.2818902,10.2831244 34.8322876,9.45668216 34.6227045,9.79208529 C33.7111818,11.2508265 32.996551,14.0646929 32.996551,14.0646929 C32.996551,14.0646929 35.1251157,12.1343504 36.0366384,10.6756093 Z M37.6782392,12.3213422 C38.0167168,12.0057067 36.8304073,10.8322401 36.5411568,11.1019705 C35.2831435,12.2750869 33.864581,14.8081131 33.864581,14.8081131 C33.864581,14.8081131 36.420226,13.4944585 37.6782392,12.3213422 Z M38.8501041,14.2881803 C39.2548865,14.0638057 38.3877027,12.6382018 38.0417905,12.829944 C36.5373431,13.6638729 34.5481234,15.778476 34.5481234,15.778476 C34.5481234,15.778476 37.3456566,15.1221091 38.8501041,14.2881803 Z M39.4968876,16.5249561 C39.9459499,16.4129923 39.4772881,14.811521 39.093536,14.9072011 C37.4245147,15.3233349 34.9557765,16.8510367 34.9557765,16.8510367 C34.9557765,16.8510367 37.8278663,16.9410898 39.4968876,16.5249561 Z" id="Oval-37"></path>
            <path d="M60.7447763,19.1486159 C61.207586,19.1486159 61.1402765,17.4813356 60.7447763,17.4813356 C59.0246602,17.4813356 56.2596695,18.3664163 56.2596695,18.3664163 C56.2596695,18.3664163 59.0246602,19.1486159 60.7447763,19.1486159 Z M60.2599298,21.389585 C60.7089921,21.5015488 61.0470335,19.8675102 60.6632815,19.7718301 C58.9942602,19.3556963 56.0972811,19.5455746 56.0972811,19.5455746 C56.0972811,19.5455746 58.5909085,20.9734513 60.2599298,21.389585 Z M59.2081843,23.4668421 C59.6129668,23.6912167 60.3624101,22.2003481 60.0164979,22.0086059 C58.5120504,21.174677 55.6646394,20.608292 55.6646394,20.608292 C55.6646394,20.608292 57.7037369,22.6329133 59.2081843,23.4668421 Z M57.7075506,25.1948156 C58.0460282,25.5104511 59.1338836,24.2451744 58.8446331,23.975444 C57.5866198,22.8023276 54.96081,21.5639156 54.96081,21.5639156 C54.96081,21.5639156 56.4495373,24.0216992 57.7075506,25.1948156 Z M55.7890983,26.5047008 C56.0343501,26.8971857 57.4126154,25.95658 57.2030322,25.6211769 C56.2915095,24.1624357 54.0756967,22.2866119 54.0756967,22.2866119 C54.0756967,22.2866119 54.8775756,25.0459596 55.7890983,26.5047008 Z M53.6454748,27.2912194 C53.7884909,27.7313776 55.3533689,27.1521444 55.2311526,26.7760014 C54.6996075,25.1400738 53.0034166,22.7839164 53.0034166,22.7839164 C53.0034166,22.7839164 53.1139297,25.6552917 53.6454748,27.2912194 Z M51.3739436,27.5213899 C51.4062276,27.9830723 53.0647512,27.799623 53.0371625,27.4050863 C52.9171733,25.6891603 51.8413725,22.9926451 51.8413725,22.9926451 C51.8413725,22.9926451 51.2539544,25.8054639 51.3739436,27.5213899 Z M49.0823283,27.1594725 C48.99402,27.6137791 50.643511,27.8658383 50.718976,27.4776046 C51.0471896,25.7890918 50.7059553,22.9060205 50.7059553,22.9060205 C50.7059553,22.9060205 49.4105419,25.4709598 49.0823283,27.1594725 Z M46.9830208,26.2605807 C46.787429,26.6800288 48.3269444,27.3236487 48.49409,26.9652039 C49.2210424,25.4062492 49.5874224,22.5262654 49.5874224,22.5262654 C49.5874224,22.5262654 47.7099733,24.7016261 46.9830208,26.2605807 Z M45.1505685,24.8333585 C44.8530801,25.1878913 46.1735567,26.2080363 46.4277793,25.9050657 C47.5334486,24.5873803 48.6327392,21.9003556 48.6327392,21.9003556 C48.6327392,21.9003556 46.2562378,23.5156731 45.1505685,24.8333585 Z M43.7442414,23.0289592 C43.3698205,23.300992 44.4042779,24.6102865 44.7242442,24.3778173 C46.1158474,23.3667585 47.8325344,21.0254923 47.8325344,21.0254923 C47.8325344,21.0254923 45.1358446,22.0179004 43.7442414,23.0289592 Z M42.8252044,20.9302433 C42.3960947,21.1036149 43.0830773,22.6242757 43.4497786,22.4761187 C45.0446425,21.8317519 47.2767402,19.9753355 47.2767402,19.9753355 C47.2767402,19.9753355 44.4200683,20.2858765 42.8252044,20.9302433 Z M42.4606538,18.629309 C42.0012938,18.6857113 42.271292,20.332361 42.6638441,20.2841616 C44.3711388,20.0745322 47.0076554,18.8590811 47.0076554,18.8590811 C47.0076554,18.8590811 44.1679484,18.4196796 42.4606538,18.629309 Z M42.6638441,16.3457898 C42.2044841,16.2893875 42.0681017,17.9524431 42.4606538,18.0006425 C44.1679484,18.2102719 47.0201935,17.668756 47.0201935,17.668756 C47.0201935,17.668756 44.3711388,16.5554192 42.6638441,16.3457898 Z M43.4497786,14.1538327 C43.0206689,13.9804612 42.4585031,15.5515512 42.8252044,15.6997081 C44.4200683,16.344075 47.3152801,16.5592261 47.3152801,16.5592261 C47.3152801,16.5592261 45.0446425,14.7981996 43.4497786,14.1538327 Z M44.7242442,12.2521341 C44.3498233,11.9801014 43.4242751,13.3685231 43.7442414,13.6009922 C45.1358446,14.6120511 47.8930065,15.5212265 47.8930065,15.5212265 C47.8930065,15.5212265 46.1158474,13.263193 44.7242442,12.2521341 Z M46.4277793,10.7248858 C46.130291,10.370353 44.8963459,11.4936222 45.1505685,11.7965929 C46.2562378,13.1142783 48.7115508,14.6634651 48.7115508,14.6634651 C48.7115508,14.6634651 47.5334486,12.0425712 46.4277793,10.7248858 Z M48.49409,9.66474759 C48.2984981,9.24529954 46.8158752,10.0109259 46.9830208,10.3693707 C47.7099733,11.9283253 49.6806644,14.0602066 49.6806644,14.0602066 C49.6806644,14.0602066 49.2210424,11.2237022 48.49409,9.66474759 Z M50.718976,9.15234688 C50.6306677,8.69804028 49.0068633,9.08224528 49.0823283,9.47047896 C49.4105419,11.1589917 50.8069463,13.7043003 50.8069463,13.7043003 C50.8069463,13.7043003 51.0471896,10.8408596 50.718976,9.15234688 Z M53.0371625,9.22486513 C53.0694465,8.76318279 51.4015323,8.71402481 51.3739436,9.10856153 C51.2539544,10.8244875 51.9440031,13.6444829 51.9440031,13.6444829 C51.9440031,13.6444829 52.9171733,10.9407911 53.0371625,9.22486513 Z M55.2311526,9.85395003 C55.3741687,9.41379183 53.7676911,8.96258909 53.6454748,9.33873207 C53.1139297,10.9746597 53.1012624,13.8778271 53.1012624,13.8778271 C53.1012624,13.8778271 54.6996075,11.4898777 55.2311526,9.85395003 Z M57.2030322,11.0087746 C57.448284,10.6162897 55.9986814,9.78984748 55.7890983,10.1252506 C54.8775756,11.5839918 54.1629449,14.3978582 54.1629449,14.3978582 C54.1629449,14.3978582 56.2915095,12.4675158 57.2030322,11.0087746 Z M58.8446331,12.6545075 C59.1831107,12.338872 57.9968011,11.1654054 57.7075506,11.4351358 C56.4495373,12.6082522 55.0309748,15.1412784 55.0309748,15.1412784 C55.0309748,15.1412784 57.5866198,13.8276238 58.8446331,12.6545075 Z M60.0164979,14.6213456 C60.4212804,14.396971 59.5540965,12.9713671 59.2081843,13.1631094 C57.7037369,13.9970382 55.7145172,16.1116414 55.7145172,16.1116414 C55.7145172,16.1116414 58.5120504,15.4552744 60.0164979,14.6213456 Z M60.6632815,16.8581214 C61.1123438,16.7461576 60.6436819,15.1446863 60.2599298,15.2403664 C58.5909085,15.6565002 56.1221703,17.184202 56.1221703,17.184202 C56.1221703,17.184202 58.9942602,17.2742551 60.6632815,16.8581214 Z" id="Oval-37-Copy"></path>
            <path d="M156.836538,36 C155.057484,36 153.352583,35.7818952 151.721784,35.345679 C150.090984,34.9094628 148.575517,34.2963002 147.175336,33.5061728 C145.775154,32.7160454 144.498537,31.7654377 143.345447,30.654321 C142.192357,29.5432043 141.212244,28.312764 140.405081,26.962963 C139.597918,25.613162 138.971964,24.1646168 138.5272,22.617284 C138.082437,21.0699511 137.860058,19.4567985 137.860058,17.7777778 C137.860058,16.131679 138.082437,14.5514479 138.5272,13.037037 C138.971964,11.5226262 139.597918,10.1070025 140.405081,8.79012346 C141.212244,7.47324444 142.192357,6.27572556 143.345447,5.19753086 C144.498537,4.11933617 145.775154,3.19341951 147.175336,2.41975309 C148.575517,1.64608667 150.090984,1.04938481 151.721784,0.62962963 C153.352583,0.209874444 155.057484,0 156.836538,0 C158.615592,0 160.320493,0.209874444 161.951292,0.62962963 C163.582092,1.04938481 165.097559,1.64608667 166.497741,2.41975309 C167.897922,3.19341951 169.174539,4.11933617 170.327629,5.19753086 C171.48072,6.27572556 172.460832,7.47324444 173.267995,8.79012346 C174.075159,10.1070025 174.701113,11.5226262 175.145876,13.037037 C175.59064,14.5514479 175.813018,16.131679 175.813018,17.7777778 C175.813018,19.4403375 175.59064,21.0493749 175.145876,22.6049383 C174.701113,24.1605016 174.075159,25.613162 173.267995,26.962963 C172.460832,28.312764 171.48072,29.5432043 170.327629,30.654321 C169.174539,31.7654377 167.897922,32.7160454 166.497741,33.5061728 C165.097559,34.2963002 163.582092,34.9094628 161.951292,35.345679 C160.320493,35.7818952 158.615592,36 156.836538,36 L156.836538,36 Z M156.836538,34.2716049 C158.796792,34.2716049 160.534638,33.8600864 162.050128,33.037037 C163.565619,32.2139877 164.838117,31.0699662 165.867662,29.6049383 C166.897207,28.1399104 167.67965,26.399187 168.215013,24.382716 C168.750377,22.3662451 169.018055,20.164621 169.018055,17.7777778 C169.018055,15.4238565 168.750377,13.2633843 168.215013,11.2962963 C167.67965,9.32920827 166.897207,7.63375198 165.867662,6.20987654 C164.838117,4.78600111 163.565619,3.6790163 162.050128,2.88888889 C160.534638,2.09876148 158.796792,1.7037037 156.836538,1.7037037 C154.826866,1.7037037 153.060193,2.09876148 151.536467,2.88888889 C150.01274,3.6790163 148.740241,4.78600111 147.718933,6.20987654 C146.697624,7.63375198 145.927536,9.32920827 145.408645,11.2962963 C144.889754,13.2633843 144.630313,15.4238565 144.630313,17.7777778 C144.630313,20.164621 144.889754,22.3662451 145.408645,24.382716 C145.927536,26.399187 146.697624,28.1399104 147.718933,29.6049383 C148.740241,31.0699662 150.01274,32.2139877 151.536467,33.037037 C153.060193,33.8600864 154.826866,34.2716049 156.836538,34.2716049 L156.836538,34.2716049 Z M196.790923,0 L213,35.1851852 L207.119268,35.1851852 L201.85626,23.7037037 L187.105012,23.7037037 L181.669041,35.1851852 L178.778093,35.1851852 L195.357804,0 L196.790923,0 Z M188.118079,21.4814815 L200.793775,21.4814815 L194.542408,7.87654321 L188.118079,21.4814815 Z" id="OA"></path>
        </g>
    </g>
</svg>