<?xml version="1.0" encoding="UTF-8"?>
<svg width="32px" height="32px" viewBox="0 0 32 32" version="1.1" xmlns="http://www.w3.org/2000/svg" xmlns:xlink="http://www.w3.org/1999/xlink">
    <!-- Generator: Sketch 64 (93537) - https://sketch.com -->
    <title>favicon</title>
    <desc>Created with Sketch.</desc>
    <g id="favicon" stroke="none" stroke-width="1" fill="none" fill-rule="evenodd">
        <path d="M15.6627347,11.855519 C15.6893855,11.9409169 15.6792942,12.032594 15.6369055,12.1090507 L15.5991276,12.1632035 L13.288514,14.838069 L13.4000607,15.2197527 L13.3949242,15.4161703 L12.4231032,18.2158325 C12.3873312,18.3188861 12.3030968,18.394688 12.2016164,18.4208866 L12.1227603,18.4308857 L10.0944183,18.4308857 C10.0209154,18.4308857 9.95396403,18.4059703 9.90063424,18.364523 L9.88866951,18.353341 L9.66392517,19.119337 C9.63658291,19.2121971 9.56973531,19.2863325 9.4836756,19.3233729 L9.41584562,19.3439108 L7.15389957,19.759032 L7.1539529,31.6786625 C7.1539529,31.8307795 7.04926794,31.9582092 6.90867043,31.9915132 L6.83569735,32 C6.68503934,32 6.5588318,31.8943013 6.52584716,31.7523422 L6.5174418,31.6786625 L6.5174418,19.4913751 C6.5174418,19.3619758 6.59381032,19.2480028 6.70682721,19.1975177 L6.77871739,19.1752297 L9.10878428,18.7470598 L9.70042135,16.7356475 L6.61493204,15.7003341 C6.30329054,15.5957244 6.34147355,15.1598212 6.62889935,15.0849939 L6.70589015,15.0742102 L9.55894265,14.98869 L9.70386481,15.0191175 L10.6088174,15.4489692 C10.715844,15.4998067 10.7843059,15.6051556 10.7910625,15.7207329 L10.7875267,15.7909524 L10.4678946,17.7873049 L11.8963051,17.7873049 L12.7599711,15.3007148 L12.672053,14.9978541 L12.6378402,14.9519944 L12.6061185,14.8771682 L11.8590692,12.2731529 L7.14774997,12.2734293 C6.80781843,12.2734293 6.71850581,11.8250149 6.98493709,11.6744898 L7.05901708,11.6434964 L11.6194432,10.3066802 C11.7604575,10.2653441 11.9075623,10.3269668 11.9805019,10.4488617 L12.0104198,10.5146341 L12.0680329,10.6917111 L12.3731315,11.7562011 L12.4016599,11.7972542 L12.4282397,11.8619585 L13.0775106,14.1059818 L15.0013654,11.876301 L13.3123036,6.46449504 L7.87379912,7.21130297 C7.63307047,7.24435037 7.45533206,7.00815191 7.52860571,6.79128113 L7.55830619,6.7270883 L9.08624954,4.1659825 C9.13231446,4.08876948 9.20772987,4.03555759 9.2931894,4.01736136 L9.35886566,4.01045172 L12.515055,4.01045172 L12.6825849,4.05857627 L15.022,5.521 L15.314,5.521 L15.764,4.689 L15.7646367,4.67807106 L15.77,4.678 L15.9301942,4.38311153 L12.3958867,0.660014575 L6.64604327,1.41507744 L0.635548508,7.03261979 L0.636511101,31.6786625 C0.636511101,31.8307795 0.53182614,31.9582092 0.391228628,31.9915132 L0.31825555,32 C0.167597533,32 0.0413899982,31.8943013 0.00840535595,31.7523422 L-1.77635684e-15,31.6786625 L-1.77635684e-15,6.89289504 C-1.77635684e-15,6.82575431 0.0208044341,6.76089619 0.0586543826,6.70700644 L0.10204695,6.65709452 L6.28960456,0.873226415 L6.46484043,0.790363526 L12.4740823,0.00267720846 C12.5492873,-0.00718060493 12.6246157,0.0104640407 12.6870971,0.050996998 L12.7448156,0.0989884983 L16.5518576,4.10943712 C16.6286993,4.19038448 16.6568806,4.30409062 16.6309801,4.40929647 L16.6013298,4.48596237 L16.3926473,4.86985091 C16.5183792,4.98461754 16.6046878,5.14259292 16.6286028,5.3205843 L16.6353239,5.42145743 L16.635,5.915 L18.0198657,5.91593024 C18.019991,5.91526773 18.0201184,5.91460535 18.020248,5.91394309 L18.0427125,5.84332966 L18.5149025,4.79125643 C18.7641801,4.23584802 19.2892646,3.86379418 19.8831613,3.80984157 L20.0329493,3.8030585 L24.2776069,3.8030585 C24.8815348,3.8030585 25.4339001,4.13238862 25.7277081,4.65630219 L25.7956537,4.79125643 L26.2678437,5.84332966 C26.2784959,5.86706348 26.2860541,5.89141765 26.2906905,5.91593024 L30.3333544,5.91529544 C31.2026805,5.91529544 31.9165529,6.58731738 31.993189,7.44491306 L32,7.59808083 L32,20.3276183 C32,21.205363 31.3344235,21.9261485 30.4850531,22.0035267 L30.3333544,22.0104037 L13.9908665,22.0104037 C13.1215404,22.0104037 12.407668,21.3383818 12.3310319,20.4807861 L12.3242209,20.3276183 L12.3242209,18.8262092 L12.960732,18.8262092 L12.960732,20.3276183 C12.960732,20.8610242 13.3584053,21.300649 13.8707311,21.3607311 L13.9908665,21.3677287 L30.3333544,21.3677287 C30.8616443,21.3677287 31.2970526,20.9662043 31.3565584,20.4489172 L31.3634889,20.3276183 L31.3634889,7.59808083 C31.3634889,7.06467497 30.9658156,6.62505017 30.4534898,6.56496808 L30.3333544,6.5579705 L14.009,6.557 L15.6627347,11.855519 Z M22.1588391,7.29450868 C24.5373966,7.29450868 26.6962004,8.572529 27.8748808,10.6078944 C28.4618565,11.6214939 28.7758036,12.7757526 28.7758036,13.9755517 C28.7758036,17.6653899 25.8132877,20.6565947 22.1588391,20.6565947 C18.5043906,20.6565947 15.5418746,17.6653899 15.5418746,13.9755517 C15.5418746,10.2857135 18.5043906,7.29450868 22.1588391,7.29450868 Z M22.1588391,7.93718374 C18.8559259,7.93718374 16.1783857,10.6406532 16.1783857,13.9755517 C16.1783857,17.3104503 18.8559259,20.0139197 22.1588391,20.0139197 C25.4617524,20.0139197 28.1392925,17.3104503 28.1392925,13.9755517 C28.1392925,12.8905434 27.8557638,11.8481211 27.3254051,10.9322887 C26.25974,9.09208016 24.3089144,7.93718374 22.1588391,7.93718374 Z M22.1436615,10.2981286 C24.1467845,10.2981286 25.7706365,11.937706 25.7706365,13.9602271 C25.7706365,15.9827483 24.1467845,17.6223256 22.1436615,17.6223256 C20.1405386,17.6223256 18.5166866,15.9827483 18.5166866,13.9602271 C18.5166866,11.937706 20.1405386,10.2981286 22.1436615,10.2981286 Z M22.1436615,10.9408037 C20.4920739,10.9408037 19.1531977,12.2926456 19.1531977,13.9602271 C19.1531977,15.6278086 20.4920739,16.9796506 22.1436615,16.9796506 C23.7952491,16.9796506 25.1341254,15.6278086 25.1341254,13.9602271 C25.1341254,12.2926456 23.7952491,10.9408037 22.1436615,10.9408037 Z M9.50079556,15.6328171 L8.52128454,15.6620588 L10.0789863,16.1852766 L10.1203596,15.9262786 L9.50079556,15.6328171 Z M11.4970535,11.0115817 L9.3870192,11.6298352 L11.6749584,11.6298352 L11.4970535,11.0115817 Z M16.63394,7.41458126 C17.1783319,7.41458126 17.6196487,7.86017175 17.6196487,8.40983548 C17.6196487,8.95949921 17.1783319,9.4050897 16.63394,9.4050897 C16.0895482,9.4050897 15.6482314,8.95949921 15.6482314,8.40983548 C15.6482314,7.86017175 16.0895482,7.41458126 16.63394,7.41458126 Z M16.63394,8.05725632 C16.4410836,8.05725632 16.2847425,8.21511139 16.2847425,8.40983548 C16.2847425,8.60455958 16.4410836,8.76241464 16.63394,8.76241464 C16.8267965,8.76241464 16.9831376,8.60455958 16.9831376,8.40983548 C16.9831376,8.21511139 16.8267965,8.05725632 16.63394,8.05725632 Z M12.4238137,4.65255304 L9.53803146,4.65255304 L8.44577841,6.48433763 L13.493036,5.79130186 C13.6210071,5.7737339 13.7439178,5.83585565 13.8082871,5.94341963 L13.8394558,6.01313711 L13.99,6.497 L13.99,6.164 L13.9897116,6.16484379 L13.989,5.631 L12.4238137,4.65255304 Z M24.2776069,4.44573356 L20.0329493,4.44573356 C19.6734936,4.44573356 19.3435911,4.63448979 19.1574873,4.93763231 L19.094662,5.05652735 L18.709,5.915 L25.601,5.915 L25.2158942,5.05652735 C25.0675251,4.7259503 24.7610766,4.50046328 24.4107943,4.45443626 L24.2776069,4.44573356 Z" id="Combined-Shape" fill="#0068D8" fill-rule="nonzero"></path>
    </g>
</svg>