<?xml version="1.0" standalone="no"?>
<!DOCTYPE svg PUBLIC "-//W3C//DTD SVG 1.1//EN" "http://www.w3.org/Graphics/SVG/1.1/DTD/svg11.dtd" >
<svg xmlns="http://www.w3.org/2000/svg">
<metadata>Generated by IcoMoon</metadata>
<defs>
<font id="icomoon" horiz-adv-x="1024">
<font-face units-per-em="1024" ascent="960" descent="-64" />
<missing-glyph horiz-adv-x="1024" />
<glyph unicode="&#x20;" horiz-adv-x="512" d="" />
<glyph unicode="&#xe900;" glyph-name="outwork" d="M520.704 774.656c0-52.030 42.178-94.208 94.208-94.208s94.208 42.178 94.208 94.208c0 52.030-42.178 94.208-94.208 94.208s-94.208-42.178-94.208-94.208c0 0 0 0 0 0zM766.976 466.432l-123.904 78.336 3.584 17.92c7.68 39.936-18.432 78.848-58.368 87.040-11.776 2.048-23.552 1.536-34.816-1.536-1.536-0.512-3.584-1.024-5.12-1.536l-129.024-49.664c-5.12-1.536-9.728-4.608-13.824-7.68-4.608-2.56-8.704-6.656-11.776-10.752l-67.584-92.16c-13.312-18.432-9.728-44.032 8.192-57.344 17.408-13.312 42.496-9.728 55.808 7.68l0.512 1.024 46.080 63.488 2.56 0.512 46.592 12.8-23.552-120.32c-2.048-10.24-2.048-20.48 0.512-30.72l-61.44-155.136v-1.024l-80.896-57.856c-20.992-13.824-27.648-41.984-15.36-64 11.264-20.992 36.864-28.672 57.856-17.92 1.024 0.512 1.536 1.024 2.56 1.536l113.664 81.92h0.512c11.776 7.68 20.992 18.432 26.624 30.72l51.2 111.104 87.040-91.648c1.536-1.536 3.072-3.072 4.608-4.608l43.008-146.432c5.632-24.576 29.696-40.448 54.272-34.816 0.512 0 1.536 0.512 2.048 0.512 25.088 8.192 39.424 34.304 32.256 59.392l-52.736 181.248c-1.024 5.12-3.584 9.728-7.168 13.824-1.024 1.024-1.536 2.048-2.56 3.072l-104.448 122.88 10.24 52.736 104.96-59.392c19.968-10.752 45.056-2.56 55.808 17.408 0 0.512 0.512 1.024 0.512 1.536 10.24 20.48 2.048 46.080-18.432 57.856zM345.088 251.904l56.32 110.592c3.584 6.656 0.512 14.848-6.144 18.432l-188.416 93.184c-6.656 3.584-15.36 0.512-18.944-6.144l-56.32-110.592c-3.584-6.656-0.512-14.848 6.144-18.432l188.416-93.184c6.656-3.072 15.36-0.512 18.944 6.144z" />
<glyph unicode="&#xe901;" glyph-name="add" d="M974.061 174.128h-161.636v-171.776c0-14.131-11.166-25.582-24.957-25.582h-34.297c-13.787 0-24.955 11.451-24.955 25.582v171.776h-161.633c-13.789 0-24.957 11.483-24.957 25.583v35.182c0 14.129 11.168 25.58 24.957 25.58h161.634v171.807c0 14.129 11.226 25.583 24.955 25.583h34.297c13.791 0 24.957-11.454 24.957-25.583v-171.807h161.636c13.787 0 24.952-11.451 24.952-25.58v-35.182c-0.001-14.1-11.166-25.583-24.953-25.583v0 0zM312.533 897.416h498.694c110.189 0 199.467-91.585 199.467-204.594v-278.12c0-24.84-23.815-28.742-23.815-28.742v0h-20.054c-21.026 0-22.733 29.113-22.733 29.113v87.14h-864.128v-320.849c0 0 34.811-130.272 132.806-130.272h373.638c0 0 25.35-1.794 25.35-23.246v-24.811c0-24.241-24.439-26.265-24.439-26.265h-374.55c-110.131 0-199.464 91.587-199.464 204.595v717.022zM79.507 831.925v-263.649h868.458v125.827c0 121.64-117.821 137.821-117.821 137.821h-636.689z" />
<glyph unicode="&#xe902;" glyph-name="shortcut2" d="M64 896h384v-384h-384v384zM576 896h384v-384h-384v384zM64 384h384v-384h-384v384zM960 64c0-16.378-6.248-32.758-18.746-45.254-12.496-12.498-28.876-18.746-45.254-18.746h-256c-16.378 0-32.758 6.248-45.254 18.746-12.498 12.496-18.746 28.876-18.746 45.254v256c0 16.378 6.248 32.758 18.746 45.254 12.496 12.498 28.876 18.746 45.254 18.746h256c16.378 0 32.758-6.248 45.254-18.746 12.498-12.496 18.746-28.874 18.746-45.254v-256zM898.56 290.562c0 8.19-3.126 16.378-9.374 22.626s-14.438 9.374-22.626 9.374h-197.12c-8.19 0-16.378-3.126-22.626-9.374s-9.374-14.438-9.374-22.626v-197.122c0-8.19 3.126-16.378 9.374-22.626s14.438-9.374 22.626-9.374h197.122c8.19 0 16.378 3.126 22.626 9.374s9.374 14.438 9.374 22.626v197.122z" />
<glyph unicode="&#xe907;" glyph-name="quill" d="M0-64c128 384 463 1024 1024 1024-263-211-384-704-576-704s-192 0-192 0l-192-320h-64z" />
<glyph unicode="&#xe90d;" glyph-name="arrow" horiz-adv-x="1026" d="M0 762.424l512.722-640.858 512.722 640.948h-1025.445z" />
<glyph unicode="&#xe90e;" glyph-name="tel" horiz-adv-x="1401" d="M889.956 148.444c-252.089 8-493.156 249.067-503.111 495.467-1.956 50.844-10.489 99.733 66.844 94.756 55.822-3.556 121.6 13.867 119.467-77.511-0.889-34.844 14.933-84.622-2.489-102.044-114.667-114.667-1.6-168.356 58.844-232.178 40.356-42.489 86.756-71.644 144.889-10.844 50.133 52.089 118.222 21.333 174.578 7.111 39.467-9.778 23.822-59.733 27.911-93.511 9.067-73.6-25.6-95.644-86.933-81.244zM679.644 417.244c0 67.378-1.244 222.578-1.244 268.622 0 57.956 0 64.711 159.822 64.711 155.022 0 138.489 29.333 138.489-206.222 0-35.022-2.133-40-46.756-42.844-41.6-2.667-156.444-6.933-174.578-6.933 0.178-0.178 1.778 1.422-75.733-77.333z" />
<glyph unicode="&#xe90f;" glyph-name="user" d="M859.703 304.946c14.195 0 25.744-11.55 25.744-25.745v-229.487c0-14.195-11.549-25.744-25.744-25.744h-316.692c-14.195 0-25.745 11.549-25.745 25.744v229.487c0 14.195 11.55 25.745 25.745 25.745h316.692zM859.703 359.522h-316.692c-44.361 0-80.32-35.961-80.32-80.321v-229.487c0-44.359 35.961-80.32 80.32-80.32h316.692c44.359 0 80.32 35.961 80.32 80.32v229.487c0 44.361-35.962 80.321-80.32 80.321v0zM793.152 187.657h-176.705c-15.071 0-27.289 12.218-27.289 27.289s12.218 27.289 27.289 27.289h176.705c15.072 0 27.289-12.218 27.289-27.289s-12.217-27.289-27.289-27.289zM731.19 72.913h-114.743c-15.071 0-27.289 12.217-27.289 27.289s12.218 27.289 27.289 27.289h114.743c15.072 0 27.289-12.217 27.289-27.289s-12.217-27.289-27.289-27.289zM372.059-5.118c-2.368 0-4.774 0.31-7.168 0.961-2.923 0.795-72.401 19.795-143.085 50.337-104.89 45.322-155.877 91.518-155.877 141.227 0 30.163 18.122 57.408 53.859 80.977 24.135 15.918 57.153 30.706 98.137 43.955 44.451 14.37 88.399 23.822 114.208 28.754v50.926c-38.711 40.645-66.241 84.468-84.004 133.648-17.596 48.715-26.149 104.717-26.149 171.201 0 152.975 81.044 240.711 222.353 240.711 74.018 0 135.155-26.637 176.799-77.030 37.308-45.146 57.027-106.507 57.027-177.451 0-132.145-65.347-213.533-68.13-216.933-9.542-11.664-26.736-13.382-38.4-3.84-11.641 9.523-13.377 26.663-3.899 38.326 0.367 0.46 14.348 18.097 28.095 49.185 12.662 28.635 27.758 74.999 27.758 133.262 0 46.895-12.927 199.904-179.249 199.904-57.751 0-101.126-17.196-128.922-51.109-25.781-31.459-38.854-76.887-38.854-135.025 0-122.372 29.598-201.885 102.161-274.447 5.117-5.117 7.993-12.058 7.993-19.296v-84.891c0-13.454-9.807-24.923-23.104-26.986-0.643-0.1-65.686-10.348-129.429-31.014-83.811-27.173-113.673-55.437-113.673-72.828 0-18.325 32.173-51.835 122.469-90.921 67.136-29.059 135.542-47.79 136.226-47.975 14.54-3.954 23.126-18.948 19.172-33.49-3.299-12.147-14.302-20.139-26.313-20.139z" />
<glyph unicode="&#xe910;" glyph-name="platform" d="M881.141 869.875h-738.281c-29.142 0-52.734-23.576-52.734-52.734v-527.344c0-29.142 23.592-52.734 52.734-52.734h316.406v-158.203h-105.469v-52.734h316.406v52.734h-105.469v158.203h316.406c29.092 0 52.734 23.592 52.734 52.734v527.344c0 29.158-23.642 52.734-52.734 52.734v0zM881.141 343.473c0-52.021-2.174-52.54-52.637-52.54h-631.353c-52.118 0-54.292-1.135-52.637 52.54v420.107c0 53.561 0.519 52.443 52.637 52.443h631.353c50.463 0 52.637-2.174 52.637-52.443v-420.107zM696.57 711.672h-369.141c-14.572 0-26.367-11.845-26.367-26.367v-52.734c0-14.522 11.796-26.367 26.367-26.367h369.141c14.572 0 26.367 11.845 26.367 26.367v52.734c0 14.522-11.796 26.367-26.367 26.367v0zM696.57 500.734h-369.141c-14.572 0-26.367-11.845-26.367-26.367v-52.734c0-14.522 11.796-26.367 26.367-26.367h369.141c14.572 0 26.367 11.845 26.367 26.367v52.734c0 14.522-11.796 26.367-26.367 26.367v0z" />
<glyph unicode="&#xe911;" glyph-name="sports" d="M419.009 816.044c0-18.729 3.724-37.448 10.893-54.749 7.161-17.301 17.768-33.171 31.009-46.412 13.241-13.246 29.111-23.846 46.412-31.014 17.305-7.167 36.024-10.893 54.749-10.893 18.729 0 37.448 3.726 54.749 10.893 17.299 7.168 33.17 17.769 46.412 31.014 13.246 13.241 23.846 29.111 31.014 46.412s10.891 36.020 10.891 54.749c0 18.724-3.724 37.443-10.891 54.749-7.168 17.301-17.769 33.171-31.014 46.412-13.242 13.242-29.113 23.846-46.412 31.009-17.301 7.168-36.020 10.893-54.749 10.893-18.724 0-37.444-3.724-54.749-10.893-17.301-7.163-33.171-17.768-46.412-31.009-13.242-13.241-23.847-29.111-31.009-46.412-7.168-17.306-10.893-36.024-10.893-54.749v0zM443.233 579.101c-10.605-34.824-12.655-71.641-20.446-142.308-4.549-64.351-13.374-110.417-21.44-150.374-18.675-132.744-89.833-120.624-173.599-222.003-75.188-84.838 6.569-148.445 64.086-113.61 94.881 98.435 195.303 168.046 207.582 210.436 138.776-27.312 160.314-193.7 217.832-217.992 57.533-24.304 102.962 24.223 75.864 92.166-75.864 145.522-137.94 169.751-260.557 218.199 10.654 58.011 13.215 75.216 14.808 114.125 77.208-9.659 180.995 1.881 247.619 58.021 30.276 28.124 20.202 115.487-48.464 85.2-36.625-22.454-58.228-26.769-85.284-37.842-25.743-6.153-43.761-16.76-105.969 4.558 4.042 40.86 5.371 48.591 4.298 94.223-1.278 54.133-83.035 104.099-116.328 7.2v0z" />
<glyph unicode="&#xe912;" glyph-name="online" d="M195.881 683.808c0-131.074 106.256-237.33 237.33-237.33s237.33 106.256 237.33 237.33c0 131.074-106.256 237.33-237.33 237.33s-237.33-106.256-237.33-237.33zM515.183 437.916c-26.938 5.649-54.449 8.56-81.972 8.56-52.265 0-104.519-10.394-152.807-30.398-48.287-20.004-92.586-49.601-129.546-86.552-36.953-36.961-66.548-81.26-86.551-129.546-20.005-48.288-30.398-100.542-30.398-152.806h464.618c-47.528 48.271-76.867 114.504-76.867 187.6 0.001 81.291 36.28 154.1 93.524 203.144zM729.187 502.188c-147.69 0-267.414-119.726-267.414-267.414 0-147.69 119.725-267.414 267.414-267.414s267.414 119.725 267.414 267.414c0 147.689-119.725 267.414-267.414 267.414zM678.219 68.962l-152.871 152.773 63.726 63.652 89.144-89.090 191.080 190.918 63.726-63.635z" />
<glyph unicode="&#xe913;" glyph-name="video" horiz-adv-x="1049" d="M138.847 500.358c-108.089 80.22-84.539 208.94-30.748 264.466 63.326 65.367 185.126 81.253 264.54-11.823 43.911 136.493 133.293 206.289 280.13 187.45 90.339-11.585 170.042-88.878 188.415-178.986 20.322-99.662-11.289-205.633-119.755-265.959 19.716-17.428 43.908-32.848 59.68-54.421 15.897-21.747 23.44-49.603 35.492-76.692 2.612 1.486 8.053 4.329 13.242 7.565 56.897 35.488 113.512 71.429 170.883 106.136 8.491 5.139 23.044 9.194 30.1 5.281 7.198-3.991 11.995-18.405 12.048-28.286 0.737-143.709 0.556-287.421 0.467-431.133-0.021-31.015-15.326-39.825-41.813-24.178-56.195 33.189-112.29 66.554-168.445 99.807-5.556 3.289-11.264 6.31-18.633 10.427-2.288-12.073-3.905-22.863-6.403-33.446-18.355-77.836-77.736-121.865-167.761-122.25-150.244-0.634-300.492-0.377-450.732 0.117-17.639 0.060-35.587 2.558-52.835 6.421-70.27 15.733-117.222 64.256-120.546 135.894-4.119 88.804-4.978 178.182 0.26 266.864 4.283 72.587 48.145 119.161 122.417 136.746zM802.809 705.353c0.46 110.309-82.336 194.484-192.228 195.428-108.445 0.93-194.206-83.939-195.232-193.2-1.008-107.123 84.663-193.863 192.075-194.473 109.807-0.624 194.929 83.138 195.385 192.246zM106.737 645.192c-4.187-68.418 58.871-128.607 128.924-128.215 70.092 0.388 127.556 58.094 127.876 128.262 0.335 72.975-56.416 129.441-129.704 129.060-72.936-0.381-127.217-55.518-127.096-129.106zM472.592 506.725c-24.627 26.562-49.207 53.077-71.806 77.455-18.016-24.638-37.47-51.238-56.64-77.455 41.849 0 85.824 0 128.446 0z" />
<glyph unicode="&#xe914;" glyph-name="events" d="M652.8 160c0 0 0 0 0 0 0 6.4 0 6.4 0 0 0 6.4 0 6.4 0 0zM652.8 6.4c-19.2 57.6-89.6 102.4-134.4 102.4-108.8 0-115.2 70.4-115.2 83.2h32c0 0 25.6 0 19.2 25.6 0 0 0 0 0 0l-38.4 83.2c32 0 70.4 19.2 96 38.4 0 0 0 0 0 0 12.8 19.2 32 38.4 44.8 51.2 0 0 0 0 0 0 64 96 89.6 185.6 96 236.8v0c0 6.4 0 6.4 0 12.8s0 6.4 0 12.8 0 12.8 0 12.8 0 6.4 0 12.8c0 160-121.6 281.6-275.2 281.6s-281.6-121.6-281.6-281.6c0-6.4 0-6.4 0-12.8 0 0 0-6.4 0-6.4 0-12.8 0-19.2 0-25.6 0 0 0 0 0 0 12.8-121.6 70.4-211.2 102.4-256 0 0 6.4-6.4 6.4-6.4 6.4-6.4 6.4-12.8 12.8-12.8 6.4-6.4 6.4-6.4 6.4-6.4s6.4-6.4 6.4-6.4 0 0 0 0c25.6-25.6 64-44.8 108.8-57.6l-32-70.4c-12.8-32 19.2-32 19.2-32h32c19.2-121.6 108.8-121.6 147.2-121.6 102.4-12.8 108.8-96 108.8-108.8 0-6.4 6.4-19.2 25.6-19.2s19.2 25.6 19.2 25.6 0 12.8-6.4 44.8zM742.4 768c-19.2 0-38.4-6.4-57.6-12.8-6.4-6.4-6.4-12.8-6.4-12.8v-6.4c0 0 0 0 0 0v0c0 0 0 0 0 0 0-6.4 6.4-19.2 12.8-25.6 12.8-44.8 19.2-128-44.8-256v0c0 0 0-6.4 0-12.8 0 0 0 0 0 0s0 0 0-6.4 6.4-6.4 6.4-6.4c0 0 6.4-6.4 6.4-6.4s0 0 0 0 0 0 0 0c19.2-12.8 38.4-25.6 57.6-32l-12.8-44.8c-6.4-12.8 6.4-19.2 6.4-19.2h64c6.4 0 12.8 6.4 6.4 12.8 0 0 0 0 0 0l-19.2 44.8c19.2 6.4 38.4 12.8 57.6 25.6 0 0 0 0 0 0 6.4 12.8 19.2 19.2 25.6 32 0 0 0 0 0 0 38.4 57.6 51.2 115.2 51.2 140.8v0c0 0 0 6.4 0 6.4s0 6.4 0 6.4 0 6.4 0 6.4 0 6.4 0 6.4c6.4 89.6-70.4 160-153.6 160z" />
<glyph unicode="&#xe917;" glyph-name="trends" d="M959.687 448.051c0 6.754-0.205 13.507-0.512 20.261-0.102 2.149-0.205 4.4-0.409 6.549-0.307 4.605-0.614 9.21-1.023 13.814-0.205 2.354-0.409 4.809-0.614 7.163-0.614 5.73-1.33 11.461-2.149 17.089-0.512 3.684-1.228 7.47-1.842 11.154-0.409 2.251-0.819 4.502-1.228 6.754-0.819 4.298-1.637 8.493-2.558 12.689-0.102 0.205-0.102 0.512-0.205 0.716-10.949 49.936-30.187 96.7-56.281 138.86 5.423 9.824 1.535 15.861-9.721 15.145-80.43 119.213-216.629 197.494-371.145 197.494-247.225 0-447.687-200.461-447.687-447.687 0-96.496 30.596-185.726 82.579-258.891 0-0.102 0.102-0.102 0.102-0.205 8.289-11.563 16.987-22.819 26.298-33.564 0.307-0.307 0.614-0.716 0.921-1.023 9.005-10.335 18.419-20.261 28.243-29.675 0.716-0.716 1.535-1.433 2.251-2.149 9.414-8.903 19.238-17.396 29.368-25.48 1.433-1.126 2.865-2.251 4.195-3.377 3.070-2.354 6.242-4.809 9.312-7.061 1.33-1.023 2.763-1.944 4.195-2.968 5.321-3.786 10.642-7.47 16.168-11.051 2.251-1.433 4.502-2.865 6.651-4.298 2.865-1.74 5.628-3.479 8.493-5.219 3.684-2.149 7.265-4.298 11.051-6.344 3.275-1.842 6.549-3.581 9.824-5.321 3.070-1.637 6.242-3.275 9.414-4.809 2.456-1.228 5.014-2.456 7.572-3.684 5.014-2.354 10.131-4.707 15.247-6.958 1.944-0.819 3.888-1.535 5.833-2.354 3.991-1.637 8.084-3.275 12.177-4.809 2.149-0.819 4.4-1.637 6.651-2.456 5.628-2.047 11.256-3.991 16.987-5.73 1.33-0.409 2.763-0.819 4.195-1.228 4.912-1.535 9.824-2.865 14.838-4.195 1.944-0.512 3.888-1.023 5.833-1.535 6.14-1.535 12.279-2.968 18.521-4.298 0.819-0.205 1.74-0.307 2.558-0.512 5.628-1.126 11.358-2.149 17.089-3.070 1.842-0.307 3.581-0.614 5.423-0.819 6.549-0.921 12.996-1.842 19.647-2.456 0.409 0 0.819-0.102 1.228-0.102 6.344-0.614 12.689-1.126 19.135-1.433 1.74-0.102 3.479-0.205 5.219-0.307 6.754-0.307 13.61-0.512 20.466-0.512 0 0 0 0 0 0 139.064 0 263.393 63.444 345.461 162.907 4.605 5.526 9.005 11.154 13.303 16.884 55.871 74.904 88.923 167.614 88.923 268.1 0 0 0 0 0 0zM408.239 595.813c49.015-49.015 97.928-97.928 146.944-146.944 15.145-15.145 35.815-4.809 41.545 10.54 0.205 0.307 0.614 0.512 0.819 0.819l54.132 71.528 53.927-45.434c5.423-4.605 12.586-6.856 19.749-6.037 7.163 0.716 13.61 4.4 18.010 10.028v0l146.023 187.67c20.466-33.461 36.531-69.788 47.48-108.263-1.74-1.74-3.377-3.581-5.116-5.423l-294.296-354.67c-13.2-16.577-46.866 7.265-63.034 20.875l-118.292 102.942c-16.27 13.61-40.522-9.414-54.029-25.787l-137.427-166.898c-13.507-16.373-37.657 2.456-53.825 16.168l-74.904 58.941c-19.033 30.699-34.382 63.853-45.536 98.952 8.8-9.312 23.843-12.893 35.61-1.228 94.040 94.142 188.182 188.182 282.222 282.222zM512 890.11c151.241 0 284.985-76.439 364.801-192.684l-100.793-21.284c-17.6-3.684-20.67-16.168-6.856-27.731l19.545-16.27-70.095-87.9-54.234 45.638c-5.526 4.605-12.689 6.856-19.852 6.037s-13.712-4.502-18.112-10.233l-54.439-71.835-26.094 21.387c-3.377 2.763-7.163 4.4-11.154 5.219-36.941 36.941-73.779 73.779-110.719 110.719-14.735 14.735-34.689 5.321-41.034-9.414-97.519-97.519-195.038-195.038-292.557-292.557-3.479-3.479-5.628-7.368-6.651-11.256-9.005 35.201-13.814 72.039-13.814 110.003 0 243.849 198.312 442.161 442.059 442.161z" />
<glyph unicode="&#xe918;" glyph-name="news" d="M928 960h-704c-53.024 0-96-42.944-96-96v-64h-32c-53.024 0-96-42.944-96-96v-640c0-70.688 57.312-128 128-128h768c70.688 0 128 57.312 128 128v800c0 53.056-43.008 96-96 96zM960 64c0-35.264-28.736-64-64-64h-768c-35.296 0-64 28.736-64 64v640c0 17.664 14.336 32 32 32h32v-640c0-17.696 14.304-32 32-32s32 14.304 32 32v768c0 17.664 14.336 32 32 32h704c17.632 0 32-14.336 32-32v-800zM623.936 543.84h256c8.864 0 16 7.168 16 16s-7.136 16-16 16h-256c-8.8 0-16-7.168-16-16s7.2-16 16-16zM623.936 639.84h256c8.864 0 16 7.168 16 16s-7.136 16-16 16h-256c-8.8 0-16-7.168-16-16s7.2-16 16-16zM623.936 735.84h256c8.864 0 16 7.168 16 16s-7.136 16-16 16h-256c-8.8 0-16-7.168-16-16s7.2-16 16-16zM528 95.872h-256c-8.832 0-16-7.2-16-16 0-8.864 7.168-16 16-16h256c8.8 0 16 7.136 16 16 0 8.8-7.168 16-16 16zM528 191.872h-256c-8.832 0-16-7.2-16-16 0-8.864 7.168-16 16-16h256c8.8 0 16 7.136 16 16 0 8.8-7.168 16-16 16zM528 287.872h-256c-8.832 0-16-7.2-16-16 0-8.864 7.168-16 16-16h256c8.8 0 16 7.136 16 16 0 8.8-7.168 16-16 16zM880 95.872h-256c-8.864 0-16-7.2-16-16 0-8.864 7.136-16 16-16h256c8.8 0 16 7.136 16 16 0 8.8-7.2 16-16 16zM880 191.872h-256c-8.864 0-16-7.2-16-16 0-8.864 7.136-16 16-16h256c8.8 0 16 7.136 16 16 0 8.8-7.2 16-16 16zM880 287.872h-256c-8.864 0-16-7.2-16-16 0-8.864 7.136-16 16-16h256c8.8 0 16 7.136 16 16 0 8.8-7.2 16-16 16zM880 479.872h-608c-8.832 0-16-7.168-16-16s7.168-16 16-16h608c8.8 0 16 7.168 16 16s-7.2 16-16 16zM880 383.872h-608c-8.832 0-16-7.2-16-16 0-8.864 7.168-16 16-16h608c8.8 0 16 7.136 16 16 0 8.8-7.2 16-16 16zM288 544h224c17.696 0 32 14.304 32 32v223.872c0 17.696-14.304 32-32 32h-224c-17.696 0-32-14.304-32-32v-223.872c0-17.664 14.304-32 32-32zM320 768h160v-160h-160v160z" />
<glyph unicode="&#xe919;" glyph-name="process" d="M1015.518 317.391l-109.6 109.607c-4.492 4.498-10.473 6.975-16.849 6.975-6.39 0-12.37-2.477-16.862-6.975l-273.342-273.336c-4.506-4.538-6.982-10.538-6.982-16.908v-108.29c0-13.146 10.697-23.843 23.857-23.843h109.165c6.363 0 12.356 2.463 16.889 6.955l163.742 163.749c4.505 4.491 6.981 10.486 6.981 16.862s-2.476 12.37-6.981 16.862c-4.492 4.498-10.474 6.975-16.849 6.975-6.39 0-12.37-2.476-16.862-6.975l-155.865-156.742-76.378-0.751-0.658 74.658 249.63 250.712 76.971-75.91-20.906-21.895-38.269 38.269c-4.491 4.498-10.473 6.975-16.849 6.975-6.39 0-12.37-2.476-16.862-6.975-4.505-4.491-6.981-10.486-6.981-16.855 0-6.376 2.476-12.37 6.981-16.862l54.576-54.576c4.506-4.505 10.487-6.981 16.862-6.981s12.356 2.476 16.862 6.981l54.576 54.576c4.505 4.492 6.982 10.486 6.982 16.862s-2.475 12.363-6.981 16.855zM641.972 500.601h195.893c30.485 0 55.618 25.075 55.618 56.008v278.875c0 30.961-24.9 56.008-55.618 56.008h-195.893c-30.485 0-55.621-25.075-55.621-56.008v-111.52h-139.601v-251.281h-111.68v167.658c0 30.782-25.11 55.706-56.079 55.706h-222.888c-30.899 0-56.081-24.939-56.081-55.706v-391.164c0-30.781 25.11-55.701 56.081-55.701h222.887c30.898 0 56.079 24.939 56.079 55.701v167.663h111.681v-251.288l55.843 83.37v419.207h83.761v-111.52c-0.001-30.961 24.905-56.008 55.619-56.008zM837.737 835.65c-0.082-0.003-0.097-0.026-0.097-0.166v-278.875c0-0.063-0.101-0.166 0.224-0.166h-195.765c0.081 0.003 0.095 0.026 0.095 0.166v278.875c0 0.063 0.103 0.166-0.222 0.166h195.765zM279.227 249.177c0 0.2-0.062 0.142-0.237 0.142h-222.887c-0.223 0-0.238 0.014-0.238-0.142v391.164c0-0.195 0.058-0.137 0.238-0.137h222.887c0.223 0 0.237-0.013 0.237 0.137v-391.164z" />
<glyph unicode="&#xe91a;" glyph-name="todo" horiz-adv-x="1205" d="M389.12 808.448c-16.384 0-28.672 12.288-28.672 28.672s12.288 28.672 28.672 28.672h786.432c16.384 0 28.672-12.288 28.672-28.672s-12.288-28.672-28.672-28.672h-786.432zM389.12 419.328c-16.384 0-28.672 12.288-28.672 28.672s12.288 28.672 28.672 28.672h782.336c16.384 0 28.672-12.288 28.672-28.672s-12.288-28.672-28.672-28.672h-782.336zM389.12 30.208c-16.384 0-28.672 12.288-28.672 28.672s12.288 28.672 28.672 28.672h782.336c16.384 0 28.672-12.288 28.672-28.672s-12.288-28.672-28.672-28.672h-782.336zM122.88 714.24c-69.632 0-122.88 53.248-122.88 122.88s53.248 122.88 122.88 122.88 122.88-53.248 122.88-122.88-53.248-122.88-122.88-122.88zM122.88 902.656c-36.864 0-65.536-28.672-65.536-65.536s28.672-65.536 65.536-65.536 65.536 28.672 65.536 65.536-28.672 65.536-65.536 65.536zM122.88 325.12c-69.632 0-122.88 53.248-122.88 122.88s53.248 122.88 122.88 122.88 122.88-53.248 122.88-122.88-53.248-122.88-122.88-122.88zM122.88 513.536c-36.864 0-65.536-28.672-65.536-65.536s28.672-65.536 65.536-65.536 65.536 28.672 65.536 65.536-28.672 65.536-65.536 65.536zM122.88-64c-69.632 0-122.88 53.248-122.88 122.88s53.248 122.88 122.88 122.88 122.88-53.248 122.88-122.88-53.248-122.88-122.88-122.88zM122.88 124.416c-36.864 0-65.536-28.672-65.536-65.536s28.672-65.536 65.536-65.536 65.536 28.672 65.536 65.536-28.672 65.536-65.536 65.536z" />
<glyph unicode="&#xe91b;" glyph-name="baoxiao" d="M712.533 571.733c-162.133 0-298.667-132.267-298.667-298.667s132.267-298.667 298.667-298.667 298.667 132.267 298.667 298.667c4.267 166.4-132.267 298.667-298.667 298.667zM712.533 25.6c-136.533 0-247.467 110.933-247.467 247.467s110.933 247.467 247.467 247.467 247.467-110.933 247.467-247.467-110.933-247.467-247.467-247.467zM162.133 750.933h426.667v-68.267h-426.667v68.267zM162.133 576h341.333v-68.267h-341.333v68.267zM162.133 375.467h170.667v-68.267h-170.667v68.267zM371.2 59.733h-298.667v832h686.933v-238.933c17.067 0 55.467-4.267 72.533-4.267v277.333c0 17.067-17.067 34.133-34.133 34.133h-763.733c-17.067 0-34.133-17.067-34.133-34.133v-904.533c0-17.067 17.067-34.133 34.133-34.133h379.733c-17.067 21.333-29.867 55.467-42.667 72.533v0zM772.267 443.733h81.067l-89.6-153.6h64v-46.933h-76.8v-34.133h76.8v-46.933h-76.8v-64h-68.267v64h-81.067v46.933h81.067v34.133h-81.067v46.933h64l-85.333 149.333h72.533c34.133-68.267 55.467-115.2 64-136.533v0z" />
<glyph unicode="&#xe91c;" glyph-name="send" horiz-adv-x="1119" d="M470.861 126.131h-9.396l-7.626 7.243c-7.765 8.052-7.382 18.507-7.285 21.902 2.253 61.522 29.766 362.921 349.605 376.175v96.947c-0.427 5.549-0.268 17.929 8.313 27.715 9.882 11.259 25.78 13.9 44.14 5.891l4.241-1.874 179.58-195.208c3.639-4.236 18.884-23.321 18.884-45.644 0-23.369-18.932-43.269-22.718-47.007l-179.798-206.868c-4.657-4.99-15.678-15.069-29.967-15.069-11.124 0-20.995 6.238-26.418 16.645-3.736 7.145-5.464 16.151-5.464 28.311v117.455c-51.852 1.327-203.115-9.317-291.406-170.122-5.753-10.474-14.759-16.492-24.685-16.492v0 0zM779.478 357.032c19.82 0 32.169-1.734 32.699-1.776l18.982-2.709v-140.167l165.222 190.095c5.849 5.953 10.705 13.864 10.742 16.809 0 4.559-4.565 12.489-7.869 16.469l-158.986 172.793 0.098-120.822h-22.104c-227.804 0-297.692-154.999-318.828-260.624 95.601 115.904 223.847 129.932 280.044 129.932v0 0zM220.942 92.008c-34.135 0-61.843 27.702-61.843 61.837v587.48c0 34.137 27.708 61.868 61.843 61.868h587.474c34.136 0 61.839-27.708 61.839-61.868v-20.051l92.76-82.572v133.54c0 68.332-55.381 123.682-123.682 123.682h-649.318c-68.295 0-123.676-55.35-123.676-123.682v-649.281c0-68.337 55.381-123.712 123.676-123.712h185.519v-1.198h92.76v1.198h290.774l-92.791 92.76h-445.335zM290.492 614.848h310.871c19.288 0 34.947 15.658 34.947 34.953s-15.658 34.951-34.947 34.951h-310.871c-19.295 0-34.953-15.658-34.953-34.951 0.001-19.295 15.658-34.953 34.953-34.953zM290.492 460.61h209.705c19.288 0 34.947 15.658 34.947 34.953s-15.658 34.951-34.947 34.951h-209.705c-19.295 0-34.953-15.658-34.953-34.951 0.001-19.295 15.658-34.953 34.953-34.953zM290.492 306.372h73.082c19.288 0 34.947 15.658 34.947 34.953s-15.658 34.951-34.947 34.951h-73.082c-19.295 0-34.953-15.658-34.953-34.951 0.001-19.296 15.658-34.953 34.953-34.953z" />
<glyph unicode="&#xe91d;" glyph-name="sign" d="M206.813 565.017c-24.551 13.821-50.901 22.814-78.207 29.3-3.171 0.753-6.466 1.343-8.929 4.141-30.451 34.61-55.798 71.579-55.586 120.308 0.057 13.086 2.716 25.736 7.009 38.135 2.841 8.205 5.878 11.272 15.14 6.414 22.492-11.798 45.308-22.974 67.136-36.575 2.277 5.735-1.908 8.456-4.019 11.674-11.553 17.62-25.326 33.445-40.626 47.858-5.732 5.399-4.378 7.629 2.174 9.954 27.098 9.614 54.516 7.071 82 2.435 4.121-0.695 8.177-1.803 12.24-2.814 54.141-13.464 54.127-13.476 85.024-59.61 14.183-21.176 28.552-42.235 40.914-68.041 1.228 29.211-5.163 54.333-11.635 82.825 49.363-32.906 100.865-58.057 129.401-111.672 9.821 27.398 15.596 55.542 17.283 84.44 0.878 15.050 0.473 30.195 0.167 45.287-0.538 26.551 16.689 39.4 43.010 31.92 95.026-27.007 190.041-54.052 285.115-80.889 45.927-12.964 92.008-25.384 137.954-38.28 18.753-5.264 24.494-12.571 25.787-32.085 4.611-69.58-10.689-135.854-35.174-200.176-42.336-111.224-106.049-208.147-197.213-285.646-52.88-44.955-111.915-78.009-182.1-87.615-8.258-1.131-15.76 0.191-23.443 2.35-65.193 18.31-126.443 46.481-187.432 75.227-73.905 34.834-146.169 72.879-217.784 112.178-12.045 6.61-19.515 15.693-18.74 30.028 0.749 13.85 9.004 21.793 21.107 26.995 56.511 24.287 108.748 55.92 157.734 92.942 6.241 4.716 10.524 5.673 17.452 1.292 14.838-9.382 30.393-17.628 47.060-27.142-45.525-38.859-95.149-69.648-148.245-98.295 36.906-19.041 72.398-37.877 108.35-55.788 64.849-32.306 130.696-62.275 198.152-88.987 32.772-12.978 62.032-10.412 92.925 2.953 56.99 24.655 103.978 62.632 145.227 108.024 72.486 79.767 124.936 170.817 151.717 275.812 7.167 28.101 11.294 56.661 12.048 85.742 0.204 7.852-2.439 10.662-9.79 12.705-117.769 32.74-235.465 65.742-353.113 98.911-7.84 2.21-10.474 1.334-10.981-7.638-2.48-43.816-11.509-86.298-28.643-126.834-2.548-6.028-0.448-10.255 2.532-15.015 32.609-52.079 53.027-108.987 66.498-168.619 0.543-2.406 0.557-4.93 0.96-8.762-55.604 61.697-113.552 119.057-178.177 169.31-40.804 31.731-83.597 60.315-131.582 80.329-2.285 0.953-4.727 1.531-7.096 2.283-6.028 1.56-6.077 1.537-5.361-2.442 112.183-72.27 202.688-168.622 293.579-264.51 27.982-29.52 55.361-59.614 83.026-89.436 5.632-6.070 10.358-12.341 6.059-21.259-5.256-10.903-17.639-12.656-26.968-3.127-13.199 13.481-26.122 27.254-38.683 41.33-5.745 6.438-12.432 10.837-20.117 14.487-102.964 48.907-204.474 100.514-299.154 164.452-29.119 19.665-58.001 39.772-83.232 64.516 13.429 2.879 27.034 0.365 40.51 1.402 2.359 0.179 7.080-2.931 6.744 3.295z" />
<glyph unicode="&#xe91e;" glyph-name="travel" d="M741.981 609.047l127.923 196.334c0 0 42.565 56.194 16.956 84.392-25.568 28.159-81.622-21.445-81.622-21.445l-174.445-183.538-418.126 24.405-75.54-81.741 360.889-117.204-175.484-274.175c-4.694-6.061-9.019-12.019-12.714-17.833l-134.124 36.993-53.747-68.193 144.266-46.725 6.408-5.142 21.14-16.607 18.487-14.672 70.581-104.044 49.772 63.255-81.194 122.854c3.123 2.633 6.041 5.653 8.674 9.019l241.108 240.876 4.041-3.182 220.316-334.306 53.971 82.923-136.351 426.74-1.183 1.019z" />
<glyph unicode="&#xe91f;" glyph-name="clock-9" horiz-adv-x="901" d="M450.56 832c247.424 0 448-200.576 448-448s-200.576-448-448-448c-247.424 0-448 200.576-448 448s200.576 448 448 448v0zM450.56 24c198.824 0 360 161.178 360 360 0 198.824-161.176 360-360 360-198.822 0-360-161.176-360-360 0-198.822 161.178-360 360-360v0zM27.776 672.826c-16.042 28.052-25.216 60.542-25.216 95.174 0 106.040 85.96 192 192 192 61.818 0 116.802-29.222 151.92-74.596-131.884-27.236-245.206-105.198-318.704-212.578v0zM554.64 885.404c35.116 45.374 90.102 74.596 151.92 74.596 106.040 0 192-85.96 192-192 0-34.632-9.174-67.122-25.216-95.174-73.5 107.38-186.822 185.342-318.704 212.578zM483.84 640h-64v-320h64v320zM227.84 384h192v-64h-192v64z" />
<glyph unicode="&#xe920;" glyph-name="clock-6" horiz-adv-x="901" d="M450.56 832c247.424 0 448-200.576 448-448s-200.576-448-448-448c-247.424 0-448 200.576-448 448s200.576 448 448 448v0zM450.56 24c198.824 0 360 161.178 360 360 0 198.824-161.176 360-360 360-198.822 0-360-161.176-360-360 0-198.822 161.178-360 360-360v0zM27.776 672.826c-16.042 28.052-25.216 60.542-25.216 95.174 0 106.040 85.96 192 192 192 61.818 0 116.802-29.222 151.92-74.596-131.884-27.236-245.206-105.198-318.704-212.578v0zM554.64 885.404c35.116 45.374 90.102 74.596 151.92 74.596 106.040 0 192-85.96 192-192 0-34.632-9.174-67.122-25.216-95.174-73.5 107.38-186.822 185.342-318.704 212.578v0zM488.96 640h-64v-320h64v320zM424.96 320v-192h64v192h-64z" />
<glyph unicode="&#xe921;" glyph-name="overtime" d="M709.589 669.583l41.597 41.694-41.597 41.694-41.597-41.694 41.597-41.694zM64.418 478.975c0 232.438 188.444 420.882 420.901 420.882 229.851 0 416.655-184.234 420.825-413.065 21.275-12.006 41.045-26.368 58.946-42.734 0.83 11.528 1.26 23.174 1.26 34.912 0 265.671-215.363 481.030-481.030 481.030-265.666 0-481.024-215.363-481.024-481.030 0-265.661 215.358-481.024 481.024-481.024 6.524 0 13.018 0.131 19.483 0.391-15.776 18.399-29.492 38.609-40.82 60.269-222.541 11.113-399.563 195.064-399.563 420.369v0zM515.393 478.262v331.419c0 16.606-13.466 30.073-30.069 30.073-16.606 0-30.073-13.466-30.073-30.073v-301.35h-240.515c-16.603 0-30.050-13.468-30.050-30.069 0-16.606 13.448-30.074 30.050-30.074h270.587c16.603 0.001 30.069 13.473 30.069 30.074v0zM295.689 709.788l-42.51 42.509-42.529-42.509 42.529-42.53 42.51 42.53zM248.321 231.874l41.597 41.694-41.597 41.719-41.598-41.719 41.598-41.694zM748.584 478.228c-149.728 0-271.121-121.392-271.121-271.116 0-149.714 121.392-271.111 271.121-271.111 149.723 0 271.116 121.397 271.116 271.111-0.001 149.719-121.394 271.116-271.116 271.116v0zM748.584-22.298c-126.695 0-229.421 102.726-229.421 229.406 0 126.691 102.726 229.416 229.421 229.416 126.686 0 229.411-102.726 229.411-229.416 0-126.68-102.726-229.406-229.411-229.406v0zM886.988 225.224h-117.696v117.696h-36.212v-117.696h-117.696v-36.217h117.696v-117.691h36.212v117.691h117.696v36.217z" />
<glyph unicode="&#xe922;" glyph-name="bullhorn" d="M1024 530.744c0 200.926-58.792 363.938-131.482 365.226 0.292 0.006 0.578 0.030 0.872 0.030h-82.942c0 0-194.8-146.336-475.23-203.754-8.56-45.292-14.030-99.274-14.030-161.502s5.466-116.208 14.030-161.5c280.428-57.418 475.23-203.756 475.23-203.756h82.942c-0.292 0-0.578 0.024-0.872 0.032 72.696 1.288 131.482 164.298 131.482 365.224zM864.824 220.748c-9.382 0-19.532 9.742-24.746 15.548-12.63 14.064-24.792 35.96-35.188 63.328-23.256 61.232-36.066 143.31-36.066 231.124 0 87.81 12.81 169.89 36.066 231.122 10.394 27.368 22.562 49.266 35.188 63.328 5.214 5.812 15.364 15.552 24.746 15.552 9.38 0 19.536-9.744 24.744-15.552 12.634-14.064 24.796-35.958 35.188-63.328 23.258-61.23 36.068-143.312 36.068-231.122 0-87.804-12.81-169.888-36.068-231.124-10.39-27.368-22.562-49.264-35.188-63.328-5.208-5.806-15.36-15.548-24.744-15.548zM251.812 530.744c0 51.95 3.81 102.43 11.052 149.094-47.372-6.554-88.942-10.324-140.34-10.324-67.058 0-67.058 0-67.058 0l-55.466-94.686v-88.17l55.46-94.686c0 0 0 0 67.060 0 51.398 0 92.968-3.774 140.34-10.324-7.236 46.664-11.048 97.146-11.048 149.096zM368.15 317.828l-127.998 24.51 81.842-321.544c4.236-16.634 20.744-25.038 36.686-18.654l118.556 47.452c15.944 6.376 22.328 23.964 14.196 39.084l-123.282 229.152zM864.824 411.27c-3.618 0-7.528 3.754-9.538 5.992-4.87 5.42-9.556 13.86-13.562 24.408-8.962 23.6-13.9 55.234-13.9 89.078s4.938 65.478 13.9 89.078c4.006 10.548 8.696 18.988 13.562 24.408 2.010 2.24 5.92 5.994 9.538 5.994 3.616 0 7.53-3.756 9.538-5.994 4.87-5.42 9.556-13.858 13.56-24.408 8.964-23.598 13.902-55.234 13.902-89.078 0-33.842-4.938-65.478-13.902-89.078-4.004-10.548-8.696-18.988-13.56-24.408-2.008-2.238-5.92-5.992-9.538-5.992z" />
<glyph unicode="&#xe925;" glyph-name="files-empty" d="M917.806 602.924c-22.21 30.292-53.174 65.7-87.178 99.704s-69.412 64.964-99.704 87.178c-51.574 37.82-76.592 42.194-90.924 42.194h-368c-44.114 0-80-35.888-80-80v-736c0-44.112 35.886-80 80-80h608c44.112 0 80 35.888 80 80v496c0 14.332-4.372 39.35-42.194 90.924zM785.374 657.374c30.7-30.7 54.8-58.398 72.58-81.374h-153.954v153.946c22.982-17.78 50.678-41.878 81.374-72.572v0zM896 16c0-8.672-7.328-16-16-16h-608c-8.672 0-16 7.328-16 16v736c0 8.672 7.328 16 16 16 0 0 367.956 0.002 368 0v-224c0-17.672 14.324-32 32-32h224v-496zM602.924 917.804c-51.574 37.822-76.592 42.196-90.924 42.196h-368c-44.112 0-80-35.888-80-80v-736c0-38.632 27.528-70.958 64-78.39v814.39c0 8.672 7.328 16 16 16h486.876c-9.646 7.92-19.028 15.26-27.952 21.804z" />
<glyph unicode="&#xe926;" glyph-name="file-text2" d="M917.806 730.924c-22.212 30.292-53.174 65.7-87.178 99.704s-69.412 64.964-99.704 87.178c-51.574 37.82-76.592 42.194-90.924 42.194h-496c-44.112 0-80-35.888-80-80v-864c0-44.112 35.888-80 80-80h736c44.112 0 80 35.888 80 80v624c0 14.332-4.372 39.35-42.194 90.924zM785.374 785.374c30.7-30.7 54.8-58.398 72.58-81.374h-153.954v153.946c22.984-17.78 50.678-41.878 81.374-72.572zM896 16c0-8.672-7.328-16-16-16h-736c-8.672 0-16 7.328-16 16v864c0 8.672 7.328 16 16 16 0 0 495.956 0.002 496 0v-224c0-17.672 14.326-32 32-32h224v-624zM736 128h-448c-17.672 0-32 14.326-32 32s14.328 32 32 32h448c17.674 0 32-14.326 32-32s-14.326-32-32-32zM736 256h-448c-17.672 0-32 14.326-32 32s14.328 32 32 32h448c17.674 0 32-14.326 32-32s-14.326-32-32-32zM736 384h-448c-17.672 0-32 14.326-32 32s14.328 32 32 32h448c17.674 0 32-14.326 32-32s-14.326-32-32-32z" />
<glyph unicode="&#xe942;" glyph-name="phone" d="M704 320c-64-64-64-128-128-128s-128 64-192 128-128 128-128 192 64 64 128 128-128 256-192 256-192-192-192-192c0-128 131.5-387.5 256-512s384-256 512-256c0 0 192 128 192 192s-192 256-256 192z" />
<glyph unicode="&#xe948;" glyph-name="location2" d="M512 960c-176.732 0-320-143.268-320-320 0-320 320-704 320-704s320 384 320 704c0 176.732-143.27 320-320 320zM512 444c-108.248 0-196 87.752-196 196s87.752 196 196 196 196-87.752 196-196-87.752-196-196-196zM388 640c0 68.483 55.517 124 124 124s124-55.517 124-124c0-68.483-55.517-124-124-124s-124 55.517-124 124z" />
<glyph unicode="&#xe971;" glyph-name="user2" d="M576 253.388v52.78c70.498 39.728 128 138.772 128 237.832 0 159.058 0 288-192 288s-192-128.942-192-288c0-99.060 57.502-198.104 128-237.832v-52.78c-217.102-17.748-384-124.42-384-253.388h896c0 128.968-166.898 235.64-384 253.388z" />
<glyph unicode="&#xea0a;" glyph-name="plus" d="M992 576h-352v352c0 17.672-14.328 32-32 32h-192c-17.672 0-32-14.328-32-32v-352h-352c-17.672 0-32-14.328-32-32v-192c0-17.672 14.328-32 32-32h352v-352c0-17.672 14.328-32 32-32h192c17.672 0 32 14.328 32 32v352h352c17.672 0 32 14.328 32 32v192c0 17.672-14.328 32-32 32z" />
<glyph unicode="&#xea10;" glyph-name="checkmark" d="M864 832l-480-480-224 224-160-160 384-384 640 640z" />
<glyph unicode="&#xea11;" glyph-name="checkmark2" d="M397.434 42.304l-397.868 391.6 197.378 194.27 200.49-197.332 429.62 422.852 197.378-194.27-626.998-617.12zM107.912 433.904l289.524-284.962 518.656 510.482-89.036 87.632-429.62-422.852-200.49 197.334-89.034-87.634z" />
<glyph unicode="&#xea14;" glyph-name="exit" d="M768 320v128h-320v128h320v128l192-192zM704 384v-256h-320v-192l-384 192v832h704v-320h-64v256h-512l256-128v-576h256v192z" />
<glyph unicode="&#xea1c;" glyph-name="play3" d="M192 832l640-384-640-384z" />
<glyph unicode="&#xea42;" glyph-name="circle-right" d="M512 960c-282.77 0-512-229.23-512-512s229.23-512 512-512 512 229.23 512 512-229.23 512-512 512zM512 32c-229.75 0-416 186.25-416 416s186.25 416 416 416 416-186.25 416-416-186.25-416-416-416zM354.744 253.256l90.512-90.512 285.254 285.256-285.256 285.254-90.508-90.508 194.744-194.746z" />
<glyph unicode="&#xea44;" glyph-name="circle-left" d="M512-64c282.77 0 512 229.23 512 512s-229.23 512-512 512-512-229.23-512-512 229.23-512 512-512zM512 864c229.75 0 416-186.25 416-416s-186.25-416-416-416-416 186.25-416 416 186.25 416 416 416zM669.256 642.744l-90.512 90.512-285.254-285.256 285.256-285.254 90.508 90.508-194.744 194.746z" />
<glyph unicode="&#xea7d;" glyph-name="share" d="M256 320c0 0 58.824 192 384 192v-192l384 256-384 256v-192c-256 0-384-159.672-384-320zM704 192h-576v384h125.876c10.094 11.918 20.912 23.334 32.488 34.18 43.964 41.19 96.562 72.652 156.114 93.82h-442.478v-640h832v268.624l-128-85.334v-55.29z" />
</font>
</defs>
</svg>
